<svg xmlns="http://www.w3.org/2000/svg" width="115.667" height="110.89" viewBox="0 0 115.667 110.89"><g transform="translate(-16 -25.912)"><path d="M78.613,33.947H89.827a11.981,11.981,0,0,1,11.95,11.95V62.125a21.953,21.953,0,0,1,11.391,33.333,3.269,3.269,0,0,1,.7,2.581l4.5,5.305a3.336,3.336,0,0,1,3.384,1.091l8.924,10.6h.006a4.217,4.217,0,0,1-.518,5.944v.006l-3.713,3.116a4.227,4.227,0,0,1-5.953-.522l-8.922-10.6,0,0a3.348,3.348,0,0,1-.466-3.578l-4.494-5.3a3.272,3.272,0,0,1-2.383-1.135,21.831,21.831,0,0,1-2.45.95v20.935a11.981,11.981,0,0,1-11.95,11.95H27.95A11.981,11.981,0,0,1,16,124.852V45.9a11.981,11.981,0,0,1,11.95-11.95H39.164V32.561A1.539,1.539,0,0,1,40.7,31.022h8.728c1.454-3.4,5.637-5.11,9.457-5.11s8,1.715,9.457,5.11h8.728a1.539,1.539,0,0,1,1.539,1.539v1.386Z" fill-rule="evenodd"/><path d="M69.477,99.19H58.263a2.337,2.337,0,0,0-2.326,2.326v78.955a2.337,2.337,0,0,0,2.326,2.326H120.14a2.337,2.337,0,0,0,2.326-2.326V160.38q-.644-.087-1.283-.212a21.837,21.837,0,0,1-12.469-7.3l-.016-.015h0l-.086-.1a21.914,21.914,0,0,1,2.562-30.8l.016-.017h0a21.852,21.852,0,0,1,11.272-5.038V101.516a2.337,2.337,0,0,0-2.326-2.326H108.926v1.354a1.539,1.539,0,0,1-1.539,1.539H71.016a1.539,1.539,0,0,1-1.539-1.539V99.19Zm18.484,8.044a1.536,1.536,0,0,1,2.481,0q24.451,27.382.3,43.069v4.541a1.539,1.539,0,0,1-3.079,0V150.3q-24.153-15.687.3-43.07Zm-23.75,57.2a1.539,1.539,0,1,1,0-3.079h.468a1.539,1.539,0,1,1,0,3.079Zm6.005,0a1.539,1.539,0,1,1,0-3.079h43.976a1.539,1.539,0,1,1,0,3.079ZM64.211,174.7a1.539,1.539,0,1,1,0-3.079h.468a1.539,1.539,0,1,1,0,3.079Zm6.005,0a1.539,1.539,0,1,1,0-3.079h43.976a1.539,1.539,0,1,1,0,3.079Z" transform="translate(-30.313 -55.62)" fill="#e6e6e6" fill-rule="evenodd"/><path d="M71.513,99.191H60.3a2.321,2.321,0,0,0-1.68.723A55.045,55.045,0,0,0,77.8,133.787Q76.569,122.276,90,107.236a1.536,1.536,0,0,1,2.481,0q20.444,22.895,6.906,37.612a54.954,54.954,0,0,0,7.463,1.364,21.927,21.927,0,0,1,6.364-24.26l.016-.017h0A21.853,21.853,0,0,1,124.5,116.9V101.517a2.337,2.337,0,0,0-2.326-2.326H110.963v1.354a1.539,1.539,0,0,1-1.539,1.539H73.053a1.539,1.539,0,0,1-1.539-1.539V99.191Z" transform="translate(-32.35 -55.621)" fill="#fff" fill-rule="evenodd"/><path d="M283.45,222.327c.044,0,.087,0,.13.009a18.823,18.823,0,0,0,10.044-2.141,1.536,1.536,0,0,1,1.958.456l.673.8a.241.241,0,0,0,.3.027l3.818-3.208h0c.208-.208.253-.214.033-.5l-.647-.77a1.533,1.533,0,0,1-.037-1.926l0,0a18.859,18.859,0,1,0-29.442.482,1.5,1.5,0,0,1,.177.211,18.858,18.858,0,0,0,13,6.566ZM273.8,192.372a15.78,15.78,0,1,1,0,22.317A15.78,15.78,0,0,1,273.8,192.372Z" transform="translate(-189.716 -120.494)" fill="#f2aa24" fill-rule="evenodd"/><path d="M303.429,200.49a18.866,18.866,0,1,0-35.78,10.879q1.393.07,2.8.071c.281,0,.561-.007.841-.011A15.782,15.782,0,1,1,300.7,202.4q1.394-.917,2.729-1.911Z" transform="translate(-189.716 -120.495)" fill="#ffc447" fill-rule="evenodd"/><path d="M104.929,139.963v19.9a5.416,5.416,0,0,1-5.405,5.4H37.647a5.417,5.417,0,0,1-5.405-5.4V80.9a5.417,5.417,0,0,1,5.405-5.4H48.861V72.032H37.647A8.9,8.9,0,0,0,28.776,80.9v78.955a8.9,8.9,0,0,0,8.871,8.871H99.524a8.9,8.9,0,0,0,8.871-8.871V139.667a21.957,21.957,0,0,1-3.466.3Z" transform="translate(-9.697 -35.006)" fill="#6db2e3" fill-rule="evenodd"/><path d="M56.238,75.921a5.364,5.364,0,0,1,2.091-.422H69.542V72.032H58.328a8.8,8.8,0,0,0-2.305.307q.05,1.806.214,3.582Z" transform="translate(-30.379 -35.006)" fill="#8cccfe" fill-rule="evenodd"/><path d="M275.834,75.5h11.214a5.416,5.416,0,0,1,5.4,5.4V96.09a21.9,21.9,0,0,1,3.466.3V80.9a8.9,8.9,0,0,0-8.871-8.871H275.834V75.5Z" transform="translate(-197.221 -35.007)" fill="#8cccfe" fill-rule="evenodd"/><path d="M133.216,43.8H124.9v9.285h33.292V43.8h-8.315v-.006a1.534,1.534,0,0,1-1.509-1.263c-.612-3.393-7.343-5.2-11.569-2.612a4.207,4.207,0,0,0-2.055,2.508,1.54,1.54,0,0,1-1.53,1.373Z" transform="translate(-82.659 -9.698)" fill="#5aa1d8" fill-rule="evenodd"/><circle cx="12.702" cy="12.702" r="12.702" transform="translate(82.542 70.334)" fill="#96c9f2"/><g transform="translate(48.69 56.703)"><path d="M304.84,210.258a12.7,12.7,0,0,0-10.078,20.433,54.776,54.776,0,0,0,22.757-6.986c.014-.247.022-.495.022-.745A12.7,12.7,0,0,0,304.84,210.258Z" transform="translate(-258.286 -196.626)" fill="#b9e0ff" fill-rule="evenodd"/><path d="M206.6,193.631l-6.229,6.229v7.114l8.11-8.11a27.057,27.057,0,0,0-1.881-5.232Z" transform="translate(-188.631 -184.006)" fill="#5cab45" fill-rule="evenodd"/><path d="M162.046,199.859l-6.229-6.229a27.06,27.06,0,0,0-1.881,5.233l8.11,8.11Z" transform="translate(-153.387 -184.005)" fill="#5cab45" fill-rule="evenodd"/><path d="M167.983,160.465l4.725,4.725v-11.5a54.854,54.854,0,0,0-4.725,6.775Z" transform="translate(-164.049 -153.69)" fill="#5cab45" fill-rule="evenodd"/><path d="M200.368,165.189l4.725-4.725a54.85,54.85,0,0,0-4.725-6.775v11.5Z" transform="translate(-188.63 -153.688)" fill="#5cab45" fill-rule="evenodd"/><path d="M209.015,231.182l-8.647,8.647v6.921Q209.349,240.144,209.015,231.182Z" transform="translate(-188.63 -212.508)" fill="#4c9137" fill-rule="evenodd"/><path d="M209.015,231.182l-8.647,8.647v3.057q1.574.624,3.2,1.151Q209.282,238.366,209.015,231.182Z" transform="translate(-188.63 -212.508)" fill="#5cab45" fill-rule="evenodd"/><path d="M160.317,239.829l-8.647-8.647q-.332,8.961,8.647,15.568Z" transform="translate(-151.658 -212.508)" fill="#4c9137" fill-rule="evenodd"/><path d="M160.317,239.829l-8.647-8.647a15.8,15.8,0,0,0,.887,5.924,55.088,55.088,0,0,0,7.761,4.446Z" transform="translate(-151.658 -212.508)" fill="#5cab45" fill-rule="evenodd"/><path d="M427.259,359.648l-5.068,4.252,0,0a.284.284,0,0,0-.027.377l0,0,8.924,10.6a1.181,1.181,0,0,0,1.635.137l3.713-3.116,0,0a1.17,1.17,0,0,0,.13-1.625l0,0-8.922-10.6A.291.291,0,0,0,427.259,359.648Z" transform="translate(-356.933 -309.972)" fill="#f2aa24" fill-rule="evenodd"/><path d="M407.756,342.537l2.539-2.131-3.764-4.442-2.538,2.133Z" transform="translate(-343.188 -292.04)" fill="#f2aa24" fill-rule="evenodd"/></g></g></svg>