<svg xmlns="http://www.w3.org/2000/svg" width="71" height="65.453" viewBox="0 0 71 65.453"><g transform="translate(0 -20)"><g transform="translate(1.387 21.387)"><g transform="translate(23.696 48.813)"><path d="M201.71,389.766H180.875L182.886,382H199.7Z" transform="translate(-180.875 -382)" fill="#8aa8bd"/></g><g transform="translate(18.027 56.578)"><path d="M169.121,444.1h-26.07a3.051,3.051,0,0,1,0-6.1h26.07a3.051,3.051,0,0,1,0,6.1Z" transform="translate(-140 -438)" fill="#e2e9ee"/></g><path d="M72.68,78.813H15.547A5.547,5.547,0,0,1,10,73.266V35.547A5.547,5.547,0,0,1,15.547,30H72.68a5.547,5.547,0,0,1,5.547,5.547V73.266A5.547,5.547,0,0,1,72.68,78.813Z" transform="translate(-10 -30)" fill="#99ebfa"/><g transform="translate(0 38.828)"><path d="M78.227,310v4.438a5.547,5.547,0,0,1-5.547,5.547H15.547A5.547,5.547,0,0,1,10,314.438V310Z" transform="translate(-10 -310)" fill="#e2e9ee"/></g><g transform="translate(0 31.747)"><path d="M11.092,279.569a3.727,3.727,0,0,1,0-5.271l15.36-15.36,5.271,5.271-15.36,15.36A3.727,3.727,0,0,1,11.092,279.569Z" transform="translate(-10 -258.938)" fill="#ffcd69"/></g><g transform="translate(11.314 11.464)"><circle cx="15.346" cy="15.346" r="15.346" fill="#fff"/></g><g transform="translate(16.985 20.94)"><ellipse cx="9.675" cy="5.87" rx="9.675" ry="5.87" fill="#ccf5fc"/></g><g transform="translate(23.008 23.158)"><circle cx="3.652" cy="3.652" r="3.652" fill="#ff7b79"/></g></g><g transform="translate(0 20)"><path d="M64.066,20H41.74a1.387,1.387,0,0,0,0,2.773H64.066a4.165,4.165,0,0,1,4.16,4.16V58.722H41.045a16.73,16.73,0,1,0-27.878-2.877l-2.983,2.983H2.773V26.934a4.165,4.165,0,0,1,4.16-4.16H29.26a1.387,1.387,0,0,0,0-2.773H6.934A6.941,6.941,0,0,0,0,26.934V64.652a6.962,6.962,0,0,0,.953,3.505A5.114,5.114,0,0,0,8.73,74.746l3.16-3.16H25.3l-1.293,4.992H22.465a4.438,4.438,0,1,0,0,8.875h26.07a4.438,4.438,0,0,0,0-8.875H46.991L45.7,71.586H64.066A6.941,6.941,0,0,0,71,64.652V26.934A6.941,6.941,0,0,0,64.066,20ZM28.047,34.237A13.96,13.96,0,1,1,14.087,48.2a13.975,13.975,0,0,1,13.96-13.96ZM7.41,61.6,3,66.012a4.154,4.154,0,0,1-.226-1.36V61.6ZM6.769,72.785a2.34,2.34,0,1,1-3.31-3.31L14.681,58.252a16.872,16.872,0,0,0,3.31,3.31ZM50.2,81.016a1.666,1.666,0,0,1-1.664,1.664H22.465a1.664,1.664,0,1,1,0-3.328h26.07A1.666,1.666,0,0,1,50.2,81.016Zm-6.073-4.437H26.874l1.293-4.992H42.834Zm19.94-7.766h-49.4L20.4,63.077A16.7,16.7,0,0,0,38.19,61.5H68.227v3.157A4.165,4.165,0,0,1,64.066,68.813Z" transform="translate(0 -20)"/><path d="M133.546,185.515a12.265,12.265,0,0,0,10.9-6.615,1.387,1.387,0,0,0,0-1.283,12.294,12.294,0,0,0-21.809,0,1.387,1.387,0,0,0,0,1.283,12.266,12.266,0,0,0,10.9,6.615Zm0-9.522a2.265,2.265,0,1,1-2.265,2.265A2.268,2.268,0,0,1,133.546,175.993Zm8.079,2.265a9.5,9.5,0,0,1-4.977,3.966,5.03,5.03,0,0,0,0-7.933A9.5,9.5,0,0,1,141.625,178.258Zm-11.181-3.966a5.03,5.03,0,0,0,0,7.933,9.5,9.5,0,0,1-4.977-3.966A9.5,9.5,0,0,1,130.444,174.292Z" transform="translate(-105.499 -150.061)"/><path d="M347.4,134.544a1.387,1.387,0,0,0,1.387,1.387h13.951a1.387,1.387,0,0,0,0-2.773H348.783A1.387,1.387,0,0,0,347.4,134.544Z" transform="translate(-299.222 -117.465)"/><path d="M399.524,87.93a1.387,1.387,0,0,0,0-2.773H391.5a1.387,1.387,0,0,0,0,2.773Z" transform="translate(-336.012 -76.122)"/><path d="M347.945,85.16a1.39,1.39,0,1,0,.98.406A1.4,1.4,0,0,0,347.945,85.16Z" transform="translate(-298.502 -76.124)"/><path d="M450.367,183.528a1.386,1.386,0,1,0-.98.406A1.4,1.4,0,0,0,450.367,183.528Z" transform="translate(-385.875 -158.813)"/><path d="M399.087,183.933a1.387,1.387,0,1,0-.98-.406A1.4,1.4,0,0,0,399.087,183.933Z" transform="translate(-342.55 -158.812)"/><path d="M349.767,183.528a1.387,1.387,0,1,0-.98.406A1.4,1.4,0,0,0,349.767,183.528Z" transform="translate(-299.225 -158.813)"/><path d="M348.783,231.93h4.452a1.387,1.387,0,0,0,0-2.773h-4.452a1.387,1.387,0,0,0,0,2.773Z" transform="translate(-299.222 -200.153)"/><path d="M423.5,230.544a1.387,1.387,0,0,0,1.387,1.387h4.568a1.387,1.387,0,0,0,0-2.773h-4.568A1.387,1.387,0,0,0,423.5,230.544Z" transform="translate(-364.772 -200.153)"/><path d="M247.387,22.773a1.387,1.387,0,1,0-.98-.406A1.4,1.4,0,0,0,247.387,22.773Z" transform="translate(-211.887 -20)"/></g></g></svg>