<svg xmlns="http://www.w3.org/2000/svg" width="72" height="72" viewBox="0 0 72 72"><g transform="translate(-1 -1)"><path d="M8,12v4.645a13.935,13.935,0,1,0,27.871,0V12" transform="translate(1.129 1.774)" fill="#9db5be"/><path d="M20.194,30.46A13.929,13.929,0,0,0,32.387,16.645V12H8v4.645A13.928,13.928,0,0,0,20.194,30.46Z" transform="translate(1.129 1.774)" fill="#d1f2fd"/><circle cx="5" cy="5" r="5" transform="translate(18 18)" fill="#f7c77a"/><path d="M6,8H38.516v4.645H6Z" transform="translate(0.806 1.129)" fill="#65676e"/><path d="M6,8H35.032v4.645H6Z" transform="translate(0.806 1.129)" fill="#868992"/><path d="M48,8H61.935v4.645H48Z" transform="translate(7.581 1.129)" fill="#65676e"/><path d="M48,8H58.452v4.645H48Z" transform="translate(7.581 1.129)" fill="#868992"/><path d="M2,2H71.677V8.968H2Z" transform="translate(0.161 0.161)" fill="#868992"/><path d="M2,2H68.194V8.968H2Z" transform="translate(0.161 0.161)" fill="#b3b6c2"/><path d="M58.065,68.129H39.484A3.484,3.484,0,0,1,36,64.645V27.484A3.484,3.484,0,0,1,39.484,24H58.065a3.484,3.484,0,0,1,3.484,3.484V64.645A3.484,3.484,0,0,1,58.065,68.129Z" transform="translate(5.645 3.71)" fill="#63afe3"/><path d="M40,37.484A11.213,11.213,0,0,0,47.929,34.2l.2-.2.2.2a11.213,11.213,0,0,0,7.929,3.284,22.43,22.43,0,0,1-6.569,15.86l-1.56,1.56-1.56-1.56A22.43,22.43,0,0,1,40,37.484Z" transform="translate(6.29 5.323)" fill="#d1f2fd"/><circle cx="2.5" cy="2.5" r="2.5" transform="translate(52 47)" fill="#f7c77a"/><path d="M39,24l4.645,4.645h9.29L57.581,24Z" transform="translate(6.129 3.71)" fill="#a1a1aa"/><path d="M39,24l4.645,4.645h5.806L54.1,24Z" transform="translate(6.129 3.71)" fill="#d7d7e2"/><path d="M42,62.645V60.323A2.322,2.322,0,0,1,44.323,58H51.29a2.322,2.322,0,0,1,2.323,2.323v2.323" transform="translate(6.613 9.194)" fill="#a1a1aa"/><path d="M47.806,58H44.323A2.322,2.322,0,0,0,42,60.323v2.323h8.129V60.323A2.322,2.322,0,0,0,47.806,58Z" transform="translate(6.613 9.194)" fill="#d7d7e2"/><path d="M71.839,10.29H2.161A1.161,1.161,0,0,1,1,9.129V2.161A1.161,1.161,0,0,1,2.161,1H71.839A1.161,1.161,0,0,1,73,2.161V9.129A1.161,1.161,0,0,1,71.839,10.29ZM3.323,7.968H70.677V3.323H3.323Z"/><path d="M38.677,13.806H6.161A1.161,1.161,0,0,1,5,12.645V8H7.323v3.484H37.516V8h2.323v4.645A1.161,1.161,0,0,1,38.677,13.806Z" transform="translate(0.645 1.129)"/><path d="M22.1,31.742A15.114,15.114,0,0,1,7,16.645V12H9.323v4.645a12.774,12.774,0,0,0,25.548,0V12h2.323v4.645A15.114,15.114,0,0,1,22.1,31.742Z" transform="translate(0.968 1.774)"/><path d="M20.806,26.613a5.806,5.806,0,1,1,5.806-5.806A5.813,5.813,0,0,1,20.806,26.613Zm0-9.29a3.484,3.484,0,1,0,3.484,3.484A3.488,3.488,0,0,0,20.806,17.323Z" transform="translate(2.258 2.258)"/><path d="M19,19h2.323v2.323H19Z" transform="translate(2.903 2.903)"/><path d="M62.1,13.806H48.161A1.161,1.161,0,0,1,47,12.645V8h2.323v3.484H60.935V8h2.323v4.645A1.161,1.161,0,0,1,62.1,13.806Z" transform="translate(7.419 1.129)"/><path d="M50.581,20.129H32V17.806H50.581a3.488,3.488,0,0,0,3.484-3.484V12h2.323v2.323A5.813,5.813,0,0,1,50.581,20.129Z" transform="translate(5 1.774)"/><path d="M58.226,69.452H39.645A4.65,4.65,0,0,1,35,64.806V27.645A4.65,4.65,0,0,1,39.645,23H58.226a4.65,4.65,0,0,1,4.645,4.645V64.806A4.65,4.65,0,0,1,58.226,69.452ZM39.645,25.323a2.325,2.325,0,0,0-2.323,2.323V64.806a2.325,2.325,0,0,0,2.323,2.323H58.226a2.325,2.325,0,0,0,2.323-2.323V27.645a2.325,2.325,0,0,0-2.323-2.323Z" transform="translate(5.484 3.548)"/><path d="M53.05,29.92h-9.29a1.156,1.156,0,0,1-.821-.34l-4.645-4.645,1.642-1.642,4.3,4.3h8.329l4.3-4.3,1.642,1.642L53.871,29.58a1.156,1.156,0,0,1-.821.34Z" transform="translate(6.015 3.596)"/><path d="M54.935,62.806H52.613V60.484a1.162,1.162,0,0,0-1.161-1.161H44.484a1.162,1.162,0,0,0-1.161,1.161v2.323H41V60.484A3.488,3.488,0,0,1,44.484,57h6.968a3.488,3.488,0,0,1,3.484,3.484Z" transform="translate(6.452 9.032)"/><path d="M48.29,56.226a1.158,1.158,0,0,1-.821-.34l-1.56-1.56A23.435,23.435,0,0,1,39,37.645a1.16,1.16,0,0,1,1.161-1.161A9.987,9.987,0,0,0,47.27,33.54l.2-.2a1.16,1.16,0,0,1,1.642,0l.2.2a9.987,9.987,0,0,0,7.108,2.944,1.16,1.16,0,0,1,1.161,1.161,23.435,23.435,0,0,1-6.91,16.681l-1.56,1.56a1.158,1.158,0,0,1-.821.34ZM41.35,38.751a21.11,21.11,0,0,0,6.2,13.933l.739.739.739-.739a21.121,21.121,0,0,0,6.2-13.933,12.279,12.279,0,0,1-6.94-2.987,12.271,12.271,0,0,1-6.94,2.987Z" transform="translate(6.129 5.161)"/><path d="M47.484,46.968a3.484,3.484,0,1,1,3.484-3.484A3.488,3.488,0,0,1,47.484,46.968Zm0-4.645a1.161,1.161,0,1,0,1.161,1.161A1.162,1.162,0,0,0,47.484,42.323Z" transform="translate(6.935 6.29)"/><path d="M20.465,35.311a4.741,4.741,0,0,1-3.349-1.369l1.63-1.654a2.519,2.519,0,0,0,3.436,0l1.63,1.654a4.736,4.736,0,0,1-3.348,1.369Z" transform="translate(2.599 5.046)"/><path d="M20.934,39.556a9.521,9.521,0,0,1-6.727-2.748l1.63-1.654a7.288,7.288,0,0,0,10.194,0l1.63,1.654A9.521,9.521,0,0,1,20.934,39.556Z" transform="translate(2.13 5.509)"/><path d="M21.4,43.8A14.305,14.305,0,0,1,11.3,39.676l1.63-1.654a12.114,12.114,0,0,0,16.95,0l1.63,1.654A14.305,14.305,0,0,1,21.4,43.8Z" transform="translate(1.661 5.971)"/></g></svg>