<svg xmlns="http://www.w3.org/2000/svg" xmlns:xlink="http://www.w3.org/1999/xlink" width="190" height="115" viewBox="0 0 190 115"><defs><clipPath id="a"><rect width="136.977" height="91.297" fill="none"/></clipPath></defs><g transform="translate(-285 -2066.334)"><g transform="translate(-0.012 617.642)"><rect width="190" height="115" rx="13" transform="translate(285.012 1448.692)" fill="#f3fcf7"/></g><g transform="translate(312.646 2075.006)"><rect width="71.124" height="59.836" transform="translate(0 20.946)" fill="#e4f7c9"/><g clip-path="url(#a)"><path d="M432.528,59.8h0l-12.508-.111a.11.11,0,0,1,0-.22h0l12.508.111a.11.11,0,0,1,0,.22" transform="translate(-348.516 -49.356)"/><path d="M358.873,31.774a5.86,5.86,0,1,1-5.86-5.86,5.86,5.86,0,0,1,5.86,5.86" transform="translate(-288.13 -21.508)" fill="#85e5aa"/><path d="M364.7,48.843h0a.275.275,0,0,1-.227-.123l-2.317-3.481a.275.275,0,0,1,.458-.3l2.091,3.141,3.747-5.512a.275.275,0,0,1,.455.309l-3.977,5.85a.275.275,0,0,1-.227.12" transform="translate(-300.544 -35.228)" fill="#fff"/><path d="M230.6,60.365H208.443a.11.11,0,0,1,0-.22H230.6a.11.11,0,1,1,0,.22" transform="translate(-172.912 -49.919)"/><path d="M223.987,73.291H208.443a.11.11,0,0,1,0-.22h15.544a.11.11,0,1,1,0,.22" transform="translate(-172.912 -60.647)"/><path d="M188.88,86.217H166.144a.11.11,0,0,1,0-.22H188.88a.11.11,0,1,1,0,.22" transform="translate(-137.804 -71.376)"/><path d="M66.592,442.193l-4-19.352H39.431l-3.984,19.352Z" transform="translate(-29.42 -350.948)" fill="#bceb79"/><path d="M85.388,503.8a.11.11,0,0,1-.109-.1l-.032-.264c-.159-1.289-.454-3.688-1.185-4.629a5.491,5.491,0,0,0-2.455-1.505l-.224-.089a.11.11,0,1,1,.082-.2l.224.089a5.65,5.65,0,0,1,2.548,1.575c.767.989,1.067,3.427,1.229,4.737l.033.263a.11.11,0,0,1-.1.123h-.014" transform="translate(-67.488 -412.503)"/><path d="M128.927,225.675l5.94-10.213,5.914,1.763-4.208,7.222Z" transform="translate(-107.007 -178.828)" fill="#fff"/><path d="M128.391,225.248a.11.11,0,0,1-.1-.165l5.94-10.213a.111.111,0,0,1,.126-.05l5.914,1.763a.11.11,0,0,1,.063.161l-4.208,7.222a.109.109,0,0,1-.078.053l-7.646,1.228h-.017m5.991-10.193-5.78,9.938,7.366-1.183,4.111-7.056Z" transform="translate(-106.47 -178.292)"/><path d="M153.112,163.768s-4.68-4.045-8.712-.816c-3.646,2.919-.8,7.675.759,8.827Z" transform="translate(-118.375 -134.209)" fill="#fff"/><path d="M144.622,171.369a.11.11,0,0,1-.065-.022,7.483,7.483,0,0,1-2.579-5.233,4.529,4.529,0,0,1,1.816-3.768,5.9,5.9,0,0,1,5.974-.82,10.268,10.268,0,0,1,2.878,1.639.109.109,0,0,1,.038.079.111.111,0,0,1-.031.082l-7.953,8.011a.11.11,0,0,1-.078.032m2.713-10.067a5.318,5.318,0,0,0-3.4,1.216,4.318,4.318,0,0,0-1.734,3.592,7.4,7.4,0,0,0,2.414,5l7.8-7.856a8.961,8.961,0,0,0-5.076-1.955" transform="translate(-117.838 -133.689)"/><path d="M166.68,155.061s6.526-10.2,9.587-8.422-4.157,6.047-4.157,6.047Z" transform="translate(-138.341 -121.535)" fill="#fff"/><path d="M166.143,154.639a.11.11,0,0,1-.093-.169c.269-.42,6.618-10.27,9.736-8.457a1.4,1.4,0,0,1,.811,1.217c.007,2.056-4.764,4.9-4.967,5.02l-.012.006-5.431,2.375a.111.111,0,0,1-.044.009m8.779-8.633c-2.813,0-7.461,6.738-8.483,8.274l5.085-2.224c.191-.114,4.86-2.926,4.853-4.826a1.182,1.182,0,0,0-.7-1.028,1.473,1.473,0,0,0-.753-.2" transform="translate(-137.804 -121.003)"/><path d="M175.828,181.4s2.971,5.27.276,7.718a3.754,3.754,0,0,1-5.922-.72s-1.57-4.841,5.646-7" transform="translate(-141.128 -150.559)" fill="#fff"/><path d="M172.866,189.83a3.893,3.893,0,0,1-3.334-1.928,4.746,4.746,0,0,1,.415-3.46c.867-1.652,2.651-2.891,5.3-3.684a.11.11,0,0,1,.127.051c.123.218,2.983,5.375.254,7.853a4.048,4.048,0,0,1-2.763,1.167M175.226,181c-2.545.775-4.255,1.969-5.085,3.549a4.6,4.6,0,0,0-.4,3.284,3.56,3.56,0,0,0,2.348,1.693,3.663,3.663,0,0,0,3.4-1.02c2.426-2.2.092-6.85-.256-7.505" transform="translate(-140.579 -150.022)"/><path d="M153.152,172.2a.633.633,0,0,0,.364.3,1.306,1.306,0,0,0,1.155-.316,3.85,3.85,0,0,0,.659-.6A1.927,1.927,0,0,0,155.7,171a3.331,3.331,0,0,0,.111-1.076,5.932,5.932,0,0,1,.291-1.7l.012.007a.9.9,0,0,0,1.257-.317,12.5,12.5,0,0,1,1.484-1.521c1.373-1.317,4-.606,5.2-2.3a4.49,4.49,0,0,0,.664-1.909,1.818,1.818,0,0,0-.1-1,1.268,1.268,0,0,0-2.035-.463,3.323,3.323,0,0,0-.949,1.3.792.792,0,0,0-.89-.528,1.232,1.232,0,0,0-.837.71,3.05,3.05,0,0,0-.248,1.138c-1.843.254-3.35,1.67-4.508,3.2a8.183,8.183,0,0,0-1.221,2.1,4.221,4.221,0,0,0-.249,1.932c.05.424,0,.348-.273.638a.857.857,0,0,0-.266.978" transform="translate(-127.053 -133.137)"/><path d="M161.758,203.687a1.262,1.262,0,0,0-1.449-.143,1.326,1.326,0,0,0-.349,1.368,2.773,2.773,0,0,0,.517,1.089,1.574,1.574,0,0,0,.329.326,1.61,1.61,0,0,0,.768.251,1.63,1.63,0,0,0,.721-.066.861.861,0,0,0,.52-.48c.161-.429-.143-.916-.286-1.309a2.258,2.258,0,0,0-.77-1.035" transform="translate(-132.722 -168.793)" fill="#fff"/><path d="M162.527,204.721a2.259,2.259,0,0,0-.77-1.035,1.262,1.262,0,0,0-1.449-.144,1.326,1.326,0,0,0-.349,1.368,2.774,2.774,0,0,0,.517,1.089,1.577,1.577,0,0,0,.329.326,1.61,1.61,0,0,0,.768.251,1.629,1.629,0,0,0,.721-.066Z" transform="translate(-132.721 -168.793)" fill="#fff"/><path d="M161.269,206.168q-.116,0-.244-.013a1.694,1.694,0,0,1-.82-.271,1.656,1.656,0,0,1-.352-.348,2.891,2.891,0,0,1-.538-1.132,1.432,1.432,0,0,1,.391-1.481,1.377,1.377,0,0,1,1.58.143,2.383,2.383,0,0,1,.808,1.086.11.11,0,0,1-.207.076,2.161,2.161,0,0,0-.732-.985,1.161,1.161,0,0,0-1.319-.143,1.222,1.222,0,0,0-.308,1.255,2.669,2.669,0,0,0,.5,1.045,1.446,1.446,0,0,0,.305.3,1.484,1.484,0,0,0,.716.232,1.509,1.509,0,0,0,.673-.06.11.11,0,1,1,.075.206,1.519,1.519,0,0,1-.526.085" transform="translate(-132.185 -168.261)"/><path d="M167.631,214.431a.11.11,0,0,1-.064-.021,4.054,4.054,0,0,0-1.154-.58.11.11,0,1,1,.066-.21,4.278,4.278,0,0,1,1.216.611.11.11,0,0,1-.064.2" transform="translate(-138.056 -177.296)"/><path d="M170.079,339.317s8.934,8.942,23.7,1.277l5.818-.16s-8.581,11.976-18.762,12.615a33.019,33.019,0,0,1-17.453-3.673Z" transform="translate(-135.6 -281.625)" fill="#fff"/><path d="M178.256,352.687a33.228,33.228,0,0,1-15.469-3.752.11.11,0,0,1-.035-.156l6.7-10.06a.11.11,0,0,1,.169-.017,16.573,16.573,0,0,0,6.279,3.489c3.7,1.156,9.7,1.708,17.29-2.232a.111.111,0,0,1,.048-.012l5.818-.16a.11.11,0,0,1,.092.174,42.88,42.88,0,0,1-5.579,6.086c-3.131,2.816-7.975,6.243-13.266,6.575q-1.044.066-2.047.064M163,348.8a33.413,33.413,0,0,0,17.29,3.6c5.228-.328,10.027-3.726,13.132-6.519a43.507,43.507,0,0,0,5.414-5.87l-5.567.153a26.424,26.424,0,0,1-9.95,3.034,19.587,19.587,0,0,1-7.5-.8,17.164,17.164,0,0,1-6.26-3.449Z" transform="translate(-135.064 -281.089)"/><rect width="31.99" height="25.329" transform="translate(43.264 38.858) rotate(-15.055)" fill="#bceb79"/><path d="M375.652,221.465a.165.165,0,0,1-.159-.12l-6.843-24.388a.165.165,0,1,1,.317-.089l6.843,24.388a.165.165,0,0,1-.114.2.169.169,0,0,1-.045.006" transform="translate(-305.967 -163.295)" fill="#e2eaff"/><path d="M303.134,216.588a.159.159,0,0,1-.037,0,.165.165,0,0,1-.122-.118l-1.53-5.7a.165.165,0,0,1,.116-.2l2.79-.758a.165.165,0,0,1,.2.116l1.53,5.7a.165.165,0,0,1-.213.2l-1.538-.531-1.074,1.242a.165.165,0,0,1-.125.057m-1.328-5.749,1.407,5.241.931-1.076a.157.157,0,0,1,.029-.026l.018-.013a.165.165,0,0,1,.15-.022l1.344.465-1.407-5.24Z" transform="translate(-250.187 -174.129)" fill="#fff"/><path d="M455.133,310.89a.165.165,0,0,1-.159-.123l-.455-1.719a.165.165,0,1,1,.319-.085l.455,1.719a.165.165,0,0,1-.159.207" transform="translate(-377.235 -256.331)" fill="#fff"/><path d="M451.672,318.285a.165.165,0,0,1-.042-.324l1.933-.513a.165.165,0,0,1,.085.319l-1.933.513a.166.166,0,0,1-.042.006" transform="translate(-374.741 -263.47)" fill="#fff"/><path d="M445.068,294.711a1.309,1.309,0,0,1-1.262-.974l-.416-1.572a.165.165,0,0,1,.117-.2l2.3-.611a.165.165,0,0,1,.2.117l.417,1.573a1.31,1.31,0,0,1-.929,1.6h0l-.091.024a1.311,1.311,0,0,1-.338.044m.387-.228h0Zm-1.7-2.243.374,1.413a.978.978,0,0,0,1.2.7l.091-.024a.979.979,0,0,0,.695-1.2l-.374-1.413Z" transform="translate(-367.998 -241.812)" fill="#fff"/><path d="M422.855,304.165a.164.164,0,0,1-.159-.123l-.59-2.229-.589.156a.165.165,0,0,1-.195-.223l1-2.416a.165.165,0,0,1,.253-.067l2.078,1.6a.165.165,0,0,1-.058.29l-.589.156.59,2.229a.165.165,0,0,1-.117.2l-1.587.421a.163.163,0,0,1-.043.005m-.632-2.718a.165.165,0,0,1,.159.123l.59,2.229,1.268-.336-.59-2.229a.165.165,0,0,1,.117-.2l.424-.113-1.643-1.262-.794,1.909.425-.113a.165.165,0,0,1,.043-.006" transform="translate(-349.677 -248.354)" fill="#fff"/><path d="M348.487,333.225a1.058,1.058,0,0,0-.751.689.009.009,0,0,1-.016,0,1.058,1.058,0,0,0-2.01.3.009.009,0,0,1-.015.005,1.059,1.059,0,0,0-1.181-.207,1.1,1.1,0,0,0-.546,1.364l.032.095a.009.009,0,0,1-.013.011.972.972,0,0,0-.813-.087l-.15.051a.991.991,0,0,0-.616,1.259l.951,2.781a.99.99,0,0,0,1.257.617l.15-.051a.976.976,0,0,0,.609-.616.008.008,0,0,1,.016,0,1.059,1.059,0,0,0,1.934-.375.009.009,0,0,1,.015,0,1.06,1.06,0,0,0,1.824-.564.009.009,0,0,1,.015,0,1.06,1.06,0,0,0,1.187.218,1.1,1.1,0,0,0,.551-1.367l-1.152-3.367a1.1,1.1,0,0,0-1.277-.743" transform="translate(-284.145 -276.545)" fill="#fff"/><path d="M344.868,349.365a1.1,1.1,0,0,1-1.04-.745l-.777-2.272a.11.11,0,1,1,.208-.071l.777,2.272a.88.88,0,0,0,1.118.548l.149-.051a.863.863,0,0,0,.54-.547.127.127,0,0,1,.1-.08.117.117,0,0,1,.114.053.949.949,0,0,0,1.734-.336.127.127,0,0,1,.084-.092.118.118,0,0,1,.119.034.95.95,0,0,0,1.635-.507.127.127,0,0,1,.08-.095.119.119,0,0,1,.121.028.948.948,0,0,0,1.065.2.993.993,0,0,0,.492-1.231l-.741-2.166a.11.11,0,0,1,.208-.071l.741,2.166a1.214,1.214,0,0,1-.61,1.5,1.278,1.278,0,0,0-1.914.635,1.168,1.168,0,0,0-1.832.531,1.169,1.169,0,0,1-1.257-.332,1.077,1.077,0,0,1-.605.517l-.15.051a1.1,1.1,0,0,1-.357.06" transform="translate(-284.719 -285.644)"/><path d="M374.259,339.745a.11.11,0,0,1-.1-.077l-.877-2.746a.11.11,0,1,1,.209-.067l.877,2.746a.11.11,0,0,1-.071.138.112.112,0,0,1-.034.005" transform="translate(-309.807 -279.519)"/><path d="M362.5,341.67a.11.11,0,0,1-.1-.077l-.877-2.746a.11.11,0,1,1,.209-.067l.877,2.746a.11.11,0,0,1-.1.144" transform="translate(-300.05 -281.117)"/><path d="M352.283,349.012a.11.11,0,0,1-.1-.077l-.877-2.746a.11.11,0,0,1,.209-.067l.877,2.746a.11.11,0,0,1-.1.143" transform="translate(-291.568 -287.21)"/><path d="M48.861,282.055c4.681,1.553,19.442,1.366,24.345-.324a2.422,2.422,0,0,0,1.332-1.351c1.757-3.1,2.784-19.568,2.784-19.568l8.512-5.153c-13.949-14.566-21.135-6.057-27.928-3.42s-7.238,9.436-8.375,16.06c-1.116,6.5-2.664,9.324-2.233,12.19a1.482,1.482,0,0,0,.651,1.165,4.5,4.5,0,0,0,.913.4" transform="translate(-39.195 -205.308)" fill="#fff"/><path d="M47.7,281.382a.109.109,0,0,1-.047-.011c-.108-.052-.207-.105-.3-.159a1.556,1.556,0,0,1-.7-1.2l-.006-.045c-.257-1.713.19-3.441.81-5.834.431-1.661.966-3.729,1.423-6.39.1-.612.206-1.234.3-1.836a34.14,34.14,0,0,1,2.1-8.5,10.567,10.567,0,0,1,6.041-5.812,34.205,34.205,0,0,0,3.625-1.763c2.888-1.542,6.162-3.29,10.092-3.1,4.494.216,9.181,2.935,14.33,8.312a.11.11,0,0,1-.023.17L76.9,260.341c-.078,1.238-1.079,16.528-2.794,19.558-.024.042-.048.087-.074.134a2.387,2.387,0,0,1-1.244,1.239.11.11,0,1,1-.079-.205,2.17,2.17,0,0,0,1.13-1.138c.026-.049.052-.1.076-.138,1.725-3.047,2.759-19.356,2.77-19.521a.111.111,0,0,1,.053-.087l8.394-5.082c-5.071-5.268-9.68-7.933-14.087-8.145-3.871-.186-7.114,1.547-9.977,3.076a34.358,34.358,0,0,1-3.649,1.775c-6.1,2.367-7.024,8.085-8,14.138-.1.6-.2,1.226-.3,1.838-.458,2.67-1,4.743-1.427,6.408-.636,2.456-1.057,4.078-.806,5.747l.007.047a1.339,1.339,0,0,0,.593,1.041c.083.05.176.1.277.149a.11.11,0,0,1-.048.209" transform="translate(-38.663 -204.773)"/><path d="M73.833,248.372c.381,2.059,3.155,3.2,4.371,3.2,2.645,0,4.217-2.141,4.94-3.931a9.517,9.517,0,0,1,4.018-4.916c1.03-.751,2.335-1.485,2.335-1.485.865-.487,1.625-.848,2.2-1.1a9.527,9.527,0,0,0-6.614-1.461,7.608,7.608,0,0,0-1.727.441c-3.047,1.2-2.99,3.221-5.565,5.369-2.024,1.688-4.463,1.151-3.957,3.883" transform="translate(-61.224 -198.011)" fill="#fff"/><path d="M77.666,251.153c-1.158,0-4.078-1.119-4.479-3.29-.346-1.87.647-2.29,1.9-2.821a7.851,7.851,0,0,0,2.09-1.167,12.116,12.116,0,0,0,2.207-2.5,6.866,6.866,0,0,1,3.388-2.891,7.725,7.725,0,0,1,1.751-.447,9.709,9.709,0,0,1,5.283.713,9.575,9.575,0,0,1,1.407.764.11.11,0,0,1-.016.192c-.742.328-1.478.7-2.189,1.1-.013.007-1.312.74-2.324,1.479a9.4,9.4,0,0,0-3.981,4.868c-.486,1.2-1.949,4-5.042,4m8.249-13a8.911,8.911,0,0,0-1.355.1,7.531,7.531,0,0,0-1.7.435,6.685,6.685,0,0,0-3.29,2.814,12.475,12.475,0,0,1-2.245,2.537,8.027,8.027,0,0,1-2.146,1.2c-1.257.531-2.088.882-1.774,2.578.38,2.052,3.16,3.111,4.263,3.111,2.959,0,4.369-2.7,4.838-3.862a9.579,9.579,0,0,1,4.056-4.963c1.023-.746,2.333-1.485,2.346-1.492.657-.37,1.336-.713,2.022-1.023a9.362,9.362,0,0,0-1.2-.638,9.634,9.634,0,0,0-3.807-.8" transform="translate(-60.685 -197.481)"/><path d="M74.293,247.872c-.107-1.215,3.1-8.265,11.225-8.68a9.756,9.756,0,0,0-5.206,4.7c-2.7,4.917-5.943,4.846-6.019,3.983" transform="translate(-61.66 -198.524)" fill="#fff"/><path d="M74.591,247.9a1.713,1.713,0,0,1-.352-.034c-.349-.073-.57-.266-.592-.516-.058-.666.736-2.641,2.325-4.468a12.5,12.5,0,0,1,9-4.332.115.115,0,0,1,.127.089c.02.1-.054.124-.166.165a9.848,9.848,0,0,0-5.065,4.605c-1.85,3.364-4.035,4.49-5.281,4.49m-.725-.569c.013.148.169.267.418.32,1.082.228,3.413-.741,5.4-4.346a10.261,10.261,0,0,1,4.645-4.485,12.239,12.239,0,0,0-8.186,4.207,8.6,8.6,0,0,0-2.272,4.3" transform="translate(-61.123 -197.987)"/><path d="M235.172,226.246c.4-.486.615-.99.274-1.416a.989.989,0,0,0-1.442-.042,2.88,2.88,0,0,0,.7-.92.871.871,0,0,0-1.14-1.213,1.888,1.888,0,0,0-.444.234.775.775,0,0,0-.029-.763,1.164,1.164,0,0,0-1.227-.385,3.415,3.415,0,0,0-1.192.65c-1.7,1.244-7.505,5.6-7.6,5.672-2.866,2.283-6.761,4.105-10.131,5.772-2.529,1.251-4.861-6.413-11.356-3.267-2.077,1.535-2.956,8.008-2.937,8.614.206.713,6.621,3.367,11.381,4.943a8.092,8.092,0,0,0,2.952.309c2.676-.169,5.135-.861,10.548-5.673,1.214-1.079,9.615-8.486,11.329-10.351a2.745,2.745,0,0,0,.7-1.052.957.957,0,0,0-.384-1.111" transform="translate(-164.872 -184.009)" fill="#fff"/><path d="M384.074,231.523a.11.11,0,0,1-.068-.2c.893-.708,1.784-1.444,2.648-2.185a.11.11,0,1,1,.143.167c-.866.744-1.759,1.481-2.655,2.191a.11.11,0,0,1-.068.024" transform="translate(-318.681 -190.16)"/><path d="M392.528,241.847a.108.108,0,0,1-.081-.036.11.11,0,0,1,.007-.155l2.277-2.077a.11.11,0,1,1,.148.162l-2.277,2.077a.11.11,0,0,1-.074.029" transform="translate(-325.698 -198.821)"/><path d="M400.436,250.569a.11.11,0,0,1-.072-.193c.694-.6,1.367-1.242,2-1.9a.11.11,0,1,1,.159.152c-.64.668-1.319,1.313-2.017,1.918a.109.109,0,0,1-.072.027" transform="translate(-332.261 -206.198)"/><path d="M232.519,340.36a8.1,8.1,0,0,1-2.39-.341c-2.27-.751-4.944-1.758-7.155-2.691a.11.11,0,1,1,.085-.2c2.206.932,4.874,1.936,7.139,2.685a8.211,8.211,0,0,0,3.82.192.11.11,0,1,1,.04.216,8.378,8.378,0,0,1-1.54.141" transform="translate(-185.008 -279.799)"/><path d="M250.887,274.366a.11.11,0,0,1-.071-.026c-.658-.558-3.082-2.537-3.883-3.075a.11.11,0,1,1,.123-.182c.807.543,3.242,2.53,3.9,3.089a.11.11,0,0,1-.071.194" transform="translate(-204.909 -224.977)"/><path d="M354.862,261.3a.11.11,0,0,1-.078-.033,11.556,11.556,0,0,1-3.488-7.1.11.11,0,1,1,.22-.011,11.334,11.334,0,0,0,3.425,6.955.11.11,0,0,1-.078.187" transform="translate(-291.567 -210.862)"/><rect width="30.869" height="20.301" transform="translate(105.997 55.005)" fill="#fff"/><path d="M653.763,343.39H622.894a.11.11,0,0,1-.11-.11v-20.3a.11.11,0,0,1,.11-.11h30.869a.11.11,0,0,1,.11.11v20.3a.11.11,0,0,1-.11.11M623,343.17h30.649V323.089H623Z" transform="translate(-516.897 -267.974)"/><path d="M529.016,351.627l.9-2.046a2.677,2.677,0,0,1,2.449-1.6h5.857v16.141H521.662v-5.935a2.68,2.68,0,0,1,1.78-2.526l2-.71a6.174,6.174,0,0,0,3.578-3.327" transform="translate(-432.968 -288.818)" fill="#fff"/><path d="M537.688,363.7H521.126a.11.11,0,0,1-.11-.11v-5.935a2.8,2.8,0,0,1,1.853-2.629l2-.71a6.088,6.088,0,0,0,3.515-3.268l.9-2.046a2.788,2.788,0,0,1,2.55-1.664h5.857a.11.11,0,0,1,.11.11v16.141a.11.11,0,0,1-.11.11m-16.452-.22h16.342V347.557h-5.747a2.568,2.568,0,0,0-2.349,1.533l-.9,2.046a6.309,6.309,0,0,1-3.642,3.386l-2,.71a2.575,2.575,0,0,0-1.707,2.422Z" transform="translate(-432.431 -288.282)"/><path d="M564.281,360.733h-8.842a.11.11,0,1,1,0-.22h8.732v-6.239a.11.11,0,1,1,.22,0v6.349a.11.11,0,0,1-.11.11" transform="translate(-460.91 -293.948)"/><path d="M736.872,426.684a3.483,3.483,0,1,0,3.483-3.488,3.485,3.485,0,0,0-3.483,3.488" transform="translate(-611.587 -351.243)" fill="#fff"/><path d="M739.818,429.744a3.6,3.6,0,1,1,3.593-3.6,3.6,3.6,0,0,1-3.593,3.6m0-6.975a3.378,3.378,0,1,0,3.373,3.378,3.379,3.379,0,0,0-3.373-3.378" transform="translate(-611.05 -350.706)"/><path d="M726.394,415.68a.111.111,0,0,1-.029,0,.11.11,0,0,1-.077-.135,5.47,5.47,0,0,1,10.543-.06.11.11,0,1,1-.211.06,5.25,5.25,0,0,0-10.119.057.11.11,0,0,1-.106.081" transform="translate(-602.799 -341.536)"/><path d="M537.382,415.68a.11.11,0,0,1-.106-.139,5.47,5.47,0,0,1,10.543-.06.11.11,0,0,1-.212.06,5.25,5.25,0,0,0-10.119.057.11.11,0,0,1-.106.081" transform="translate(-445.923 -341.536)"/><path d="M547.86,426.684a3.483,3.483,0,1,0,3.483-3.488,3.485,3.485,0,0,0-3.483,3.488" transform="translate(-454.711 -351.243)" fill="#fff"/><path d="M550.806,429.744a3.6,3.6,0,1,1,3.593-3.6,3.6,3.6,0,0,1-3.593,3.6m0-6.975a3.378,3.378,0,1,0,3.373,3.378,3.379,3.379,0,0,0-3.373-3.378" transform="translate(-454.174 -350.706)"/><path d="M107.743,6.989c0,3.86-6.983,12.352-6.983,12.352s-6.983-8.492-6.983-12.352a6.983,6.983,0,1,1,13.965,0" transform="translate(-77.834 0)" fill="#85e5aa"/><path d="M121.3,25.417a3.491,3.491,0,1,1-3.491-3.494,3.493,3.493,0,0,1,3.491,3.494" transform="translate(-94.877 -18.196)" fill="#fff"/><path d="M489.771,476.523H447.577a.11.11,0,0,1,0-.22h42.084V469a.11.11,0,0,1,.22,0v7.414a.11.11,0,0,1-.11.11" transform="translate(-371.388 -389.167)"/><path d="M359.787,504.763a1.715,1.715,0,1,1-1.715-1.717,1.716,1.716,0,0,1,1.715,1.717" transform="translate(-295.767 -417.517)" fill="#fff"/><path d="M357.535,506.053a1.827,1.827,0,1,1,1.825-1.827,1.828,1.828,0,0,1-1.825,1.827m0-3.434a1.607,1.607,0,1,0,1.606,1.607,1.608,1.608,0,0,0-1.606-1.607" transform="translate(-295.231 -416.98)"/><path d="M389.231,504.763a1.715,1.715,0,1,1-1.715-1.717,1.716,1.716,0,0,1,1.715,1.717" transform="translate(-320.205 -417.517)" fill="#fff"/><path d="M386.978,506.053a1.827,1.827,0,1,1,1.825-1.827,1.828,1.828,0,0,1-1.825,1.827m0-3.434a1.607,1.607,0,1,0,1.606,1.607,1.608,1.608,0,0,0-1.606-1.607" transform="translate(-319.668 -416.98)"/><path d="M418.674,504.763a1.715,1.715,0,1,1-1.715-1.717,1.716,1.716,0,0,1,1.715,1.717" transform="translate(-344.642 -417.517)" fill="#fff"/><path d="M416.421,506.053a1.827,1.827,0,1,1,1.825-1.827,1.828,1.828,0,0,1-1.825,1.827m0-3.434a1.607,1.607,0,1,0,1.605,1.607,1.608,1.608,0,0,0-1.605-1.607" transform="translate(-344.105 -416.98)"/><rect width="50.188" height="35.341" transform="translate(84.012 9.289)" fill="#fff"/><path d="M583.919,28.761c.064-1.347,1.5-2.136,2.743-2.659a12.53,12.53,0,0,1,5.866-1.411c3.209.293,5.613,2.92,8.226,4.808,5.06,3.654,11.589,4.784,16.7,8.371A9.591,9.591,0,0,1,621,41.877a7.467,7.467,0,0,1-2.46,8.3,11.136,11.136,0,0,1-8.78,1.978,22.8,22.8,0,0,1-8.465-3.625,48.886,48.886,0,0,1-12.192-11.2,13.508,13.508,0,0,1-2.711-5.023c-.205-.876-.62-.942-1.312-1.492a2.573,2.573,0,0,1-1.162-2.057" transform="translate(-484.638 -20.471)"/><path d="M632.538,3.515a1.923,1.923,0,0,1-.192-1.848,1.842,1.842,0,0,1,.523-.749,1.779,1.779,0,0,1,.982-.4,2.233,2.233,0,0,1,1.28.3,2.156,2.156,0,0,1,.811.834,1.864,1.864,0,0,1-.784,2.513,1.983,1.983,0,0,1-.833.291,2.107,2.107,0,0,1-1.787-.942" transform="translate(-524.708 -0.425)"/><path d="M575.937,97.49a5.987,5.987,0,0,1,3.218-3.645c3.018-1.382,5.131-2.3,9.106-3.809,2.523-.957,7.076-1.577,9.964.822,3.756,3.12,7.2,11.655,12.466,22.489v5.307H591.934l-10.491-11.291-7.4-3.85Z" transform="translate(-476.44 -74.024)" fill="#85e5aa"/><path d="M478.1,173.708a79.915,79.915,0,0,1-9.009-5.295c-1.106-.843-2.834-.971-3.461-1.457-.478-.37-1.032-.6-1.339-.391-.36.243-.463.9.3,1.369a2.9,2.9,0,0,1,1.038,1.016s-.462-.088-1.776-.36-2.13-1.1-2.741-.961-.272.666-.272.666c-.6-.282-.969-.226-1.094.156s.269.8.269.8a.615.615,0,0,0-.052.884c-.352.428-.238,1.14.9,2.06s3.113,1.072,4.61,1.28c.457.064,2.159,1.138,6.843,4.954,6.74,4.806,10.955,4.248,14.115-1.44,1.411-2.539,2.553-4.542,2.759-4.754l-9.284-4.176Z" transform="translate(-381.558 -138.181)" fill="#fff"/><path d="M479.53,181.251c-2.169,0-4.741-1.078-7.813-3.269-5.139-4.187-6.462-4.889-6.794-4.935-.177-.025-.36-.048-.548-.073a8.495,8.495,0,0,1-4.116-1.231,2.593,2.593,0,0,1-1.116-1.554.879.879,0,0,1,.143-.589.7.7,0,0,1,.042-.891.965.965,0,0,1-.226-.829.555.555,0,0,1,.307-.36.967.967,0,0,1,.7.039.485.485,0,0,1,.022-.276.54.54,0,0,1,.419-.3,2,2,0,0,1,1.225.358,6.169,6.169,0,0,0,1.563.6c.775.16,1.255.257,1.518.309a3.166,3.166,0,0,0-.859-.764,1.119,1.119,0,0,1-.627-.915.746.746,0,0,1,.322-.638c.32-.216.868-.069,1.468.4a4.371,4.371,0,0,0,1.257.5,6.83,6.83,0,0,1,2.2.958,80.57,80.57,0,0,0,8.877,5.227l1.771-5.525a.11.11,0,0,1,.15-.067L488.7,171.6a.11.11,0,0,1,.034.177c-.12.124-.694,1.045-2.742,4.731-1.471,2.647-3.154,4.152-5.146,4.6a5.953,5.953,0,0,1-1.316.143M459.669,167.69a.43.43,0,0,0-.171.031.341.341,0,0,0-.185.226c-.1.312.241.687.244.691a.11.11,0,0,1,0,.156.5.5,0,0,0-.046.73.11.11,0,0,1,0,.144.655.655,0,0,0-.147.5c.029.284.232.758,1.035,1.405a8.353,8.353,0,0,0,4.006,1.184c.188.024.372.048.55.073.63.088,2.951,1.762,6.9,4.978,3.659,2.608,6.587,3.619,8.947,3.086,1.928-.435,3.564-1.905,5-4.494,1.929-3.471,2.493-4.388,2.682-4.658l-9.043-4.068-1.773,5.53a.11.11,0,0,1-.153.065,80.892,80.892,0,0,1-9.028-5.306,6.672,6.672,0,0,0-2.133-.922,4.451,4.451,0,0,1-1.329-.535c-.5-.385-.983-.54-1.21-.387a.527.527,0,0,0-.226.452.942.942,0,0,0,.523.733,2.993,2.993,0,0,1,1.078,1.06.11.11,0,0,1-.01.116.111.111,0,0,1-.108.042s-.478-.091-1.778-.36a6.435,6.435,0,0,1-1.617-.621,1.907,1.907,0,0,0-1.078-.34.342.342,0,0,0-.264.167.427.427,0,0,0,.06.333.11.11,0,0,1-.139.158,1.465,1.465,0,0,0-.586-.167" transform="translate(-381.021 -137.642)"/><path d="M465.3,188.539a4.9,4.9,0,0,1-2.486-.678c-.091-.054-.18-.111-.269-.167a5.318,5.318,0,0,0-.46-.272,1.416,1.416,0,0,0-.765-.179.11.11,0,1,1-.021-.219,1.626,1.626,0,0,1,.886.2c.167.085.326.185.479.283.087.055.174.111.263.163a4.678,4.678,0,0,0,2.785.629.11.11,0,1,1,.02.219c-.143.013-.287.019-.431.019" transform="translate(-382.784 -155.221)"/><path d="M465.9,183.232h-.01a7.079,7.079,0,0,1-2.514-.7c-.1-.05-.2-.1-.3-.155a6.258,6.258,0,0,0-.664-.312,1.72,1.72,0,0,0-1-.109.11.11,0,0,1-.051-.214,1.932,1.932,0,0,1,1.128.117,6.437,6.437,0,0,1,.688.323c.1.052.2.1.3.152a6.858,6.858,0,0,0,2.436.674.11.11,0,0,1-.009.219" transform="translate(-382.845 -150.813)"/><path d="M470.324,178.811l-.018,0a10.068,10.068,0,0,1-3.832-1.479.11.11,0,1,1,.12-.184,9.851,9.851,0,0,0,3.748,1.446.11.11,0,0,1-.018.218" transform="translate(-387.121 -147.013)"/><path d="M569.192,209.437a.109.109,0,0,1-.047-.011l-1.92-.907a.11.11,0,0,1,.094-.2l1.92.907a.11.11,0,0,1-.047.209" transform="translate(-470.732 -172.893)"/><path d="M669.837,131.99l-.02,0a.11.11,0,0,1-.088-.128,27.842,27.842,0,0,0,.436-5,.112.112,0,0,1,.112-.108.11.11,0,0,1,.108.112,28,28,0,0,1-.44,5.035.11.11,0,0,1-.108.09" transform="translate(-555.858 -105.202)"/><path d="M552.2,136.446l-2.29,3.424s-11.19-5.136-13.858-6.655c-2.637-1.5-7.651-2.309-5.262-.417,0,0-1.68-.5-2.05-.1s.37.978,1.315,1.539c0,0-1.336-.513-1.767-.128s.216.8,2.5,2.17c-.444-.174-1.84-.7-2.112-.289a.3.3,0,0,0-.041.115c-.1.762,3.309,2.14,3.309,2.14,1.623.93,11.12,8.857,19.6,9.009,6.359.114,9.527-8.534,9.527-8.534s-5.92-2.347-8.873-2.278" transform="translate(-438.366 -109.304)" fill="#fff"/><path d="M547.7,146.428l-.024,0c-6.1-1.356-12.064-5.61-14.931-7.654-.648-.462-1.118-.8-1.381-.949-.6-.242-3.475-1.45-3.37-2.253a.407.407,0,0,1,.059-.162c.159-.237.59-.263,1.284-.077-1.3-.8-1.784-1.149-1.815-1.481a.406.406,0,0,1,.161-.344,1.409,1.409,0,0,1,1.138-.108c-.52-.366-.777-.659-.815-.921a.443.443,0,0,1,.121-.374c.287-.311,1.164-.175,1.714-.05-.306-.31-.393-.555-.265-.744.471-.7,4.085.2,6,1.286.328.187.807.441,1.424.754a.11.11,0,0,1-.1.2c-.62-.315-1.1-.571-1.434-.759-2.152-1.226-5.4-1.807-5.708-1.354-.032.047-.084.239.568.755a.11.11,0,0,1-.1.192c-.624-.184-1.7-.382-1.938-.127a.221.221,0,0,0-.065.193c.039.27.5.666,1.356,1.177a.11.11,0,0,1-.1.2c-.354-.136-1.342-.428-1.654-.149-.085.076-.091.127-.088.159.029.307,1.041.914,2.573,1.835a.11.11,0,0,1-.1.2c-1.287-.505-1.871-.494-1.981-.33a.19.19,0,0,0-.024.068c-.062.468,1.858,1.465,3.241,2.024l.013.007c.271.155.747.494,1.405.964,2.856,2.036,8.8,6.271,14.852,7.618a.11.11,0,0,1-.024.217" transform="translate(-437.83 -108.778)"/><path d="M545.2,138.7a.11.11,0,0,1-.053-.013,14,14,0,0,0-2.1-.933.11.11,0,0,1,.069-.209,14.292,14.292,0,0,1,2.14.948.11.11,0,0,1-.053.206" transform="translate(-450.652 -114.156)"/><path d="M540.671,147.233a.11.11,0,0,1-.05-.012l-.956-.493-.957-.493a.11.11,0,0,1,.1-.2l.956.493.957.493a.11.11,0,0,1-.051.208" transform="translate(-447.066 -121.199)"/><path d="M657.945,180.294a.111.111,0,0,1-.059-.017c-.534-.34-1.1-.661-1.677-.953a.11.11,0,0,1,.1-.2c.585.3,1.156.62,1.7.964a.11.11,0,0,1-.059.2" transform="translate(-544.588 -148.662)"/><path d="M721.762,130.818a.11.11,0,0,1-.107-.135,22.666,22.666,0,0,0,.436-8.015.11.11,0,0,1,.219-.016,22.839,22.839,0,0,1-.441,8.082.11.11,0,0,1-.107.085" transform="translate(-598.954 -101.713)"/><path d="M704.75,83.021a.11.11,0,0,1-.11-.11V54.21h-17.1a.11.11,0,0,1,0-.22H704.75a.11.11,0,0,1,.11.11V82.911a.11.11,0,0,1-.11.11" transform="translate(-570.55 -44.81)"/><path d="M525.068,221.239H493.587a.11.11,0,0,1-.11-.11v-8.364a.11.11,0,1,1,.22,0v8.255h31.371a.11.11,0,1,1,0,.22" transform="translate(-409.575 -176.499)"/><path d="M493.587,77.911a.11.11,0,0,1-.11-.11V60.231a.11.11,0,0,1,.22,0V77.8a.11.11,0,0,1-.11.11" transform="translate(-409.575 -49.899)"/><path d="M620.632,74.29l3.024,3.627s.889-.338,1.125-.425a11.1,11.1,0,0,1,1.159-.344c-.017.123-.484,3.09-2.928,4.015a3.967,3.967,0,0,1-3.852-.41,2.722,2.722,0,0,1-.6-.767l1.247-.552-2.083-2.918s2.013-2.9,2.905-2.226" transform="translate(-512.699 -61.574)" fill="#fff"/><path d="M597.089,57.651a4.974,4.974,0,0,0,1.315,2.532,2.931,2.931,0,0,0,2.689.726,2.572,2.572,0,0,0,1.71-2.157,1.182,1.182,0,0,0,.52-2.045.644.644,0,0,0-.632-.166c-.282.112-.378.482-.644.629a.653.653,0,0,1-.662-.066,1.693,1.693,0,0,1-.456-.524,4.737,4.737,0,0,0-1.273-1.6,2.5,2.5,0,0,0-1.353-.347,3.552,3.552,0,0,0-1.169.14c-.263.1-.217.385-.229.632a7.758,7.758,0,0,0,.182,2.243" transform="translate(-495.409 -45.347)" fill="#fff"/><path d="M599.909,60.557a2.956,2.956,0,0,1-2.122-.836,5.084,5.084,0,0,1-1.34-2.579,7.817,7.817,0,0,1-.185-2.275c0-.038,0-.076,0-.115,0-.223,0-.5.3-.614a3.714,3.714,0,0,1,1.208-.148h.009a2.607,2.607,0,0,1,1.4.364,3.89,3.89,0,0,1,1.131,1.344c.058.1.117.191.176.285a1.613,1.613,0,0,0,.424.492.54.54,0,0,0,.547.062.918.918,0,0,0,.264-.274.942.942,0,0,1,.393-.361.755.755,0,0,1,.744.185,1.292,1.292,0,0,1-.492,2.216,2.683,2.683,0,0,1-1.784,2.177,2.872,2.872,0,0,1-.674.078m-3.249-3.469a4.838,4.838,0,0,0,1.29,2.484,2.815,2.815,0,0,0,2.582.693,2.454,2.454,0,0,0,1.626-2.062.11.11,0,0,1,.086-.1,1.072,1.072,0,0,0,.472-1.855.541.541,0,0,0-.519-.147.771.771,0,0,0-.3.287,1.091,1.091,0,0,1-.334.336.76.76,0,0,1-.776-.072,1.8,1.8,0,0,1-.488-.556c-.06-.095-.119-.191-.178-.288a3.725,3.725,0,0,0-1.061-1.273,2.428,2.428,0,0,0-1.294-.33,3.542,3.542,0,0,0-1.129.133c-.138.053-.153.166-.156.411,0,.041,0,.083,0,.123a7.6,7.6,0,0,0,.179,2.211" transform="translate(-494.873 -44.81)"/><path d="M629.487,71.9a.11.11,0,0,1-.106-.14.772.772,0,0,1,.6-.537.11.11,0,1,1,.038.216.556.556,0,0,0-.423.381.11.11,0,0,1-.106.08" transform="translate(-522.369 -59.114)"/></g></g></g></svg>