<svg xmlns="http://www.w3.org/2000/svg" width="85" height="94" viewBox="0 0 85 94"><g transform="translate(-285.023 -1320.59)"><g transform="translate(105.023 502.773)"><g transform="translate(-105.051 -899.189)"><g transform="translate(285.051 1717.006)"><rect width="85" height="94" rx="13" fill="#fefaec"/></g></g></g><g transform="translate(295.848 1332.09)"><g transform="translate(1.186 0.934)"><path d="M82.656,227.245H77a2.845,2.845,0,0,1-2.845-2.845V221.71A2.845,2.845,0,0,1,77,218.865h5.656A2.845,2.845,0,0,1,85.5,221.71V224.4A2.845,2.845,0,0,1,82.656,227.245Z" transform="translate(-65.883 -192.535)" fill="#efcf4a"/><path d="M348.27,227.245h-5.656a2.845,2.845,0,0,1-2.845-2.845V221.71a2.845,2.845,0,0,1,2.845-2.845h5.656a2.845,2.845,0,0,1,2.845,2.845V224.4A2.845,2.845,0,0,1,348.27,227.245Z" transform="translate(-298.409 -192.535)" fill="#60bec8"/><path d="M215.463,15.88h-5.656a2.845,2.845,0,0,1-2.845-2.845V10.345A2.845,2.845,0,0,1,209.807,7.5h5.656a2.845,2.845,0,0,1,2.845,2.845v2.691A2.845,2.845,0,0,1,215.463,15.88Z" transform="translate(-182.146 -7.5)" fill="#fc6947"/><g transform="translate(0 52.661)"><path d="M16.253,438.611H10.6a2.845,2.845,0,0,1-2.845-2.845v-2.691a2.845,2.845,0,0,1,2.845-2.845h5.656a2.845,2.845,0,0,1,2.845,2.845v2.691A2.845,2.845,0,0,1,16.253,438.611Z" transform="translate(-7.752 -430.231)" fill="#efcf4a"/><path d="M149.059,438.611H143.4a2.845,2.845,0,0,1-2.845-2.845v-2.691a2.845,2.845,0,0,1,2.845-2.845h5.656a2.845,2.845,0,0,1,2.845,2.845v2.691A2.845,2.845,0,0,1,149.059,438.611Z" transform="translate(-124.014 -430.231)" fill="#efcf4a"/><g transform="translate(33.088)"><path d="M281.866,438.611H276.21a2.845,2.845,0,0,1-2.845-2.845v-2.691a2.845,2.845,0,0,1,2.845-2.845h5.656a2.845,2.845,0,0,1,2.845,2.845v2.691A2.845,2.845,0,0,1,281.866,438.611Z" transform="translate(-273.365 -430.231)" fill="#60bec8"/><path d="M414.673,438.611h-5.656a2.845,2.845,0,0,1-2.845-2.845v-2.691a2.845,2.845,0,0,1,2.845-2.845h5.656a2.845,2.845,0,0,1,2.845,2.845v2.691A2.845,2.845,0,0,1,414.673,438.611Z" transform="translate(-389.628 -430.231)" fill="#60bec8"/></g></g></g><g transform="translate(0.252)"><path d="M70.434,221.613H76.09a3.783,3.783,0,0,0,3.779-3.779v-2.691a3.783,3.783,0,0,0-3.779-3.779H70.434a3.783,3.783,0,0,0-3.779,3.779v2.691A3.783,3.783,0,0,0,70.434,221.613Zm-1.91-6.469a1.912,1.912,0,0,1,1.91-1.91H76.09a1.912,1.912,0,0,1,1.91,1.91v2.691a1.912,1.912,0,0,1-1.91,1.91H70.434a1.912,1.912,0,0,1-1.91-1.91Z" transform="translate(-58.383 -185.035)"/><path d="M336.048,221.613H341.7a3.783,3.783,0,0,0,3.779-3.779v-2.691a3.783,3.783,0,0,0-3.779-3.779h-5.656a3.783,3.783,0,0,0-3.779,3.779v2.691A3.783,3.783,0,0,0,336.048,221.613Zm-1.91-6.469a1.912,1.912,0,0,1,1.91-1.91H341.7a1.912,1.912,0,0,1,1.91,1.91v2.691a1.912,1.912,0,0,1-1.91,1.91h-5.656a1.912,1.912,0,0,1-1.91-1.91Z" transform="translate(-290.909 -185.035)"/><path d="M203.241,10.248H208.9a3.783,3.783,0,0,0,3.779-3.779V3.779A3.783,3.783,0,0,0,208.9,0h-5.656a3.783,3.783,0,0,0-3.779,3.779V6.47A3.783,3.783,0,0,0,203.241,10.248Zm-1.91-6.47a1.912,1.912,0,0,1,1.91-1.91H208.9a1.912,1.912,0,0,1,1.91,1.91V6.47a1.912,1.912,0,0,1-1.91,1.91h-5.656a1.912,1.912,0,0,1-1.91-1.91Z" transform="translate(-174.646)"/><path d="M9.687,422.731H4.031A3.783,3.783,0,0,0,.252,426.51V429.2a3.748,3.748,0,0,0,.754,2.265.934.934,0,1,0,1.5-1.121,1.893,1.893,0,0,1-.38-1.144V426.51a1.912,1.912,0,0,1,1.91-1.91H9.687a1.912,1.912,0,0,1,1.91,1.91V429.2a1.912,1.912,0,0,1-1.91,1.91H4.654a.934.934,0,0,0,0,1.869H9.687a3.783,3.783,0,0,0,3.779-3.779V426.51A3.783,3.783,0,0,0,9.687,422.731Z" transform="translate(-0.252 -370.07)"/><path d="M142.494,422.731h-5.656a3.783,3.783,0,0,0-3.779,3.779V429.2a3.783,3.783,0,0,0,3.779,3.779h5.656a3.783,3.783,0,0,0,3.779-3.779V426.51A3.783,3.783,0,0,0,142.494,422.731Zm1.91,6.47a1.912,1.912,0,0,1-1.91,1.91h-5.656a1.912,1.912,0,0,1-1.91-1.91V426.51a1.912,1.912,0,0,1,1.91-1.91h5.656a1.912,1.912,0,0,1,1.91,1.91Z" transform="translate(-116.515 -370.07)"/><path d="M275.3,422.731h-5.656a3.783,3.783,0,0,0-3.779,3.779V429.2a3.783,3.783,0,0,0,3.779,3.779H275.3a3.783,3.783,0,0,0,3.779-3.779V426.51A3.783,3.783,0,0,0,275.3,422.731Zm1.91,6.47a1.912,1.912,0,0,1-1.91,1.91h-5.656a1.912,1.912,0,0,1-1.91-1.91V426.51a1.912,1.912,0,0,1,1.91-1.91H275.3a1.912,1.912,0,0,1,1.91,1.91V429.2Z" transform="translate(-232.777 -370.07)"/><path d="M408.107,422.731h-5.656a3.783,3.783,0,0,0-3.779,3.779V429.2a3.783,3.783,0,0,0,3.779,3.779h5.656a3.783,3.783,0,0,0,3.779-3.779V426.51A3.783,3.783,0,0,0,408.107,422.731Zm1.91,6.47a1.912,1.912,0,0,1-1.91,1.91h-5.656a1.912,1.912,0,0,1-1.91-1.91V426.51a1.912,1.912,0,0,1,1.91-1.91h5.656a1.912,1.912,0,0,1,1.91,1.91Z" transform="translate(-349.04 -370.07)"/><path d="M62.334,315.913a.934.934,0,1,0,1.869,0V310.93a.934.934,0,0,0-.934-.934H55.931V304.2a.934.934,0,0,0-1.869,0V310H46.724a.934.934,0,0,0-.934.934v4.983a.934.934,0,1,0,1.869,0v-4.049H62.334v4.049Z" transform="translate(-40.117 -265.49)"/><path d="M327.948,315.913a.934.934,0,1,0,1.869,0V310.93a.934.934,0,0,0-.934-.934h-7.338V304.2a.934.934,0,0,0-1.869,0V310h-7.338a.934.934,0,0,0-.934.934v4.983a.934.934,0,1,0,1.869,0v-4.049h14.675Z" transform="translate(-272.643 -265.49)"/><path d="M341.354,149.5h3.723v4.049a.934.934,0,1,0,1.869,0v-4.983a.934.934,0,0,0-.934-.934h-4.657a.934.934,0,0,0,0,1.869Z" transform="translate(-298.044 -129.244)"/><path d="M139.378,101.3a.934.934,0,0,0-.934-.934h-7.838V94.569a.934.934,0,1,0-1.869,0v5.793h-15.61a.934.934,0,0,0-.934.934v4.983a.934.934,0,0,0,1.869,0v-4.049h24.382A.934.934,0,0,0,139.378,101.3Z" transform="translate(-98.248 -81.971)"/></g></g></g></svg>