<svg xmlns="http://www.w3.org/2000/svg" width="86.972" height="86.968" viewBox="0 0 86.972 86.968"><path d="M77.33,77.747V9.014A7.014,7.014,0,0,0,70.317,2H10a7.014,7.014,0,0,1,7.014,7.014v68.38a8.649,8.649,0,0,0,8.157,8.77,8.416,8.416,0,0,0,8.676-8.416Z" transform="translate(2.628 -0.597)" fill="#e2e7f6"/><path d="M29.514,44.859A16.906,16.906,0,0,1,23.9,39.248L12.941,50.21H12.93a2.831,2.831,0,0,1,.679.5l4.449,4.449a2.814,2.814,0,0,1,.5.668L29.519,44.863Z" transform="translate(3.808 14.403)" fill="#6bc13b"/><path d="M19.027,25.846H7.805A2.805,2.805,0,0,1,5,23.041V9.014a7.014,7.014,0,0,1,14.027,0Z" transform="translate(0.614 -0.597)" fill="#c8cded"/><path d="M20.815,64.416A8.416,8.416,0,0,0,29.491,56h49.1a8.416,8.416,0,0,1-8.416,8.416Z" transform="translate(6.983 21.149)" fill="#c8cded"/><path d="M18.011,47.65,22.46,52.1a2.805,2.805,0,0,1,0,3.967l-10.3,10.3A5.951,5.951,0,1,1,3.744,57.95l10.3-10.3A2.805,2.805,0,0,1,18.011,47.65Z" transform="translate(-0.594 17.456)" fill="#3b5892"/><g transform="translate(45.195 16.833)"><path d="M0,0H14.738V2.807H0Z" transform="translate(7.109 15.842) rotate(-45)" fill="#ccc"/><path d="M35.2,28.123l-1.985-1.985,6.709-6.708V13h2.805v7.014a1.4,1.4,0,0,1-.411.993Z" transform="translate(-33.217 -13)" fill="#ccc"/><path d="M42.66,32.869l-1.985-1.985,6.476-6.475a1.4,1.4,0,0,1,.993-.41h7.014v2.805H48.725Z" transform="translate(-30.214 -8.57)" fill="#ccc"/></g><path d="M53.805,54.611a2.805,2.805,0,1,1,2.805-2.805A2.805,2.805,0,0,1,53.805,54.611Z" transform="translate(19.139 18.33)" fill="#7bdf45"/><path d="M47.805,54.611a2.805,2.805,0,1,1,2.805-2.805A2.805,2.805,0,0,1,47.805,54.611Z" transform="translate(16.723 18.33)" fill="#7bdf45"/><path d="M41.805,54.611a2.805,2.805,0,1,1,2.805-2.805A2.805,2.805,0,0,1,41.805,54.611Z" transform="translate(14.307 18.33)" fill="#7bdf45"/><path d="M39,45H61.441v2.8H39Z" transform="translate(14.306 16.719)" fill="#ccc"/><path d="M42,34h9.82v2.8H42Z" transform="translate(15.514 12.289)" fill="#ccc"/><path d="M27,15h2.8v9.818H27Z" transform="translate(9.474 4.638)" fill="#ccc"/><rect width="12" height="6" rx="2" transform="translate(60 7)" fill="#f0ae42"/><circle cx="2.5" cy="2.5" r="2.5" transform="translate(62 20)" fill="#b52f28"/><circle cx="2.5" cy="2.5" r="2.5" transform="translate(51 13)" fill="#6bc13b"/><circle cx="2.5" cy="2.5" r="2.5" transform="translate(69 31)" fill="#6bc13b"/><ellipse cx="3" cy="2.5" rx="3" ry="2.5" transform="translate(66 45)" fill="#b52f28"/><circle cx="3" cy="3" r="3" transform="translate(35 15)" fill="#b52f28"/><circle cx="17" cy="17" r="17" transform="translate(25 28)" fill="#3b5892"/><circle cx="11" cy="11" r="11" transform="translate(31 34)" fill="#e2e7f6"/><path d="M46.805,6a2.805,2.805,0,1,0,0,5.611h1.006A8.015,8.015,0,0,0,52.371,6Z" transform="translate(16.32 1.014)" fill="#f9d266"/><path d="M86.567,76.747H82.359V9.416A8.426,8.426,0,0,0,73.942,1H13.625A8.416,8.416,0,0,0,5.209,9.416V23.443a4.208,4.208,0,0,0,4.208,4.208h9.819V62.136L17.371,64a4.208,4.208,0,0,0-3.918,1.112l-10.3,10.3a7.356,7.356,0,1,0,10.4,10.4l5.9-5.9a9.993,9.993,0,0,0,9.3,8.059h49.4a9.832,9.832,0,0,0,9.819-9.819,1.4,1.4,0,0,0-1.4-1.4ZM9.417,24.846a1.4,1.4,0,0,1-1.4-1.4V9.416a5.611,5.611,0,0,1,11.222,0v15.43Zm28.054-5.611a1.4,1.4,0,1,1,1.4,1.4A1.4,1.4,0,0,1,37.472,19.235Zm5.611,11.222a15.43,15.43,0,1,1-15.43,15.43,15.43,15.43,0,0,1,15.43-15.43ZM32.141,60.446l-8.7,8.7-3.627-3.625,8.705-8.705a18.349,18.349,0,0,0,3.626,3.625ZM11.569,83.829A4.548,4.548,0,1,1,5.138,77.4l10.3-10.3a1.4,1.4,0,0,1,1.985,0l4.448,4.448a1.4,1.4,0,0,1,0,1.983Zm17.614,1.334h-.345a7.252,7.252,0,0,1-6.8-7.367v-.469l1.814-1.814a4.2,4.2,0,0,0,1.112-3.919l9.6-9.6A18.2,18.2,0,0,0,60.807,50.1h4.977a4.206,4.206,0,1,0,0-2.805H61.245c.036-.464.072-.929.072-1.4a18.161,18.161,0,0,0-.871-5.556L64.7,36.068h3.886a4.208,4.208,0,1,0,0-2.805H64.123a1.4,1.4,0,0,0-.992.41l-3.859,3.859a18.29,18.29,0,0,0-2.358-3.494l6.809-6.806a4.163,4.163,0,0,0,1.8.421,4.208,4.208,0,1,0-4.208-4.208,4.156,4.156,0,0,0,.421,1.8L54.93,32.053A18.252,18.252,0,0,0,51.437,29.7l3.857-3.859a1.4,1.4,0,0,0,.412-.992V20.377a4.208,4.208,0,1,0-2.805,0v3.887l-4.26,4.26a17.605,17.605,0,0,0-8.364-.635V23.183a4.207,4.207,0,1,0-2.805.013v5.354A18.2,18.2,0,0,0,26.969,54.4l-4.928,4.929V9.416a8.366,8.366,0,0,0-2.16-5.61H73.942a5.611,5.611,0,0,1,5.611,5.611v67.33H37.472a1.4,1.4,0,0,0-1.4,1.4,7.014,7.014,0,0,1-6.887,7.014ZM68.331,48.692a1.4,1.4,0,1,1,1.4,1.4A1.4,1.4,0,0,1,68.331,48.692Zm2.805-14.027a1.4,1.4,0,1,1,1.4,1.4A1.4,1.4,0,0,1,71.137,34.665ZM64.123,23.443a1.4,1.4,0,1,1,1.4,1.4A1.4,1.4,0,0,1,64.123,23.443ZM52.9,16.43a1.4,1.4,0,1,1,1.4,1.4A1.4,1.4,0,0,1,52.9,16.43ZM78.15,85.163H35.929a9.736,9.736,0,0,0,2.849-5.611H85.024a7.026,7.026,0,0,1-6.873,5.611Z" transform="translate(-0.998 -1)"/><path d="M34.624,49.249A12.624,12.624,0,1,0,22,36.624,12.624,12.624,0,0,0,34.624,49.249Zm0-22.443a9.819,9.819,0,1,1-9.819,9.819,9.819,9.819,0,0,1,9.819-9.819Z" transform="translate(7.46 8.262)"/><path d="M53.805,49a2.805,2.805,0,1,0,2.805,2.805A2.805,2.805,0,0,0,53.805,49Z" transform="translate(19.139 18.33)"/><path d="M47.805,49a2.805,2.805,0,1,0,2.805,2.805A2.805,2.805,0,0,0,47.805,49Z" transform="translate(16.723 18.33)"/><path d="M41.805,49a2.805,2.805,0,1,0,2.805,2.805A2.805,2.805,0,0,0,41.805,49Z" transform="translate(14.307 18.33)"/><path d="M39,45H61.441v2.8H39Z" transform="translate(14.306 16.719)"/><path d="M52.819,5H47.208a4.208,4.208,0,1,0,0,8.416h5.611a4.208,4.208,0,1,0,0-8.416Zm0,5.611H47.208a1.4,1.4,0,1,1,0-2.805h5.611a1.4,1.4,0,1,1,0,2.805Z" transform="translate(15.918 0.611)"/></svg>