<svg xmlns="http://www.w3.org/2000/svg" width="97.891" height="98.063" viewBox="0 0 97.891 98.063"><path d="M124.347,172.919h68.517a2.614,2.614,0,0,1,2.613,2.612V221.91a2.614,2.614,0,0,1-2.613,2.613H124.347a2.614,2.614,0,0,1-2.612-2.612V175.532a2.614,2.614,0,0,1,2.613-2.613Z" transform="translate(-98.913 -140.053)" fill="#6e5a54"/><path d="M124.347,172.92H191.3a2.614,2.614,0,0,1,2.613,2.613v46.378a2.614,2.614,0,0,1-2.613,2.613H124.346a2.614,2.614,0,0,1-2.612-2.612V175.533A2.614,2.614,0,0,1,124.347,172.92Z" transform="translate(-98.912 -140.054)" fill="#9b827a"/><path d="M144.676,195.861H209.49V236.1H144.676Z" transform="translate(-117.391 -158.531)" fill="#fff"/><path d="M281.85,438.14h11.434v6.944H281.85Z" transform="translate(-227.875 -353.67)" fill="#836d66"/><path d="M233.686,473.827h23.287a4.286,4.286,0,0,1,4.277,4.277v1.038H229.409V478.1a4.285,4.285,0,0,1,4.277-4.277Z" transform="translate(-185.637 -382.414)" fill="#332622" fill-rule="evenodd"/><path d="M233.687,473.827h20.5a4.286,4.286,0,0,1,4.277,4.277v1.038H229.41V478.1A4.285,4.285,0,0,1,233.687,473.827Z" transform="translate(-185.638 -382.414)" fill="#453530" fill-rule="evenodd"/><path d="M328.289,438.14h2.4v6.944h-2.4Z" transform="translate(-265.278 -353.67)" fill="#6e5a54"/><path d="M137.649,195.861h1.367V236.1h-1.367Z" transform="translate(-111.731 -158.531)" fill="#6e5a54"/><g transform="translate(0 0)"><path d="M271.813,83.511h-14.59v3.375a.561.561,0,0,1-.887.458l-8.523-6.06a.562.562,0,0,1,0-.916l8.523-6.06a.561.561,0,0,1,.887.458V78.14h14.59a.536.536,0,0,1,.535.535v4.3a.536.536,0,0,1-.535.535Z" transform="translate(-200.27 -60.543)" fill="#2dd62d" fill-rule="evenodd"/><path d="M259.784,83.511v1.916a.561.561,0,0,1-.887.458l-8.14-5.789,8.14-5.788a.561.561,0,0,1,.887.458V78.14h14.59a.536.536,0,0,1,.535.535v2.842a.537.537,0,0,1-.536.534h-14.59v1.459Z" transform="translate(-202.831 -60.543)" fill="#43f043" fill-rule="evenodd"/><path d="M40.236,12.058,50.785,22.607a3.04,3.04,0,0,1,.991,2.237V62.491H11.5V11.067H38a3.039,3.039,0,0,1,2.236.991Z" transform="translate(-10.127 -9.692)" fill="#e3f1ff" fill-rule="evenodd"/><path d="M198.389,104.633V65.655c0-.634-.183-2.223-2.97-2.265h2.141l1.359,1.359a3.04,3.04,0,0,1,.991,2.237v37.647h-1.521Z" transform="translate(-158.261 -51.835)" fill="#b6dbff" fill-rule="evenodd"/><path d="M159.4,16.375l10.386,10.386a3.52,3.52,0,0,0-2.451-.993H160.4V18.826A3.519,3.519,0,0,0,159.4,16.375Z" transform="translate(-129.254 -13.968)" fill="#4eb1fc" fill-rule="evenodd"/><path d="M159.4,16.375l8.267,8.267a3.505,3.505,0,0,0-1.529-.349H160.4V18.827a3.519,3.519,0,0,0-.993-2.451Z" transform="translate(-129.254 -13.968)" fill="#85caff" fill-rule="evenodd"/><path d="M248.112,274.574H262.7v3.375a.561.561,0,0,0,.888.458l8.523-6.06a.562.562,0,0,0,0-.916l-8.523-6.06a.561.561,0,0,0-.888.458V269.2h-14.59a.536.536,0,0,0-.535.535v4.3a.536.536,0,0,0,.535.535Z" transform="translate(-200.27 -214.431)" fill="#2a92fa" fill-rule="evenodd"/><path d="M262.7,274.574v1.916a.561.561,0,0,0,.888.458l8.14-5.788-8.14-5.788a.561.561,0,0,0-.888.458V269.2h-14.59a.536.536,0,0,0-.535.535v2.842a.537.537,0,0,0,.536.534H262.7v1.459Z" transform="translate(-200.27 -214.431)" fill="#4eb1fc" fill-rule="evenodd"/><path d="M60.031,19.775V21.6a1.362,1.362,0,0,0,1.362,1.363H75.156v2.648H61.393a1.362,1.362,0,0,0-1.362,1.363v1.823l-6.342-4.511,6.342-4.508Zm-8.838,6.077,8.523,6.06a1.923,1.923,0,0,0,3.038-1.568V28.333H75.983a1.9,1.9,0,0,0,1.9-1.9v-4.3a1.9,1.9,0,0,0-1.9-1.9H62.755V18.225a1.923,1.923,0,0,0-3.038-1.568l-8.523,6.06a1.924,1.924,0,0,0,0,3.135Zm1.915,34.284H66.872a1.362,1.362,0,0,0,1.362-1.362V56.95l6.342,4.51-6.342,4.508V64.145a1.361,1.361,0,0,0-1.362-1.362H53.109V60.137Zm-.827,5.371H65.509v2.012a1.922,1.922,0,0,0,3.039,1.568l8.523-6.061a1.923,1.923,0,0,0,0-3.134l-8.523-6.06A1.923,1.923,0,0,0,65.51,55.4v2.014H52.282a1.9,1.9,0,0,0-1.9,1.9v4.3a1.9,1.9,0,0,0,1.9,1.9ZM11.713,19.778a1.363,1.363,0,0,1,1.362-1.363H26.624a1.362,1.362,0,0,1,0,2.725H13.075a1.362,1.362,0,0,1-1.362-1.362ZM40.189,45.451a1.361,1.361,0,0,1-1.362,1.362H13.075a1.362,1.362,0,1,1,0-2.724H38.827a1.362,1.362,0,0,1,1.362,1.362Zm0-19.255a1.361,1.361,0,0,1-1.362,1.362H13.075a1.362,1.362,0,1,1,0-2.724H38.827A1.362,1.362,0,0,1,40.189,26.2Zm0,6.419a1.363,1.363,0,0,1-1.362,1.363H13.075a1.362,1.362,0,0,1,0-2.725H38.827a1.361,1.361,0,0,1,1.362,1.362Zm0,6.418A1.363,1.363,0,0,1,38.827,40.4H13.075a1.362,1.362,0,1,1,0-2.724H38.827a1.362,1.362,0,0,1,1.362,1.362ZM11.713,13.359A1.363,1.363,0,0,1,13.075,12h8.694a1.362,1.362,0,0,1,0,2.724H13.075A1.361,1.361,0,0,1,11.713,13.359Zm87.9,72.485V39.507a1.25,1.25,0,0,0-1.248-1.249h-50.9v1.737h49.05a1.362,1.362,0,0,1,1.362,1.363V81.563a1.363,1.363,0,0,1-1.362,1.362H31.754a1.362,1.362,0,0,1-1.362-1.362V58.176H28.656V85.844A1.25,1.25,0,0,0,29.9,87.093H98.361a1.25,1.25,0,0,0,1.248-1.249ZM68.482,94.031h-8.7V89.817h8.7Zm10.177,5.31H49.606A2.914,2.914,0,0,1,52.5,96.755H75.766a2.914,2.914,0,0,1,2.893,2.586ZM7.165,6.725V55.452H44.737V19.147a1.7,1.7,0,0,0-.576-1.258.08.08,0,0,1-.017-.016L44.07,17.8a2.156,2.156,0,0,0-1.5-.607H35.634a1.361,1.361,0,0,1-1.362-1.362V8.894a2.155,2.155,0,0,0-.607-1.5l-.074-.074L33.574,7.3a1.7,1.7,0,0,0-1.258-.577Zm29.832,4,3.742,3.742H37Zm9.1,47.451H33.115V80.2H95.149V42.719H47.461V56.814A1.363,1.363,0,0,1,46.1,58.176ZM98.361,35.534h-50.9V19.147a4.4,4.4,0,0,0-1.4-3.208L35.524,5.4A4.394,4.394,0,0,0,32.316,4H5.8A1.361,1.361,0,0,0,4.441,5.364v51.45A1.362,1.362,0,0,0,5.8,58.176H25.932V85.844A3.978,3.978,0,0,0,29.9,89.818H57.058v4.214H52.5a5.641,5.641,0,0,0-5.635,5.635V100.7a1.361,1.361,0,0,0,1.362,1.362H80.039A1.361,1.361,0,0,0,81.4,100.7V99.667a5.641,5.641,0,0,0-5.635-5.635H71.206V89.818H98.361a3.977,3.977,0,0,0,3.972-3.974V39.508a3.977,3.977,0,0,0-3.972-3.974Z" transform="translate(-4.441 -4.002)" fill-rule="evenodd"/></g></svg>