<svg xmlns="http://www.w3.org/2000/svg" width="86.969" height="86.968" viewBox="0 0 86.969 86.968"><g transform="translate(1.403 1.403)"><g transform="translate(47.342 11.222)"><path d="M71.571,10.4v67.33a1.407,1.407,0,0,1-1.4,1.4H34.75l2.1-5.611h20.69l8.416-8.416v-50.5H54.907A14.312,14.312,0,0,0,57.46,9.337L57.544,9H70.169A1.407,1.407,0,0,1,71.571,10.4Z" transform="translate(-34.75 -9)" fill="#cf9e76"/></g><g transform="translate(28.054 11.222)"><path d="M37.664,14.611H26.611V47.785L21,49.1V10.4A1.407,1.407,0,0,1,22.4,9H35.027l.084.337a14.312,14.312,0,0,0,2.553,5.274Z" transform="translate(-21 -9)" fill="#cf9e76"/></g><g transform="translate(33.665 16.833)"><path d="M41.833,69.109V60.692A2.826,2.826,0,0,0,44.638,63.5a2.814,2.814,0,0,0,2.805-2.805V49.471a5.609,5.609,0,0,0-5.611-5.611V32.638a2.814,2.814,0,0,0-2.805-2.805H33.416a2.814,2.814,0,0,0-2.805,2.805V44.856L25,46.174V13H36.053a14.361,14.361,0,0,0,11.39,5.611A14.4,14.4,0,0,0,58.834,13H69.887V63.5H61.471v8.416H40.781Z" transform="translate(-25 -13)" fill="#e6e9ed"/></g><g transform="translate(47.692)"><path d="M51.833,9.416v2.805H46.222V9.416a2.826,2.826,0,0,0-2.805-2.805,2.814,2.814,0,0,0-2.805,2.805v2.805H35V9.416A8.423,8.423,0,0,1,43.416,1a8.429,8.429,0,0,1,8.416,8.416Z" transform="translate(-35 -1)" fill="#fcd770"/></g><g transform="translate(42.081 11.222)"><path d="M59.054,9l-.084.337a14.374,14.374,0,0,1-27.886,0L31,9H59.054Z" transform="translate(-31 -9)" fill="#ffeaa7"/></g><g transform="translate(0 8.416)"><path d="M29.054,44.382a19.435,19.435,0,0,1-8.416,1.894,18.356,18.356,0,0,1-2.5-.168,19.634,19.634,0,1,1,12.61-36.3h-.295a1.407,1.407,0,0,0-1.4,1.4v4.208a14.027,14.027,0,1,0,0,22.443Z" transform="translate(-1 -7)" fill="#ccd1d9"/></g><g transform="translate(5.611 14.027)"><path d="M19.027,11a13.924,13.924,0,0,1,8.416,2.805V36.249A14.026,14.026,0,1,1,19.027,11Z" transform="translate(-5 -11)" fill="#69d6f4"/></g><g transform="translate(11.222 47.692)"><path d="M17.416,40.611V54.638a2.814,2.814,0,0,1-2.805,2.805H11.805A2.814,2.814,0,0,1,9,54.638V37.805A2.814,2.814,0,0,1,11.805,35h2.805a1.789,1.789,0,0,1,.281.014,2.813,2.813,0,0,1,2.525,2.791Z" transform="translate(-9 -35)" fill="#fcd770"/></g><g transform="translate(0 47.692)"><path d="M12.222,37.805V54.638a2.814,2.814,0,0,1-2.805,2.805H3.805A2.814,2.814,0,0,1,1,54.638V37.805A2.814,2.814,0,0,1,3.805,35H9.416A2.814,2.814,0,0,1,12.222,37.805Z" transform="translate(-1 -35)" fill="#fcd770"/></g><g transform="translate(39.276 72.941)"><path d="M40.222,53,39.17,55.805l-2.1,5.611L36.5,62.9a2.019,2.019,0,0,1-3.787,0L29,53H40.222Z" transform="translate(-29 -53)" fill="#aab2bd"/></g><g transform="translate(39.276 33.665)"><path d="M37.416,25H31.805A2.814,2.814,0,0,0,29,27.805v8.416H40.222V27.805A2.814,2.814,0,0,0,37.416,25Z" transform="translate(-29 -25)" fill="#aab2bd"/></g><g transform="translate(50.498 47.692)"><path d="M42.611,40.611V51.833a2.814,2.814,0,0,1-2.805,2.805A2.826,2.826,0,0,1,37,51.833V35A5.609,5.609,0,0,1,42.611,40.611Z" transform="translate(-37 -35)" fill="#f0d0b4"/></g><g transform="translate(19.638 48.688)"><path d="M40.249,41.251l.631-.421a3.163,3.163,0,0,1,1.7-.5A3.037,3.037,0,0,1,45.3,42.008l.014.028a5.107,5.107,0,0,1,.547,2.314,5.183,5.183,0,0,1-2.581,4.489l-3.03,1.767-5.611,3.282-3.212,1.866a10.17,10.17,0,0,1-5.176,1.4,9.966,9.966,0,0,1-2.805-.393L15,54.352V40.325l8.416-1.978,5.611-1.319,5.611-1.319v9.23q.358-.189.715-.421Z" transform="translate(-15 -35.71)" fill="#f0d0b4"/></g><g transform="translate(61.72 44.887)"><path d="M45,33H56.222V44.222H45Z" transform="translate(-45 -33)" fill="#ff826e"/></g><g transform="translate(61.72 28.054)"><path d="M45,21H56.222V32.222H45Z" transform="translate(-45 -21)" fill="#ff826e"/></g><g transform="translate(16.833 25.249)"><path d="M16.886,19.21A2.808,2.808,0,1,1,13,21.805,2.826,2.826,0,0,1,15.805,19,2.8,2.8,0,0,1,16.886,19.21Z" transform="translate(-13 -19)" fill="#ff826e"/></g><g transform="translate(44.887 57.329)"><path d="M38.611,49.066v8.416H33V48.126l3.03-1.767a5.183,5.183,0,0,0,2.581-4.489Z" transform="translate(-33 -41.87)" fill="#ff826e"/></g><g transform="translate(44.887 44.887)"><path d="M38.611,35.805v9.637a5.107,5.107,0,0,0-.547-2.314L38.05,43.1a3.037,3.037,0,0,0-2.721-1.683,3.163,3.163,0,0,0-1.7.5L33,42.342V33h5.611Z" transform="translate(-33 -33)" fill="#ff826e"/></g><g transform="translate(39.276 63.585)"><path d="M34.611,46.33v9.356H29V49.612Z" transform="translate(-29 -46.33)" fill="#b4dd7f"/></g><g transform="translate(39.276 44.887)"><path d="M34.611,33v9.342l-4.9,3.268q-.358.231-.715.421V33Z" transform="translate(-29 -33)" fill="#b4dd7f"/></g><g transform="translate(70.136 67.33)"><path d="M59.416,49,51,57.416V49Z" transform="translate(-51 -49)" fill="#b4dd7f"/></g></g><path d="M4,56H6.805v2.805H4Z" transform="translate(1.611 22.552)"/><path d="M8,56h2.805v2.805H8Z" transform="translate(3.222 22.552)"/><path d="M12,56h2.805v2.805H12Z" transform="translate(4.833 22.552)"/><path d="M16,56h2.805v2.805H16Z" transform="translate(6.443 22.552)"/><path d="M20,56h2.805v2.805H20Z" transform="translate(8.054 22.552)"/><path d="M84.163,11.222H67.33v-1.4a9.819,9.819,0,0,0-19.638,0v1.4H31.523A21.03,21.03,0,1,0,10.8,47.819a4.146,4.146,0,0,0-.976-.126H4.208A4.213,4.213,0,0,0,0,51.9V68.733a4.213,4.213,0,0,0,4.208,4.208H9.819a4.181,4.181,0,0,0,2.805-1.094,4.174,4.174,0,0,0,2.805,1.094h2.805a4.206,4.206,0,0,0,3.817-2.46l7.042,2.011a11.653,11.653,0,0,0,9.076-1.139l1.107-.645V74.6l3.8,10.146a3.428,3.428,0,0,0,6.419,0l.217-.582H84.163a2.808,2.808,0,0,0,2.805-2.805V14.027A2.808,2.808,0,0,0,84.163,11.222ZM78.552,67.33H70.136v8.416H52.873L53.3,74.6v-4.72a4.161,4.161,0,0,0,1.4.258,4.213,4.213,0,0,0,4.208-4.208V54.706A7.027,7.027,0,0,0,53.3,47.834V37.873A4.213,4.213,0,0,0,49.1,33.665H43.484a4.213,4.213,0,0,0-4.208,4.208v11.1l-2.805.661v-30h8.986a15.755,15.755,0,0,0,24.11,0h8.986Zm-1.983,2.805-3.627,3.627V70.136ZM48.824,78.552H43.755L42.7,75.747h7.173Zm1.206-14.118c.164-.1.313-.208.467-.316v8.823H47.692V65.8ZM53.3,50.756a4.2,4.2,0,0,1,2.805,3.95V65.928a1.4,1.4,0,0,1-2.805,0ZM50.5,39.276H42.081v-1.4a1.405,1.405,0,0,1,1.4-1.4H49.1a1.405,1.405,0,0,1,1.4,1.4Zm-8.416,2.805H50.5v2.805H42.081Zm0,5.611h2.805v7.2l-2.805,1.87Zm5.611,0H50.5v6.03a4.284,4.284,0,0,0-2.805-.311ZM22.166,50.436a20.835,20.835,0,0,0,5.889-1.143v2.321l-5.611,1.32V51.9A4.174,4.174,0,0,0,22.166,50.436Zm-2.528-11.16V42a12.563,12.563,0,0,1-6.468-2.688l1.919-1.919-1.983-1.983-1.919,1.919A12.563,12.563,0,0,1,8.5,30.86h2.723V28.054H8.5a12.563,12.563,0,0,1,2.688-6.468l1.919,1.919,1.983-1.983L13.17,19.6a12.563,12.563,0,0,1,6.468-2.688v2.723h2.805v-2.72a12.47,12.47,0,0,1,5.611,2.051V39.945A12.47,12.47,0,0,1,22.443,42v-2.72ZM30.86,14.027H42.422a15.777,15.777,0,0,0,1.14,2.805h-9.9V50.294l-2.805.661Zm26.652,8.416a12.943,12.943,0,0,1-12.135-8.416H69.645A12.94,12.94,0,0,1,57.511,22.443Zm1.4-11.222H56.109v-1.4a1.4,1.4,0,1,1,2.805,0ZM50.5,9.819a7.014,7.014,0,0,1,14.027,0v1.4H61.72v-1.4a4.208,4.208,0,0,0-8.416,0v1.4H50.5ZM2.805,29.457a18.233,18.233,0,0,1,25.565-16.7,2.771,2.771,0,0,0-.316,1.267v1.686a15.43,15.43,0,1,0,0,27.488v3.065a18.054,18.054,0,0,1-7.014,1.427A18.256,18.256,0,0,1,2.805,29.457ZM12.669,48.75c-.015.013-.031.024-.045.036-.055-.049-.112-.094-.17-.14.073.034.142.072.215.1ZM9.819,70.136H4.208a1.405,1.405,0,0,1-1.4-1.4V51.9a1.405,1.405,0,0,1,1.4-1.4H9.819a1.405,1.405,0,0,1,1.4,1.4V68.733A1.405,1.405,0,0,1,9.819,70.136Zm9.819-1.4a1.405,1.405,0,0,1-1.4,1.4H15.43a1.405,1.405,0,0,1-1.4-1.4V51.9a1.405,1.405,0,0,1,1.4-1.4h2.805a1.405,1.405,0,0,1,1.4,1.4Zm17.119.2a8.945,8.945,0,0,1-6.892.865l-7.422-2.121V55.818l16.833-3.96v6.559a7.033,7.033,0,0,1-2.549.5H33.665v2.805h3.062a9.79,9.79,0,0,0,5.447-1.65L47.7,56.385a1.683,1.683,0,0,1,2.4.656,3.788,3.788,0,0,1-1.478,4.968Zm8.13-1.5v5.507H42.081v-3.87Zm.821,16.325-.9-2.4h2.965l-.9,2.4A.649.649,0,0,1,45.708,83.759Zm38.455-2.4H50.769l1.052-2.805h20.3l9.238-9.238V16.833h-9.9a15.776,15.776,0,0,0,1.14-2.805H84.163Z"/><path d="M42,12h2.805v2.805H42Z" transform="translate(16.914 4.833)"/><path d="M38,12h2.805v2.805H38Z" transform="translate(15.303 4.833)"/><path d="M28,20H47.638v2.805H28Z" transform="translate(11.276 8.054)"/><path d="M28,16h5.611v2.805H28Z" transform="translate(11.276 6.443)"/><path d="M44,34.027H58.027V20H44Zm2.805-11.222h8.416v8.416H46.805Z" transform="translate(17.72 8.054)"/><path d="M0,0H3.967V2.805H0Z" transform="translate(66.328 35.483) rotate(-45)"/><path d="M44,46.027H58.027V32H44Zm2.805-11.222h8.416v8.416H46.805Z" transform="translate(17.72 12.887)"/><path d="M0,0H3.967V2.805H0Z" transform="translate(66.326 52.312) rotate(-45)"/><path d="M20.916,23.759a4.182,4.182,0,0,0-1.4-3.113l2.246-5.423-2.592-1.074-2.246,5.423c-.072,0-.14-.021-.215-.021a4.139,4.139,0,0,0-1.8.422l-2.164-2.164-1.983,1.983,2.164,2.164a4.139,4.139,0,0,0-.422,1.8,4.208,4.208,0,0,0,8.416,0Zm-4.208,1.4a1.4,1.4,0,1,1,1.4-1.4A1.405,1.405,0,0,1,16.708,25.162Z" transform="translate(4.332 5.698)"/></svg>