<svg xmlns="http://www.w3.org/2000/svg" width="86.969" height="86.968" viewBox="0 0 86.969 86.968"><g transform="translate(1.403 1.403)"><g transform="translate(58.942 16.833)"><path d="M59.422,21.014,49.5,30.931a23.786,23.786,0,0,0-5.33-8.388l-.154-.154L52.408,14Z" transform="translate(-44.02 -14)" fill="#5cd6b3"/></g><g transform="translate(14.027 57.848)"><path d="M30.516,51.039l-11.5,11.5L12,55.528,24.288,43.24C26.658,45.554,29.015,47.869,30.516,51.039Z" transform="translate(-12 -43.24)" fill="#5cd6b3"/></g><g transform="translate(7.014 50.119)"><path d="M26.3,45.459,14.014,57.747,7,50.733l13-13a23.769,23.769,0,0,0,4.6,6.06c.561.561,1.122,1.122,1.7,1.669Z" transform="translate(-7 -37.73)" fill="#ff826e"/></g><g transform="translate(50.4 9.819)"><path d="M54.861,16.014,46.473,24.4a23.647,23.647,0,0,0-8.543-5.485L47.847,9Z" transform="translate(-37.93 -9)" fill="#ff826e"/></g><g transform="translate(64.525)"><path d="M67.638,11.917a9.892,9.892,0,0,1-2.9,7.014l-2.707,2.707L48,7.611,50.707,4.9a9.917,9.917,0,0,1,16.931,7.014Z" transform="translate(-48 -2)" fill="#aab2bd"/></g><g transform="translate(0 63.122)"><path d="M23.041,61.027,5.212,67.886a2.481,2.481,0,0,1-.842.154A2.377,2.377,0,0,1,2,65.67a2.481,2.481,0,0,1,.154-.842L9.014,47l7.014,7.014Z" transform="translate(-2 -47)" fill="#ccd1d9"/></g><g transform="translate(60.317 5.611)"><path d="M63.235,20.027l-4.208,4.208-7.014-7.014L45,10.208,49.208,6Z" transform="translate(-45 -6)" fill="#e6e9ed"/></g><g transform="translate(50.736 42.081)"><path d="M56.167,33.473a4.084,4.084,0,0,0,2.525,3.787c.014,0,.042.014.056.014a4.078,4.078,0,0,0,4.475-.87l1.052-1.052,3.97,3.97-1.052,1.052a4.078,4.078,0,0,0-.87,4.475c0,.014.014.042.014.056a4.084,4.084,0,0,0,3.787,2.525H71.6v5.611H70.124a4.084,4.084,0,0,0-3.787,2.525c0,.014-.014.042-.014.056a4.078,4.078,0,0,0,.87,4.475l1.052,1.052-3.97,3.97-1.052-1.052a4.078,4.078,0,0,0-4.475-.87c-.014,0-.042.014-.056.014A4.084,4.084,0,0,0,56.167,67v1.473H50.556V67a4.084,4.084,0,0,0-2.525-3.787c-.014,0-.042-.014-.056-.014a4.078,4.078,0,0,0-4.475.87l-1.052,1.052L38.9,61.569a2.775,2.775,0,0,0,.435-1.515,2.815,2.815,0,0,0-1.164-2.272c1.361-4.376,4.25-7.224,7.154-10.043a8.677,8.677,0,0,0-.379,2.5,8.416,8.416,0,1,0,8.416-8.416,8.558,8.558,0,0,0-3.24.645A17.15,17.15,0,0,0,53.361,32h2.805Z" transform="translate(-38.17 -32)" fill="#ffc729"/></g><g transform="translate(57.511 51.9)"><path d="M51.416,39A8.416,8.416,0,1,1,43,47.416a8.677,8.677,0,0,1,.379-2.5v-.014a38.913,38.913,0,0,0,4.8-5.26A8.558,8.558,0,0,1,51.416,39Zm2.805,8.416a2.805,2.805,0,1,0-2.805,2.805A2.814,2.814,0,0,0,54.222,47.416Z" transform="translate(-43 -39)" fill="#fcd770"/></g><g transform="translate(35.068 78.552)"><path d="M34.014,63.611a7.187,7.187,0,0,1-6.972-5.443L27,58H41.027l-.042.168A7.241,7.241,0,0,1,38.432,62.1,7.165,7.165,0,0,1,34.014,63.611Z" transform="translate(-27 -58)" fill="#aab2bd"/></g><g transform="translate(32.262 72.941)"><path d="M41.833,54a2.814,2.814,0,0,1,2.805,2.805,2.826,2.826,0,0,1-2.805,2.805H27.805A2.814,2.814,0,0,1,25,56.805,2.826,2.826,0,0,1,27.805,54Z" transform="translate(-25 -54)" fill="#ccd1d9"/></g><g transform="translate(32.262 67.33)"><path d="M44.638,52.805A2.775,2.775,0,0,1,44.2,54.32a3.115,3.115,0,0,1-.393.463,2.743,2.743,0,0,1-1.978.828H27.805A2.814,2.814,0,0,1,25,52.805a2.743,2.743,0,0,1,.828-1.978,1.692,1.692,0,0,1,.337-.295A2.766,2.766,0,0,1,27.805,50H41.833a2.766,2.766,0,0,1,1.641.533,2.815,2.815,0,0,1,1.164,2.272Z" transform="translate(-25 -50)" fill="#ccd1d9"/></g><g transform="translate(18.235 18.235)"><path d="M61.191,30.528a23.786,23.786,0,0,0-5.33-8.388l-.154-.154A23.909,23.909,0,0,0,39.309,15H39.3a9.6,9.6,0,0,1,.954,4.208,9.711,9.711,0,0,1-.519,3.142v.014a5.493,5.493,0,0,1,1.922-.351,5.611,5.611,0,1,1,0,11.222H15.659A23.815,23.815,0,0,0,15,38.846a17.418,17.418,0,0,0,1.781,8.038,23.769,23.769,0,0,0,4.6,6.06c.561.561,1.122,1.122,1.7,1.669,2.371,2.314,4.727,4.629,6.228,7.8a13.519,13.519,0,0,1,.884,2.216,2.766,2.766,0,0,1,1.641-.533H45.86a2.766,2.766,0,0,1,1.641.533c1.361-4.376,4.25-7.224,7.154-10.043v-.014a38.914,38.914,0,0,0,4.8-5.26,17.149,17.149,0,0,0,3.24-10.464,23.653,23.653,0,0,0-1.5-8.318Z" transform="translate(-15 -15)" fill="#ffeaa7"/></g><g transform="translate(0 5.611)"><path d="M31.878,13.771A9.818,9.818,0,0,1,44.53,18.624a9.6,9.6,0,0,1,.954,4.208,9.711,9.711,0,0,1-.519,3.142v.014a5.493,5.493,0,0,1,1.922-.351,5.611,5.611,0,1,1,0,11.222H9.014A7.009,7.009,0,0,1,8.34,22.875v-.014a12.444,12.444,0,0,1-.729-4.236,12.623,12.623,0,0,1,24.253-4.91Z" transform="translate(-2 -6)" fill="#e6e9ed"/></g></g><g transform="translate(0 0)"><path d="M50.208,50.416A4.208,4.208,0,1,0,46,46.208,4.213,4.213,0,0,0,50.208,50.416Zm0-5.611a1.4,1.4,0,1,1-1.4,1.4A1.4,1.4,0,0,1,50.208,44.805Z" transform="translate(17.122 15.511)"/><path d="M82.582,56.8a2.692,2.692,0,0,1,.574-2.95L85.2,51.8l-5.953-5.953L77.2,47.894a2.707,2.707,0,0,1-3,.55,2.673,2.673,0,0,1-1.658-2.48V43.081H69.662a24.85,24.85,0,0,0-1.243-6.521L84.651,20.328A11.321,11.321,0,1,0,68.642,4.316L52.426,20.533A24.918,24.918,0,0,0,45.81,19.3,11.163,11.163,0,0,0,32.99,14.063,14,14,0,0,0,6.983,23.805,8.415,8.415,0,0,0,9.416,40.276H19.592a25.434,25.434,0,0,0-.356,4.208,19.259,19.259,0,0,0,1.492,7.746L8.214,64.745l-6.963,18.1A3.733,3.733,0,0,0,1,84.2a3.769,3.769,0,0,0,5.121,3.518l18.1-6.963,9.15-9.151a4.1,4.1,0,0,0,.982,3.741A4.172,4.172,0,0,0,36.4,82.2a8.544,8.544,0,0,0,16.159,0,4.2,4.2,0,0,0,3.142-4.054c0-.105-.024-.2-.031-.306l1.742,1.742,2.044-2.042a2.747,2.747,0,0,1,4.661,1.932v2.883h8.416V79.475A2.749,2.749,0,0,1,77.2,77.543l2.042,2.042L85.2,73.633,83.156,71.59a2.713,2.713,0,0,1-.551-3,2.678,2.678,0,0,1,2.481-1.659h2.883V58.511H85.086a2.7,2.7,0,0,1-2.5-1.714ZM61.564,60.932a41.862,41.862,0,0,0,4.386-4.785,6.931,6.931,0,0,1,2.38-.442,7.082,7.082,0,1,1-6.767,5.227ZM63.248,27.7l6.485-6.486,5.03,5.03-7.492,7.492A25.457,25.457,0,0,0,63.248,27.7ZM64.7,12.222,66.928,10,78.971,22.041l-2.225,2.225ZM76.647,3.805a8.516,8.516,0,0,1,6.022,14.538l-1.714,1.714L68.911,8.014,70.625,6.3a8.464,8.464,0,0,1,6.022-2.494ZM62.72,14.205l5.03,5.03-6.482,6.482a25.428,25.428,0,0,0-6.033-4.027Zm4.208,30.279c0,7.3-3.675,10.884-7.566,14.678-2.679,2.613-5.431,5.315-7.033,9.252a4.148,4.148,0,0,0-.83-.084H45.887V61.317a4.213,4.213,0,0,0-4.208-4.208H38.873a1.4,1.4,0,1,1,0-2.805H52.9a4.208,4.208,0,1,0,0-8.416H41.679a1.4,1.4,0,0,1-1.4-1.4V40.276H47.29a7.014,7.014,0,1,0,0-14.027c-.039,0-.076.011-.115.011a11.044,11.044,0,0,0,.115-1.414,11.237,11.237,0,0,0-.331-2.66A22.563,22.563,0,0,1,66.928,44.484ZM36.068,72.539a1.4,1.4,0,0,1,1.4-1.4H51.5a1.4,1.4,0,0,1,0,2.805H37.471A1.4,1.4,0,0,1,36.068,72.539Zm-17.655,0L28.725,62.227a25.462,25.462,0,0,1,4.508,5.551l-9.79,9.791ZM3.805,31.86a5.611,5.611,0,0,1,11.222,0h2.805a8.419,8.419,0,0,0-8.057-8.4,11.21,11.21,0,0,1,20.638-8.293,11.231,11.231,0,0,0-5.5,8.451,5.61,5.61,0,0,0-4.278,5.434h2.805a2.805,2.805,0,0,1,5.611,0H31.86a5.6,5.6,0,0,0-4.117-5.384,8.406,8.406,0,1,1,16.433,3.34,7,7,0,0,0-3.9,6.252h2.805a4.208,4.208,0,1,1,4.208,4.208H9.416A5.617,5.617,0,0,1,3.805,31.86Zm33.665,8.416v4.208a4.213,4.213,0,0,0,4.208,4.208H52.9a1.4,1.4,0,0,1,0,2.805H38.873a4.208,4.208,0,1,0,0,8.416h2.805a1.4,1.4,0,0,1,1.4,1.4V68.33H37.471a4.147,4.147,0,0,0-.83.084c-1.6-3.937-4.354-6.639-7.033-9.252-3.891-3.794-7.566-7.38-7.566-14.678a22.612,22.612,0,0,1,.432-4.208ZM26.722,60.263,16.43,70.555l-5.03-5.03,10.7-10.7a31.554,31.554,0,0,0,4.619,5.441ZM9.951,68.043,20.926,79.018l-9.292,3.574L6.377,77.334ZM5.116,85.1a.965.965,0,0,1-1.247-1.244L5.274,80.2l3.494,3.494Zm39.369.065a5.763,5.763,0,0,1-4.943-2.805h9.886a5.763,5.763,0,0,1-4.943,2.805ZM51.5,79.552H37.471a1.4,1.4,0,1,1,0-2.805H51.5a1.4,1.4,0,1,1,0,2.805Zm33.665-15.43h-.077a5.554,5.554,0,0,0-3.915,9.451l.059.059-1.986,1.986-.059-.059a5.554,5.554,0,0,0-9.452,3.915v.077H66.928v-.077a5.554,5.554,0,0,0-9.453-3.915l-.059.059-1.9-1.9a4.112,4.112,0,0,0,.191-1.18,4.168,4.168,0,0,0-.943-2.622A18.09,18.09,0,0,1,58.6,63.938,9.815,9.815,0,1,0,68.33,52.9c-.137,0-.271.014-.407.02a18.4,18.4,0,0,0,1.766-7.033h.043v.077a5.554,5.554,0,0,0,9.451,3.915l.059-.059,1.986,1.986-.059.059a5.554,5.554,0,0,0,3.915,9.452h.077Z" transform="translate(-1 -1)"/></g></svg>