<svg xmlns="http://www.w3.org/2000/svg" xmlns:xlink="http://www.w3.org/1999/xlink" width="190" height="103.271" viewBox="0 0 190 103.271"><defs><clipPath id="a"><rect width="190" height="103" rx="13" transform="translate(285 4536.259)" fill="#f4f4fd"/></clipPath><clipPath id="b"><rect width="214.328" height="212.965" fill="none"/></clipPath><clipPath id="c"><rect width="214.327" height="212.965" fill="none"/></clipPath><clipPath id="d"><rect width="17.237" height="17.237" fill="none"/></clipPath><clipPath id="af"><rect width="100.784" height="1.889" fill="none"/></clipPath><clipPath id="ai"><rect width="142.557" height="1.889" fill="none"/></clipPath><clipPath id="al"><rect width="3.713" height="2.265" fill="none"/></clipPath><clipPath id="am"><rect width="3.713" height="2.266" fill="none"/></clipPath></defs><g transform="translate(-285 -4792.259)"><rect width="190" height="103" rx="13" transform="translate(285 4792.53)" fill="#f4f4fd"/><g transform="translate(0 256)" clip-path="url(#a)"><g transform="translate(280.672 4536.259)"><g clip-path="url(#b)"><rect width="160.453" height="160.453" transform="translate(6.8 22.602)" fill="#91c4fb"/><rect width="160.453" height="160.453" transform="translate(6.8 14.542)" fill="#e4e7ff"/><rect width="160.453" height="27.94" transform="translate(6.8 14.542)" fill="#7371fc"/><g transform="translate(0 0)"><g clip-path="url(#c)"><path d="M17.172,13.625A5.153,5.153,0,1,1,12.02,8.472a5.153,5.153,0,0,1,5.153,5.153" transform="translate(9.431 11.635)" fill="#443dc3"/><path d="M10.392,27.152h0a2.34,2.34,0,0,1-2.34-2.34V2.34a2.34,2.34,0,1,1,4.68,0V24.811a2.34,2.34,0,0,1-2.34,2.34" transform="translate(11.059 0)" fill="#fe814b"/><path d="M24.08,13.625a5.153,5.153,0,1,1-5.153-5.153,5.153,5.153,0,0,1,5.153,5.153" transform="translate(18.918 11.635)" fill="#443dc3"/><path d="M17.3,27.152h0a2.34,2.34,0,0,1-2.34-2.34V2.34a2.34,2.34,0,1,1,4.68,0V24.811a2.34,2.34,0,0,1-2.34,2.34" transform="translate(20.545 0)" fill="#fe814b"/><path d="M30.987,13.625a5.153,5.153,0,1,1-5.153-5.153,5.153,5.153,0,0,1,5.153,5.153" transform="translate(28.405 11.635)" fill="#443dc3"/><path d="M24.207,27.152h0a2.34,2.34,0,0,1-2.34-2.34V2.34a2.34,2.34,0,1,1,4.68,0V24.811a2.34,2.34,0,0,1-2.34,2.34" transform="translate(30.032 0)" fill="#fe814b"/><path d="M37.894,13.625a5.153,5.153,0,1,1-5.153-5.153,5.153,5.153,0,0,1,5.153,5.153" transform="translate(37.891 11.635)" fill="#443dc3"/><path d="M31.114,27.152h0a2.34,2.34,0,0,1-2.34-2.34V2.34a2.34,2.34,0,0,1,4.68,0V24.811a2.34,2.34,0,0,1-2.34,2.34" transform="translate(39.518 0)" fill="#fe814b"/><path d="M44.8,13.625a5.154,5.154,0,1,1-5.155-5.153A5.153,5.153,0,0,1,44.8,13.625" transform="translate(47.377 11.635)" fill="#443dc3"/><path d="M38.021,27.152h0a2.34,2.34,0,0,1-2.34-2.34V2.34a2.34,2.34,0,0,1,4.68,0V24.811a2.34,2.34,0,0,1-2.34,2.34" transform="translate(49.004 0)" fill="#fe814b"/><path d="M51.709,13.625a5.153,5.153,0,1,1-5.153-5.153,5.153,5.153,0,0,1,5.153,5.153" transform="translate(56.864 11.635)" fill="#443dc3"/><path d="M44.929,27.152h0a2.34,2.34,0,0,1-2.34-2.34V2.34a2.34,2.34,0,1,1,4.68,0V24.811a2.34,2.34,0,0,1-2.34,2.34" transform="translate(58.491 0)" fill="#fe814b"/><path d="M58.616,13.625a5.153,5.153,0,1,1-5.153-5.153,5.153,5.153,0,0,1,5.153,5.153" transform="translate(66.35 11.635)" fill="#443dc3"/><path d="M51.836,27.152h0a2.34,2.34,0,0,1-2.34-2.34V2.34a2.34,2.34,0,0,1,4.68,0V24.811a2.34,2.34,0,0,1-2.34,2.34" transform="translate(67.977 0)" fill="#fe814b"/><path d="M65.523,13.625a5.153,5.153,0,1,1-5.153-5.153,5.153,5.153,0,0,1,5.153,5.153" transform="translate(75.836 11.635)" fill="#443dc3"/><path d="M58.743,27.152h0a2.34,2.34,0,0,1-2.34-2.34V2.34a2.34,2.34,0,1,1,4.68,0V24.811a2.34,2.34,0,0,1-2.34,2.34" transform="translate(77.464 0)" fill="#fe814b"/><path d="M72.431,13.625a5.153,5.153,0,1,1-5.153-5.153,5.153,5.153,0,0,1,5.153,5.153" transform="translate(85.323 11.635)" fill="#443dc3"/><path d="M65.651,27.152h0a2.34,2.34,0,0,1-2.34-2.34V2.34a2.34,2.34,0,1,1,4.68,0V24.811a2.34,2.34,0,0,1-2.34,2.34" transform="translate(86.951 0)" fill="#fe814b"/><g transform="translate(16.298 67.109)" style="mix-blend-mode:multiply;isolation:isolate"><g clip-path="url(#d)"><rect width="17.238" height="17.238" transform="translate(0 -0.001)" fill="#e4e7ff"/></g></g><g transform="translate(37.185 67.109)" style="mix-blend-mode:multiply;isolation:isolate"><g clip-path="url(#d)"><rect width="17.238" height="17.238" transform="translate(-0.001 -0.001)" fill="#e4e7ff"/></g></g><g transform="translate(58.072 67.109)" style="mix-blend-mode:multiply;isolation:isolate"><g clip-path="url(#d)"><rect width="17.238" height="17.238" transform="translate(-0.002 -0.001)" fill="#e4e7ff"/></g></g><g transform="translate(78.959 67.109)" style="mix-blend-mode:multiply;isolation:isolate"><g clip-path="url(#d)"><rect width="17.238" height="17.238" transform="translate(0 -0.001)" fill="#e4e7ff"/></g></g><g transform="translate(99.845 67.109)" style="mix-blend-mode:multiply;isolation:isolate"><g clip-path="url(#d)"><rect width="17.238" height="17.238" transform="translate(-0.001 -0.001)" fill="#e4e7ff"/></g></g><g transform="translate(120.732 67.109)" style="mix-blend-mode:multiply;isolation:isolate"><g clip-path="url(#d)"><rect width="17.238" height="17.238" transform="translate(0 -0.001)" fill="#e4e7ff"/></g></g><g transform="translate(141.619 67.109)" style="mix-blend-mode:multiply;isolation:isolate"><g clip-path="url(#d)"><rect width="17.238" height="17.238" transform="translate(-0.001 -0.001)" fill="#e4e7ff"/></g></g><g transform="translate(16.298 88.184)" style="mix-blend-mode:multiply;isolation:isolate"><g clip-path="url(#d)"><rect width="17.238" height="17.238" transform="translate(0 -0.001)" fill="#e4e7ff"/></g></g><g transform="translate(37.185 88.184)" style="mix-blend-mode:multiply;isolation:isolate"><g clip-path="url(#d)"><rect width="17.238" height="17.238" transform="translate(-0.001 -0.001)" fill="#e4e7ff"/></g></g><g transform="translate(58.072 88.184)" style="mix-blend-mode:multiply;isolation:isolate"><g clip-path="url(#d)"><rect width="17.238" height="17.238" transform="translate(-0.002 -0.001)" fill="#e4e7ff"/></g></g><g transform="translate(78.959 88.184)" style="mix-blend-mode:multiply;isolation:isolate"><g clip-path="url(#d)"><rect width="17.238" height="17.238" transform="translate(0 -0.001)" fill="#e4e7ff"/></g></g><g transform="translate(99.845 88.184)" style="mix-blend-mode:multiply;isolation:isolate"><g clip-path="url(#d)"><rect width="17.238" height="17.238" transform="translate(-0.001 -0.001)" fill="#e4e7ff"/></g></g><g transform="translate(120.732 88.184)" style="mix-blend-mode:multiply;isolation:isolate"><g clip-path="url(#d)"><rect width="17.238" height="17.238" transform="translate(0 -0.001)" fill="#e4e7ff"/></g></g><g transform="translate(141.619 88.184)" style="mix-blend-mode:multiply;isolation:isolate"><g clip-path="url(#d)"><rect width="17.238" height="17.238" transform="translate(-0.001 -0.001)" fill="#e4e7ff"/></g></g><g transform="translate(16.298 109.26)" style="mix-blend-mode:multiply;isolation:isolate"><g clip-path="url(#d)"><rect width="17.238" height="17.238" transform="translate(0 -0.001)" fill="#e4e7ff"/></g></g><g transform="translate(37.185 109.26)" style="mix-blend-mode:multiply;isolation:isolate"><g clip-path="url(#d)"><rect width="17.238" height="17.238" transform="translate(-0.001 -0.001)" fill="#e4e7ff"/></g></g><g transform="translate(58.072 109.26)" style="mix-blend-mode:multiply;isolation:isolate"><g clip-path="url(#d)"><rect width="17.238" height="17.238" transform="translate(-0.002 -0.001)" fill="#e4e7ff"/></g></g><g transform="translate(78.959 109.26)" style="mix-blend-mode:multiply;isolation:isolate"><g clip-path="url(#d)"><rect width="17.238" height="17.238" transform="translate(0 -0.001)" fill="#e4e7ff"/></g></g><g transform="translate(99.845 109.26)" style="mix-blend-mode:multiply;isolation:isolate"><g clip-path="url(#d)"><rect width="17.238" height="17.238" transform="translate(-0.001 -0.001)" fill="#e4e7ff"/></g></g><g transform="translate(120.732 109.26)" style="mix-blend-mode:multiply;isolation:isolate"><g clip-path="url(#d)"><rect width="17.238" height="17.238" transform="translate(0 -0.001)" fill="#e4e7ff"/></g></g><g transform="translate(141.619 109.26)" style="mix-blend-mode:multiply;isolation:isolate"><g clip-path="url(#d)"><rect width="17.238" height="17.238" transform="translate(-0.001 -0.001)" fill="#e4e7ff"/></g></g><g transform="translate(16.298 130.336)" style="mix-blend-mode:multiply;isolation:isolate"><g clip-path="url(#d)"><rect width="17.238" height="17.238" transform="translate(0 -0.001)" fill="#e4e7ff"/></g></g><g transform="translate(37.185 130.336)" style="mix-blend-mode:multiply;isolation:isolate"><g clip-path="url(#d)"><rect width="17.238" height="17.238" transform="translate(-0.001 -0.001)" fill="#e4e7ff"/></g></g><g transform="translate(58.072 130.336)" style="mix-blend-mode:multiply;isolation:isolate"><g clip-path="url(#d)"><rect width="17.238" height="17.238" transform="translate(-0.002 -0.001)" fill="#e4e7ff"/></g></g><g transform="translate(78.959 130.336)" style="mix-blend-mode:multiply;isolation:isolate"><g clip-path="url(#d)"><rect width="17.238" height="17.238" transform="translate(0 -0.001)" fill="#e4e7ff"/></g></g><g transform="translate(99.845 130.336)" style="mix-blend-mode:multiply;isolation:isolate"><g clip-path="url(#d)"><rect width="17.238" height="17.238" transform="translate(-0.001 -0.001)" fill="#e4e7ff"/></g></g><g transform="translate(120.732 130.336)" style="mix-blend-mode:multiply;isolation:isolate"><g clip-path="url(#d)"><rect width="17.238" height="17.238" transform="translate(0 -0.001)" fill="#e4e7ff"/></g></g><g transform="translate(141.619 130.336)" style="mix-blend-mode:multiply;isolation:isolate"><g clip-path="url(#d)"><rect width="17.238" height="17.238" transform="translate(-0.001 -0.001)" fill="#e4e7ff"/></g></g><g transform="translate(58.072 50.85)" style="mix-blend-mode:multiply;isolation:isolate"><g clip-path="url(#af)"><rect width="100.784" height="1.889" transform="translate(0 0)" fill="#e4e7ff"/></g></g><g transform="translate(58.072 54.651)" style="mix-blend-mode:multiply;isolation:isolate"><g clip-path="url(#af)"><rect width="100.784" height="1.889" transform="translate(0 -0.001)" fill="#e4e7ff"/></g></g><g transform="translate(58.072 58.452)" style="mix-blend-mode:multiply;isolation:isolate"><g clip-path="url(#af)"><rect width="100.784" height="1.889" transform="translate(0 0)" fill="#e4e7ff"/></g></g><g transform="translate(16.298 154.33)" style="mix-blend-mode:multiply;isolation:isolate"><g clip-path="url(#ai)"><rect width="142.558" height="1.889" transform="translate(0 0)" fill="#e4e7ff"/></g></g><g transform="translate(16.298 158.131)" style="mix-blend-mode:multiply;isolation:isolate"><g clip-path="url(#ai)"><rect width="142.558" height="1.889" transform="translate(0 0.001)" fill="#e4e7ff"/></g></g><g transform="translate(16.298 161.932)" style="mix-blend-mode:multiply;isolation:isolate"><g clip-path="url(#ai)"><rect width="142.558" height="1.889" transform="translate(0 0)" fill="#e4e7ff"/></g></g><rect width="36.939" height="9.491" transform="translate(17.482 50.85)" fill="#fe814b"/><path d="M160.339.25H0v-.5H160.339Z" transform="translate(6.799 176.255)" fill="#e4e7ff"/><path d="M160.339.25H0v-.5H160.339Z" transform="translate(6.799 178.076)" fill="#e4e7ff"/><path d="M160.339.25H0v-.5H160.339Z" transform="translate(6.799 179.896)" fill="#e4e7ff"/><path d="M160.339.25H0v-.5H160.339Z" transform="translate(6.799 181.717)" fill="#e4e7ff"/><path d="M26.629,35.148A47.178,47.178,0,0,1,36.3,43.682l-8.717.057c2.15-8.539,7.6-16.139,16.258-19.1,1.469,8.881-1.64,17.214-7.507,23.713l-6.565,7.111c-1.882-6.33-4.771-13.628-3.14-20.319" transform="translate(35.912 33.844)" fill="#32338c"/><path d="M26.294,53.231a47.177,47.177,0,0,1,9.672,8.535l-8.717.057c2.15-8.539,7.6-16.139,16.258-19.1C44.975,51.607,41.866,59.94,36,66.439l-6.565,7.111c-1.882-6.33-4.771-13.628-3.14-20.319" transform="translate(35.452 58.679)" fill="#fe814b"/><path d="M18.012,51.545c4.2,8.032,7.536,19.649,10.554,28.182l-11.66-8.81a95.306,95.306,0,0,0-11.53-7.661l12.636-11.71" transform="translate(7.383 70.791)" fill="#7371fc"/><path d="M6.149,70.845A140,140,0,0,1,27.481,51.471,131.03,131.03,0,0,0,21.775,78.1L6.149,70.845" transform="translate(8.445 70.69)" fill="#7371fc"/><path d="M26.379,58.193a13.164,13.164,0,0,1-1.667-.107,12.084,12.084,0,0,1-7.059-3.363A8.764,8.764,0,0,1,15,51.484a10.328,10.328,0,0,1-.68-5.8,13.534,13.534,0,0,1,1.358-4.31,11.353,11.353,0,0,1,2.8-3.546,9.96,9.96,0,0,1,4.079-2.044,8.748,8.748,0,0,1,4.549.1l-.023.075c.194-.018.39-.039.588-.06a13.573,13.573,0,0,1,2.455-.11,8.715,8.715,0,0,1,6.732,4.9,11.678,11.678,0,0,1,1.221,6.672,11.842,11.842,0,0,1-.321,2.211,10.241,10.241,0,0,1-3.092,5.28q-.12.106-.243.209a10.94,10.94,0,0,1-1.408,1.149A11.705,11.705,0,0,1,26.379,58.193ZM18.3,53.954a12.783,12.783,0,0,0,4.889,2.213,14.81,14.81,0,0,0,5.771.236,10,10,0,0,0,4.795-2.087,11.281,11.281,0,0,0,3.039-5.407,12.146,12.146,0,0,0,.289-1.634,10.92,10.92,0,0,0-.42-3.586,10.382,10.382,0,0,0-2.2-3.966,8.168,8.168,0,0,0-3.683-2.415,10.292,10.292,0,0,0-4.121-.276,13.483,13.483,0,0,0-8.211,3.734,9.627,9.627,0,0,0-2.772,8.273,9.449,9.449,0,0,0,2.23,4.491Q18.095,53.747,18.3,53.954ZM23.726,36.59a8.452,8.452,0,0,0-.942.168A8.955,8.955,0,0,0,19.116,38.6a9.842,9.842,0,0,0-1.547,1.639q.082-.086.165-.171A13.731,13.731,0,0,1,23.726,36.59Z" transform="translate(20.166 49.487)" fill="#32338c"/><path d="M21.005,48.6l.631-10.144,7.381,8.9L16.894,43.524,29.018,39.8Z" transform="translate(23.203 52.81)" fill="#32338c"/><path d="M53.211,80.075q-1.52,0-3.035-.113a37.521,37.521,0,0,1-12.756-3.254,34,34,0,0,1-10.733-7.587,31.6,31.6,0,0,1-6.835-11.3,29.083,29.083,0,0,1-1.433-13.094l1.984.253a27.074,27.074,0,0,0,1.34,12.187,29.586,29.586,0,0,0,6.4,10.577,34.236,34.236,0,0,0,22.184,10.22A41.72,41.72,0,0,0,74.168,72.32l.994,1.736A44.2,44.2,0,0,1,53.211,80.075Z" transform="translate(26.37 61.606)" fill="#32338c"/><path d="M44.167,64.03l-1.989-1.276,2.827-4.405c-1.734-.237-4.29-.6-5.887-.912l.447-2.32c2.472.476,7.537,1.128,7.588,1.135l1.853.238Z" transform="translate(54.032 77.289)" fill="#32338c"/><path d="M58.021,129.168H79.234l-.788-31.2,9.078,31.2h24.83c-1.251-14.715-2.879-31.189-4.581-41.261-3.653-21.593-11.874-25.9-11.874-25.9l-29.947-.992s-11.081,14.8-10.611,34.725c.2,8.44,1.381,21.349,2.68,33.429" transform="translate(75.986 83.796)" fill="#32338c"/><path d="M60.71,51.106a28.428,28.428,0,0,0-5.371-.237,2.652,2.652,0,0,0-1.246.28,2.373,2.373,0,0,0-.935,1.8,12.61,12.61,0,0,0,.778,5.352c.116.373.242.743.37,1.115a9.744,9.744,0,0,0,3.019-1.9,11.615,11.615,0,0,0,3.384-6.413" transform="translate(72.921 69.811)" fill="#fe5228"/><path d="M76.849,43.172c-.161-.655-.544-2.271-1.294-2.494-.648-.195-1.925.764-2.449,1.08a21.822,21.822,0,0,0-7.967,9.195C62.95,55.419,61.889,60.339,60.85,65.2c-.278-.047-.56-.081-.84-.119A11.615,11.615,0,0,1,56.625,71.5a9.716,9.716,0,0,1-3.019,1.9C55.9,80.069,59.822,86.5,66.059,89.717c1.028.527,2.3.954,3.294.37,1.021-.6,1.251-1.949,1.384-3.126C72.18,74.328,75,61.891,76.8,49.305a16.254,16.254,0,0,0,.045-6.133" transform="translate(73.622 55.831)" fill="#fe814b"/><path d="M105.273,48.2l-19.4-8.772s-15.933-.14-20.2,4.806-7.661,15.826-7.661,15.826l4.26,30.607s1.668,5.255,10.678,7.509,19.267-6.517,19.267-6.517Z" transform="translate(79.669 54.146)" fill="#7371fc"/><rect width="19.234" height="4.622" transform="matrix(0.464, -0.886, 0.886, 0.464, 176.013, 147.965)" fill="#e4e7ff"/><rect width="19.234" height="4.622" transform="matrix(0.464, -0.886, 0.886, 0.464, 180.107, 150.11)" fill="#d0cdff"/><rect width="19.234" height="4.622" transform="matrix(0.464, -0.886, 0.886, 0.464, 184.201, 152.255)" fill="#e4e7ff"/><rect width="19.234" height="4.622" transform="matrix(0.464, -0.886, 0.886, 0.464, 188.294, 154.401)" fill="#d0cdff"/><path d="M88.917,79.935l-7.856-4.118,8.926-17.036L97.846,62.9a9.617,9.617,0,0,1-8.929,17.036" transform="translate(111.329 80.729)" fill="#fe814b"/><path d="M42.6,35.478,28.873,34.037l9.406,10.944c.278-.349.584-.674.843-1.037A19.191,19.191,0,0,0,42.6,35.478" transform="translate(39.654 46.746)" fill="#32338c"/><path d="M49.338,35.922,37.156,34.643a19.2,19.2,0,0,1-3.475,8.466c-.261.363-.567.688-.845,1.037l7.574,8.812Z" transform="translate(45.097 47.578)" fill="#fec5b7"/><rect width="3.561" height="102.181" transform="matrix(0.464, -0.886, 0.886, 0.464, 88.293, 95.22)" fill="#7355fc"/><rect width="2.442" height="102.179" transform="matrix(0.464, -0.886, 0.886, 0.464, 85.507, 100.539)" fill="#7355fc"/><rect width="3.561" height="102.18" transform="matrix(0.464, -0.886, 0.886, 0.464, 86.641, 98.376)" fill="#7371fc"/><rect width="3.561" height="102.18" transform="translate(89.941 92.078) rotate(-62.359)" fill="#7371fc"/><rect width="3.561" height="102.18" transform="matrix(0.464, -0.886, 0.886, 0.464, 91.599, 88.911)" fill="#7355fc"/><rect width="2.548" height="102.181" transform="matrix(0.464, -0.886, 0.886, 0.464, 93.251, 85.758)" fill="#7371fc"/><path d="M90.981,62.007,59.066,45.285,91.874,59.608Z" transform="translate(81.121 62.193)" fill="#32338c"/><path d="M69.359,53.724a9.492,9.492,0,0,1-3.6.681,3.843,3.843,0,0,1-3.119-1.683c-.866-1.448-.294-3.392.826-4.652a6.511,6.511,0,0,1-5.286-4.54A6.188,6.188,0,0,1,60.6,37.2a1.266,1.266,0,0,0,.541-.553,1.229,1.229,0,0,0-.057-.712A9.036,9.036,0,0,1,72.057,24.826a8.9,8.9,0,0,1,3.812-5.941,12.138,12.138,0,0,1,6.624-1.977,10.3,10.3,0,0,1,5.115,1.061,6.091,6.091,0,0,1,3.169,4.016c1.766-1.666,4.811-1.723,7.018-.712a8.962,8.962,0,0,1,4.369,4.134,6.936,6.936,0,0,1,.114,5.929,7.722,7.722,0,0,1,6.3,4.509,5.837,5.837,0,0,1-1.915,7.03,7.446,7.446,0,0,1,2.2,2.532,6.4,6.4,0,0,1,.66,3.083,8.048,8.048,0,0,1-.373,2.765,5.367,5.367,0,0,1-4.455,3.468,3.5,3.5,0,0,1-.432,2.656,6.445,6.445,0,0,1-1.9,2.041,6.792,6.792,0,0,1-2.017,1.061,5.149,5.149,0,0,1-5.672-2.091Z" transform="translate(79.7 23.216)" fill="#32338c"/><path d="M75.573,39.031a8.493,8.493,0,0,1-1.047.935,12.641,12.641,0,0,1-4.343,1.987,8.815,8.815,0,0,1-3.52.337c-.133-.019-.261-.045-.392-.074a1.81,1.81,0,0,0,.2.667,2.58,2.58,0,0,0,1.88,1.032,13,13,0,0,0,5.9-.278,1.054,1.054,0,0,0,.56-.3,1.121,1.121,0,0,0,.173-.629,23.89,23.89,0,0,1,.584-3.676" transform="translate(91.018 53.605)" fill="#fe814b"/><path d="M70.2,45.477a12.585,12.585,0,0,0,4.341-1.987,8.513,8.513,0,0,0,1.049-.935c.449-1.972,1.037-3.895,1.4-5.912-1.987-.738-5.561.971-7.156,2.134a8.39,8.39,0,0,0-3.572,6.437,3.58,3.58,0,0,0,.028.527c.128.028.259.055.389.074a8.827,8.827,0,0,0,3.522-.337" transform="translate(91.001 50.08)" fill="#fe5228"/><path d="M66.222,33.114A7.306,7.306,0,0,0,70.447,27.3c.605,1.847,1.063,4.142,2.855,4.892a5.248,5.248,0,0,0,3.209.109,9.593,9.593,0,0,0,4.051-2.074c-.081,1.5-.508,3.857.365,5.079A4.7,4.7,0,0,0,82.2,36.47a7.687,7.687,0,0,0,4.55,1.218c-1.766,1.951-2.843,4.97-1.972,7.452a7.361,7.361,0,0,0,2.041,3.012c.178-.316.361-.627.527-.947a23.373,23.373,0,0,0,2.6-7.6,13.061,13.061,0,0,0-1.227-7.854C86.94,28.4,83.463,26.241,79.85,25.08a14.662,14.662,0,0,0-5.466-.8c-2.461.173-5.9,1.113-7.714,2.938a15.119,15.119,0,0,0-2.784,4.125c-.323.681-.608,1.381-.857,2.079a5.769,5.769,0,0,0,3.192-.306" transform="translate(86.565 33.307)" fill="#32338c"/><path d="M85.7,43.375c-.873-2.483.206-5.5,1.97-7.452a7.684,7.684,0,0,1-4.547-1.218,4.671,4.671,0,0,1-1.277-1.163c-.876-1.222-.446-3.579-.365-5.079a9.566,9.566,0,0,1-4.051,2.074,5.231,5.231,0,0,1-3.209-.109c-1.792-.75-2.25-3.045-2.855-4.892a7.306,7.306,0,0,1-4.225,5.812,5.777,5.777,0,0,1-3.195.306c-.287.8-.532,1.6-.726,2.381a33.709,33.709,0,0,0-.809,9.579c.142,3.5.66,7.113,2.492,10.1s5.243,5.231,8.725,4.8a10.762,10.762,0,0,0,3.681-1.3A26.513,26.513,0,0,0,87.348,47.085c.138-.23.259-.465.389-.7A7.338,7.338,0,0,1,85.7,43.375" transform="translate(85.651 35.072)" fill="#fe814b"/><path d="M72.85,33.959a8.3,8.3,0,0,0-.8,4.312,3.672,3.672,0,0,0,1.331,3.012,2.7,2.7,0,0,0,2.435.1A5.653,5.653,0,0,0,77.8,39.848a7.838,7.838,0,0,0,1.868-3.29,4.463,4.463,0,0,0-.593-3.653,3.3,3.3,0,0,0-3.365-1.455,5.073,5.073,0,0,0-2.858,2.509" transform="translate(98.929 43.059)" fill="#fe814b"/><path d="M78.415,33.385c-2.181-1.467-3.268,1.2-3.646,3.14l-1.664-.964c1.265-1.355,3.821-.767,3.781,1.241a2.187,2.187,0,0,1-2.71,2.1c.719-.425,1.509-1.156,1.206-1.927-.225-.5-.527-.268-.892.033l-2.525,2.877c.717-2.331.61-5.677,2.815-7.4,1.08-.952,3.43-.7,3.636.9" transform="translate(98.835 43.852)" fill="#32338c"/><path d="M66.1,32.212c-.059.771-.508,1.365-1,1.329s-.85-.693-.793-1.464.508-1.367,1-1.329.85.693.79,1.464" transform="translate(88.314 42.226)" fill="#32328c"/><path d="M70.313,32.821c-.062.771-.51,1.365-1,1.329s-.85-.693-.79-1.464.506-1.365,1-1.329.847.693.79,1.464" transform="translate(94.094 43.063)" fill="#32328c"/><path d="M63.587,33.207c-.605-2.243.824-4.1,2.464-5.532a1.234,1.234,0,0,1,1.4-.166c1.31.755,1.8,2.119,1.514,3.94-.65,1.479-1.631,2.907-1.5,4.168.014.242.059.216.014-.043-.154-.816-.539-1.12-1.355-1.488-1.182-.534-1.619-.009-2.532-.878" transform="translate(87.135 37.582)" fill="#32338c"/><path d="M72.336,34.769c-1.4-.228-2.988-.337-3.608,1.009-.109.24-.071.275,0,.045a6.166,6.166,0,0,0-.311-3.608c-.657-2.089,1.83-5.63,3.638-3.738,1.234,1.792,2.162,3.947,1.018,5.969l-.743.323" transform="translate(93.823 38.371)" fill="#32338c"/><g transform="translate(149.398 79.477)" opacity="0.4" style="mix-blend-mode:multiply;isolation:isolate"><g clip-path="url(#al)"><path d="M66.655,34.852c-.076.612-.968,1-1.991.876S62.876,35,62.952,34.387s.968-1,1.991-.876,1.787.729,1.711,1.341" transform="translate(-62.947 -33.486)" fill="#f8ab74"/></g></g><g transform="translate(162.237 81.088)" opacity="0.4" style="mix-blend-mode:multiply;isolation:isolate"><g clip-path="url(#am)"><path d="M72.064,35.531c-.076.612-.968,1-1.991.876s-1.787-.729-1.711-1.341.968-1,1.991-.876,1.787.729,1.711,1.341" transform="translate(-68.356 -34.165)" fill="#f8ab74"/></g></g><path d="M69.1,30.9c.657,1.6.544,3.975-.923,5.217-1.474,1.035-1.744,2.8.268,3.3a2.42,2.42,0,0,0,1.519-.033,2.13,2.13,0,0,1-1.514,1.028,2.856,2.856,0,0,1-2.907-4.429c1.006-1.27,1.863-1.467,2.3-2.2A16.134,16.134,0,0,0,69.1,30.9" transform="translate(89.32 42.438)" fill="#32338c"/><path d="M64.745,34.715c1.241.743,2.207,1.73,3.472,1.877a12.767,12.767,0,0,0,3.978-.724,3.779,3.779,0,0,1-7.45-1.153" transform="translate(88.91 47.677)" fill="#32338c"/><path d="M52.244,57.171a7.766,7.766,0,0,1-.707-4.443,7.879,7.879,0,0,1,1.839-4.661c.282-.3.764-.581,1.073-.306a.86.86,0,0,1,.164.762c-.164,1.381-.522,2.734-.669,4.115a7.063,7.063,0,0,0,.581,4.066,13.147,13.147,0,0,1,1.312-6.109,3.858,3.858,0,0,1,1.21-1.346.6.6,0,0,1,.646-.085.63.63,0,0,1,.2.465,6.769,6.769,0,0,1,.024,1.334,3.071,3.071,0,0,1,.788-1.08,1.056,1.056,0,0,1,1.251-.081c.418.33.384.961.313,1.488a1.519,1.519,0,0,1,1.543-.688,3.7,3.7,0,0,1-.017,2.566,21,21,0,0,0-.475,3.282,3.861,3.861,0,0,1-.427,1.918c-.214.33-.441,1.683-3.033,1.661a10.4,10.4,0,0,1-3.071-.693,4.54,4.54,0,0,1-2.544-2.165" transform="translate(70.707 65.438)" fill="#fe814b"/><path d="M55.495,48.981a31.847,31.847,0,0,1-1.225,9.083,7.5,7.5,0,0,1,1.225-9.083" transform="translate(73.151 67.27)" fill="#32338c"/><path d="M56.221,49.143a20.246,20.246,0,0,1-.586,8.307,6.656,6.656,0,0,1,.586-8.307" transform="translate(74.783 67.492)" fill="#32338c"/><path d="M84.946,75.57c2.034-7.474,9.42-27.619,13.78-31.955,1.182-1.175,3.18-.427,4.165.919a7.47,7.47,0,0,1,.975,4.806c-.287,6.346-2.029,12.529-3.821,18.624-2.34,7.958-14.124,22.068-15.769,21.505C78.343,87.44,60.953,60.561,60.953,60.561l7.225-.971Z" transform="translate(83.712 59.098)" fill="#fe814b"/><path d="M56.166,52.926a17.59,17.59,0,0,1,6.154,8.347,12.5,12.5,0,0,1-6.154-8.347" transform="translate(77.138 72.688)" fill="#32338c"/><path d="M69.419,56.754l.287-8.328a1.013,1.013,0,0,0-1.274-1.016l-.323.085-1.26-1.184a1.014,1.014,0,0,0-.975-.235l-1.023.294-1.49-1.051a1.026,1.026,0,0,0-.764-.169l-.847.152-.278-.121a1.015,1.015,0,0,0-1.422.93v5.134l2.146,6.479" transform="translate(82.471 61.932)" fill="#fe814b"/><path d="M80.316,23.369h0a12.265,12.265,0,0,1,6.577-6.415l.09-.038-.4-.178a12.259,12.259,0,0,1-6.214-6.152l-.055-.123-.309.608A12.256,12.256,0,0,1,74.5,16.493l-.852.422.052.021a12.275,12.275,0,0,1,6.437,6.055Z" transform="translate(101.146 14.368)" fill="#fe814b"/><path d="M81.922,21.3h0a6.124,6.124,0,0,1,3.287-3.206l.047-.021-.2-.088A6.134,6.134,0,0,1,81.95,14.91l-.028-.062-.154.3a6.133,6.133,0,0,1-2.756,2.713l-.425.209.026.012a6.144,6.144,0,0,1,3.218,3.026Z" transform="translate(107.931 20.392)" fill="#f8ab74"/><path d="M6.667,48h0a12.265,12.265,0,0,1,6.577-6.415l.093-.038-.4-.178a12.254,12.254,0,0,1-6.216-6.152L6.667,35.1l-.309.608A12.25,12.25,0,0,1,.852,41.126L0,41.548l.05.021a12.275,12.275,0,0,1,6.437,6.055Z" transform="translate(0 48.199)" fill="#fe814b"/><path d="M8.274,45.934h0a6.136,6.136,0,0,1,3.287-3.209l.047-.019-.2-.088A6.134,6.134,0,0,1,8.3,39.543l-.028-.062-.154.3A6.121,6.121,0,0,1,5.364,42.5l-.425.209.026.012a6.144,6.144,0,0,1,3.218,3.026Z" transform="translate(6.783 54.223)" fill="#f8ab74"/><path d="M49.519,90.288h0a9.273,9.273,0,0,0-4.972-4.851l-.069-.028.3-.135a9.259,9.259,0,0,0,4.7-4.649l.043-.095.233.46a9.275,9.275,0,0,0,4.165,4.1l.643.318-.038.017A9.28,9.28,0,0,0,49.654,90Z" transform="translate(61.086 110.598)" fill="#fe814b"/><path d="M45.389,88.725h0A4.646,4.646,0,0,0,42.9,86.3l-.036-.014.152-.066a4.634,4.634,0,0,0,2.347-2.326l.021-.047.116.23a4.634,4.634,0,0,0,2.084,2.051l.32.159-.019.009a4.633,4.633,0,0,0-2.433,2.288Z" transform="translate(58.875 115.152)" fill="#f8ab74"/></g></g></g></g></g></g></svg>