<svg xmlns="http://www.w3.org/2000/svg" width="101.589" height="89.435" viewBox="0 0 101.589 89.435"><g transform="translate(1.488 1.485)"><g transform="translate(0 0.636)"><path d="M10.476,127.146A2.976,2.976,0,0,1,7.5,124.169V53.448l1.984-9.155a2.976,2.976,0,0,1,2.976-2.976l87.314.613c1.644,0,4.355,1.333,4.355,2.191v75.918c0,2.429-2.946,6.52-4.59,6.52l-1.8.587Z" transform="translate(-7.5 -41.317)" fill="#f9f7f8"/></g><path d="M105.331,41.808v8.42l-5.284.633L7.5,50.881V41.09a2.976,2.976,0,0,1,2.976-2.976H97.208l4.634.206A3.925,3.925,0,0,1,105.331,41.808Z" transform="translate(-7.5 -38.114)" fill="#8abbd5"/><g transform="translate(89.708)"><path d="M468.239,93.7l2.43,1.718v70.741a2.976,2.976,0,0,1-2.976,2.976h-5.4l.627-.371a3.427,3.427,0,0,0,1.681-2.948v-70.4Z" transform="translate(-461.764 -82.67)" fill="#efedef"/><path d="M468.527,41.09v9.771H462.46v-8.89a3.9,3.9,0,0,0-2.046-3.43l-.792-.428h5.928a2.976,2.976,0,0,1,2.976,2.976Z" transform="translate(-459.622 -38.114)" fill="#6cabca"/></g><g transform="translate(10.527 19.599)"><g transform="translate(0 0.006)"><path d="M167.352,150.807h6.7a.4.4,0,0,0,.4-.4,13.893,13.893,0,0,0-13.484-13.484.4.4,0,0,0-.4.4v6.7a.394.394,0,0,0,.37.395,6.4,6.4,0,0,1,6.023,6.023A.394.394,0,0,0,167.352,150.807Z" transform="translate(-140.721 -136.92)" fill="#fea3ce"/><path d="M140.079,237.316a.4.4,0,0,0-.4-.4h-6.7a.4.4,0,0,0-.395.373,6.4,6.4,0,0,1-6.393,6.029l-1.081,3.5,1.081,3.987a13.89,13.89,0,0,0,13.887-13.485Z" transform="translate(-112.302 -217.073)" fill="#8abbd5"/><path d="M73.992,239.091a6.425,6.425,0,0,1-5.934-5.934c-.011-.153-.014-.3-.014-.454l-3.854-1.042L60.559,232.7c0,.112,0,.223,0,.335a13.942,13.942,0,0,0,13.554,13.554c.112,0,.223,0,.335,0V239.1C74.3,239.1,74.145,239.1,73.992,239.091Z" transform="translate(-60.557 -212.863)" fill="#bbec6c"/><path d="M74.08,174.416a.4.4,0,0,0,.373-.395v-6.7a.4.4,0,0,0-.4-.4A13.89,13.89,0,0,0,60.564,180.81H68.05A6.4,6.4,0,0,1,74.08,174.416Z" transform="translate(-60.563 -160.969)" fill="#fce459"/></g><g transform="translate(37.597)"><path d="M290.251,205.32l-12.4-1.664V187.61a.992.992,0,0,1,.992-.992h6.2Z" transform="translate(-272.335 -176.751)" fill="#fea3ce"/><path d="M319.32,205.32l-2.623-18.7h-2.58v18Z" transform="translate(-301.404 -176.751)" fill="#fe7ab6"/><path d="M339.528,185.975l-12.409-2.249V162.747a.992.992,0,0,1,.992-.992h5.409Z" transform="translate(-311.826 -156.822)" fill="#fce459"/><path d="M363.351,161.755h-3.969v21.971l6.6,2.249Z" transform="translate(-337.688 -156.822)" fill="#f9d608"/><path d="M385.528,165.459l-9.144-1.664V137.883a.992.992,0,0,1,.992-.992h3.978l3.175.4a1.233,1.233,0,0,1,1.233,1.233Z" transform="translate(-351.316 -136.891)" fill="#bbec6c"/><path d="M403.4,136.891h-3.969a1.233,1.233,0,0,1,1.233,1.233V163.8l3.969,1.664V138.124a1.233,1.233,0,0,0-1.233-1.233Z" transform="translate(-369.79 -136.891)" fill="#a2e62e"/><path d="M289.016,278.892l-3.572.4H251.036a.992.992,0,0,1-.992-.992v-4.858a.992.992,0,0,1,.992-.992h34.408l3.572.4a.992.992,0,0,1,.992.992V277.9A.992.992,0,0,1,289.016,278.892Z" transform="translate(-250.044 -245.55)" fill="#918291"/><path d="M430.822,272.446h-4.366a.992.992,0,0,1,.992.992V278.3a.992.992,0,0,1-.992.992h4.366a.992.992,0,0,0,.992-.992v-4.858A.992.992,0,0,0,430.822,272.446Z" transform="translate(-391.453 -245.55)" fill="#7a6d79"/></g><g transform="translate(37.597 41.956)"><ellipse cx="2.769" cy="2.769" rx="2.769" ry="2.769" transform="translate(0 11.608)" fill="#bbec6c"/><ellipse cx="2.769" cy="2.769" rx="2.769" ry="2.769" transform="translate(11.608)" fill="#bbec6c"/><ellipse cx="2.769" cy="2.769" rx="2.769" ry="2.769" transform="translate(23.215 11.608)" fill="#bbec6c"/><ellipse cx="2.769" cy="2.769" rx="2.769" ry="2.769" transform="translate(34.823)" fill="#bbec6c"/></g></g></g><g transform="translate(0 0)"><path d="M96.865,30.629H85.94a1.488,1.488,0,0,0,0,2.976H96.865a1.75,1.75,0,0,1,1.748,1.748v7.9H2.976v-7.9a1.75,1.75,0,0,1,1.748-1.748H79a1.488,1.488,0,0,0,0-2.976H4.724A4.73,4.73,0,0,0,0,35.353V59.1a1.488,1.488,0,1,0,2.976,0V46.234H98.613v69.105a1.75,1.75,0,0,1-1.748,1.748H36.346a1.488,1.488,0,1,0,0,2.976H96.865a4.73,4.73,0,0,0,4.724-4.724V35.353A4.73,4.73,0,0,0,96.865,30.629Z" transform="translate(0 -30.629)"/><path d="M29.4,254.167H4.724a1.75,1.75,0,0,1-1.748-1.748v-49.29a1.488,1.488,0,1,0-2.976,0v49.291a4.73,4.73,0,0,0,4.724,4.724H29.4a1.488,1.488,0,0,0,0-2.976Z" transform="translate(0 -167.709)"/><path d="M68.423,169.86a1.488,1.488,0,0,0,1.488-1.488v-7.489a1.488,1.488,0,0,0-1.488-1.488A15.381,15.381,0,1,0,83.8,174.776a1.488,1.488,0,0,0-1.488-1.488H74.827a1.488,1.488,0,0,0-1.488,1.488,4.916,4.916,0,1,1-4.916-4.916Zm7.751,6.4h4.565a12.427,12.427,0,0,1-10.828,10.824v-4.563A7.914,7.914,0,0,0,76.174,176.264Zm-9.239,6.261v4.563a12.425,12.425,0,0,1-10.824-10.824h4.563A7.912,7.912,0,0,0,66.935,182.525Zm-6.262-9.237H56.11A12.427,12.427,0,0,1,66.935,162.46v4.565A7.914,7.914,0,0,0,60.673,173.288Z" transform="translate(-42.518 -133.846)"/><path d="M154.551,129.392a1.488,1.488,0,0,0-1.488,1.488v7.489a1.488,1.488,0,0,0,1.488,1.488,4.921,4.921,0,0,1,4.916,4.916,1.488,1.488,0,0,0,1.488,1.488h7.489a1.488,1.488,0,0,0,1.488-1.488A15.4,15.4,0,0,0,154.551,129.392Zm7.751,13.893a7.915,7.915,0,0,0-6.263-6.263v-4.565a12.43,12.43,0,0,1,10.828,10.828Z" transform="translate(-122.693 -109.796)"/><path d="M277.639,129.392h-7.55a2.483,2.483,0,0,0-2.48,2.48v2.453h-7.295a2.483,2.483,0,0,0-2.48,2.48v2.453h-7.295a2.483,2.483,0,0,0-2.48,2.48v14.55H245.02a2.483,2.483,0,0,0-2.48,2.48v4.857a2.483,2.483,0,0,0,2.48,2.48H253.6a1.488,1.488,0,0,0,0-2.976h-8.085v-3.865c9.209-.005,28.407.012,37.386,0v3.865H260.546a1.488,1.488,0,0,0,0,2.976H283.4a2.483,2.483,0,0,0,2.48-2.48v-4.857a2.483,2.483,0,0,0-2.48-2.48H280.36V132.113a2.724,2.724,0,0,0-2.721-2.721Zm-.255,2.976v23.921h-6.8V132.368Zm-9.775,4.933v18.987h-6.8V137.3Zm-16.574,4.933h6.8v14.054h-6.8Z" transform="translate(-194.416 -109.796)"/><path d="M281.624,349.36a4.27,4.27,0,1,0-3.869-2.492l-5.974,5.975a4.209,4.209,0,0,0-3.529,0l-5.975-5.975a4.257,4.257,0,1,0-7.738,0l-5.974,5.975a4.27,4.27,0,1,0,2.1,2.1l5.975-5.974a4.208,4.208,0,0,0,3.529,0l5.974,5.974a4.257,4.257,0,1,0,7.738,0l5.974-5.974A4.223,4.223,0,0,0,281.624,349.36Zm0-5.537a1.28,1.28,0,1,1-1.28,1.28A1.282,1.282,0,0,1,281.624,343.823ZM246.8,357.992a1.28,1.28,0,1,1,1.28-1.28A1.282,1.282,0,0,1,246.8,357.992ZM257.128,345.1a1.28,1.28,0,1,1,1.28,1.28A1.282,1.282,0,0,1,257.128,345.1Zm12.888,12.888a1.28,1.28,0,1,1,1.281-1.28A1.282,1.282,0,0,1,270.016,357.992Z" transform="translate(-194.419 -279.295)"/><path d="M54.53,343.823h3.995a1.488,1.488,0,0,0,0-2.976H54.53a1.488,1.488,0,0,0,0,2.976Z" transform="translate(-42.518 -279.295)"/><path d="M54.53,387.027h3.995a1.488,1.488,0,0,0,0-2.976H54.53a1.488,1.488,0,0,0,0,2.976Z" transform="translate(-42.518 -313.926)"/><path d="M54.53,430.232h3.995a1.488,1.488,0,1,0,0-2.976H54.53a1.488,1.488,0,1,0,0,2.976Z" transform="translate(-42.518 -348.559)"/><path d="M108.179,342.335a1.488,1.488,0,0,0,1.488,1.488h28.1a1.488,1.488,0,0,0,0-2.976h-28.1A1.488,1.488,0,0,0,108.179,342.335Z" transform="translate(-86.715 -279.295)"/><path d="M109.667,387.027h13.891a1.488,1.488,0,0,0,0-2.976H109.667a1.488,1.488,0,0,0,0,2.976Z" transform="translate(-86.715 -313.926)"/><path d="M109.667,430.232h19.844a1.488,1.488,0,1,0,0-2.976H109.667a1.488,1.488,0,1,0,0,2.976Z" transform="translate(-86.715 -348.559)"/><g transform="translate(6.859 6.315)"><ellipse cx="1.488" cy="1.488" rx="1.488" ry="1.488"/><ellipse cx="1.488" cy="1.488" rx="1.488" ry="1.488" transform="translate(6.771)"/><ellipse cx="1.488" cy="1.488" rx="1.488" ry="1.488" transform="translate(13.54)"/></g></g></svg>