<svg xmlns="http://www.w3.org/2000/svg" xmlns:xlink="http://www.w3.org/1999/xlink" width="119" height="118.629" viewBox="0 0 119 118.629"><defs><clipPath id="a"><rect width="119" height="118.629" fill="none"/></clipPath></defs><g transform="translate(20325.734 11815.565)"><g transform="translate(-20325.734 -11815.565)"><g clip-path="url(#a)"><path d="M109.767,192.05a46.485,46.485,0,1,1-46.485-46.485,46.485,46.485,0,0,1,46.485,46.485Z" transform="translate(-9.992 -135.847)" fill="#f2f2f2"/><path d="M115.073,208.664A35.182,35.182,0,1,1,79.89,173.482a35.183,35.183,0,0,1,35.182,35.182" transform="translate(-26.594 -152.453)" fill="#bceb79"/></g></g><path d="M127.818,241.223V233.7h-3.008a15.51,15.51,0,0,0-1.783-4.3l2.128-2.128-5.316-5.316-2.128,2.128a15.534,15.534,0,0,0-4.3-1.784v-3.008h-7.518V222.3a15.526,15.526,0,0,0-4.3,1.784l-2.128-2.128-5.316,5.316,2.128,2.128a15.525,15.525,0,0,0-1.784,4.3H91.476v7.518h3.008a15.525,15.525,0,0,0,1.784,4.3l-2.128,2.128,5.317,5.316,2.128-2.128a15.525,15.525,0,0,0,4.3,1.784v3.008h7.518v-3.008a15.525,15.525,0,0,0,4.3-1.784l2.128,2.128,5.316-5.316-2.128-2.128a15.524,15.524,0,0,0,1.783-4.3Z" transform="translate(-20381.338 -11996.546)" fill="#8c8fec"/><path d="M130.6,253.243v-9.61l-8.323-4.805-8.323,4.805v9.61l8.323,4.805Z" transform="translate(-20394.076 -12007.572)" fill="#ffcd69"/><path d="M130.7,243.633l-8.323-4.805-8.323,4.805,8.323,4.805Z" transform="translate(-20394.135 -12007.203)" fill="#fff3da"/><path d="M141.364,249.793l-8.323,4.805v9.61l8.323-4.805Z" transform="translate(-20405.178 -12013.948)" fill="#ffcd69"/><path d="M114.049,249.793v9.61l8.323,4.805V254.6Z" transform="translate(-20393.836 -12013.948)" fill="#ffda8f"/><path d="M117.647,252.337a1.1,1.1,0,0,0,1.558,0l5.316-5.316a1.1,1.1,0,0,0,0-1.558l-1.534-1.534a16.606,16.606,0,0,0,1.25-3.017h2.169a1.1,1.1,0,0,0,1.1-1.1v-7.518a1.1,1.1,0,0,0-1.1-1.1h-2.169a16.579,16.579,0,0,0-1.25-3.017l1.534-1.534a1.1,1.1,0,0,0,0-1.558l-5.316-5.316a1.1,1.1,0,0,0-1.558,0l-1.534,1.534a16.6,16.6,0,0,0-3.017-1.25v-2.169a1.1,1.1,0,0,0-1.1-1.1h-7.518a1.1,1.1,0,0,0-1.1,1.1v2.169a16.6,16.6,0,0,0-3.017,1.25l-1.534-1.534a1.1,1.1,0,0,0-1.558,0l-5.317,5.316a1.1,1.1,0,0,0,0,1.558l1.534,1.534a16.6,16.6,0,0,0-1.25,3.017H90.065a1.1,1.1,0,0,0-1.1,1.1v7.518a1.1,1.1,0,0,0,1.1,1.1h2.169a16.6,16.6,0,0,0,1.25,3.017l-1.534,1.534a1.1,1.1,0,0,0,0,1.558l5.317,5.316a1.1,1.1,0,0,0,1.558,0l1.534-1.534a16.63,16.63,0,0,0,3.017,1.25v2.169a1.1,1.1,0,0,0,1.1,1.1h7.518a1.1,1.1,0,0,0,1.1-1.1v-2.169a16.639,16.639,0,0,0,3.017-1.25Zm-5.917-2.193a1.1,1.1,0,0,0-.837,1.069v1.907h-5.315v-1.907a1.1,1.1,0,0,0-.837-1.069,14.418,14.418,0,0,1-4-1.657,1.1,1.1,0,0,0-1.348.164L98.045,250l-3.758-3.758,1.349-1.349a1.1,1.1,0,0,0,.164-1.348,14.423,14.423,0,0,1-1.657-4,1.1,1.1,0,0,0-1.069-.837H91.166v-5.315h1.907a1.1,1.1,0,0,0,1.069-.837,14.418,14.418,0,0,1,1.657-4,1.1,1.1,0,0,0-.164-1.348l-1.349-1.349,3.758-3.758,1.349,1.349a1.1,1.1,0,0,0,1.348.164,14.418,14.418,0,0,1,4-1.657,1.1,1.1,0,0,0,.837-1.07v-1.907h5.315v1.907a1.1,1.1,0,0,0,.837,1.07,14.429,14.429,0,0,1,4,1.657,1.1,1.1,0,0,0,1.348-.164l1.348-1.349,3.758,3.758-1.348,1.349a1.1,1.1,0,0,0-.164,1.348,14.426,14.426,0,0,1,1.657,4,1.1,1.1,0,0,0,1.069.837H125.3v5.315H123.4a1.1,1.1,0,0,0-1.069.837,14.423,14.423,0,0,1-1.657,4,1.1,1.1,0,0,0,.164,1.349l1.348,1.348L118.426,250l-1.348-1.348a1.1,1.1,0,0,0-1.348-.164,14.417,14.417,0,0,1-4,1.657" transform="translate(-20379.91 -11995.125)"/><path d="M130.284,251.831v-9.61a1.1,1.1,0,0,0-.551-.954l-8.323-4.805a1.1,1.1,0,0,0-1.1,0l-8.323,4.805a1.1,1.1,0,0,0-.55.954v9.61a1.1,1.1,0,0,0,.55.954l8.323,4.805a1.1,1.1,0,0,0,1.1,0l8.323-4.805a1.1,1.1,0,0,0,.551-.954m-9.424-13.143,6.12,3.533-6.12,3.533-6.119-3.533Zm-7.221,5.441,6.119,3.533v7.066l-6.119-3.533Zm8.323,10.6v-7.066l6.12-3.533V251.2Z" transform="translate(-20392.652 -12006.154)"/><path d="M131.53,198.992a25.771,25.771,0,0,1,12.531,3.249,1.1,1.1,0,0,0,1.074-1.924,27.984,27.984,0,0,0-13.6-3.529,1.1,1.1,0,1,0,0,2.2" transform="translate(-20403.898 -11981.996)"/><path d="M185.39,226.165a1.1,1.1,0,0,0-1.329.763,28.276,28.276,0,0,0-4.533-7.623,1.1,1.1,0,0,0-1.692,1.411,26.074,26.074,0,0,1,4.392,7.579l-.595-.39a1.1,1.1,0,1,0-1.209,1.842l3.156,2.071a1.1,1.1,0,0,0,1.672-.649l.933-3.664a1.1,1.1,0,0,0-.8-1.34" transform="translate(-20431.787 -11995.405)"/><path d="M96.79,293.317a25.5,25.5,0,0,1-16.046-5.608,26.1,26.1,0,0,1-8.162-11.267l.593.39a1.1,1.1,0,1,0,1.209-1.842l-3.156-2.071a1.1,1.1,0,0,0-1.672.649l-.933,3.664a1.1,1.1,0,0,0,2.125.578,28.321,28.321,0,0,0,8.623,11.624,27.678,27.678,0,0,0,17.419,6.088,1.1,1.1,0,0,0,0-2.2" transform="translate(-20367.201 -12028.14)"/><path d="M166.6,258.244a1.1,1.1,0,0,0-1.1,1.1,25.5,25.5,0,0,1-5.608,16.046,26.105,26.105,0,0,1-11.267,8.162l.39-.593a1.1,1.1,0,0,0-1.842-1.209l-2.071,3.156a1.1,1.1,0,0,0,.649,1.672l3.664.933a1.1,1.1,0,0,0,.577-2.125,28.321,28.321,0,0,0,11.625-8.623,27.681,27.681,0,0,0,6.088-17.419,1.1,1.1,0,0,0-1.1-1.1" transform="translate(-20412.971 -12019.775)"/><path d="M70.075,225.708a1.1,1.1,0,0,0,1.1-1.1,25.5,25.5,0,0,1,5.608-16.046A26.105,26.105,0,0,1,88.051,200.4l-.39.593A1.1,1.1,0,1,0,89.5,202.2l2.071-3.156a1.1,1.1,0,0,0-.649-1.672l-3.664-.933a1.1,1.1,0,0,0-.577,2.125,28.322,28.322,0,0,0-11.624,8.623,27.678,27.678,0,0,0-6.088,17.419,1.1,1.1,0,0,0,1.1,1.1" transform="translate(-20367.254 -11982.387)"/><path d="M170.692,210.9a1.1,1.1,0,1,1-1.1,1.1,1.1,1.1,0,0,1,1.1-1.1" transform="translate(-20426.711 -11990.328)"/></g></svg>