<svg xmlns="http://www.w3.org/2000/svg" xmlns:xlink="http://www.w3.org/1999/xlink" width="119" height="118.629" viewBox="0 0 119 118.629"><defs><clipPath id="a"><rect width="119" height="118.628" fill="none"/></clipPath><clipPath id="b"><rect width="42.982" height="42.562" fill="none"/></clipPath></defs><g transform="translate(-1107.367 -480.078)"><g transform="translate(1107.367 480.078)"><g clip-path="url(#a)"><path d="M762.893,506.073a46.484,46.484,0,1,1-46.484-46.484,46.484,46.484,0,0,1,46.484,46.484Z" transform="translate(-663.118 -449.871)" fill="#f2f2f2"/><path d="M760.259,514.747a35.182,35.182,0,1,1-35.183-35.182,35.183,35.183,0,0,1,35.183,35.182" transform="translate(-671.78 -458.536)" fill="#bceb79"/><path d="M760.259,514.747h0a35.182,35.182,0,1,1-35.183-35.182,35.183,35.183,0,0,1,35.183,35.182,35.182,35.182,0,1,0-35.183,35.182,35.183,35.183,0,0,0,35.183-35.182" transform="translate(-671.78 -458.536)" fill="#bceb79"/></g></g><g transform="translate(1138.816 515.194)"><g clip-path="url(#b)"><path d="M766.771,531.763l.361-11.308a2.345,2.345,0,0,1,.806-1.813,2.647,2.647,0,0,1,4.475,1.885v17.036l-12.03,11.022v2.828h-6.741v-9.427l-1.835-1.45,11.444-9.063a2.555,2.555,0,0,1,3.079-.072c.147.146.294.218.44.361" transform="translate(-730.244 -509.792)" fill="#eabd8c"/><path d="M747.629,562.511a.963.963,0,0,1-.954-.943v-9.426a1,1,0,0,1,.361-.722l13.353-10.514a3.451,3.451,0,0,1,4.254-.072.981.981,0,0,1,.147,1.306,1.008,1.008,0,0,1-1.323.146,1.555,1.555,0,0,0-1.907,0l-12.978,10.292v8.991a.962.962,0,0,1-.953.943" transform="translate(-727.898 -519.948)"/><path d="M723.086,531.54a2.406,2.406,0,0,0-3.39.29c-.02.023-.039.047-.058.071l-.361-11.308a2.344,2.344,0,0,0-.806-1.813,2.659,2.659,0,0,0-4.48,1.859V537.7l12.03,11.022v2.828h10.416v-9.427c-.587-.436-12.4-9.865-13.353-10.586" transform="translate(-712.965 -509.861)" fill="#ffd8a8"/><path d="M717.679,504.563a1.385,1.385,0,0,1,1.394,1.375v0a1.285,1.285,0,0,1-1.26,1.31c-.045,0-.089,0-.135,0a1.341,1.341,0,0,1-1.392-1.288c0-.03,0-.06,0-.09a1.323,1.323,0,0,1,1.339-1.307l.054,0" transform="translate(-714.013 -503.693)" fill="#74829c"/><path d="M718.257,569.586a1.8,1.8,0,0,1,1.833,1.775c0,.013,0,.025,0,.038a1.833,1.833,0,0,1-3.667,0,1.8,1.8,0,0,1,1.8-1.813h.037" transform="translate(-714.076 -533.404)" fill="#74829c"/><path d="M783.6,569.586a1.378,1.378,0,1,1-1.377,1.377,1.377,1.377,0,0,1,1.377-1.377" transform="translate(-744.142 -533.404)" fill="#74829c"/><path d="M751.675,514.582h0a9.29,9.29,0,0,1,1.615-2.175c2.567-2.538,6.307-3.336,10.345-2.682,1.323,7.613-3.228,13.268-10.706,13.124a12.512,12.512,0,0,0-1.254-8.267" transform="translate(-730.183 -505.953)" fill="#536949"/><path d="M742.8,523.04c-8.661,1.451-14.524-4.351-13.057-12.907,8.655-1.377,14.45,4.345,13.057,12.907" transform="translate(-720.057 -506.146)" fill="#80af52"/><path d="M785.651,508.421c0,.072.073.218.073.29a.946.946,0,0,1-1.835.29c0-.072-.073-.218-.073-.29a.912.912,0,0,1,.66-.87c.072,0,.219-.072.294-.072a1.167,1.167,0,0,1,.88.652" transform="translate(-744.869 -505.159)"/><path d="M770.39,535.124c0,.072.073.218.073.29a.946.946,0,0,1-1.835.29c0-.072-.072-.218-.072-.29a.912.912,0,0,1,.659-.87c.073,0,.222-.072.294-.072a.963.963,0,0,1,.88.652" transform="translate(-737.896 -517.36)"/><rect width="1.833" height="1.813" transform="translate(21.564 19.867)"/><path d="M753.508,550.208c0,.072.073.218.073.29a.946.946,0,0,1-1.834.29c0-.072-.072-.218-.072-.29a.913.913,0,0,1,.661-.87c.073,0,.22-.072.294-.072a.811.811,0,0,1,.88.652" transform="translate(-730.183 -524.25)"/><path d="M751.886,506.82c0,.072.073.218.073.29a.946.946,0,0,1-1.835.29c0-.072-.072-.218-.072-.29a.913.913,0,0,1,.66-.87c.073,0,.221-.072.294-.072a.92.92,0,0,1,.88.652" transform="translate(-729.442 -504.427)"/><rect width="5.501" height="1.813" transform="translate(15.182 19.867)"/><path d="M729.874,530.182c0,.072.073.218.073.29a.913.913,0,0,1-.661.869.9.9,0,0,1-1.158-.54c0-.013-.009-.026-.013-.038,0-.072-.073-.218-.073-.29a.911.911,0,0,1,.66-.869c.073,0,.22-.072.293-.072a.811.811,0,0,1,.881.652" transform="translate(-719.385 -515.1)"/><path d="M716.365,561.827c0,.072.073.218.073.29a.947.947,0,0,1-1.82.331c-.005-.014-.01-.027-.014-.041,0-.072-.073-.218-.073-.29a.913.913,0,0,1,.66-.87c.073,0,.22-.072.294-.072a.963.963,0,0,1,.88.652" transform="translate(-713.211 -529.561)"/><path d="M765.367,552.656a.8.8,0,0,1-.66-.29.915.915,0,0,1,.06-1.293l.013-.012,6.9-6.236a1.453,1.453,0,0,0,.147-2.031l-.22-.218a.98.98,0,0,1-.147-1.306,1.009,1.009,0,0,1,1.323-.146,3.416,3.416,0,0,1,.514.508,3.248,3.248,0,0,1-.361,4.5l-6.895,6.236a.9.9,0,0,1-.66.29" transform="translate(-736.029 -520.317)"/><path d="M766.806,551.628h0a.963.963,0,0,1-.954-.943v-2.827a.785.785,0,0,1,.294-.652l11.736-10.731V519.8a1.65,1.65,0,0,0-1.633-1.668H776.2a1.744,1.744,0,0,0-1.76,1.729v.012l-.361,11.308a.918.918,0,0,1-1.835-.072L772.6,519.8a3.436,3.436,0,0,1,1.028-2.465,3.536,3.536,0,0,1,6.015,2.465v17.039a.785.785,0,0,1-.294.652l-11.736,10.732v2.464a.808.808,0,0,1-.806.943" transform="translate(-736.661 -509.065)"/><path d="M757.369,521.164a.9.9,0,0,1-.66-.29.911.911,0,0,1-.016-1.289l.016-.016,5.132-5.221a.938.938,0,0,1,1.323,0,.912.912,0,0,1,.016,1.29l-.016.016-5.134,5.221a.722.722,0,0,1-.66.29" transform="translate(-732.357 -508.04)"/><path d="M753.588,527.732a.9.9,0,0,1-.66-.29.911.911,0,0,1-.016-1.289l.016-.016,2.127-2.175a.938.938,0,0,1,1.324,0,.912.912,0,0,1,.016,1.289l-.016.016-2.128,2.175a.9.9,0,0,1-.661.29" transform="translate(-730.63 -512.433)"/><path d="M761.731,520.824a.871.871,0,0,1-.88-.8.9.9,0,0,1,.781-1.012l.024,0,2.787-.436a.913.913,0,1,1,.22,1.813l-2.787.436Z" transform="translate(-734.372 -510.093)"/><path d="M757.353,525.288a.963.963,0,0,1-.954-.943.876.876,0,0,1,.808-.87l2.641-.361a.913.913,0,1,1,.22,1.813l-2.646.361Z" transform="translate(-732.342 -512.167)"/><path d="M753.634,529.486a.843.843,0,0,1-.88-.8c0-.023,0-.045,0-.068a.9.9,0,0,1,.862-.942h.018l2.347-.146a.907.907,0,0,1,.073,1.813Z" transform="translate(-730.675 -514.187)"/><path d="M758.564,521.964h-.147a.9.9,0,0,1-.809-.989l0-.027.361-2.9a.924.924,0,0,1,1.834.218l-.361,2.9a.829.829,0,0,1-.858.8h-.023" transform="translate(-732.892 -509.491)"/><path d="M744.914,526.122a.9.9,0,0,1-.66-.29l-9.828-9.644a.912.912,0,0,1-.016-1.289l.016-.016a.936.936,0,0,1,1.323,0l9.756,9.644a.913.913,0,0,1,.014,1.291l-.014.014a.67.67,0,0,1-.587.29" transform="translate(-722.176 -508.284)"/><path d="M737.932,521.283h-.147l-2.861-.361a.913.913,0,0,1,.221-1.813l2.86.436a.9.9,0,0,1,.809.992c0,.008,0,.016,0,.024a.868.868,0,0,1-.88.722" transform="translate(-722.163 -510.337)"/><path d="M742.451,525.765H742.3l-2.786-.437a.913.913,0,1,1,.22-1.813l2.86.436a.9.9,0,0,1,.81.99c0,.008,0,.017,0,.025a1.013,1.013,0,0,1-.954.8" transform="translate(-724.261 -512.351)"/><path d="M746.981,530.171h-.145l-2.86-.437a.913.913,0,1,1,.22-1.813l2.86.436a.9.9,0,0,1,.809.991l0,.024a.871.871,0,0,1-.88.8" transform="translate(-726.298 -514.364)"/><path d="M743,522.307a.933.933,0,0,1-.88-.8l-.44-2.828a.924.924,0,0,1,1.833-.218l.44,2.828a.906.906,0,0,1-.784,1.013l-.023,0Z" transform="translate(-725.613 -509.69)"/><path d="M747.451,526.684a.935.935,0,0,1-.88-.8l-.439-2.828a.923.923,0,1,1,1.833-.218l.441,2.828a.905.905,0,0,1-.783,1.013l-.025,0Z" transform="translate(-727.647 -511.673)"/><path d="M752.376,523.049h-.22a.9.9,0,0,1-.881-.925v-.018a.887.887,0,0,1,.881-.869,9.746,9.746,0,0,0,7.338-2.683,10.216,10.216,0,0,0,2.564-8.773,10.493,10.493,0,0,0-8.876,2.538,7.647,7.647,0,0,0-1.466,1.959.945.945,0,0,1-1.248.361.924.924,0,0,1-.361-1.233,11.408,11.408,0,0,1,1.76-2.321c2.714-2.683,6.6-3.7,11.151-2.973a.938.938,0,0,1,.733.722c.734,4.423-.294,8.339-3.008,11.022a11.521,11.521,0,0,1-8.362,3.19" transform="translate(-729.419 -505.212)"/><path d="M739.286,523.455a11.7,11.7,0,0,1-8.435-3.19c-2.714-2.683-3.741-6.526-3.008-11.022a.938.938,0,0,1,.734-.722,17.856,17.856,0,0,1,2.713-.224,11.7,11.7,0,0,1,8.435,3.19,9.012,9.012,0,0,1,1.614,2.1v.072a12.225,12.225,0,0,1,1.54,6.163,16.57,16.57,0,0,1-.22,2.683.938.938,0,0,1-.734.722,15.653,15.653,0,0,1-2.641.218M729.6,510.182a10.213,10.213,0,0,0,2.567,8.773,9.8,9.8,0,0,0,7.115,2.682,14.365,14.365,0,0,0,1.76-.146,13.92,13.92,0,0,0,.147-1.741,10.316,10.316,0,0,0-1.323-5.293,7.814,7.814,0,0,0-1.323-1.741,9.8,9.8,0,0,0-7.107-2.68c-.587.072-1.174.072-1.833.146" transform="translate(-719.189 -505.397)"/><path d="M730.277,552.722a.842.842,0,0,1-.587-.218l-6.891-6.235a3.247,3.247,0,0,1-.361-4.5,3.358,3.358,0,0,1,.513-.508,1.028,1.028,0,0,1,1.323.146,1,1,0,0,1-.147,1.3l-.22.218a1.53,1.53,0,0,0,.074,2.031l6.877,6.235a.987.987,0,0,1,.072,1.3,1.186,1.186,0,0,1-.661.218" transform="translate(-716.487 -520.384)"/><path d="M725.081,551.565a1.014,1.014,0,0,1-.953-.87V548.23L712.392,537.5a.781.781,0,0,1-.293-.653V519.661a3.536,3.536,0,0,1,6.015-2.465,3.436,3.436,0,0,1,1.026,2.465l.361,11.308a.918.918,0,0,1-1.833.072l-.361-11.308a1.685,1.685,0,0,0-.516-1.232,1.777,1.777,0,0,0-1.246-.508,1.65,1.65,0,0,0-1.684,1.616c0,.017,0,.034,0,.051v16.677L725.6,547.069a.783.783,0,0,1,.294.652v2.828c.147.58-.294.943-.806,1.016" transform="translate(-712.1 -509.003)"/><path d="M740.656,562.506a.963.963,0,0,1-.954-.943v-8.991l-12.909-10.3a1.555,1.555,0,0,0-1.906,0,1.028,1.028,0,0,1-1.322-.148,1,1,0,0,1,.147-1.306,3.451,3.451,0,0,1,4.254.072l13.283,10.518a.889.889,0,0,1,.361.722v9.426a.962.962,0,0,1-.954.943" transform="translate(-717.257 -519.943)"/><path d="M752.732,579.75h-22a.943.943,0,1,1-.067-1.885c.022,0,.045,0,.067,0h22a.943.943,0,0,1,.067,1.885h-.067" transform="translate(-720.165 -537.187)"/><path d="M717.506,573.361a2.756,2.756,0,1,1,2.789-2.755,2.819,2.819,0,0,1-2.789,2.755m0-3.626a.943.943,0,1,0,.954.943,1.016,1.016,0,0,0-.954-.943" transform="translate(-713.326 -532.611)"/><path d="M782.892,572.479a2.249,2.249,0,1,1,2.275-2.248,2.273,2.273,0,0,1-2.275,2.248m0-2.683a.436.436,0,1,0,.44.436.42.42,0,0,0-.4-.436h-.037" transform="translate(-743.431 -532.671)"/><path d="M716.939,507.436a2.261,2.261,0,1,1,2.274-2.248,2.273,2.273,0,0,1-2.274,2.248m0-2.755a.436.436,0,1,0,.441.436.421.421,0,0,0-.406-.436h-.034" transform="translate(-713.272 -502.941)"/></g></g></g></svg>