<svg xmlns="http://www.w3.org/2000/svg" xmlns:xlink="http://www.w3.org/1999/xlink" width="119.357" height="118.985" viewBox="0 0 119.357 118.985"><defs><clipPath id="a"><rect width="119.357" height="118.985" fill="none"/></clipPath></defs><g transform="translate(-1173.332 -349.197)"><g transform="translate(1173.332 349.197)"><g clip-path="url(#a)"><path d="M800.283,68.867a46.624,46.624,0,1,1-46.624-46.624,46.624,46.624,0,0,1,46.624,46.624Z" transform="translate(-700.209 -12.496)" fill="#f2f2f2"/><path d="M803.494,83.42a35.288,35.288,0,1,1-35.288-35.288A35.288,35.288,0,0,1,803.494,83.42" transform="translate(-714.749 -27.04)" fill="#bceb79"/></g></g><g transform="translate(20925.592 12026.006)"><path d="M795.237,94.355H763.856a.872.872,0,0,0-.872.872v18.306H765.6a1.743,1.743,0,1,1,0,3.487h-2.615v2.615a.872.872,0,0,0,.872.872h32.253V95.227a.872.872,0,0,0-.872-.872" transform="translate(-20483.996 -11729.337)" fill="#83aa52"/><path d="M849.032,126.182h-10.46v12.2h13.947v-8.717a3.487,3.487,0,0,0-3.487-3.487" transform="translate(-20526.459 -11747.216)" fill="#ffdc64"/><path d="M838.572,132.149h9.443a1.743,1.743,0,0,1,1.744,1.743v7.846H838.572Z" transform="translate(-20526.459 -11750.568)" fill="#ffc850"/><path d="M845.545,102.312h-6.973V105.8h9.589v-.872a2.615,2.615,0,0,0-2.615-2.615" transform="translate(-20526.459 -11733.807)" fill="#ffdc64"/><path d="M849.032,117.242l-1.744-6.973h-8.717v6.973Z" transform="translate(-20526.459 -11738.276)" fill="#b4e6ff"/><path d="M862.442,134.138h3.487v3.487h-1.743a1.743,1.743,0,0,1-1.744-1.743Z" transform="translate(-20539.869 -11751.686)" fill="#f1f4fb"/><path d="M844.674,140.106a6.969,6.969,0,0,0-6.1,3.6v2.5h13.015a6.97,6.97,0,0,0-6.913-6.1" transform="translate(-20526.459 -11755.038)" fill="#e1a546"/><path d="M864.1,145.144v3.894h1.828a6.958,6.958,0,0,0-1.828-3.894" transform="translate(-20540.801 -11757.869)" fill="#ffc850"/><path d="M846.909,146.073a4.359,4.359,0,1,1-4.359,4.359,4.359,4.359,0,0,1,4.359-4.359" transform="translate(-20528.695 -11758.391)" fill="#5b5d6e"/><path d="M842.059,112.884h5.884l-.654-2.615h-8.717v6.973h2.615v-3.487a.872.872,0,0,1,.872-.872" transform="translate(-20526.459 -11738.276)" fill="#9bd6ff"/><path d="M773.444,140.106a6.956,6.956,0,0,0-5.439,2.615h-5.022v2.615a.872.872,0,0,0,.872.872h32.254v-3.487H778.882a6.955,6.955,0,0,0-5.438-2.615" transform="translate(-20483.996 -11755.038)" fill="#62803e"/><path d="M801.7,106.486l-1.352-5.406a.817.817,0,0,0,.647-.8v-.872a3.436,3.436,0,0,0-3.432-3.432h-6.156v-1.8a1.691,1.691,0,0,0-1.689-1.689H758.337a1.691,1.691,0,0,0-1.689,1.689V109a.817.817,0,0,0,1.635,0V94.179a.054.054,0,0,1,.054-.054h31.381a.054.054,0,0,1,.054.054V109a.817.817,0,0,0,1.635,0v-.926h9.645a2.673,2.673,0,0,1,2.539,1.852h-2.541a.817.817,0,0,0-.817.817v1.744a2.563,2.563,0,0,0,2.561,2.561h.926v3.6h-2.137a5.174,5.174,0,0,0-9.782,0h-.393v-6.156a.817.817,0,0,0-1.635,0v6.156H772.818a5.174,5.174,0,0,0-9.782,0h-4.7a.055.055,0,0,1-.054-.054v-1.8h3.541a.817.817,0,0,0,0-1.635h-7.845a.817.817,0,0,0,0,1.635h2.67v1.8a1.691,1.691,0,0,0,1.689,1.689h4.415c0,.018,0,.036,0,.054a5.176,5.176,0,0,0,10.352,0c0-.018,0-.036,0-.054h18.418c0,.018,0,.036,0,.054a5.176,5.176,0,0,0,10.351,0c0-.018,0-.036,0-.054h2.671a.817.817,0,0,0,.817-.817v-8.717a4.31,4.31,0,0,0-3.653-4.255M791.408,101.1h7.261L800,106.437h-8.6Zm6.156-3.487a1.8,1.8,0,0,1,1.8,1.8v.054h-7.954V97.611Zm-29.638,26.26a3.541,3.541,0,1,1,3.541-3.541,3.545,3.545,0,0,1-3.541,3.541m28.766,0a3.541,3.541,0,1,1,3.541-3.541,3.545,3.545,0,0,1-3.541,3.541m6.1-10.46a.928.928,0,0,1-.926-.926v-.926h1.852v1.852Z" transform="translate(-20478.479 -11728.289)"/><path d="M850.331,152.165a1.689,1.689,0,1,0,1.689,1.689,1.691,1.691,0,0,0-1.689-1.689" transform="translate(-20532.117 -11761.813)"/><path d="M800.9,145.025a.817.817,0,0,0,.817.817h12.2a.817.817,0,0,0,0-1.635h-12.2a.817.817,0,0,0-.817.817" transform="translate(-20505.297 -11757.343)"/><path d="M799.42,110.632l-7.267,7.267-3.781-3.781a.817.817,0,0,0-1.156,1.156l4.359,4.359a.817.817,0,0,0,1.155,0l7.846-7.846a.817.817,0,0,0-1.156-1.156" transform="translate(-20497.475 -11738.347)"/></g></g></svg>