<svg xmlns="http://www.w3.org/2000/svg" width="295" height="102" viewBox="0 0 295 102"><g transform="translate(-915.012 -2815.668)"><rect width="295" height="102" rx="13" transform="translate(915.012 2815.668)" fill="#fefaec"/><g transform="translate(1033.333 2825.789)"><g transform="translate(2.14 2.14)"><g transform="translate(0 36.473)"><ellipse cx="2.5" cy="2" rx="2.5" ry="2" transform="translate(-0.14 0.387)" fill="#ef7385"/></g><g transform="translate(0 27.355)"><circle cx="2.5" cy="2.5" r="2.5" transform="translate(-0.14 -0.495)" fill="#ef7385"/></g><g transform="translate(9.118 22.796)"><path d="M37.355,22v6.839H16.839V56.194H10V22Z" transform="translate(-10 -22)" fill="#f0d0b4"/></g><g transform="translate(15.957 29.635)"><path d="M43.355,28v6.839H25.118a2.286,2.286,0,0,0-2.28,2.28v22.8H16V28H43.355Z" transform="translate(-16 -28)" fill="#e6e9ed"/></g><g transform="translate(45.592 41.032)"><path d="M60.237,38V56.237H42V38H60.237Z" transform="translate(-42 -38)" fill="#e6e9ed"/></g><g transform="translate(22.796 36.473)"><path d="M44.8,38.559V59.075a2.286,2.286,0,0,1-2.28,2.28H24.28A2.286,2.286,0,0,1,22,59.075V36.28A2.286,2.286,0,0,1,24.28,34H42.516a2.286,2.286,0,0,1,2.28,2.28Z" transform="translate(-22 -34)" fill="#fcd770"/></g><g transform="translate(41.032)"><path d="M65.355,15.108v1.14a2.376,2.376,0,0,1-1.63,2.245,2.332,2.332,0,0,0-1.436,1.345l-.171.41a2.232,2.232,0,0,0-.182.9,2.3,2.3,0,0,0,.251,1.06,2.354,2.354,0,0,1-.433,2.735l-.809.809a2.358,2.358,0,0,1-1.664.7,2.4,2.4,0,0,1-1.071-.262,2.315,2.315,0,0,0-1.96-.068l-.41.171a2.332,2.332,0,0,0-1.345,1.436,2.376,2.376,0,0,1-2.245,1.63h-1.14a2.376,2.376,0,0,1-2.245-1.63,2.332,2.332,0,0,0-1.345-1.436l-.41-.171a2.232,2.232,0,0,0-.9-.182,2.3,2.3,0,0,0-1.06.251,2.354,2.354,0,0,1-2.735-.433l-.809-.809a2.358,2.358,0,0,1-.7-1.664,2.4,2.4,0,0,1,.262-1.071,2.315,2.315,0,0,0,.068-1.96l-.171-.41a2.332,2.332,0,0,0-1.436-1.345A2.376,2.376,0,0,1,38,16.247v-1.14a2.376,2.376,0,0,1,1.63-2.245,2.332,2.332,0,0,0,1.436-1.345l.171-.41a2.232,2.232,0,0,0,.182-.9,2.3,2.3,0,0,0-.251-1.06A2.354,2.354,0,0,1,41.6,6.411l.809-.809a2.358,2.358,0,0,1,1.664-.7,2.4,2.4,0,0,1,1.071.262,2.315,2.315,0,0,0,1.96.068l.41-.171A2.332,2.332,0,0,0,48.862,3.63,2.376,2.376,0,0,1,51.108,2h1.14a2.376,2.376,0,0,1,2.245,1.63,2.332,2.332,0,0,0,1.345,1.436l.41.171a2.232,2.232,0,0,0,.9.182,2.3,2.3,0,0,0,1.06-.251,2.354,2.354,0,0,1,2.735.433l.809.809a2.358,2.358,0,0,1,.7,1.664,2.4,2.4,0,0,1-.262,1.071,2.315,2.315,0,0,0-.068,1.96l.171.41a2.332,2.332,0,0,0,1.436,1.345A2.376,2.376,0,0,1,65.355,15.108Zm-6.839.57a6.839,6.839,0,1,0-6.839,6.839A6.844,6.844,0,0,0,58.516,15.677Z" transform="translate(-38 -2)" fill="#ffc729"/></g><g transform="translate(47.871 6.839)"><path d="M50.839,8A6.839,6.839,0,1,1,44,14.839,6.844,6.844,0,0,1,50.839,8Zm2.28,6.839a2.28,2.28,0,1,0-2.28,2.28A2.286,2.286,0,0,0,53.118,14.839Z" transform="translate(-44 -8)" fill="#fcd770"/></g></g><g transform="translate(1 1)"><path d="M50.979,7a7.979,7.979,0,1,0,7.979,7.979A7.987,7.987,0,0,0,50.979,7Zm0,13.677a5.7,5.7,0,1,1,5.7-5.7A5.705,5.705,0,0,1,50.979,20.677Z" transform="translate(4.871 -0.161)"/><path d="M50.419,11a3.419,3.419,0,1,0,3.419,3.419A3.424,3.424,0,0,0,50.419,11Zm0,4.559a1.14,1.14,0,1,1,1.14-1.14A1.142,1.142,0,0,1,50.419,15.559Z" transform="translate(5.43 0.398)"/><path d="M68.976,11.92a1.168,1.168,0,0,1-.736-.677c-.058-.15-.119-.3-.184-.448a1.174,1.174,0,0,1,.043-1,3.5,3.5,0,0,0-.65-4.059l-.8-.8a3.5,3.5,0,0,0-4.059-.65,1.164,1.164,0,0,1-1,.043c-.146-.064-.3-.124-.445-.184a1.17,1.17,0,0,1-.679-.739A3.5,3.5,0,0,0,57.138,1H56a3.5,3.5,0,0,0-3.329,2.412,1.166,1.166,0,0,1-.679.736c-.149.058-.3.119-.446.184a1.174,1.174,0,0,1-1-.043,3.5,3.5,0,0,0-4.059.65l-.8.8a3.5,3.5,0,0,0-.65,4.059,1.172,1.172,0,0,1,.043,1c-.064.147-.125.3-.184.445a1.167,1.167,0,0,1-.739.679,3.5,3.5,0,0,0-2.411,3.329v1.135a3.5,3.5,0,0,0,2.412,3.329,1.168,1.168,0,0,1,.736.677c.058.15.119.3.184.448a1.174,1.174,0,0,1-.043,1,3.5,3.5,0,0,0,.65,4.059l.8.8a3.5,3.5,0,0,0,4.059.65,1.168,1.168,0,0,1,1-.043c.147.064.3.125.445.184a1.167,1.167,0,0,1,.679.739,3.5,3.5,0,0,0,2.757,2.363V42.032H48.59v-1.14a3.415,3.415,0,0,0-2.28-3.21V30.635H39.472V23.8H9.839V60.269h6.839v4.559h7.048a3.415,3.415,0,0,0,3.21,2.28H45.172a3.424,3.424,0,0,0,3.419-3.419v-1.14H55.43v5.7a1.141,1.141,0,0,1-1.14,1.14H6.419a1.141,1.141,0,0,1-1.14-1.14V46.592H3V68.248a3.424,3.424,0,0,0,3.419,3.419H54.291a3.424,3.424,0,0,0,3.419-3.419v-5.7h9.118V42.032H57.71V30.587a3.5,3.5,0,0,0,2.757-2.364,1.168,1.168,0,0,1,.677-.736c.15-.058.3-.119.448-.184a1.174,1.174,0,0,1,1,.043,3.5,3.5,0,0,0,4.059-.65l.8-.8a3.5,3.5,0,0,0,.65-4.059,1.172,1.172,0,0,1-.043-1c.064-.147.125-.3.184-.445a1.167,1.167,0,0,1,.739-.679,3.5,3.5,0,0,0,2.41-3.33V15.25a3.5,3.5,0,0,0-2.412-3.329Zm-23.8,27.833a1.141,1.141,0,0,1,1.14,1.14v5.7H25.8v-5.7a1.141,1.141,0,0,1,1.14-1.14ZM25.8,48.871H46.312V55.71H25.8ZM12.118,57.99V26.075H37.194v4.559H16.677V57.99Zm6.839-25.075H44.032v4.559h-17.1a3.424,3.424,0,0,0-3.419,3.419V62.549H18.957ZM45.172,64.828H26.936a1.141,1.141,0,0,1-1.14-1.14v-5.7H46.312v5.7A1.141,1.141,0,0,1,45.172,64.828Zm19.376-4.559H48.592V44.312H64.549Zm4.559-43.884a1.223,1.223,0,0,1-.843,1.164,3.438,3.438,0,0,0-2.15,2.02c-.048.122-.1.244-.149.362a3.441,3.441,0,0,0,.1,2.932,1.221,1.221,0,0,1-.227,1.418l-.8.8a1.223,1.223,0,0,1-1.418.227,3.447,3.447,0,0,0-2.93-.1q-.18.077-.366.15A3.441,3.441,0,0,0,58.3,27.513a1.223,1.223,0,0,1-1.164.842H56a1.223,1.223,0,0,1-1.164-.843,3.438,3.438,0,0,0-2.02-2.15c-.122-.048-.244-.1-.362-.149a3.374,3.374,0,0,0-1.352-.282,3.512,3.512,0,0,0-1.58.38,1.224,1.224,0,0,1-1.418-.227l-.8-.8a1.221,1.221,0,0,1-.227-1.418,3.439,3.439,0,0,0,.1-2.93q-.077-.18-.15-.366a3.441,3.441,0,0,0-2.151-2.019,1.22,1.22,0,0,1-.842-1.163V15.25a1.224,1.224,0,0,1,.842-1.164,3.437,3.437,0,0,0,2.151-2.02c.048-.122.1-.244.149-.362a3.441,3.441,0,0,0-.1-2.932A1.223,1.223,0,0,1,47.3,7.353l.8-.8a1.219,1.219,0,0,1,1.419-.227,3.435,3.435,0,0,0,2.93.1c.121-.052.243-.1.365-.149a3.449,3.449,0,0,0,2.02-2.151A1.222,1.222,0,0,1,56,3.28h1.135a1.223,1.223,0,0,1,1.164.843,3.442,3.442,0,0,0,2.019,2.15c.122.048.244.1.364.149a3.446,3.446,0,0,0,2.932-.1,1.223,1.223,0,0,1,1.419.227l.8.8a1.223,1.223,0,0,1,.227,1.419,3.439,3.439,0,0,0-.1,2.93q.077.18.15.366a3.441,3.441,0,0,0,2.151,2.019,1.223,1.223,0,0,1,.842,1.164Z" transform="translate(-0.72 -1)"/><path d="M4.419,31.839A3.419,3.419,0,1,0,1,28.419,3.424,3.424,0,0,0,4.419,31.839Zm0-4.559a1.14,1.14,0,1,1-1.14,1.14A1.142,1.142,0,0,1,4.419,27.28Z" transform="translate(-1 2.355)"/><path d="M7.839,36.419a3.419,3.419,0,1,0-3.419,3.419A3.424,3.424,0,0,0,7.839,36.419Zm-4.559,0a1.14,1.14,0,1,1,1.14,1.14A1.141,1.141,0,0,1,3.28,36.419Z" transform="translate(-1 3.473)"/><path d="M45,41H56.4v2.28H45Z" transform="translate(5.151 4.592)"/><path d="M45,45H56.4v2.28H45Z" transform="translate(5.151 5.151)"/><path d="M45,49h2.28v2.28H45Z" transform="translate(5.151 5.71)"/><path d="M53,49h2.28v2.28H53Z" transform="translate(6.269 5.71)"/><path d="M49,49h2.28v2.28H49Z" transform="translate(5.71 5.71)"/><path d="M25,37h2.28v2.28H25Z" transform="translate(2.355 4.032)"/><path d="M29,37h2.28v2.28H29Z" transform="translate(2.914 4.032)"/><path d="M33,37h2.28v2.28H33Z" transform="translate(3.473 4.032)"/><path d="M5.28,17.1a1.142,1.142,0,0,1,1.14-1.14h27.94L28.611,19.55l1.208,1.933,10.665-6.665L29.819,8.152l-1.208,1.933,5.748,3.593H6.419A3.424,3.424,0,0,0,3,17.1v7.979H5.28Z" transform="translate(-0.72 0)"/><path d="M33,45h2.28v2.28H33Z" transform="translate(3.473 5.151)"/><path d="M37,45h2.28v2.28H37Z" transform="translate(4.032 5.151)"/><path d="M29,45h2.28v2.28H29Z" transform="translate(2.914 5.151)"/><path d="M33,53h2.28v2.28H33Z" transform="translate(3.473 6.269)"/><path d="M25,53h2.28v2.28H25Z" transform="translate(2.355 6.269)"/><path d="M29,53h2.28v2.28H29Z" transform="translate(2.914 6.269)"/></g></g></g></svg>