<svg xmlns="http://www.w3.org/2000/svg" width="190" height="105" viewBox="0 0 190 105"><g transform="translate(-390.012 -3415.668)"><rect width="190" height="105" rx="13" transform="translate(390.012 3415.668)" fill="#fefaec"/><g transform="translate(453.023 3434.668)"><path d="M64.022,5.189V32.55a2.2,2.2,0,0,1-2.189,2.189H44.322l-3.283,6.556-4.367-6.556H31.189A2.2,2.2,0,0,1,29,32.55V5.189A2.2,2.2,0,0,1,31.189,3H61.833a2.2,2.2,0,0,1,2.189,2.189Z" transform="translate(2.55 0.094)" fill="#5aaae7"/><path d="M23.794,44.55v19H3V40.72a4.378,4.378,0,0,1,1.948-3.644L9.567,34l6.567,1.094,3.25,1.861a8.746,8.746,0,0,1,4.411,7.6Z" transform="translate(0.094 3.022)" fill="#3d9ae2"/><path d="M23.606,11v2.189a4.378,4.378,0,0,1-4.378,4.378H11.567a1.094,1.094,0,0,0-1.094,1.094A2.2,2.2,0,0,1,8.283,20.85H7.189A3.245,3.245,0,0,0,5,21.693V17.567A6.567,6.567,0,0,1,11.567,11Z" transform="translate(0.283 0.85)" fill="#57565c"/><path d="M23.794,53.567v6.567H7.378A4.378,4.378,0,0,1,3,55.756V47H9.567v6.567Z" transform="translate(0.094 4.25)" fill="#1e81ce"/><path d="M30.361,57.039v1.094H7.378A4.378,4.378,0,0,1,3,53.756V45H9.567v6.567H24.889A5.472,5.472,0,0,1,30.361,57.039Z" transform="translate(0.094 4.061)" fill="#ffc477"/><path d="M15.567,30.321v5.472L9,34.7V26.6a7.634,7.634,0,0,0,6.567,3.721Z" transform="translate(0.661 2.323)" fill="#ffc477"/><path d="M15.567,30.321V33.6A7.634,7.634,0,0,1,9,29.883V26.6a7.634,7.634,0,0,0,6.567,3.721Z" transform="translate(0.661 2.323)" fill="#ffb655"/><path d="M16.039,32.322A7.634,7.634,0,0,1,9.472,28.6a7.42,7.42,0,0,1-.777-1.751H7.283a3.283,3.283,0,0,1-2.32-5.6,1.313,1.313,0,0,1,.131-.12,3.245,3.245,0,0,1,2.189-.843H8.378a2.2,2.2,0,0,0,2.189-2.189A1.094,1.094,0,0,1,11.661,17h8.756A3.283,3.283,0,0,1,23.7,20.283v4.378a7.661,7.661,0,0,1-7.661,7.661Z" transform="translate(0.189 1.417)" fill="#ffc477"/><path d="M7,19.3v-8.11a2.189,2.189,0,1,1,4.378,0V19.3A5.563,5.563,0,0,0,7,19.3Z" transform="translate(0.472 0.661)" fill="#898890"/><path d="M14.944,23.472A5.472,5.472,0,1,1,4,23.472a5.408,5.408,0,0,1,1.094-3.283,5.469,5.469,0,0,1,9.85,3.283Z" transform="translate(0.189 1.511)" fill="#acabb1"/><path d="M54.092,22.013,52,20.973l-2.058-1.029v-.591a4.356,4.356,0,0,0,2.189-3.787V9H45.567a2.2,2.2,0,0,0-2.189,2.189v4.378a4.356,4.356,0,0,0,2.189,3.787v.591l-2.058,1.029-2.09,1.04A4.4,4.4,0,0,0,39,25.931v6.052H56.511V25.931a4.4,4.4,0,0,0-2.419-3.918Z" transform="translate(3.494 0.661)" fill="#3d9ae2"/><path d="M50.133,28.95H37V22.9a4.4,4.4,0,0,1,2.419-3.918l2.09-1.04a4.367,4.367,0,0,0,8.493,0l2.09,1.04A4.4,4.4,0,0,1,54.511,22.9V28.95Z" transform="translate(3.305 1.505)" fill="#ff5023"/><path d="M43.189,11.378A2.205,2.205,0,0,0,41,13.567V9.189A2.2,2.2,0,0,1,43.189,7h6.567v4.378Z" transform="translate(3.683 0.472)" fill="#57565c"/><path d="M47.555,17.145l2.058,1.029a4.367,4.367,0,0,1-8.493,0l2.058-1.029V15.46a4.349,4.349,0,0,0,4.378,0Z" transform="translate(3.695 1.271)" fill="#ffb655"/><path d="M49.756,11v2.189a4.378,4.378,0,1,1-8.756,0A2.205,2.205,0,0,1,43.189,11Z" transform="translate(3.683 0.85)" fill="#ffc477"/><path d="M54.636,39.365,50.773,61.276a2.194,2.194,0,0,1-2.156,1.806H22V58.7H46.778l3.163-17.938a2.189,2.189,0,0,1,2.539-1.773Z" transform="translate(1.889 3.49)" fill="#e0e0e2"/><path d="M57.423,41.652a1.15,1.15,0,0,0-.711-.449l-2.156-.361a3.277,3.277,0,0,0-3.8,2.659l-3.01,17.03H31.55a6.567,6.567,0,0,0-6.567-6.567V47a9.88,9.88,0,0,0-4.958-8.548l-2.7-1.543V34.188a8.756,8.756,0,0,0,7.661-8.679V21.131a4.385,4.385,0,0,0-1.871-3.579,5.416,5.416,0,0,0,1.871-4.082V11.281a1.094,1.094,0,0,0-1.094-1.094H12.747a3.283,3.283,0,0,0-6.37,1.094v1.226a7.637,7.637,0,0,0-2.189,5.341v2.966A6.535,6.535,0,0,0,8.567,30.883v4.98L4.441,38.62A5.444,5.444,0,0,0,2,43.173V66A1.094,1.094,0,0,0,3.094,67.1H50.506a3.283,3.283,0,0,0,3.24-2.714L57.6,42.473A1.094,1.094,0,0,0,57.423,41.652ZM22.794,25.509a6.567,6.567,0,0,1-10.78,5.034,6.661,6.661,0,0,0,2.419-1.631l1.193.788a1.058,1.058,0,0,0,.6.186h3.283V27.7H16.556l-.908-.6a6.481,6.481,0,0,0,.58-2.681,6.567,6.567,0,0,0-2.955-5.472h7.333a2.2,2.2,0,0,1,2.189,2.189Zm-7.661,8.679v2.068l-4.378-.733V32.338a8.646,8.646,0,0,0,4.378,1.85ZM12.944,12.376h9.85V13.47a3.293,3.293,0,0,1-3.283,3.283H12.944ZM8.567,11.281a1.094,1.094,0,1,1,2.189,0v6.665a6.676,6.676,0,0,0-2.189,0ZM5.283,24.414a4.333,4.333,0,0,1,.876-2.627,4.373,4.373,0,0,1,7.88,2.627,4.213,4.213,0,0,1-.263,1.434l-3.513-2.342-1.2,1.817,3.5,2.342a4.355,4.355,0,0,1-7.278-3.25ZM9.913,37.6l5.943,1,3.075,1.762A7.661,7.661,0,0,1,22.794,47v6.961H10.756v-9.85a4.361,4.361,0,0,0-4.093-4.345ZM4.189,43.173a3.276,3.276,0,0,1,1.467-2.736l.722-.482v1.97a2.2,2.2,0,0,1,2.189,2.189V47.4H4.189ZM22.794,64.909H4.189V61.593A5.389,5.389,0,0,0,7.472,62.72H22.794ZM7.472,60.531a3.293,3.293,0,0,1-3.283-3.283V49.587H8.567v5.472a1.094,1.094,0,0,0,1.094,1.094H24.983a4.378,4.378,0,0,1,4.378,4.378ZM51.589,64a1.1,1.1,0,0,1-1.083.908H24.983V62.72H48.667a1.094,1.094,0,0,0,1.073-.908L52.9,43.885A1.094,1.094,0,0,1,54.183,43l1.073.186Z" transform="translate(0 0.569)"/><path d="M61.928,2H31.283A3.293,3.293,0,0,0,28,5.283V32.644a3.293,3.293,0,0,0,3.283,3.283h4.892L40.225,42a1.079,1.079,0,0,0,.908.482H41.2a1.077,1.077,0,0,0,.908-.6L45.1,35.928H61.928a3.293,3.293,0,0,0,3.283-3.283V5.283A3.293,3.293,0,0,0,61.928,2Zm1.094,30.644a1.094,1.094,0,0,1-1.094,1.094H44.417a1.081,1.081,0,0,0-.974.6L41,39.211l-3.327-4.98a1.1,1.1,0,0,0-.908-.493H31.283a1.094,1.094,0,0,1-1.094-1.094V5.283a1.094,1.094,0,0,1,1.094-1.094H61.928a1.094,1.094,0,0,1,1.094,1.094Z" transform="translate(2.455)"/><path d="M52.679,19.122,49.626,17.6a5.436,5.436,0,0,0,1.7-3.94V7.094A1.094,1.094,0,0,0,50.228,6H43.661a3.293,3.293,0,0,0-3.283,3.283v4.378a5.436,5.436,0,0,0,1.7,3.94l-3.053,1.532A5.514,5.514,0,0,0,36,24.025v6.052a1.094,1.094,0,0,0,1.094,1.094H54.606A1.094,1.094,0,0,0,55.7,30.078V24.025a5.542,5.542,0,0,0-3.021-4.9ZM42.567,9.283a1.094,1.094,0,0,1,1.094-1.094h5.472v2.189H43.661a3.283,3.283,0,0,0-1.094.2Zm1.094,3.283h5.472v1.094a3.283,3.283,0,1,1-6.567,0A1.094,1.094,0,0,1,43.661,12.567ZM48.717,19.6a3.252,3.252,0,0,1-5.735,0l1.171-.591a.991.991,0,0,0,.175-.12,4.925,4.925,0,0,0,3.043,0,.992.992,0,0,0,.175.12Zm4.794,9.379H51.322V24.606H49.133v4.378H42.567V24.606H40.378v4.378H38.189V24.025a3.3,3.3,0,0,1,1.817-2.933l1.018-.514a5.437,5.437,0,0,0,9.653,0l1.018.5a3.331,3.331,0,0,1,1.817,2.944Z" transform="translate(3.211 0.378)"/></g></g></svg>