<svg xmlns="http://www.w3.org/2000/svg" width="190" height="91" viewBox="0 0 190 91"><g transform="translate(-390.012 -2629.668)"><rect width="190" height="91" rx="13" transform="translate(390.012 2629.668)" fill="#fefaec"/><g transform="translate(466.831 2647.869)"><g transform="translate(0.861 0.861)"><path d="M166.074,52.518V23.5c0-2.2.754-2.673,2.469-3.715.8-.484.861-.809.861-1.3L168.256,7.5H134.872a1.723,1.723,0,0,0-1.723,1.723V53.092l31.2,1.148A1.728,1.728,0,0,0,166.074,52.518Z" transform="translate(-123.962 -7.5)" fill="#c38778"/><path d="M168.831,7.5h-.574V17.566c0,.494-.065.82-.861,1.3-1.715,1.042-2.469,1.412-2.469,1.412V16.113A1.723,1.723,0,0,0,163.2,14.39H133.149V53.666a1.723,1.723,0,0,0,1.723,1.723H165.5a1.728,1.728,0,0,0,1.723-1.723V23.5a2.833,2.833,0,0,1,1.435-2.8,3.115,3.115,0,0,0,1.895-2.8V9.223A1.728,1.728,0,0,0,168.831,7.5Z" transform="translate(-123.962 -7.5)" fill="#9d6c6c"/><path d="M125.96,94.24,124.811,47.5H94.872a1.723,1.723,0,0,0-1.723,1.723V93.092Z" transform="translate(-88.555 -42.906)" fill="#ffe07d"/><path d="M125.385,47.5h-.574V92.231a.861.861,0,0,1-.861.861h-30.8v.574a1.723,1.723,0,0,0,1.723,1.723h30.514a1.723,1.723,0,0,0,1.723-1.723V49.223A1.723,1.723,0,0,0,125.385,47.5Z" transform="translate(-88.555 -42.906)" fill="#ffd064"/><path d="M85.96,134.24,84.811,87.5H54.872a1.723,1.723,0,0,0-1.723,1.723v43.869Z" transform="translate(-53.149 -78.313)" fill="#eef9fa"/><path d="M85.385,87.5h-.574v44.731a.861.861,0,0,1-.861.861h-30.8v.574a1.723,1.723,0,0,0,1.723,1.723H85.385a1.723,1.723,0,0,0,1.723-1.723V89.223A1.723,1.723,0,0,0,85.385,87.5Z" transform="translate(-53.149 -78.313)" fill="#dcf2f6"/><g transform="translate(4.594 15.906)"><ellipse cx="1.723" cy="1.723" rx="1.723" ry="1.723" fill="#ebb34c"/><ellipse cx="1.723" cy="1.723" rx="1.723" ry="1.723" transform="translate(0 10.336)" fill="#ebb34c"/><ellipse cx="1.723" cy="1.723" rx="1.723" ry="1.723" transform="translate(0 20.671)" fill="#ebb34c"/><ellipse cx="1.723" cy="1.723" rx="1.723" ry="1.723" transform="translate(0 31.007)" fill="#ebb34c"/></g></g><g transform="translate(0 0)"><path d="M284.523,0h-19.81a.861.861,0,0,0,0,1.723h19.81a.862.862,0,0,1,.861.861v8.688c0,1.08-.586,1.517-1.481,2.06a3.68,3.68,0,0,0-1.85,3.532v20.2a.861.861,0,1,0,1.723,0v-20.2A1.981,1.981,0,0,1,284.8,14.8a3.932,3.932,0,0,0,2.309-3.532V2.584A2.587,2.587,0,0,0,284.523,0Z" transform="translate(-238.792 0)"/><path d="M89.771,39.653a.861.861,0,0,0-.861.861v6.514a.862.862,0,0,1-.861.861H85.923V7.178a2.587,2.587,0,0,0-2.584-2.584H56.558V2.584a.862.862,0,0,1,.861-.861h10.7a.861.861,0,1,0,0-1.723h-10.7a2.587,2.587,0,0,0-2.584,2.584v2.01h-2.01a2.587,2.587,0,0,0-2.584,2.584v2.01h-2.01a2.587,2.587,0,0,0-2.584,2.584v31.06a.861.861,0,0,0,1.723,0V11.771a.862.862,0,0,1,.861-.861H78.746a.862.862,0,0,1,.861.861v9.1a.861.861,0,0,0,1.723,0v-9.1a2.587,2.587,0,0,0-2.584-2.584H51.964V7.178a.862.862,0,0,1,.861-.861H83.339a.862.862,0,0,1,.861.861V51.621a.862.862,0,0,1-.861.861H81.33V24.319a.861.861,0,0,0-1.723,0v31.9a.862.862,0,0,1-.861.861H48.232a.862.862,0,0,1-.861-.861V46.276a.861.861,0,1,0-1.723,0v9.938A2.587,2.587,0,0,0,48.232,58.8H78.746a2.587,2.587,0,0,0,2.584-2.584v-2.01h2.01a2.587,2.587,0,0,0,2.584-2.584v-2.01h2.125a2.587,2.587,0,0,0,2.584-2.584V40.514A.861.861,0,0,0,89.771,39.653Z" transform="translate(-45.648 0)"/><path d="M88.232,143.668a2.584,2.584,0,1,0-2.584-2.584A2.587,2.587,0,0,0,88.232,143.668Zm0-3.445a.861.861,0,1,1-.861.861A.862.862,0,0,1,88.232,140.223Z" transform="translate(-81.054 -122.594)"/><path d="M146.509,140.223h17.307a.861.861,0,1,0,0-1.723H146.509a.861.861,0,0,0,0,1.723Z" transform="translate(-134.164 -122.594)"/><path d="M146.509,170.223h17.307a.861.861,0,1,0,0-1.723H146.509a.861.861,0,0,0,0,1.723Z" transform="translate(-134.164 -149.149)"/><path d="M88.232,233.668a2.584,2.584,0,1,0-2.584-2.584A2.587,2.587,0,0,0,88.232,233.668Zm0-3.445a.861.861,0,1,1-.861.861A.862.862,0,0,1,88.232,230.223Z" transform="translate(-81.054 -202.259)"/><path d="M146.509,230.223h17.307a.861.861,0,1,0,0-1.723H146.509a.861.861,0,0,0,0,1.723Z" transform="translate(-134.164 -202.259)"/><path d="M146.509,260.223h17.307a.861.861,0,1,0,0-1.723H146.509a.861.861,0,0,0,0,1.723Z" transform="translate(-134.164 -228.813)"/><path d="M88.232,323.668a2.584,2.584,0,1,0-2.584-2.584A2.587,2.587,0,0,0,88.232,323.668Zm0-3.445a.861.861,0,1,1-.861.861A.862.862,0,0,1,88.232,320.223Z" transform="translate(-81.054 -281.923)"/><path d="M146.509,320.223h17.307a.861.861,0,1,0,0-1.723H146.509a.861.861,0,0,0,0,1.723Z" transform="translate(-134.164 -281.923)"/><path d="M146.509,350.223h17.307a.861.861,0,0,0,0-1.723H146.509a.861.861,0,0,0,0,1.723Z" transform="translate(-134.164 -308.478)"/><path d="M88.232,413.668a2.584,2.584,0,1,0-2.584-2.584A2.587,2.587,0,0,0,88.232,413.668Zm0-3.445a.861.861,0,1,1-.861.861A.862.862,0,0,1,88.232,410.223Z" transform="translate(-81.054 -361.587)"/><path d="M146.509,410.223h17.307a.861.861,0,1,0,0-1.723H146.509a.861.861,0,1,0,0,1.723Z" transform="translate(-134.164 -361.587)"/><path d="M146.509,440.223h17.307a.861.861,0,1,0,0-1.723H146.509a.861.861,0,1,0,0,1.723Z" transform="translate(-134.164 -388.142)"/></g></g></g></svg>