<svg xmlns="http://www.w3.org/2000/svg" width="190" height="105" viewBox="0 0 190 105"><g transform="translate(-390.012 -3010.668)"><rect width="190" height="105" rx="13" transform="translate(390.012 3010.668)" fill="#fefaec"/><g transform="translate(447.537 3021.909)"><ellipse cx="3.264" cy="3.264" rx="3.264" ry="3.264" transform="translate(1.464 66.958)" fill="#91def5"/><ellipse cx="3.264" cy="3.264" rx="3.264" ry="3.264" transform="translate(14.573 66.958)" fill="#ffcb7c"/><ellipse cx="3.264" cy="3.264" rx="3.264" ry="3.264" transform="translate(27.682 66.958)" fill="#f6838d"/><ellipse cx="3.264" cy="3.264" rx="3.264" ry="3.264" transform="translate(40.791 66.958)" fill="#91def5"/><ellipse cx="3.264" cy="3.264" rx="3.264" ry="3.264" transform="translate(53.874 66.958)" fill="#f6838d"/><ellipse cx="3.264" cy="3.264" rx="3.264" ry="3.264" transform="translate(66.958 66.958)" fill="#91def5"/><g transform="translate(28.418 1.464)"><path d="M212.279,86.015V83.087a5.27,5.27,0,0,0-5.27-5.27H199.4a5.27,5.27,0,0,0-5.27,5.27v2.928Z" transform="translate(-194.127 -67.889)" fill="#cff1fb"/><g transform="translate(4.506)"><path d="M229.477,10a4.57,4.57,0,0,0-4.57,4.57v.787a4.57,4.57,0,1,0,9.14,0V14.57A4.57,4.57,0,0,0,229.477,10Z" transform="translate(-224.907 -10)" fill="#ffbf9e"/></g></g><g transform="translate(2.207 34.228)"><path d="M33.227,309.833V306.9a5.27,5.27,0,0,0-5.27-5.27H20.345a5.27,5.27,0,0,0-5.27,5.27v2.928Z" transform="translate(-15.075 -291.707)" fill="#ffcb7c"/><g transform="translate(4.506)"><path d="M50.425,233.817a4.57,4.57,0,0,0-4.57,4.57v.787a4.57,4.57,0,0,0,9.14,0v-.787a4.57,4.57,0,0,0-4.57-4.57Z" transform="translate(-45.855 -233.817)" fill="#ffcbbe"/></g></g><g transform="translate(28.418 34.228)"><path d="M212.279,309.833V306.9a5.27,5.27,0,0,0-5.27-5.27H199.4a5.27,5.27,0,0,0-5.27,5.27v2.928Z" transform="translate(-194.127 -291.707)" fill="#f6838d"/><g transform="translate(4.506)"><path d="M229.477,233.817a4.57,4.57,0,0,0-4.57,4.57v.787a4.57,4.57,0,0,0,9.14,0v-.787a4.57,4.57,0,0,0-4.57-4.57Z" transform="translate(-224.907 -233.817)" fill="#ffbf9e"/></g></g><g transform="translate(54.592 34.228)"><path d="M391.077,309.833V306.9a5.27,5.27,0,0,0-5.27-5.27h-7.612a5.27,5.27,0,0,0-5.27,5.27v2.928Z" transform="translate(-372.925 -291.707)" fill="#91def5"/><g transform="translate(4.506)"><path d="M408.275,233.817a4.57,4.57,0,0,0-4.57,4.57v.787a4.57,4.57,0,1,0,9.14,0v-.787a4.57,4.57,0,0,0-4.57-4.57Z" transform="translate(-403.705 -233.817)" fill="#ffcbbe"/></g></g><g transform="translate(0 0)"><path d="M185.591,21.053h7.594v2.928h-5.033a1.464,1.464,0,1,0,0,2.928h5.033v1.464a1.464,1.464,0,1,0,2.928,0V26.909h23.239v1.464a1.464,1.464,0,1,0,2.928,0V25.445a1.464,1.464,0,0,0-1.464-1.464h-24.7V21.053h7.631a1.464,1.464,0,0,0,1.464-1.464V16.661a6.744,6.744,0,0,0-5.448-6.609,6,6,0,0,0,.942-3.231V6.034a6.034,6.034,0,0,0-12.068,0v.787a6,6,0,0,0,.942,3.231,6.744,6.744,0,0,0-5.448,6.609v2.928a1.464,1.464,0,0,0,1.464,1.464Zm5.97-15.019a3.106,3.106,0,0,1,6.213,0v.787a3.106,3.106,0,1,1-6.213,0Zm-4.506,10.627a3.81,3.81,0,0,1,3.806-3.806h7.612a3.81,3.81,0,0,1,3.806,3.806v1.464H187.055Z" transform="translate(-157.173 0)"/><path d="M6.539,244.872h7.612V247.8H9.06A1.464,1.464,0,0,0,7.6,249.264v2.928a1.464,1.464,0,0,0,2.928,0v-1.464H20.706v1.464a1.464,1.464,0,0,0,2.928,0v-2.928a1.464,1.464,0,0,0-1.464-1.464H17.079v-2.928h7.612a1.464,1.464,0,0,0,1.464-1.464V240.48a6.744,6.744,0,0,0-5.448-6.609,6,6,0,0,0,.942-3.231v-.787a6.034,6.034,0,0,0-12.068,0v.787a6,6,0,0,0,.942,3.231,6.744,6.744,0,0,0-5.448,6.609v2.928A1.464,1.464,0,0,0,6.539,244.872Zm5.97-15.019a3.106,3.106,0,0,1,6.213,0v.787a3.106,3.106,0,1,1-6.213,0ZM8,240.48a3.81,3.81,0,0,1,3.806-3.806h7.612a3.81,3.81,0,0,1,3.806,3.806v1.464H8Z" transform="translate(-4.332 -191.055)"/><path d="M185.591,244.872h7.594V247.8h-5.09a1.464,1.464,0,0,0-1.464,1.464v2.928a1.464,1.464,0,0,0,2.928,0v-1.464h10.181v1.464a1.464,1.464,0,0,0,2.928,0v-2.928A1.464,1.464,0,0,0,201.2,247.8h-5.091v-2.928h7.631a1.464,1.464,0,0,0,1.464-1.464V240.48a6.744,6.744,0,0,0-5.448-6.609,6,6,0,0,0,.942-3.231v-.787a6.034,6.034,0,0,0-12.068,0v.787a6,6,0,0,0,.942,3.231,6.744,6.744,0,0,0-5.448,6.609v2.928a1.464,1.464,0,0,0,1.464,1.464Zm5.97-15.019a3.106,3.106,0,0,1,6.213,0v.787a3.106,3.106,0,1,1-6.213,0Zm-4.506,10.627a3.81,3.81,0,0,1,3.806-3.806h7.612a3.81,3.81,0,0,1,3.806,3.806v1.464H187.055Z" transform="translate(-157.173 -191.055)"/><path d="M367.431,229.852v.787a6,6,0,0,0,.942,3.231,6.744,6.744,0,0,0-5.448,6.609v2.928a1.464,1.464,0,0,0,1.464,1.464H372V247.8H366.91a1.464,1.464,0,0,0-1.464,1.464v2.928a1.464,1.464,0,0,0,2.928,0v-1.464h10.181v1.464a1.464,1.464,0,1,0,2.928,0v-2.928a1.464,1.464,0,0,0-1.464-1.464h-5.091v-2.928h7.612A1.464,1.464,0,0,0,384,243.407v-2.928a6.744,6.744,0,0,0-5.448-6.609,6,6,0,0,0,.942-3.231v-.787a6.034,6.034,0,0,0-12.068,0Zm13.646,10.627v1.464H365.853v-1.464a3.81,3.81,0,0,1,3.806-3.806h7.612A3.81,3.81,0,0,1,381.077,240.479Zm-4.506-10.627v.787a3.106,3.106,0,0,1-6.213,0v-.787a3.106,3.106,0,0,1,6.213,0Z" transform="translate(-309.797 -191.054)"/><path d="M4.728,447.4a4.728,4.728,0,1,0,4.728,4.728A4.734,4.734,0,0,0,4.728,447.4Zm0,6.529a1.8,1.8,0,1,1,1.8-1.8A1.8,1.8,0,0,1,4.728,453.928Z" transform="translate(0 -381.905)"/><path d="M94.278,447.4a4.728,4.728,0,1,0,4.728,4.728A4.734,4.734,0,0,0,94.278,447.4Zm0,6.529a1.8,1.8,0,1,1,1.8-1.8A1.8,1.8,0,0,1,94.278,453.928Z" transform="translate(-76.441 -381.905)"/><path d="M183.827,447.4a4.728,4.728,0,1,0,4.728,4.728A4.734,4.734,0,0,0,183.827,447.4Zm0,6.529a1.8,1.8,0,1,1,1.8-1.8A1.8,1.8,0,0,1,183.827,453.928Z" transform="translate(-152.881 -381.905)"/><path d="M273.377,447.4a4.728,4.728,0,1,0,4.728,4.728A4.734,4.734,0,0,0,273.377,447.4Zm0,6.529a1.8,1.8,0,1,1,1.8-1.8A1.8,1.8,0,0,1,273.377,453.928Z" transform="translate(-229.322 -381.905)"/><path d="M362.752,447.4a4.728,4.728,0,1,0,4.728,4.728A4.734,4.734,0,0,0,362.752,447.4Zm0,6.529a1.8,1.8,0,1,1,1.8-1.8A1.8,1.8,0,0,1,362.752,453.928Z" transform="translate(-305.614 -381.905)"/><path d="M452.127,447.4a4.728,4.728,0,1,0,4.728,4.728A4.734,4.734,0,0,0,452.127,447.4Zm0,6.529a1.8,1.8,0,1,1,1.8-1.8A1.8,1.8,0,0,1,452.127,453.928Z" transform="translate(-381.905 -381.905)"/><path d="M68.714,169.673a1.464,1.464,0,0,0,1.464-1.464v-1.464H75.21a1.464,1.464,0,0,0,0-2.928h-6.5a1.464,1.464,0,0,0-1.464,1.464v2.928A1.464,1.464,0,0,0,68.714,169.673Z" transform="translate(-57.405 -139.836)"/><path d="M158.094,163.82a1.465,1.465,0,1,0,1.033.429A1.472,1.472,0,0,0,158.094,163.82Z" transform="translate(-133.701 -139.839)"/></g></g></g></svg>