<svg xmlns="http://www.w3.org/2000/svg" width="295" height="102" viewBox="0 0 295 102"><g transform="translate(-915.012 -3220.668)"><rect width="295" height="102" rx="13" transform="translate(915.012 3220.668)" fill="#fefaec"/><g transform="translate(1025 3236.49)"><path d="M77.986,208v16.49a2.435,2.435,0,0,0-.033-.407,2.243,2.243,0,0,0-1.913-1.781,1.862,1.862,0,0,0-.253-.011h-2.2v7.7l4.4,4.4v6.6H56v-5.5l4.4-4.4v-5.5H58.2a2.205,2.205,0,0,0-2.2,2.2V208h5.5v2.2H72.49V208Z" transform="translate(-48.305 -179.418)" fill="#f98800"/><path d="M77.986,208,56,240.98H77.986Z" transform="translate(-48.305 -179.418)" fill="#f05a29"/><path d="M462.6,457.1v5.5H456l2.2-2.2-1.1-3.3h2.2l1.1-1.1Z" transform="translate(-393.339 -393.339)" fill="#acdd12"/><path d="M414.6,462.6s-6.6-.011-6.6,0v-5.5l2.2-1.1,1.1,1.1h2.2l-1.1,3.3Z" transform="translate(-351.935 -393.339)" fill="#acdd12"/><path d="M444.4,467.3l-2.2,2.2-2.2-2.2,1.1-3.3h2.2Z" transform="translate(-379.537 -400.24)" fill="#387f29"/><path d="M416.795,112h-4.4l-4.4,1.1v5.5h13.192v-5.5Z" transform="translate(-351.935 -96.61)" fill="#aedef8"/><path d="M423.7,48l-3.3,3.3-2.2-1.1H416v1.1a2.2,2.2,0,0,0,2.2,2.2h0v1.1l1.1,2.2h4.4l1.1-2.2V53.5h0a2.2,2.2,0,0,0,2.2-2.2V50.2h-3.3Z" transform="translate(-358.835 -41.405)" fill="#fac8b2"/><path d="M442.2,112l-2.2,4.4,2.2,2.2,2.2-2.2Z" transform="translate(-379.537 -96.61)" fill="#00587e"/><path d="M411.3,15.7H408V10.2L412.4,8l4.4,1.1,2.2-1.1,2.2,2.2v5.5h-4.4V13.5l-3.3,3.3Z" transform="translate(-351.935 -6.901)" fill="#58492f"/><path d="M456,302.6s6.6-.011,6.6,0v-5.5l-3.3-1.1-1.1,1.1h-1.1l1.1,3.3Z" transform="translate(-393.339 -255.326)" fill="#fcd4ef"/><path d="M440,307.3l2.2,2.2,2.2-2.2-1.1-3.3h-2.2Z" transform="translate(-379.537 -262.226)" fill="#f249b4"/><path d="M408,297.1v5.5h6.6l-2.2-2.2,1.1-3.3h-1.1l-1.1-1.1Z" transform="translate(-351.935 -255.326)" fill="#fcd4ef"/><path d="M438.6,258.2v3.3l-1.1,1.1h-4.4l-1.1-1.1v-3.3h1.1a2.215,2.215,0,0,0,2.2-2.2,2.205,2.205,0,0,0,2.2,2.2Z" transform="translate(-372.637 -220.822)" fill="#fac8b2"/><path d="M426.993,229.5a5.52,5.52,0,0,1-1.605,3.892,5.153,5.153,0,0,1-.594.506v-3.3h-1.1a2.205,2.205,0,0,1-2.2-2.2,2.215,2.215,0,0,1-2.2,2.2h-1.1v3.3a5.163,5.163,0,0,1-.594-.506,5.506,5.506,0,0,1,1.143-8.652,5.5,5.5,0,0,1,5.5,0,5.436,5.436,0,0,1,2.748,4.76Z" transform="translate(-358.835 -193.22)" fill="#b71e71"/><path d="M438.6,195.3a3.371,3.371,0,0,1-.55,1.836,5.5,5.5,0,0,0-5.5,0A3.371,3.371,0,0,1,432,195.3a3.3,3.3,0,1,1,6.6,0Z" transform="translate(-372.637 -165.617)" fill="#931d5b"/><path d="M432.795,378.2v3.3L424,379.3v-1.1a2.205,2.205,0,0,1,2.2-2.2h4.4A2.205,2.205,0,0,1,432.795,378.2Z" transform="translate(-365.736 -324.332)" fill="#f05a29"/><path d="M421.192,403.848a1.647,1.647,0,0,1-1.649,1.649h-.55v2.2l-1.1,1.1h-6.6l-1.1-1.1v-2.2h-.55a1.649,1.649,0,0,1,0-3.3h.55V400l8.795,2.2h.55A1.647,1.647,0,0,1,421.192,403.848Z" transform="translate(-351.935 -345.034)" fill="#fac8b2"/><path d="M106.993,173.5v2.2H96v-2.2a2.205,2.205,0,0,1,2.2-2.2h1.1v-1.1a2.205,2.205,0,0,1,2.2-2.2,2.215,2.215,0,0,1,2.2,2.2v1.1h1.1A2.205,2.205,0,0,1,106.993,173.5Z" transform="translate(-82.808 -144.915)" fill="#ffec00"/><path d="M88,256h4.4v4.4H88Z" transform="translate(-75.908 -220.822)" fill="#fff"/><path d="M88,320h4.4v4.4H88Z" transform="translate(-75.908 -276.028)" fill="#fff"/><path d="M88,384h4.4v4.4H88Z" transform="translate(-75.908 -331.233)" fill="#fff"/><path d="M18.993,308.4v5.5l-4.4,4.4H8V307.3l3.3-3.3h3.3v6.6a2.205,2.205,0,0,1,2.2-2.2Z" transform="translate(-6.901 -262.226)" fill="#fac8b2"/><path d="M222.6,307.3v5.793l-6.6-6.156V304h3.3Z" transform="translate(-186.318 -262.226)" fill="#fac8b2"/><path d="M194.839,324.093H188.4l-4.4-4.4V312h2.2a1.864,1.864,0,0,1,.253.011,2.243,2.243,0,0,1,1.913,1.781,2.435,2.435,0,0,1,.033.407v3.881Z" transform="translate(-158.716 -269.127)" fill="#fac8b2"/><path d="M165.75,291.309a1.859,1.859,0,0,0-.253-.011h-2.2v1.979L160,290.2V288h2.2Z" transform="translate(-138.014 -248.425)" fill="#00a8e7"/><path d="M226.993,335.616l-2.2,2.2-2.353-2.2L216,329.6V325.36l6.6,6.156Z" transform="translate(-186.318 -280.651)" fill="#00a8e7"/><path d="M216,400h6.6v14.291H216Z" transform="translate(-186.318 -345.034)" fill="#00587e"/><path d="M8,408h6.6v13.192H8Z" transform="translate(-6.901 -351.935)" fill="#00587e"/><path d="M149.5,250.2h-4.4a1.1,1.1,0,0,1,0-2.2h4.4a1.1,1.1,0,1,1,0,2.2Z" transform="translate(-124.212 -213.922)" fill="#f05a29"/><path d="M146.2,338.2h-1.1a1.1,1.1,0,0,1,0-2.2h1.1a1.1,1.1,0,1,1,0,2.2Z" transform="translate(-124.212 -289.829)" fill="#f98800"/><path d="M149.5,410.2h-4.4a1.1,1.1,0,0,1,0-2.2h4.4a1.1,1.1,0,1,1,0,2.2Z" transform="translate(-124.212 -351.935)" fill="#f98800"/><circle cx="8.764" cy="8.764" r="8.764" transform="translate(10.225 1.46)" fill="#ffec00"/><path d="M96.8,24.006a8.8,8.8,0,0,1-16.44,4.348A8.8,8.8,0,0,0,92.354,16.36,8.789,8.789,0,0,1,96.8,24.006Z" transform="translate(-69.317 -14.112)" fill="#fcc200"/><g transform="translate(17.589 4.397)"><path d="M131.3,38.6h-2.2a1.1,1.1,0,0,1-1.1-1.1V33.1a1.1,1.1,0,1,1,2.2,0v3.3h1.1a1.1,1.1,0,1,1,0,2.2Z" transform="translate(-128 -32)" fill="#e22526"/><path d="M264.168,224.323a1.1,1.1,0,1,0-1.555,1.555l1.421,1.421H249.1a1.1,1.1,0,0,0,0,2.2h14.935l-1.421,1.421a1.1,1.1,0,0,0,1.555,1.555l3.3-3.3a1.1,1.1,0,0,0,0-1.555Z" transform="translate(-231.51 -197.617)" fill="#e22526"/><path d="M249.1,85.987h5.5a5.5,5.5,0,0,0,5.5-5.5V72.8a3.3,3.3,0,0,1,3.3-3.3h.644l-1.421,1.421a1.1,1.1,0,0,0,1.555,1.555l3.3-3.3a1.1,1.1,0,0,0,0-1.555l-3.3-3.3a1.1,1.1,0,0,0-1.555,1.555l1.421,1.421h-.644a5.5,5.5,0,0,0-5.5,5.5v7.7a3.3,3.3,0,0,1-3.3,3.3h-5.5a1.1,1.1,0,1,0,0,2.2Z" transform="translate(-231.51 -59.603)" fill="#e22526"/><path d="M264.168,301.514a1.1,1.1,0,0,0-1.555,1.555l1.421,1.421h-.644a3.3,3.3,0,0,1-3.3-3.3v-7.7a5.5,5.5,0,0,0-5.5-5.5h-5.5a1.1,1.1,0,1,0,0,2.2h5.5a3.3,3.3,0,0,1,3.3,3.3v7.7a5.5,5.5,0,0,0,5.5,5.5h.644l-1.421,1.421a1.1,1.1,0,0,0,1.555,1.555l3.3-3.3a1.1,1.1,0,0,0,0-1.555Z" transform="translate(-231.51 -252.822)" fill="#e22526"/></g><path d="M412.093,13.191V13a3.3,3.3,0,0,0,2.2-3.11,1.1,1.1,0,0,0,1.1-1.1V3.3a1.1,1.1,0,0,0-.322-.777l-2.2-2.2A1.1,1.1,0,0,0,411.6.116l-1.835.917-4-1A1.1,1.1,0,0,0,405,.116l-4.4,2.2A1.1,1.1,0,0,0,400,3.3v5.5a1.1,1.1,0,0,0,1.1,1.1A3.3,3.3,0,0,0,403.3,13v.188a1.1,1.1,0,0,0,.116.492l.486.973-3.068.767A1.1,1.1,0,0,0,400,16.489v5.5a1.1,1.1,0,0,0,1.1,1.1h13.192a1.1,1.1,0,0,0,1.1-1.1v-5.5a1.1,1.1,0,0,0-.833-1.066l-3.068-.767.486-.973a1.1,1.1,0,0,0,.116-.492ZM402.2,3.977l3.426-1.713,4,1a1.1,1.1,0,0,0,.758-.083l1.49-.745,1.316,1.316V7.695h-2.2V6.6a1.1,1.1,0,0,0-1.877-.777l-2.738,2.738-1.49-.745a1.1,1.1,0,0,0-.492-.116h-2.2Zm5.5,16.454-.861-.861.861-1.722.861,1.722Zm-5.5-3.084,3.433-.858h.285l-1.4,2.806a1.1,1.1,0,0,0,.206,1.269l.322.322H402.2Zm10.993,3.539h-2.843l.322-.322a1.1,1.1,0,0,0,.206-1.269l-1.4-2.806h.285l3.433.858Zm-2.2-9.894a1.1,1.1,0,0,0-1.1,1.1v.84l-.679,1.359h-3.038l-.679-1.359v-.84a1.1,1.1,0,0,0-1.1-1.1,1.1,1.1,0,0,1-1.1-1.1h.84l1.966.983a1.1,1.1,0,0,0,1.269-.206l1.491-1.491a1.1,1.1,0,0,0,1.03.714h2.2a1.1,1.1,0,0,1-1.1,1.1Z" transform="translate(-345.034 0)"/><path d="M414.639,199.447l-1.627-.542a6.619,6.619,0,0,0-.647-8.58,6.27,6.27,0,0,0-.525-.464,4.4,4.4,0,1,0-8.287.006,6.6,6.6,0,0,0-1.174,9.037l-1.628.543A1.1,1.1,0,0,0,400,200.49v5.5a1.1,1.1,0,0,0,1.1,1.1h13.192a1.1,1.1,0,0,0,1.1-1.1v-5.5a1.1,1.1,0,0,0-.752-1.043Zm-4.745-.512-.455.455h-3.487l-.455-.455v-1.743a3.233,3.233,0,0,0,2.2-.844,3.285,3.285,0,0,0,2.2.844Zm-1.258,4.556-.941.941-.941-.941.634-1.9H408Zm-.941-17.292a2.191,2.191,0,0,1,2.167,2.562,6.643,6.643,0,0,0-4.334,0,2.191,2.191,0,0,1,2.167-2.562Zm-2.19,4.982a4.4,4.4,0,0,1,4.388,0,4.337,4.337,0,0,1,2.2,3.809,4.449,4.449,0,0,1-.061.737,1.1,1.1,0,0,0-1.038-.737h-1.1a1.1,1.1,0,0,1-1.1-1.1,1.1,1.1,0,0,0-2.2,0,1.052,1.052,0,0,1-.316.762l-.022.022a1.052,1.052,0,0,1-.762.316h-1.1a1.1,1.1,0,0,0-1.038.737,4.447,4.447,0,0,1-.061-.737,4.366,4.366,0,0,1,2.207-3.813Zm-3.306,10.1,1.9-.634.619.619a1.1,1.1,0,0,0,.377.245l-.642,1.927a1.1,1.1,0,0,0,.266,1.125l.322.322H402.2Zm10.993,3.605h-2.842l.322-.322a1.1,1.1,0,0,0,.266-1.125l-.642-1.927a1.1,1.1,0,0,0,.377-.245l.619-.619,1.9.634Z" transform="translate(-345.034 -158.716)"/><path d="M85.5,248H81.1a1.1,1.1,0,0,0-1.1,1.1v4.4a1.1,1.1,0,0,0,1.1,1.1h4.4a1.1,1.1,0,0,0,1.1-1.1v-4.4A1.1,1.1,0,0,0,85.5,248Zm-1.1,4.4H82.2v-2.2h2.2Z" transform="translate(-69.007 -213.922)"/><path d="M41.425,192.175,37.377,188.4v-5.315a1.1,1.1,0,0,0-.322-.777l-3.3-3.3a1.1,1.1,0,0,0-.777-.322h-2.2V166.6a1.1,1.1,0,0,0-1.1-1.1H25.1a3.3,3.3,0,0,0-3.109-2.2,3.314,3.314,0,0,0-3.3-3.3,3.3,3.3,0,0,0-3.3,3.3,3.3,3.3,0,0,0-3.109,2.2H7.7a1.1,1.1,0,0,0-1.1,1.1v12.093H4.4a1.1,1.1,0,0,0-.777.322l-3.3,3.3a1.1,1.1,0,0,0-.322.777V207.27a1.1,1.1,0,0,0,1.1,1.1H7.7a1.1,1.1,0,0,0,1.1-1.1v-6.6H28.582v6.6a1.1,1.1,0,0,0,1.1,1.1h6.6a1.1,1.1,0,0,0,1.1-1.1V195.655l.349.326a1.1,1.1,0,0,0,1.528-.026l2.2-2.2a1.1,1.1,0,0,0-.028-1.581Zm-6.246-8.635v2.808l-4.546-4.243a3.328,3.328,0,0,0-.7-1.219h2.588Zm-5.041,8.339-3.753-3.753v-6.141h1.1c.038,0,.076,0,.1,0l.018,0a1.153,1.153,0,0,1,.952.822l.032,4.165a1.1,1.1,0,0,0,.349.8l4.4,4.11Zm-5.851-11.45-1.2-1.12v-.622h.667l1.227,1.143A1.1,1.1,0,0,0,24.285,180.429ZM14.291,166.6a1.1,1.1,0,0,1,1.1-1.1h1.1a1.1,1.1,0,0,0,1.1-1.1v-1.1a1.1,1.1,0,0,1,1.1-1.1,1.052,1.052,0,0,1,.762.316l.021.021a1.052,1.052,0,0,1,.316.762v1.1a1.1,1.1,0,0,0,1.1,1.1h1.1a1.1,1.1,0,0,1,1.1,1.1v1.1H14.291ZM2.2,183.54l2.654-2.654H6.6v5.5a1.1,1.1,0,0,0,2.2,0,1.1,1.1,0,0,1,1.1-1.1h1.1v3.942L7.24,192.979H2.2Zm10.993,8.339h2.2v2.2h-2.2ZM2.2,206.171V195.178H6.6v10.993Zm6.6-7.7v-3.942l2.2-2.2v2.842a1.1,1.1,0,0,0,1.1,1.1h4.4a1.1,1.1,0,0,0,1.1-1.1v-4.4a1.1,1.1,0,0,0-1.1-1.1h-3.3v-2.2h3.3a1.1,1.1,0,0,0,1.1-1.1v-4.4a1.1,1.1,0,0,0-1.1-1.1h-4.4a1.1,1.1,0,0,0-1.1,1.1v1.1h-1.1a3.283,3.283,0,0,0-1.1.188V167.695h3.3v1.1a1.1,1.1,0,0,0,1.1,1.1H24.185a1.1,1.1,0,0,0,1.1-1.1v-1.1h3.3v12.284a3.327,3.327,0,0,0-.325-.1l-3.323-3.1a1.1,1.1,0,0,0-.749-.3h-2.2a1.1,1.1,0,0,0-1.1,1.1v2.2a1.1,1.1,0,0,0,.349.8l2.949,2.752v5.239a1.1,1.1,0,0,0,.322.777l4.075,4.075v5.041Zm4.4-13.192v-2.2h2.2v2.2Zm21.986,20.887h-4.4V194.078h4.4Zm3.272-12.522-1.576-1.473h0l-6.1-5.69-.01-1.245,4.76,4.443,3.565,3.324Z" transform="translate(0 -138.014)"/><path d="M145.1,250.2h4.4a1.1,1.1,0,1,0,0-2.2h-4.4a1.1,1.1,0,0,0,0,2.2Z" transform="translate(-124.212 -213.922)"/><path d="M145.1,338.2h1.1a1.1,1.1,0,1,0,0-2.2h-1.1a1.1,1.1,0,0,0,0,2.2Z" transform="translate(-124.212 -289.829)"/><path d="M149.5,408h-4.4a1.1,1.1,0,0,0,0,2.2h4.4a1.1,1.1,0,1,0,0-2.2Z" transform="translate(-124.212 -351.935)"/><path d="M73.894,19.788a9.894,9.894,0,1,1,9.894-9.894A9.905,9.905,0,0,1,73.894,19.788Zm0-17.589a7.7,7.7,0,1,0,7.7,7.7A7.7,7.7,0,0,0,73.894,2.2Z" transform="translate(-55.206 0)"/><path d="M131.3,38.6h-2.2a1.1,1.1,0,0,1-1.1-1.1V33.1a1.1,1.1,0,1,1,2.2,0v3.3h1.1a1.1,1.1,0,1,1,0,2.2Z" transform="translate(-110.411 -27.603)"/><path d="M264.168,224.323a1.1,1.1,0,1,0-1.555,1.555l1.421,1.421H249.1a1.1,1.1,0,0,0,0,2.2h14.935l-1.421,1.421a1.1,1.1,0,0,0,1.555,1.555l3.3-3.3a1.1,1.1,0,0,0,0-1.555Z" transform="translate(-213.921 -193.22)"/><path d="M249.1,85.987h5.5a5.5,5.5,0,0,0,5.5-5.5V72.8a3.3,3.3,0,0,1,3.3-3.3h.644l-1.421,1.421a1.1,1.1,0,0,0,1.555,1.555l3.3-3.3a1.1,1.1,0,0,0,0-1.555l-3.3-3.3a1.1,1.1,0,0,0-1.555,1.555l1.421,1.421h-.644a5.5,5.5,0,0,0-5.5,5.5v7.7a3.3,3.3,0,0,1-3.3,3.3h-5.5a1.1,1.1,0,1,0,0,2.2Z" transform="translate(-213.921 -55.206)"/><path d="M264.168,301.514a1.1,1.1,0,0,0-1.555,1.555l1.421,1.421h-.644a3.3,3.3,0,0,1-3.3-3.3v-7.7a5.5,5.5,0,0,0-5.5-5.5h-5.5a1.1,1.1,0,1,0,0,2.2h5.5a3.3,3.3,0,0,1,3.3,3.3v7.7a5.5,5.5,0,0,0,5.5,5.5h.644l-1.421,1.421a1.1,1.1,0,0,0,1.555,1.555l3.3-3.3a1.1,1.1,0,0,0,0-1.555Z" transform="translate(-213.921 -248.425)"/><path d="M414.783,380.209l-1.591-.8v-.475a2.749,2.749,0,0,0,0-5.386V371.3a3.3,3.3,0,0,0-3.3-3.3h-4.4a3.3,3.3,0,0,0-3.3,3.3v2.254a2.749,2.749,0,0,0,0,5.386v.475l-1.591.8a1.1,1.1,0,0,0-.608.983v5.5a1.1,1.1,0,0,0,1.1,1.1h13.192a1.1,1.1,0,0,0,1.1-1.1v-5.5a1.1,1.1,0,0,0-.608-.983ZM404.4,371.3a1.1,1.1,0,0,1,1.1-1.1h4.4a1.1,1.1,0,0,1,1.1,1.1v1.89l-6.6-1.649Zm-1.649,4.4h.55a1.1,1.1,0,0,0,1.1-1.1v-.791l7.429,1.857a1.093,1.093,0,0,0,.267.033h.55a.55.55,0,1,1,0,1.1h-.55a1.1,1.1,0,0,0-1.1,1.1v1.743l-.455.455h-5.685l-.455-.455v-1.743a1.1,1.1,0,0,0-1.1-1.1h-.55a.55.55,0,0,1,0-1.1Zm5.888,8.5-.941.941-.941-.941.634-1.9H408Zm-6.437-2.322.882-.441.539.539a1.1,1.1,0,0,0,.777.322h.673l-.617,1.851a1.1,1.1,0,0,0,.266,1.125l.322.322H402.2Zm10.993,3.718h-2.842l.322-.322a1.1,1.1,0,0,0,.266-1.125l-.617-1.851h.673a1.1,1.1,0,0,0,.777-.322l.539-.539.882.441Z" transform="translate(-345.034 -317.432)"/></g></g></svg>