<svg xmlns="http://www.w3.org/2000/svg" width="78" height="78" viewBox="0 0 78 78"><g transform="translate(1.258 1.258)"><g transform="translate(0 67.935)"><path d="M6.032,58.774a3.769,3.769,0,0,0,3.774,3.774H4.774A3.769,3.769,0,0,1,1,58.774V55H6.032Z" transform="translate(-1 -55)" fill="#dfb28b"/></g><g transform="translate(0 52.839)"><path d="M16.1,48.032v.478a5.947,5.947,0,0,0,.05.818,6.29,6.29,0,0,0-9.989,3.749l-.126-.013H1a10.039,10.039,0,0,1,9.435-10.039h.013c.2-.013.4-.025.616-.025h1.258A11.16,11.16,0,0,1,17.2,44.107,7.435,7.435,0,0,0,16.1,48.032Z" transform="translate(-1 -43)" fill="#d3a06c"/></g><g transform="translate(5.032 57.871)"><path d="M16.1,51.277a7.453,7.453,0,0,1-.981-2.982,6.29,6.29,0,0,0-9.989,3.749A5.811,5.811,0,0,0,5,53.29v7.548a3.769,3.769,0,0,0,3.774,3.774h8.806V53.555l.013-.013a24.29,24.29,0,0,1-1.5-2.265Z" transform="translate(-5 -47)" fill="#cf9e76"/></g><g transform="translate(45.29 47.806)"><path d="M54.613,41.516v2.516h-15.1A2.524,2.524,0,0,1,37,41.516,2.534,2.534,0,0,1,39.516,39H52.1A2.524,2.524,0,0,1,54.613,41.516Z" transform="translate(-37 -39)" fill="#f0d0b4"/></g><g transform="translate(45.29 50.323)"><path d="M57.129,46.032v15.1a2.524,2.524,0,0,1-2.516,2.516H38.006a3.844,3.844,0,0,0,.252-1.371v-2.29a3.889,3.889,0,0,0-1.132-2.755A1.135,1.135,0,0,0,37,57.116V41a2.524,2.524,0,0,0,2.516,2.516h15.1A2.524,2.524,0,0,1,57.129,46.032Z" transform="translate(-37 -41)" fill="#e6e9ed"/></g><g transform="translate(50.323 62.903)"><circle cx="2.5" cy="2.5" r="2.5" transform="translate(0.42 -0.161)" fill="#4fc1e9"/></g><g transform="translate(37.742)"><path d="M68.742,6.032V23.645a5.031,5.031,0,0,1-5.032,5.032H53.645l-4.516,4.516A1.779,1.779,0,0,1,46.1,31.936V28.677H32.258V27.419A13.8,13.8,0,0,0,31,21.645V6.032A5.031,5.031,0,0,1,36.032,1H63.71A5.031,5.031,0,0,1,68.742,6.032Z" transform="translate(-31 -1)" fill="#ffeaa7"/></g><g transform="translate(3.774 12.581)"><path d="M17.2,23.593l-1.7.377a5.036,5.036,0,0,0-3.95,4.919v9.788A10.062,10.062,0,0,0,21.613,48.742h1.258a7.519,7.519,0,0,0-6.441,3.623,11.16,11.16,0,0,0-4.881-1.107H10.29c-.214,0-.415.013-.616.025H9.661a7.415,7.415,0,0,1-3.145-6.2v-.113C6.516,41.194,4,41.194,4,37.419s2.516-3.774,2.516-7.548V24.839A13.831,13.831,0,0,1,20.355,11h5.032A13.827,13.827,0,0,1,39.226,24.839v5.032c0,3.774,2.516,3.774,2.516,7.548s-2.516,3.774-2.516,7.548v.113A7.247,7.247,0,0,1,32.9,52.466l-3.233-2.214a14.306,14.306,0,0,0-6.4-1.51h.868A10.062,10.062,0,0,0,34.194,38.677V26.1H22.871A7.69,7.69,0,0,1,17.2,23.593Z" transform="translate(-4 -11)" fill="#656d78"/></g><g transform="translate(17.613 64.413)"><path d="M16.837,54.452h.013a26.791,26.791,0,0,0,19.877,8.819H15V52.213l.013-.013a22.292,22.292,0,0,0,1.824,2.252Z" transform="translate(-15 -52.2)" fill="#ff826e"/></g><g transform="translate(22.645 50.323)"><path d="M24.334,43.214A7.478,7.478,0,0,0,19,41h.39a14.306,14.306,0,0,1,6.4,1.51l3.233,2.214a14.745,14.745,0,0,1,2.151,2.453,14.446,14.446,0,0,1,2.466,6.693l.453,4.479a10.159,10.159,0,0,1-7.548-9.8,7.478,7.478,0,0,0-2.214-5.334Z" transform="translate(-19 -41)" fill="#ff826e"/></g><g transform="translate(15.097 50.323)"><path d="M29.242,53.216h-.013a17.482,17.482,0,0,1-11.247,4.126h-.629a22.292,22.292,0,0,1-1.824-2.252,24.289,24.289,0,0,1-1.5-2.265,7.454,7.454,0,0,1-.981-2.982,5.947,5.947,0,0,1-.05-.818v-.478a7.435,7.435,0,0,1,1.107-3.925A7.547,7.547,0,0,1,28.1,48.548a10.082,10.082,0,0,0,1.145,4.667Z" transform="translate(-13 -41)" fill="#ff826e"/></g><g transform="translate(19.462 62.538)"><path d="M34.75,55.855a11.318,11.318,0,0,0,1.17.239l.088.013.189-.365a3.887,3.887,0,0,1,6.1-1.132,1.134,1.134,0,0,1,.126.113,3.889,3.889,0,0,1,1.132,2.755v2.29a3.844,3.844,0,0,1-.252,1.371,3.886,3.886,0,0,1-3.636,2.516H36.347A26.791,26.791,0,0,1,16.47,54.836h.616A17.482,17.482,0,0,0,28.334,50.71h.013a9.96,9.96,0,0,0,6.4,5.133Z" transform="translate(-16.47 -50.71)" fill="#f0d0b4"/></g><g transform="translate(11.323 25.174)"><path d="M10,36.094V26.306a5.036,5.036,0,0,1,3.95-4.919l1.7-.377a7.69,7.69,0,0,0,5.674,2.5H32.645V36.094A10.062,10.062,0,0,1,22.581,46.159H20.065A10.062,10.062,0,0,1,10,36.094Z" transform="translate(-10 -21.01)" fill="#f0d0b4"/></g><g transform="translate(42.774 5.032)"><path d="M47.581,15.065v2.516H41.29l-2.516,5.032H35V5h3.774l2.516,6.29L54.274,7.755a6.307,6.307,0,0,1,1.749-.239,6.658,6.658,0,0,1,6.655,6.655,3.4,3.4,0,0,1-3.409,3.409h-5.4l1.258-2.516Z" transform="translate(-35 -5)" fill="#e6e9ed"/></g><g transform="translate(55.355 15.097)"><path d="M52.548,13,51.29,15.516l-2.516,5.032H45V13Z" transform="translate(-45 -13)" fill="#ff826e"/></g><g transform="translate(18.871 40.258)"><path d="M23.548,33v1.258a3.774,3.774,0,0,1-7.548,0V33Z" transform="translate(-16 -33)" fill="#ff826e"/></g></g><path d="M43.774,57.548A3.774,3.774,0,1,0,40,53.774,3.779,3.779,0,0,0,43.774,57.548Zm0-5.032a1.258,1.258,0,1,1-1.258,1.258A1.259,1.259,0,0,1,43.774,52.516Z" transform="translate(10.323 12.903)"/><path d="M40,46H52.581v2.516H40Z" transform="translate(10.323 11.871)"/><path d="M56.278,6.516A7.851,7.851,0,0,0,54.2,6.8L42.3,10.04,39.884,4H34V24.129h5.81L42.326,19.1h4.255v5.032h5.81L54.907,19.1h4.621a4.672,4.672,0,0,0,4.666-4.666,7.924,7.924,0,0,0-7.916-7.914Zm-5.442,15.1H49.1V16.581h4.255Zm8.693-5.032H56.166l1.258-2.516H46.581v2.516h-5.81l-2.516,5.032H36.516V6.516h1.664L40.8,13.057,54.859,9.222a5.4,5.4,0,0,1,6.819,5.208,2.153,2.153,0,0,1-2.149,2.15Z" transform="translate(8.774 1.032)"/><path d="M71.71,0H44.032a6.3,6.3,0,0,0-6.29,6.29V17.725a15.054,15.054,0,0,0-11.323-5.144H21.387a15.114,15.114,0,0,0-15.1,15.1V32.71a4.754,4.754,0,0,1-1.047,3.075,7.539,7.539,0,0,0,0,8.944A4.84,4.84,0,0,1,6.29,47.9a8.7,8.7,0,0,0,1.793,5.417A11.338,11.338,0,0,0,0,64.161v1.258H5.032v2.516H0v5.032A5.037,5.037,0,0,0,5.032,78h39v-.011a5.124,5.124,0,0,0,4.286-2.5H64.161a3.779,3.779,0,0,0,3.774-3.774v-15.1a3.781,3.781,0,0,0-2.516-3.559V51.581a3.779,3.779,0,0,0-3.774-3.774H49.065a3.779,3.779,0,0,0-3.774,3.774V65.628a5,5,0,0,0-5.208,1.517l-.288-2.828a15.5,15.5,0,0,0-3.5-8.337,8.621,8.621,0,0,0,5.229-8.175,4.756,4.756,0,0,1,1.047-3.077,7.542,7.542,0,0,0,0-8.944,4.754,4.754,0,0,1-1.047-3.075V30.194H52.839v2a3.037,3.037,0,0,0,5.184,2.148l4.143-4.143H71.71A6.3,6.3,0,0,0,78,23.9V6.29A6.3,6.3,0,0,0,71.71,0ZM2.605,62.9a8.82,8.82,0,0,1,8.717-7.548h1.258a10.013,10.013,0,0,1,3.15.51,8.764,8.764,0,0,0-.594,2.46A7.517,7.517,0,0,0,5.473,62.9Zm20.04-12.581a8.808,8.808,0,0,1-8.806-8.808V31.723A3.8,3.8,0,0,1,16.8,28.036l1.071-.235A8.894,8.894,0,0,0,23.9,30.194H33.968V41.516a8.817,8.817,0,0,1-8.806,8.806H22.645Zm1.245,2.516h.024a6.3,6.3,0,0,1,6.278,6.29,11.26,11.26,0,0,0,.849,4.271,16.26,16.26,0,0,1-9.7,3.262h-.069a25.4,25.4,0,0,1-2.8-3.889,6.291,6.291,0,0,1-.857-3.169v-.477a6.3,6.3,0,0,1,6.278-6.289Zm-8.634,8.337a8.806,8.806,0,0,0,1.04,2.867c.274.471.567.927.867,1.378H7.548a5.037,5.037,0,0,1,5.032-5.032A4.965,4.965,0,0,1,15.257,61.176ZM2.516,72.968V70.452H5.032v2.516a4.98,4.98,0,0,0,.7,2.516h-.7a2.519,2.519,0,0,1-2.516-2.516Zm7.548,2.516a2.519,2.519,0,0,1-2.516-2.516V67.935H17.613v7.548Zm10.065,0V69.137a28.284,28.284,0,0,0,8.907,6.347Zm45.29-18.871v15.1a1.259,1.259,0,0,1-1.258,1.258H49.053c0-.039.011-.074.011-.113v-2.29a5.1,5.1,0,0,0-1.258-3.333V55.123a3.737,3.737,0,0,0,1.258.231h15.1A1.259,1.259,0,0,1,65.419,56.613Zm-16.355-6.29H61.645A1.259,1.259,0,0,1,62.9,51.581v1.258H49.065a1.258,1.258,0,0,1,0-2.516ZM40.975,70.574l.593-1.184a2.629,2.629,0,0,1,4.981,1.175v2.29a2.633,2.633,0,0,1-2.629,2.629H40.6a25.7,25.7,0,0,1-16.99-6.465,18.805,18.805,0,0,0,8.654-3.385,11.521,11.521,0,0,0,7.81,4.8ZM37.538,67a8.921,8.921,0,0,1-4.828-7.87,8.741,8.741,0,0,0-.935-3.925,12.974,12.974,0,0,1,5.515,9.37Zm2.931-23.668A7.234,7.234,0,0,0,39,47.805v.13a5.99,5.99,0,0,1-4.727,6.019,15.732,15.732,0,0,0-3.011-1.986c-.3-.15-.613-.265-.921-.4a11.327,11.327,0,0,0,6.142-10.056V27.677a5.037,5.037,0,0,0-5.032-5.032v2.516a2.519,2.519,0,0,1,2.516,2.516H31.452a6.432,6.432,0,0,1-6.29-5.161l-.025-.122-2.442.618a8.86,8.86,0,0,0,2.6,4.664H23.9a6.432,6.432,0,0,1-6.29-5.161l-.025-.122-2.442.618a8.843,8.843,0,0,0,.988,2.605,6.331,6.331,0,0,0-4.811,6.107v9.792a11.3,11.3,0,0,0,7.3,10.58,8.884,8.884,0,0,0-1.61,1.561,12.506,12.506,0,0,0-4.435-.818H11.323c-.067,0-.132.009-.2.01a6.11,6.11,0,0,1-2.319-4.911v-.132a7.234,7.234,0,0,0-1.469-4.474,5.041,5.041,0,0,1,0-6.151A7.23,7.23,0,0,0,8.806,32.71V27.677A12.6,12.6,0,0,1,21.387,15.1h5.032A12.6,12.6,0,0,1,39,27.677V32.71a7.23,7.23,0,0,0,1.469,4.471,5.041,5.041,0,0,1,0,6.151ZM75.484,23.9a3.779,3.779,0,0,1-3.774,3.774H61.124l-4.879,4.879a.54.54,0,0,1-.891-.367V27.677H41.516a15,15,0,0,0-1.258-6.016V6.29a3.779,3.779,0,0,1,3.774-3.774H71.71A3.779,3.779,0,0,1,75.484,6.29Z"/><path d="M17.032,28.774h2.516a3.774,3.774,0,1,0-7.548,0h2.516a1.258,1.258,0,1,1,2.516,0Z" transform="translate(3.097 6.452)"/><path d="M23.774,27.516a1.259,1.259,0,0,1,1.258,1.258h2.516a3.774,3.774,0,1,0-7.548,0h2.516A1.259,1.259,0,0,1,23.774,27.516Z" transform="translate(5.161 6.452)"/><path d="M25.065,34.516V32H15v2.516a5.032,5.032,0,0,0,10.065,0Zm-5.032,2.516a2.519,2.519,0,0,1-2.516-2.516h5.032A2.519,2.519,0,0,1,20.032,37.032Z" transform="translate(3.871 8.258)"/><path d="M48,54h2.516v2.516H48Z" transform="translate(12.387 13.935)"/><path d="M48,50h2.516v2.516H48Z" transform="translate(12.387 12.903)"/></svg>