<svg xmlns="http://www.w3.org/2000/svg" width="96.334" height="117.111" viewBox="0 0 96.334 117.111"><g transform="translate(-58.58 -16)"><path d="M144.986,24.627h5.223a4.692,4.692,0,0,1,3.32,1.384l0,0a4.691,4.691,0,0,1,1.381,3.324v99.075a4.714,4.714,0,0,1-4.7,4.7h-77a4.714,4.714,0,0,1-4.7-4.7v-3.924H63.284a4.714,4.714,0,0,1-4.7-4.7V32.674a1.564,1.564,0,0,1,.446-1.091L71.413,16.573a1.549,1.549,0,0,1,1.2-.567V16h67.67a4.693,4.693,0,0,1,3.32,1.384l0,0a4.691,4.691,0,0,1,1.381,3.324Z" fill="#121209" fill-rule="evenodd"/><path d="M84.611,85.172a1.559,1.559,0,1,1,0-3.117h23a1.549,1.549,0,0,1,.213-.545l2.733-4.344a6.7,6.7,0,0,1,9.221-2.1l6.483,4.079c.973-.474,2.049-.732,2.6-1.6L131.87,72.8H84.611a1.559,1.559,0,1,1,0-3.117h49.234l5.863-9.257H100.249a1.558,1.558,0,1,1,0-3.117h41.432A2.671,2.671,0,0,0,142.245,55c-.939-5.253,3.75-9.247,9.282-7.926v-16.7a1.582,1.582,0,0,0-.467-1.12l0,0a1.576,1.576,0,0,0-1.122-.464H84.207V39.191a4.714,4.714,0,0,1-4.7,4.7H71.355v85.548a1.6,1.6,0,0,0,1.586,1.586h77a1.6,1.6,0,0,0,1.586-1.586V64.237l-12.5,19.73c-.55.868-.335,1.934-.339,3l6.675,4.2a6.7,6.7,0,0,1,2.1,9.221l-2.733,4.344a1.554,1.554,0,0,1-2.143.488l-2.031-1.278-1.47,2.331a4.445,4.445,0,0,1-6.069.834l-22.26-14c-2.048-1.288-3.085-3.916-1.8-5.966l1.233-1.96ZM97.7,48.051a1.559,1.559,0,1,1,0-3.117h42.136a1.559,1.559,0,0,1,0,3.117Zm-16.84,62.262A15.883,15.883,0,1,1,96.747,126.2,15.883,15.883,0,0,1,80.864,110.313Zm3.747-49.888a1.558,1.558,0,1,1,0-3.117h8.634a1.558,1.558,0,1,1,0,3.117Z" transform="translate(-9.658 -9.663)" fill="#e6e4e5" fill-rule="evenodd"/><path d="M178.757,82.055h9.065a1.549,1.549,0,0,1,.213-.545l2.733-4.344a6.7,6.7,0,0,1,9.221-2.1l6.483,4.079c.973-.474,2.049-.732,2.6-1.6l3.007-4.748H181.112a76.026,76.026,0,0,0-2.355,9.257Zm3.433-12.374h31.864l5.863-9.257H186.349a76.157,76.157,0,0,0-4.159,9.257ZM188.1,57.308H221.89A2.671,2.671,0,0,0,222.453,55c-.939-5.253,3.75-9.247,9.282-7.926V30.369a1.582,1.582,0,0,0-.467-1.12l0,0a1.576,1.576,0,0,0-1.122-.464H217.9a76.9,76.9,0,0,0-20.665,16.152h22.816a1.559,1.559,0,1,1,0,3.117H194.559a76.865,76.865,0,0,0-6.457,9.257Zm-2.377,73.723q-1.5-2.938-2.74-6.02a15.885,15.885,0,0,0-5.537-30.573,76.936,76.936,0,0,1,.787-9.265H190.4l-1.233,1.96c-1.29,2.049-.253,4.678,1.8,5.966l22.26,14a4.445,4.445,0,0,0,6.069-.834l1.47-2.331,2.031,1.278a1.554,1.554,0,0,0,2.143-.488l2.733-4.344a6.7,6.7,0,0,0-2.1-9.221l-6.673-4.2c0-1.066-.211-2.131.339-3l12.5-19.729v65.206a1.6,1.6,0,0,1-1.586,1.586Z" transform="translate(-89.866 -9.663)" fill="#f6f8fc" fill-rule="evenodd"/><path d="M235.357,231.955a1.558,1.558,0,0,1,1.128.71l30.17,18.983,1.906-3.03a3.593,3.593,0,0,0-1.124-4.935l-25.583-16.1a3.593,3.593,0,0,0-4.935,1.124l-1.905,3.029Z" transform="translate(-133.387 -159.552)" fill="#c08f3d" fill-rule="evenodd"/><path d="M324.036,124.785a1.562,1.562,0,0,1-.5.791l-12.126,19.146a5.175,5.175,0,0,1-2.078,1.927l6.137,3.861a5.143,5.143,0,0,1,.849-2.68l13.046-20.6a5.628,5.628,0,0,1,3.429-2.483,3.719,3.719,0,0,0,2.6-4.969,6.186,6.186,0,0,0-2.658-3.3l0,0c-3.744-2.364-8.208-.417-7.509,3.5a5.687,5.687,0,0,1-.774,4.153Z" transform="translate(-189.572 -75.183)" fill="#c08f3d" fill-rule="evenodd"/><path d="M112.045,160.878V164.8a1.6,1.6,0,0,0,1.586,1.586h77a1.6,1.6,0,0,0,1.586-1.586V65.727a1.582,1.582,0,0,0-.468-1.12l0,0a1.575,1.575,0,0,0-1.122-.464h-5.222V75.164a9.331,9.331,0,0,1,3.793,4.893,6.813,6.813,0,0,1-3.793,8.586v67.532a4.714,4.714,0,0,1-4.7,4.7Z" transform="translate(-40.421 -36.395)" fill="#e6e4e5" fill-rule="evenodd"/><path d="M78.491,47.938H84.9a1.6,1.6,0,0,0,1.587-1.586v-8.1Z" transform="translate(-15.053 -16.823)" fill="#e6e4e5" fill-rule="evenodd"/><path d="M262.331,281.4l-24.948-15.7-1.385,2.2c-.3.475.207,1.293.821,1.68l22.258,14c.608.382,1.571.486,1.87.011Z" transform="translate(-134.065 -188.782)" fill="#c08f3d" fill-rule="evenodd"/><path d="M126.843,314.364a12.767,12.767,0,1,0,18.055,0A12.767,12.767,0,0,0,126.843,314.364Zm.5,10.567a1.557,1.557,0,1,1,1.924-2.447l5.007,3.937,7.978-9.216a1.554,1.554,0,0,1,2.35,2.033l-8.892,10.272a1.562,1.562,0,0,1-2.2.275Z" transform="translate(-48.781 -222.742)" fill="#178b4b" fill-rule="evenodd"/><path d="M181.849,335.206a12.767,12.767,0,0,0-4.435-24.54,77.051,77.051,0,0,0,1.139,12.072l4.763-5.5a1.554,1.554,0,0,1,2.35,2.033l-6.337,7.319a76.037,76.037,0,0,0,2.52,8.617Z" transform="translate(-89.841 -222.773)" fill="#3cad66" fill-rule="evenodd"/></g></svg>