<svg xmlns="http://www.w3.org/2000/svg" width="190" height="91" viewBox="0 0 190 91"><g transform="translate(-285.023 -387.006)"><rect width="190" height="91" rx="13" transform="translate(285.023 387.006)" fill="#fefaec"/><g transform="translate(324.078 239.252)"><g transform="translate(67.58 176.329)"><path d="M343.01,214.451H309.239V182.192H343.01a2.52,2.52,0,0,1,2.282,1.451l6.379,13.609a2.52,2.52,0,0,1,0,2.139L345.292,213A2.52,2.52,0,0,1,343.01,214.451Z" transform="translate(-309.239 -182.192)" fill="#b6e446"/></g><g transform="translate(67.58 176.33)"><path d="M309.239,214.452h8.429l5.83-12.437a8.679,8.679,0,0,0,0-7.386l-5.83-12.436h-8.429Z" transform="translate(-309.239 -182.193)" fill="#aad541"/></g><g transform="translate(33.808 176.329)"><path d="M188.476,214.451H154.7V182.192h33.772a2.52,2.52,0,0,1,2.282,1.451l6.379,13.609a2.52,2.52,0,0,1,0,2.139L190.757,213A2.52,2.52,0,0,1,188.476,214.451Z" transform="translate(-154.704 -182.192)" fill="#f6df7d"/></g><g transform="translate(33.808 176.33)"><path d="M154.7,214.452h8.429l5.83-12.437a8.678,8.678,0,0,0,0-7.386l-5.83-12.436H154.7Z" transform="translate(-154.704 -182.193)" fill="#f2cf64"/></g><g transform="translate(1.639 176.33)"><path d="M39.669,214.453H10.02a2.52,2.52,0,0,1-2.52-2.52V184.714a2.52,2.52,0,0,1,2.52-2.52H39.669a2.52,2.52,0,0,1,2.282,1.451l6.38,13.609a2.52,2.52,0,0,1,0,2.139L41.951,213a2.521,2.521,0,0,1-2.282,1.45Z" transform="translate(-7.5 -182.194)" fill="#e075a4"/></g><g transform="translate(49.551 183.394)"><circle cx="9.066" cy="9.066" r="9.066" fill="#d3eefd"/></g><g transform="translate(11.586 183.394)"><circle cx="9.066" cy="9.066" r="9.066" fill="#d3eefd"/></g><g transform="translate(83.323 183.394)"><circle cx="9.066" cy="9.066" r="9.066" fill="#d3eefd"/></g><g transform="translate(0 174.69)"><path d="M111.5,190.695l-6.379-13.611a4.176,4.176,0,0,0-3.765-2.394H56.539a1.639,1.639,0,1,0,0,3.278H67.58a.885.885,0,0,1,.8.508l6.38,13.613a.868.868,0,0,1,0,.743l-6.379,13.61a.885.885,0,0,1-.8.508H37.989l5.965-12.728a4.152,4.152,0,0,0,0-3.527l-5.965-12.727h10.9a1.639,1.639,0,1,0,0-3.278H20.142a1.639,1.639,0,0,0,0,3.278H33.807a.887.887,0,0,1,.8.508l6.378,13.609a.88.88,0,0,1,0,.747l-6.379,13.61a.887.887,0,0,1-.8.508H4.159a.882.882,0,0,1-.881-.881v-27.22a.882.882,0,0,1,.881-.881h8.335a1.639,1.639,0,0,0,0-3.278H4.159A4.163,4.163,0,0,0,0,178.849V206.07a4.163,4.163,0,0,0,4.159,4.159H79.5a1.639,1.639,0,1,0,0-3.278H71.76l5.964-12.724a4.133,4.133,0,0,0,0-3.531L71.76,177.968h29.593a.885.885,0,0,1,.8.508l6.378,13.609a.879.879,0,0,1,0,.747l-6.379,13.61a.885.885,0,0,1-.8.508h-14.2a1.639,1.639,0,0,0,0,3.278h14.2a4.175,4.175,0,0,0,3.765-2.395l6.38-13.612a4.151,4.151,0,0,0,0-3.527Z" transform="translate(0 -174.69)"/><path d="M229.947,228.426a10.7,10.7,0,1,0-10.7-10.7A10.717,10.717,0,0,0,229.947,228.426Zm0-18.131a7.41,7.41,0,0,1,5.562,2.513l-4.849,4.849-1.982-1.983a1.639,1.639,0,0,0-2.318,2.318l3.141,3.141a1.639,1.639,0,0,0,2.318,0l5.308-5.308a7.426,7.426,0,1,1-7.181-5.531Z" transform="translate(-171.33 -199.952)"/><path d="M45.515,217.722a10.7,10.7,0,1,0,10.7-10.7,10.717,10.717,0,0,0-10.7,10.7Zm10.7-7.427a7.409,7.409,0,0,1,5.562,2.513l-4.849,4.849-1.983-1.983a1.639,1.639,0,0,0-2.318,2.318l3.141,3.141a1.639,1.639,0,0,0,2.318,0l5.308-5.308a7.426,7.426,0,1,1-7.18-5.531Z" transform="translate(-35.568 -199.952)"/><path d="M395.187,217.722a10.7,10.7,0,1,0-10.7,10.7A10.717,10.717,0,0,0,395.187,217.722Zm-18.131,0a7.422,7.422,0,0,1,12.988-4.913l-4.849,4.849-1.982-1.983a1.639,1.639,0,0,0-2.318,2.318l3.141,3.141a1.639,1.639,0,0,0,2.318,0l5.308-5.308a7.426,7.426,0,1,1-14.607,1.9Z" transform="translate(-292.094 -199.952)"/></g></g></g></svg>