<svg xmlns="http://www.w3.org/2000/svg" width="85" height="94" viewBox="0 0 85 94">
  <g id="Grupo_1163824" data-name="Grupo 1163824" transform="translate(-180 -755.006)">
    <g id="Grupo_1163089" data-name="Grupo 1163089" transform="translate(0 -62.811)">
      <g id="Grupo_1161303" data-name="Grupo 1161303" transform="translate(-105.051 -899.189)">
        <g id="Grupo_1159887" data-name="Grupo 1159887" transform="translate(285.051 1717.006)">
          <rect id="Rectángulo_411330" data-name="Rectángulo 411330" width="85" height="94" rx="13" fill="#fefaec"/>
        </g>
      </g>
    </g>
    <g id="logistica" transform="translate(190.428 770.913)">
      <circle id="Elipse_12824" data-name="Elipse 12824" cx="24" cy="24" r="24" transform="translate(8 8)" fill="#69d6f4"/>
      <path id="Trazado_1019780" data-name="Trazado 1019780" d="M28,54h4v1a10.283,10.283,0,0,1-.34.98h-.01c.01.01.01.02,0,.02a9.636,9.636,0,0,1-8.93,6H11.65A9.649,9.649,0,0,1,2,52.35V50h8l2,4Z" fill="#ccd1d9"/>
      <path id="Trazado_1019781" data-name="Trazado 1019781" d="M24,42a2.006,2.006,0,0,1,2,2,2.015,2.015,0,0,1-2,2H8a2.006,2.006,0,0,1-2-2,2.015,2.015,0,0,1,2-2H24Z" fill="#fcd770"/>
      <path id="Trazado_1019782" data-name="Trazado 1019782" d="M24,46l4,8H12l-2-4H8V46Z" fill="#ffeaa7"/>
      <path id="Trazado_1019783" data-name="Trazado 1019783" d="M60,44H44a2.006,2.006,0,0,0-2,2V60a2.006,2.006,0,0,0,2,2H60a2.006,2.006,0,0,0,2-2V46A2.006,2.006,0,0,0,60,44Z" fill="#d3a06c"/>
      <path id="Trazado_1019784" data-name="Trazado 1019784" d="M56,44v4H48V44h8Z" fill="#b27946"/>
      <path id="Trazado_1019785" data-name="Trazado 1019785" d="M20,11.21v.07a9.057,9.057,0,0,1-1.51,4.99L16,20l-3.45,5.17a1.862,1.862,0,0,1-3.1,0l-.32-.47L3.51,16.27A9.057,9.057,0,0,1,2,11.28V11a9,9,0,1,1,18,0Z" fill="#ff826e"/>
      <circle id="Elipse_12825" data-name="Elipse 12825" cx="5" cy="5" r="5" transform="translate(6 6)" fill="#fcd770"/>
      <path id="Trazado_1019786" data-name="Trazado 1019786" d="M46.22,20.45c-.3.15-.6.29-.91.42a1.794,1.794,0,0,1-.65.13c-.45,0-.86-.18-1.52-1a1.627,1.627,0,0,1-.14-.66,1.794,1.794,0,0,1,.13-.65c.13-.31.27-.61.42-.91a32.135,32.135,0,0,1,1.8-3.44c.31-.54.64-1.06.99-1.58A33.514,33.514,0,0,1,49.1,9.09c.64-.77,1.32-1.51,2.04-2.23L53,5l.76-.76a4.243,4.243,0,0,1,6,6L59,11l-1.86,1.86c-.72.72-1.46,1.4-2.23,2.04a33.513,33.513,0,0,1-3.67,2.76c-.52.35-1.04.68-1.58.99a32.135,32.135,0,0,1-3.44,1.8Z" fill="#e6e9ed"/>
      <g id="Grupo_1163823" data-name="Grupo 1163823">
        <path id="Trazado_1019787" data-name="Trazado 1019787" d="M59,11l3,9-1,1-6.09-6.09V14.9c.77-.64,1.51-1.32,2.23-2.04Z" fill="#fcd770"/>
        <path id="Trazado_1019788" data-name="Trazado 1019788" d="M53,5,51.14,6.86c-.72.72-1.4,1.46-2.04,2.23h-.01L43,3l1-1Z" fill="#fcd770"/>
        <path id="Trazado_1019789" data-name="Trazado 1019789" d="M40,13l5.35,1.34a32.135,32.135,0,0,0-1.8,3.44l-5.12-2.56L38,15l.26-.26Z" fill="#fcd770"/>
        <path id="Trazado_1019790" data-name="Trazado 1019790" d="M49.66,18.65,51,24l-2,2-2.78-5.55a32.135,32.135,0,0,0,3.44-1.8Z" fill="#fcd770"/>
      </g>
      <path id="Trazado_1019791" data-name="Trazado 1019791" d="M17,11a6,6,0,1,0-6,6A6.006,6.006,0,0,0,17,11ZM7,11a4,4,0,1,1,4,4A4,4,0,0,1,7,11Z"/>
      <path id="Trazado_1019792" data-name="Trazado 1019792" d="M52.464,9.535h2v2h-2Z" transform="translate(8.21 40.891) rotate(-45)"/>
      <path id="Trazado_1019793" data-name="Trazado 1019793" d="M55.293,6.707h2v2h-2Z" transform="translate(11.038 42.063) rotate(-45)"/>
      <path id="Trazado_1019794" data-name="Trazado 1019794" d="M49.722,12.329h1.9v2h-1.9Z" transform="translate(5.417 39.734) rotate(-45)"/>
      <path id="Trazado_1019795" data-name="Trazado 1019795" d="M60,43H54.453A25.025,25.025,0,0,0,57,32a24.764,24.764,0,0,0-4.361-14.076q1.133-.791,2.209-1.661L61,22.414l2.144-2.144-3-9,.32-.32A5.243,5.243,0,0,0,53.05,3.534l-.322.322-9-3L41.586,3l6.152,6.152q-.873,1.074-1.661,2.208A24.956,24.956,0,0,0,20.891,9.6,9.994,9.994,0,0,0,1,11v.275a9.971,9.971,0,0,0,1.68,5.547l5.367,8.05A24.931,24.931,0,0,0,8.673,41H8a2.993,2.993,0,0,0-1,5.816V49H1v3.349A10.663,10.663,0,0,0,11.651,63H22.72A10.7,10.7,0,0,0,32.3,56.992,24.8,24.8,0,0,0,41,55.327V60a3,3,0,0,0,3,3H60a3,3,0,0,0,3-3V46A3.005,3.005,0,0,0,60,43ZM49,45h6v2H49Zm-5-2H41.014a58.233,58.233,0,0,0,.976-10H54.967A22.964,22.964,0,0,1,52.19,43ZM32.969,54.8,33,53H28.618l-3.189-6.379A3,3,0,0,0,26.816,45H38.527C37.175,50.386,35.07,53.946,32.969,54.8ZM26.816,43a3,3,0,0,0-2.125-1.912A57.963,57.963,0,0,1,24.02,33H39.99a55.771,55.771,0,0,1-1.014,10ZM9.038,31a23.008,23.008,0,0,1,.59-4.352,2.863,2.863,0,0,0,3.759-.925L16.535,21h6.451a58.233,58.233,0,0,0-.976,10ZM25.03,21H38.983a56.544,56.544,0,0,1,1,10H24.019A55.778,55.778,0,0,1,25.03,21ZM32,9c1.777,0,3.6,2.012,5.072,5.514l-.76.76,1.3.652c.34.965.649,1.988.92,3.074H25.479C27.042,12.789,29.606,9,32,9Zm11.08,7.422-3.392-1.7.619-.618,3.514.878C43.563,15.458,43.319,15.938,43.08,16.422Zm-.84,1.816-.025.054a2.607,2.607,0,0,0-.181.708H40.588c-.148-.627-.309-1.234-.479-1.827ZM54.961,31H41.982a58.877,58.877,0,0,0-.968-10H42.6a2.635,2.635,0,0,0,3.109.785l.055-.025,2.964,5.928,3.381-3.382-1.294-5.177c.054-.033.106-.069.16-.1A22.758,22.758,0,0,1,54.961,31ZM49.014,20.179l.878,3.514-.619.618-1.7-3.392C48.062,20.681,48.542,20.437,49.014,20.179Zm11.7-.881L56.374,14.96c.5-.453,1-.917,1.477-1.4l.711-.711ZM56.757,4A3.242,3.242,0,0,1,59.05,9.535l-2.613,2.613a36.633,36.633,0,0,1-11.516,7.8.66.66,0,0,1-.868-.866,36.647,36.647,0,0,1,7.8-11.518l2.612-2.613h0A3.227,3.227,0,0,1,56.757,4ZM44.7,3.288l6.446,2.149-.711.712c-.481.481-.945.975-1.4,1.477Zm.167,9.9-5.176-1.3-1.1,1.1a15.759,15.759,0,0,0-2.167-3.55,22.712,22.712,0,0,1,8.545,3.586c-.035.055-.071.107-.1.161ZM20.959,11.831a22.916,22.916,0,0,1,6.676-2.41c-1.764,2.09-3.227,5.425-4.22,9.579H17.868l1.452-2.178A9.951,9.951,0,0,0,20.959,11.831ZM3,11.275V11a8,8,0,1,1,16,0v.275a7.977,7.977,0,0,1-1.344,4.438l-5.934,8.9a.9.9,0,0,1-1.445,0l-5.934-8.9A7.981,7.981,0,0,1,3,11.275ZM9.026,33H22.02a60.4,60.4,0,0,0,.637,8H10.836a22.778,22.778,0,0,1-1.81-8ZM8,43H24a1,1,0,0,1,0,2H8a1,1,0,0,1,0-2Zm1,4H23.382l3,6H12.618l-2-4H9ZM22.72,61H11.651A8.661,8.661,0,0,1,3,52.349V51H9.382l2,4H30.955A8.69,8.69,0,0,1,22.72,61Zm13.644-6.42c1.764-2.09,3.228-5.426,4.221-9.58h.6A2.966,2.966,0,0,0,41,46v7.163A22.637,22.637,0,0,1,36.364,54.58ZM61,60a1,1,0,0,1-1,1H44a1,1,0,0,1-1-1V46a1,1,0,0,1,1-1h3v4H57V45h3a1,1,0,0,1,1,1Z"/>
      <path id="Trazado_1019796" data-name="Trazado 1019796" d="M57,57h2v2H57Z"/>
      <path id="Trazado_1019797" data-name="Trazado 1019797" d="M53,57h2v2H53Z"/>
      <path id="Trazado_1019798" data-name="Trazado 1019798" d="M13,49h2v2H13Z"/>
      <path id="Trazado_1019799" data-name="Trazado 1019799" d="M17,49h2v2H17Z"/>
      <path id="Trazado_1019800" data-name="Trazado 1019800" d="M21,49h2v2H21Z"/>
      <path id="Trazado_1019801" data-name="Trazado 1019801" d="M27,35h2v2H27Z"/>
      <path id="Trazado_1019802" data-name="Trazado 1019802" d="M31,35h2v2H31Z"/>
      <path id="Trazado_1019803" data-name="Trazado 1019803" d="M35,35h2v2H35Z"/>
      <path id="Trazado_1019804" data-name="Trazado 1019804" d="M31,27h2v2H31Z"/>
      <path id="Trazado_1019805" data-name="Trazado 1019805" d="M27,27h2v2H27Z"/>
      <path id="Trazado_1019806" data-name="Trazado 1019806" d="M35,27h2v2H35Z"/>
    </g>
  </g>
</svg>
