<svg xmlns="http://www.w3.org/2000/svg" width="108.001" height="108.001" viewBox="0 0 108.001 108.001"><g transform="translate(-0.001)"><g transform="translate(2.11 35.111)"><path d="M30.231,213.372l-6.886-7.328a12.688,12.688,0,0,1-3.441-8.688V171.407a4.952,4.952,0,0,0-3.879-4.835h0A4.952,4.952,0,0,0,10,171.407v32.706a18.431,18.431,0,0,0,3.4,10.67l3.762,5.3,9,12.677,3.175,4.473H53.331l-3.456-16.472a29.119,29.119,0,0,0-12.25-18.185l-7.379-4.961a5.288,5.288,0,0,0-6.908.882h0a5.69,5.69,0,0,0,.12,7.679c4.041,4.282,10.052,10.683,10.052,10.683" transform="translate(-10 -166.453)" fill="#ffcdac"/><path d="M319.681,213.372l6.886-7.328a12.688,12.688,0,0,0,3.441-8.688V171.407a4.952,4.952,0,0,1,3.879-4.835h0a4.952,4.952,0,0,1,6.025,4.835v32.706a18.431,18.431,0,0,1-3.4,10.67l-3.762,5.3-9,12.677-3.175,4.473H296.581l3.456-16.472a29.119,29.119,0,0,1,12.25-18.185l7.379-4.961a5.288,5.288,0,0,1,6.908.882h0a5.69,5.69,0,0,1-.12,7.679c-4.041,4.282-10.052,10.683-10.052,10.683" transform="translate(-236.13 -166.453)" fill="#ffcdac"/></g><g transform="translate(21.81 37.887)"><path d="M280.137,186.416a7.784,7.784,0,0,1,3.8-2.175l5.386-1.291,0,0,0,0v-3.288H295.9v3.3h0l5.372,1.283a7.8,7.8,0,0,1,5.991,7.591v3.939H295.356Z" transform="translate(-242.854 -179.651)" fill="#7d9bff"/><path d="M130.517,186.365a7.784,7.784,0,0,0-3.8-2.175l-5.386-1.291,0,0,0,0v-3.288h-6.578v3.3h0l-5.372,1.283a7.8,7.8,0,0,0-5.991,7.591v3.939H115.3Z" transform="translate(-103.39 -179.611)" fill="#7d9bff"/></g><path d="M175.062,211.07l-7.5,1.8a10.871,10.871,0,0,0-8.337,10.571v7.585h40.828v-7.579a10.87,10.87,0,0,0-8.345-10.573l-7.483-1.787" transform="translate(-125.636 -166.547)" fill="#78d2fa"/><path d="M243.474,189.357v4.595L238.9,204.364l-4.583-10.427v-4.58" transform="translate(-184.886 -149.414)" fill="#ffb487"/><path d="M228.139,114.551v6.344a10.212,10.212,0,0,1-10.212,10.212h0a10.212,10.212,0,0,1-10.212-10.212v-6.344" transform="translate(-163.9 -90.388)" fill="#ffcdac"/><path d="M217.928,64h0a10.212,10.212,0,0,0-10.212,10.212V76.67h4.993a11.219,11.219,0,0,0,8.6-4.013h0l6.831,4.013V74.212A10.211,10.211,0,0,0,217.928,64Z" transform="translate(-163.9 -50.5)" fill="#bebebe"/><path d="M152.778,98.707V96.942a7.331,7.331,0,0,0-7.331-7.331h0a7.331,7.331,0,0,0-7.331,7.331v1.765h5.054a17.479,17.479,0,0,0,8.985-2.486h0" transform="translate(-108.98 -70.709)" fill="#f5b955"/><path d="M152.778,125.9v4.555a7.331,7.331,0,0,1-7.331,7.331h0a7.331,7.331,0,0,1-7.331-7.331V125.9" transform="translate(-108.98 -99.346)" fill="#ffcdac"/><path d="M304.5,98.758V96.993a7.331,7.331,0,0,1,7.331-7.331h0a7.331,7.331,0,0,1,7.331,7.331v1.765h-5.054a17.479,17.479,0,0,1-8.985-2.486h0" transform="translate(-240.268 -70.749)" fill="#f5b955"/><path d="M304.5,125.955v4.555a7.331,7.331,0,0,0,7.331,7.331h0a7.331,7.331,0,0,0,7.331-7.331v-4.555" transform="translate(-240.268 -99.386)" fill="#ffcdac"/><path d="M80.454,471.68a2.109,2.109,0,1,0-3.44,2.442l3.176,4.473a2.109,2.109,0,1,0,3.44-2.442Z" transform="translate(-60.46 -371.483)"/><path d="M44.049,212.436a31.065,31.065,0,0,0-13.138-19.5l-7.379-4.962a7.423,7.423,0,0,0-9.409.96V163.515a7.061,7.061,0,0,0-11.481-5.508A7.028,7.028,0,0,0,0,163.515v32.706a20.433,20.433,0,0,0,3.792,11.891l3.762,5.3a2.109,2.109,0,1,0,3.44-2.442l-3.762-5.3a16.236,16.236,0,0,1-3.013-9.449V163.515a2.843,2.843,0,1,1,5.685,0v25.949a14.739,14.739,0,0,0,3.8,9.9c.105.126.213.251.327.371,1.4,1.484,3.048,3.233,4.6,4.882l2.172,2.311.022.021c1.858,1.976,3.228,3.435,3.256,3.465a2.109,2.109,0,1,0,3.075-2.888c-.038-.041-2.508-2.67-5.327-5.668l-4.837-5.148-.036-.04A3.559,3.559,0,0,1,17.027,192a3.189,3.189,0,0,1,4.153-.53l7.378,4.962A26.867,26.867,0,0,1,39.921,213.3l3.456,16.472a2.109,2.109,0,1,0,4.129-.867Z" transform="translate(0 -123.449)"/><path d="M59.711,442.46a2.109,2.109,0,0,0-3.434,2.45l.014.019a2.109,2.109,0,0,0,3.434-2.45Z" transform="translate(-44.095 -348.43)"/><path d="M331.488,158.009a7.062,7.062,0,0,0-11.481,5.508v25.417a7.423,7.423,0,0,0-9.409-.96l-7.379,4.962a31.063,31.063,0,0,0-13.138,19.5l-3.456,16.472a2.109,2.109,0,1,0,4.129.866L294.21,213.3a26.867,26.867,0,0,1,11.363-16.868l7.379-4.962a3.189,3.189,0,0,1,4.153.53,3.559,3.559,0,0,1,.073,4.66l-.04.045-10.164,10.815a2.109,2.109,0,1,0,3.075,2.888c.029-.03,8.648-9.2,10.049-10.679.114-.121.222-.246.327-.371a14.739,14.739,0,0,0,3.8-9.9V163.517a2.843,2.843,0,1,1,5.685,0v32.707a16.236,16.236,0,0,1-3.013,9.449l-15.937,22.45a2.109,2.109,0,1,0,3.44,2.442l15.937-22.45a20.432,20.432,0,0,0,3.792-11.891V163.517A7.03,7.03,0,0,0,331.488,158.009Z" transform="translate(-226.128 -123.452)"/><path d="M148.1,109.2a2.109,2.109,0,0,0,2.109-2.109V99.508c0-.261-.011-.52-.026-.778h9.72a2.109,2.109,0,0,0,2.109-2.109V92.68a9.882,9.882,0,0,0-7.61-9.642l-3.753-.9v-.673a9.435,9.435,0,0,0,4.038-7.735V68.854a9.433,9.433,0,0,0-15.566-7.175A12.316,12.316,0,0,0,116.3,61.7a9.433,9.433,0,0,0-15.586,7.158v4.879a9.435,9.435,0,0,0,4.038,7.735v.673l-3.753.9a9.882,9.882,0,0,0-7.61,9.642v3.939A2.109,2.109,0,0,0,95.5,98.729h9.693c-.015.256-.025.513-.025.772v7.585a2.109,2.109,0,0,0,2.109,2.109h12.68a2.109,2.109,0,1,0,0-4.219h-2.179v-4.359a2.109,2.109,0,1,0-4.219,0v4.359h-4.172V99.5a8.734,8.734,0,0,1,6.719-8.52l5.789-1.387,3.874,8.813a2.109,2.109,0,0,0,1.931,1.261h0a2.109,2.109,0,0,0,1.931-1.26l3.87-8.8,5.77,1.378A8.733,8.733,0,0,1,146,99.508v5.469h-4.172v-4.359a2.109,2.109,0,1,0-4.219,0v4.359h-2.391a2.109,2.109,0,0,0,0,4.219ZM121.007,83.6a9.9,9.9,0,0,0-1.689-.57l-3.768-.9v-.657a9.518,9.518,0,0,0,1.828-1.67,12.418,12.418,0,0,0,3.629,3.637Zm-16.073-9.872v-1h2.944a19.6,19.6,0,0,0,7.5-1.494v2.5a5.222,5.222,0,0,1-10.444,0Zm14.682-.616V70.888H122.5a13.291,13.291,0,0,0,8.963-3.463l4.35,2.556v3.443a8.1,8.1,0,0,1-16.2-.309Zm14.771,10.495v-.143a12.414,12.414,0,0,0,3.659-3.646,9.516,9.516,0,0,0,1.813,1.652v.657l-3.768.9A9.926,9.926,0,0,0,134.387,83.611Zm5.644-9.878v-.308c0-.1.008-.205.008-.308V71.238a19.6,19.6,0,0,0,7.492,1.49h2.944v1a5.222,5.222,0,1,1-10.444,0Zm5.222-10.1a5.229,5.229,0,0,1,5.211,4.878H147.53a15.375,15.375,0,0,1-7.073-1.724A5.229,5.229,0,0,1,145.253,63.632Zm-25.637,2.689a8.1,8.1,0,0,1,16.1-1.288l-3.551-2.086a2.109,2.109,0,0,0-2.685.464A9.088,9.088,0,0,1,122.5,66.67h-2.883v-.349Zm-9.46-2.689a5.23,5.23,0,0,1,4.795,3.154,15.376,15.376,0,0,1-7.073,1.724h-2.933A5.229,5.229,0,0,1,110.156,63.632Zm4.967,23.247a12.937,12.937,0,0,0-8.964,7.631h-8.55V92.68a5.677,5.677,0,0,1,4.372-5.539l5.372-1.283a2.109,2.109,0,0,0,1.619-2.052V83.1a9.156,9.156,0,0,0,2.359,0v.6c0,.031,0,.063,0,.094a2.113,2.113,0,0,0,1.714,2.075l3.147.754ZM127.7,92.318l-2.474-5.628V85.184a12.362,12.362,0,0,0,4.943.008V86.7Zm12.551-5.435-1.059-.253,3.163-.758a2.112,2.112,0,0,0,1.723-2.077c0-.016,0-.033,0-.05V83.1a9.157,9.157,0,0,0,2.358,0v.709a2.109,2.109,0,0,0,1.619,2.052l5.372,1.283A5.677,5.677,0,0,1,157.8,92.68v1.83H149.22A12.934,12.934,0,0,0,140.25,86.883Z" transform="translate(-73.69 -42.609)"/><path d="M248.109,295.67a2.107,2.107,0,1,0,1.491.616A2.119,2.119,0,0,0,248.109,295.67Z" transform="translate(-194.108 -233.302)"/><path d="M248.1,7.375a2.109,2.109,0,0,0,2.109-2.109V2.109a2.109,2.109,0,0,0-4.219,0V5.266A2.109,2.109,0,0,0,248.1,7.375Z" transform="translate(-194.104)"/><path d="M194.431,25.025a2.109,2.109,0,1,0,2.981-2.984L195.2,19.83a2.109,2.109,0,1,0-2.982,2.984Z" transform="translate(-151.183 -15.16)"/><path d="M291.855,25.886a2.1,2.1,0,0,0,1.492-.619l2.2-2.2a2.109,2.109,0,1,0-2.985-2.982l-2.2,2.2a2.11,2.11,0,0,0,1.492,3.6Z" transform="translate(-228.626 -15.363)"/></g></svg>