<svg xmlns="http://www.w3.org/2000/svg" xmlns:xlink="http://www.w3.org/1999/xlink" width="190" height="115" viewBox="0 0 190 115"><defs><clipPath id="a"><rect width="161" height="107" transform="translate(-0.333 -0.177)" fill="none"/></clipPath><clipPath id="c"><rect width="10.1" height="7.424" fill="none"/></clipPath><clipPath id="d"><rect width="8.396" height="8.279" fill="none"/></clipPath></defs><g transform="translate(-285.012 -1448.692)"><rect width="190" height="115" rx="13" transform="translate(285.012 1448.692)" fill="#f4f4fd"/><g transform="translate(299.356 1452.844)"><g clip-path="url(#a)"><g clip-path="url(#a)"><path d="M57.849,283.212H46.606a.467.467,0,0,1-.467-.467v-7.979A.765.765,0,0,1,46.9,274H57.849a.467.467,0,0,1,.467.468v8.277a.467.467,0,0,1-.467.467" transform="translate(-36.275 -215.426)" fill="#dadef1"/><path d="M84.1,273.794v9.166a.134.134,0,0,0,.267,0v-9.166a.134.134,0,0,0-.267,0" transform="translate(-66.12 -215.162)" fill="#b8c1ea"/><rect width="1.695" height="1.695" transform="translate(13.086 58.575)" fill="#fff"/><rect width="1.695" height="1.695" transform="translate(19.492 66.091)" fill="#fff"/><path d="M45.649,282.972l-.01-8.714a.882.882,0,0,1,.88-.881l11.8.026,0,1-11.676-.026.01,8.593Z" transform="translate(-36.275 -215.328)" fill="#b8c1ea"/><path d="M60.471,333.034H41.542a.467.467,0,0,1-.467-.467V318.773a.765.765,0,0,1,.765-.765H60.471a.467.467,0,0,1,.467.468v14.091a.467.467,0,0,1-.467.467" transform="translate(-32.294 -250.025)" fill="#dadef1"/><path d="M103.389,317.971v14.951a.134.134,0,0,0,.267,0V317.971a.134.134,0,0,0-.267,0" transform="translate(-81.287 -249.895)" fill="#b8c1ea"/><rect width="2.765" height="2.765" transform="translate(14.038 67.983)" fill="#fff"/><rect width="2.765" height="2.765" transform="translate(24.487 80.243)" fill="#fff"/><path d="M40.591,332.643l-.017-14.213a1.122,1.122,0,0,1,1.121-1.121l19.244.043,0,1-19.243-.043a.121.121,0,0,0-.12.121l.017,14.213Z" transform="translate(-32.293 -249.868)" fill="#b8c1ea"/><path d="M46.934,403.275H28.005a.467.467,0,0,1-.467-.467V389.014a.765.765,0,0,1,.765-.765H46.934a.467.467,0,0,1,.467.468v14.091a.467.467,0,0,1-.467.467" transform="translate(-21.651 -305.25)" fill="#dadef1"/><path d="M89.853,388.212v14.951a.134.134,0,0,0,.267,0V388.212a.134.134,0,0,0-.267,0" transform="translate(-70.644 -305.12)" fill="#b8c1ea"/><rect width="2.765" height="2.765" transform="translate(11.144 82.999)" fill="#fff"/><rect width="2.765" height="2.765" transform="translate(21.594 95.259)" fill="#fff"/><path d="M27.055,402.884l-.017-14.213a1.122,1.122,0,0,1,1.121-1.121l19.244.043,0,1-19.243-.043a.121.121,0,0,0-.12.121l.017,14.213Z" transform="translate(-21.651 -305.093)" fill="#b8c1ea"/><path d="M158.779,162.173H137.907c-.28,0-.573-.024-.853,0-.013,0-.026,0-.039,0a.134.134,0,0,0,0,.267h20.872c.28,0,.573.024.853,0,.013,0,.026,0,.039,0a.134.134,0,0,0,0-.267" transform="translate(-107.623 -127.496)" fill="#dadef1"/><path d="M237.946,159.449a.906.906,0,1,0,.906-.906.906.906,0,0,0-.906.906" transform="translate(-187.078 -124.65)" fill="#dadef1"/><path d="M133.938,240.9V253.3a.134.134,0,0,0,.267,0V240.9a.134.134,0,0,0-.267,0" transform="translate(-105.305 -189.302)" fill="#dadef1"/><path d="M129.753,297.222a.906.906,0,1,0,.906-.906.906.906,0,0,0-.906.906" transform="translate(-102.015 -232.97)" fill="#dadef1"/><path d="M92.481,203.506h13.783a.467.467,0,0,0,.468-.468v-9.9a.765.765,0,0,0-.765-.765H92.481a.467.467,0,0,0-.467.468v10.2a.467.467,0,0,0,.467.468" transform="translate(-72.343 -151.248)" fill="#f2a441"/><path d="M113.6,192.222V203.3a.134.134,0,0,0,.267,0V192.222a.134.134,0,0,0-.267,0" transform="translate(-89.315 -151.028)" fill="#26244a"/><rect width="2.049" height="2.049" transform="translate(28.444 41.125)" fill="#dadef1"/><rect width="2.049" height="2.049" transform="translate(20.702 50.209)" fill="#dadef1"/><path d="M95.721,127.567a7.1,7.1,0,0,1,4.266-2.187c3.032-.565,4.173.375,4.173.375s1.721,2.755.922,4.463-1.21,4.23.688,4.942,4.062-1.57,4.65-4.034a15.172,15.172,0,0,0,.32-7.993c-.8-4.229-9.474-8.515-9.474-8.515s-4.564,3.989-6.582,6.216a7.278,7.278,0,0,0-1.887,4.832" transform="translate(-72.958 -90.117)" fill="#f4b298"/><path d="M76.4,112.14s-5.27,1.756-8.437,4.478c-1.513,1.3-4.474,7.656-6.114,12.222-.32.892-.593,1.567-.705,1.926-.588,1.867,1.247,3.99,3.192,2.577,1.628-1.183,2.9-5.169,2.9-5.169L71.9,118.6Z" transform="translate(-47.984 -88.167)" fill="#f4b298"/><path d="M52.287,142.4l8.079-8.378-4.5,11.3a12.68,12.68,0,0,1-1.552.721,2.006,2.006,0,0,1-1.879-.192,2.422,2.422,0,0,1-.146-3.451" transform="translate(-40.595 -105.373)" fill="#f4b298"/><path d="M140.477,81.029l-8.009,8.186-5.373-4.533-3.709-2.869,4.786-9.242c4.472-.077,9.943,3.111,12.3,8.458" transform="translate(-97.009 -57.056)" fill="#f4b298"/><path d="M84.084,157.046l5.059.5A6.867,6.867,0,0,0,87.8,161.26c-.133,1.33-.055,2.664-.132,4a5.745,5.745,0,0,1-.481,2.217,2.258,2.258,0,0,1-1.652,1.328,1.909,1.909,0,0,1-1.627-.776,4.747,4.747,0,0,1-.8-1.772,13.224,13.224,0,0,1,.983-9.208" transform="translate(-65.006 -123.473)" fill="#f4b298"/><path d="M82.493,162.532A22.722,22.722,0,0,1,82,158.487a8.086,8.086,0,0,1,1.348-4.237,7.043,7.043,0,0,1,1.4-1.672c.132-.11-.058-.3-.189-.189a8.549,8.549,0,0,0-2.373,3.622,8.356,8.356,0,0,0-.368,3.857c.1.917.258,1.827.42,2.735.03.169.288.1.258-.071" transform="translate(-64.269 -119.786)" fill="#ed796a"/><path d="M64.178,159.066q1.683-4.519,3.8-8.858c.075-.154-.155-.289-.231-.135q-2.132,4.364-3.829,8.922c-.06.161.2.231.258.071" transform="translate(-50.249 -117.937)" fill="#ed796a"/><path d="M146.425,132.515a10.236,10.236,0,0,1,3.052,5.613,11.41,11.41,0,0,1-.406,6.257,10.869,10.869,0,0,1-1.74,3.15,3.2,3.2,0,0,1-2.538,1.334,2.126,2.126,0,0,1-1.347-.514,1.67,1.67,0,0,1-.435-1.159,5.99,5.99,0,0,1,.609-2.5,4.622,4.622,0,0,0,.07-3.9,12.522,12.522,0,0,0-1.45-2.254c-.1-.134-.336,0-.231.135a13.784,13.784,0,0,1,1.36,2.072,4.105,4.105,0,0,1,.465,2.006,5.268,5.268,0,0,1-.5,1.93,6,6,0,0,0-.59,2.571,2,2,0,0,0,.381,1.141,2.018,2.018,0,0,0,1.158.665c2.294.548,3.826-1.867,4.635-3.632a10.986,10.986,0,0,0,1.034-3.787,13.739,13.739,0,0,0-.138-3.119,10.556,10.556,0,0,0-3.2-6.2c-.126-.117-.316.072-.189.189" transform="translate(-111.63 -104.009)" fill="#ed796a"/><path d="M509.65,164.915H536.59a1.645,1.645,0,0,0,.368,0,.213.213,0,0,1,.047,0l-.134-.134v24.207c0,.323-.027.659,0,.981,0,.014,0,.029,0,.043a.134.134,0,0,0,.267,0V165.805c0-.323.027-.659,0-.981,0-.014,0-.029,0-.043a.135.135,0,0,0-.134-.134H510.768c-.353,0-.718-.026-1.071,0-.015,0-.031,0-.047,0a.134.134,0,0,0,0,.267" transform="translate(-400.597 -129.441)" fill="#dadef1"/><path d="M378.825,124.466a1.5,1.5,0,0,1-1.218-2.375l.173-.241.452-.63a1.5,1.5,0,0,1,2.434,1.754l-.448.624-.174.242A1.5,1.5,0,0,1,378.825,124.466Z" transform="translate(-297.841 -95.996)" fill="#b8c1ea"/><path d="M393.163,92.019a1.5,1.5,0,0,1-1.132-2.483,13.777,13.777,0,0,1,7.224-4.762,13.02,13.02,0,0,1,1.65-.265,1.5,1.5,0,1,1,.285,2.986,10.008,10.008,0,0,0-1.268.2,10.521,10.521,0,0,0-5.625,3.8A1.5,1.5,0,0,1,393.163,92.019Z" transform="translate(-309.114 -67.574)" fill="#b8c1ea"/><path d="M491.478,147.18a1.5,1.5,0,0,1-1.489-1.7c.041-.306.068-.617.08-.925a1.5,1.5,0,0,1,3,.117c-.016.4-.051.807-.1,1.2A1.5,1.5,0,0,1,491.478,147.18Z" transform="translate(-386.409 -113.699)" fill="#b8c1ea"/><path d="M265.954,150.386a1.5,1.5,0,0,1-1.094-.473,17.064,17.064,0,0,1-4.4-9.842,1.5,1.5,0,0,1,2.983-.319,14.048,14.048,0,0,0,3.607,8.108,1.5,1.5,0,0,1-1.093,2.527Zm5.573-24.876a1.5,1.5,0,0,1-.557-2.893,17.033,17.033,0,0,1,10.76-.71,1.5,1.5,0,0,1-.795,2.893,14.018,14.018,0,0,0-8.851.6A1.5,1.5,0,0,1,271.527,125.511Z" transform="translate(-205.876 -96.583)" fill="#b8c1ea"/><path d="M512.806,119.125a2.88,2.88,0,0,0-3.516-.566,3.021,3.021,0,0,0-1.268,1.306,2.428,2.428,0,0,0-.149.4l-.765,2.616a.663.663,0,0,0,.6.848l1.942.1c.183.009.536.018.851.02a2.941,2.941,0,0,0,1.687-.491l.011-.008a2.853,2.853,0,0,0,.6-4.226m-3,2.8a1.241,1.241,0,1,1,1.267.2,1.208,1.208,0,0,1-1.267-.2" transform="translate(-398.678 -92.932)" fill="#dadef1"/><path d="M339.134,114.569A21.339,21.339,0,1,1,317.8,93.23a21.339,21.339,0,0,1,21.339,21.339" transform="translate(-233.08 -73.299)" fill="#b8c1ea"/><path d="M332.479,93.182a17.275,17.275,0,0,0-9.844,4.14,20.2,20.2,0,0,0-5.155,7.312,24.733,24.733,0,0,0-1.369,13.373,24.326,24.326,0,0,0,4.978,11.789,16.276,16.276,0,0,0,10.371,5.928,13.465,13.465,0,0,0,1.525.1.134.134,0,0,0,0-.267,15.425,15.425,0,0,1-10.748-4.873,22.649,22.649,0,0,1-5.59-11.215,25.687,25.687,0,0,1,.5-13.169,20.449,20.449,0,0,1,4.795-7.947,16.7,16.7,0,0,1,9.027-4.7c.5-.088,1.007-.154,1.515-.2.17-.016.171-.284,0-.267" transform="translate(-248.26 -73.261)" fill="#f5f5f5"/><path d="M357.811,93.2a19.242,19.242,0,0,0-6.295,6.472,20.282,20.282,0,0,0-2.018,4.041,24.272,24.272,0,0,0-1.148,5.174,42.57,42.57,0,0,0-.279,5.617c.017,1.861.1,3.726.266,5.58a35.4,35.4,0,0,0,.889,5.456,16.74,16.74,0,0,0,1.8,4.659,14.313,14.313,0,0,0,6.57,5.39q.489.217.988.409c.16.062.23-.2.071-.258a15.148,15.148,0,0,1-6.9-4.932,13.911,13.911,0,0,1-1.978-4.293,31.25,31.25,0,0,1-1.055-5.345c-.207-1.8-.3-3.6-.354-5.41a50.364,50.364,0,0,1,.108-5.428,28.511,28.511,0,0,1,.934-5.432,18.276,18.276,0,0,1,1.731-4.077,20.8,20.8,0,0,1,5.973-6.862q.408-.283.838-.53a.134.134,0,0,0-.135-.231" transform="translate(-273.66 -73.261)" fill="#f5f5f5"/><path d="M392.807,135.707c-.542-5.463-.859-10.946-1.021-16.433-.165-5.588-.17-11.181-.043-16.77q.1-4.586.327-9.169c.008-.172-.259-.171-.267,0q-.4,8.228-.415,16.469c-.007,5.589.125,11.179.444,16.759q.262,4.578.708,9.142c.017.17.284.171.267,0" transform="translate(-307.718 -73.281)" fill="#f5f5f5"/><path d="M394.99,135.945a31.089,31.089,0,0,0,7.142-7.839,24.94,24.94,0,0,0,3.646-9.744,27.274,27.274,0,0,0,.171-5.256,34.463,34.463,0,0,0-.636-5.077,24.125,24.125,0,0,0-3.466-8.649,16.877,16.877,0,0,0-6.48-5.762c-.326-.161-.658-.31-.994-.451-.159-.066-.228.192-.071.258a16.39,16.39,0,0,1,6.8,5.356,22.765,22.765,0,0,1,3.723,8.265,32.34,32.34,0,0,1,.784,4.917,30.333,30.333,0,0,1,.043,5.219,24.181,24.181,0,0,1-3.156,9.807,30.1,30.1,0,0,1-6.685,7.948q-.495.42-1.006.82c-.135.106.055.294.189.189" transform="translate(-309.94 -73.242)" fill="#f5f5f5"/><path d="M394.318,93.452a13.311,13.311,0,0,1,4.811,1.039,23.192,23.192,0,0,1,4.844,2.63,19.664,19.664,0,0,1,3.926,3.557,15.414,15.414,0,0,1,2.624,5.05,26.9,26.9,0,0,1,.657,12.765,27.357,27.357,0,0,1-1.787,6.2,19,19,0,0,1-3.24,5.254,17.9,17.9,0,0,1-4.535,3.548,18.488,18.488,0,0,1-5.4,2.048q-.665.133-1.341.2c-.17.017-.171.284,0,.267a17.092,17.092,0,0,0,5.485-1.571,19.528,19.528,0,0,0,4.969-3.285c3.1-2.846,4.885-6.958,5.8-11a28.641,28.641,0,0,0,.081-13,17.787,17.787,0,0,0-2.387-5.686,17.034,17.034,0,0,0-3.6-3.748,24.17,24.17,0,0,0-4.8-2.965,16.424,16.424,0,0,0-4.933-1.5,9.79,9.79,0,0,0-1.16-.069.134.134,0,0,0,0,.267" transform="translate(-309.92 -73.264)" fill="#f5f5f5"/><path d="M296.12,196.744h42.649a.134.134,0,0,0,0-.267H296.12a.134.134,0,0,0,0,.267" transform="translate(-232.715 -154.475)" fill="#f5f5f5"/><path d="M310.749,140.381h34.444c.461,0,.929.024,1.39,0,.02,0,.04,0,.06,0a.134.134,0,0,0,0-.267H312.2c-.461,0-.929-.024-1.39,0-.02,0-.04,0-.06,0a.134.134,0,0,0,0,.267" transform="translate(-244.216 -110.152)" fill="#f5f5f5"/><path d="M319.1,253.069h32.8a.134.134,0,0,0,0-.267H319.1a.134.134,0,0,0,0,.267" transform="translate(-250.778 -198.758)" fill="#f5f5f5"/><path d="M83.506,337.815H68.867a.467.467,0,0,1-.468-.467V326.8a.765.765,0,0,1,.765-.765H83.506a.467.467,0,0,1,.467.467v10.846a.467.467,0,0,1-.467.467" transform="translate(-53.777 -256.335)" fill="#ef6856"/><path d="M117.122,325.9v11.722a.134.134,0,0,0,.267,0V325.9a.134.134,0,0,0-.267,0" transform="translate(-92.084 -256.13)" fill="#26244a"/><rect width="2.168" height="2.168" transform="translate(18.744 69.699)" fill="#dadef1"/><rect width="2.168" height="2.168" transform="translate(26.937 79.311)" fill="#dadef1"/><path d="M150.9,337.185H136.258a.467.467,0,0,1-.468-.467V326.169a.765.765,0,0,1,.765-.765H150.9a.467.467,0,0,1,.467.467v10.846a.467.467,0,0,1-.467.467" transform="translate(-106.761 -255.84)" fill="#f2a441"/><path d="M184.514,325.272v11.722a.134.134,0,0,0,.267,0V325.272a.134.134,0,0,0-.267,0" transform="translate(-145.069 -255.635)" fill="#26244a"/><rect width="2.168" height="2.168" transform="translate(33.151 69.564)" fill="#dadef1"/><rect width="2.168" height="2.168" transform="translate(41.344 79.177)" fill="#dadef1"/><path d="M82.449,393.183H67.81a.467.467,0,0,1-.468-.467V382.167a.765.765,0,0,1,.765-.765H82.449a.467.467,0,0,1,.467.467v10.846a.467.467,0,0,1-.467.467" transform="translate(-52.946 -299.867)" fill="#f2a441"/><path d="M116.066,381.27v11.722a.134.134,0,0,0,.267,0V381.27a.134.134,0,0,0-.267,0" transform="translate(-91.254 -299.662)" fill="#26244a"/><rect width="2.168" height="2.168" transform="translate(18.518 81.535)" fill="#dadef1"/><rect width="2.168" height="2.168" transform="translate(26.711 91.148)" fill="#dadef1"/><path d="M66.855,392.876l-.013-11.144a.988.988,0,0,1,.987-.987l15.089.034,0,1-15.073-.034.013,11.13Z" transform="translate(-52.946 -299.743)" fill="#26244a"/><path d="M150.91,393.183H136.271a.467.467,0,0,1-.468-.467V382.167a.765.765,0,0,1,.765-.765H150.91a.467.467,0,0,1,.467.467v10.846a.467.467,0,0,1-.467.467" transform="translate(-106.771 -299.867)" fill="#f2a441"/><path d="M184.526,381.27v11.722a.134.134,0,0,0,.267,0V381.27a.134.134,0,0,0-.267,0" transform="translate(-145.078 -299.662)" fill="#26244a"/><rect width="2.168" height="2.168" transform="translate(33.153 81.535)" fill="#dadef1"/><rect width="2.168" height="2.168" transform="translate(41.346 91.148)" fill="#dadef1"/><path d="M135.316,392.876l-.013-11.144a.988.988,0,0,1,.987-.987l15.089.034,0,1-15.073-.034.013,11.13Z" transform="translate(-106.771 -299.743)" fill="#26244a"/><path d="M92.7,437.355h-31.9a.388.388,0,1,1,0-.776H92.7a.388.388,0,1,1,0,.776" transform="translate(-47.501 -343.248)" fill="#545dbf"/><path d="M92.7,455.492h-31.9a.388.388,0,1,1,0-.776H92.7a.388.388,0,1,1,0,.776" transform="translate(-47.501 -357.508)" fill="#545dbf"/><rect width="3.975" height="3.324" transform="translate(13.45 93.885)" fill="#545dbf"/><rect width="3.975" height="3.324" transform="translate(27.33 93.885)" fill="#545dbf"/><rect width="3.975" height="3.324" transform="translate(41.211 93.885)" fill="#545dbf"/><path d="M62.026,440.139H93.869a.134.134,0,0,0,0-.267H62.026a.134.134,0,0,0,0,.267" transform="translate(-48.665 -345.837)" fill="#26244a"/><path d="M62.026,454.357H93.869a.134.134,0,0,0,0-.267H62.026a.134.134,0,0,0,0,.267" transform="translate(-48.665 -357.015)" fill="#26244a"/><path d="M69.43,325.04H99.009a.134.134,0,0,0,0-.267H69.43a.134.134,0,0,0,0,.267" transform="translate(-54.486 -255.344)" fill="#26244a"/><path d="M135.505,336.642V324.923a.134.134,0,0,0-.267,0v11.719a.134.134,0,0,0,.267,0" transform="translate(-106.327 -255.36)" fill="#26244a"/><path d="M286.477,398.367a10.687,10.687,0,0,1-2.3,6.636c-.641.668-2.589.59-4.1.59-3.533,0-6.4-3.235-6.4-7.226s2.864-7.226,6.4-7.226c.269,0,2.536-.035,2.8,0,3.158.441,3.6,3.538,3.6,7.225" transform="translate(-215.176 -307.511)" fill="#26244a"/><path d="M299.559,398.429c0,3.991-2.864,7.226-6.4,7.226s-6.4-3.235-6.4-7.226,2.864-7.226,6.4-7.226,6.4,3.235,6.4,7.226" transform="translate(-225.461 -307.572)" fill="#545dbf"/><path d="M309.2,413.085a2.827,2.827,0,1,1-2.8-3.242,3.044,3.044,0,0,1,2.8,3.242" transform="translate(-238.701 -322.227)" fill="#b8c1ea"/><rect width="27.743" height="2.156" transform="translate(50.04 90.932)" fill="#26244a"/><rect width="101.677" height="12.767" transform="translate(44.748 78.629)" fill="#26244a"/><path d="M617.968,398.85a10.687,10.687,0,0,1-2.3,6.636c-.641.668-2.589.59-4.1.59-3.533,0-6.4-3.235-6.4-7.226s2.864-7.226,6.4-7.226c.269,0,2.536-.035,2.8,0,3.158.442,3.6,3.538,3.6,7.225" transform="translate(-475.801 -307.891)" fill="#26244a"/><path d="M631.049,398.911c0,3.991-2.864,7.226-6.4,7.226s-6.4-3.235-6.4-7.226,2.864-7.226,6.4-7.226,6.4,3.235,6.4,7.226" transform="translate(-486.086 -307.951)" fill="#545dbf"/><path d="M640.69,413.567a2.827,2.827,0,1,1-2.8-3.242,3.044,3.044,0,0,1,2.8,3.242" transform="translate(-499.327 -322.606)" fill="#b8c1ea"/><path d="M597.914,280.967a3.881,3.881,0,0,0-3.3-2.636l-9.006-1.016-4.979-10.061a3.1,3.1,0,0,0-.687-.914c-.89-.811-2.752-.681-3.437-.683-2.289-.008-5.575-.015-5.575,0V298.63h7.443c1,0,1.584-2.535,1.755-3.4.008-.04.012-.063.015-.076l.009-.041c.678-2.969,1.593-3.394,2.105-3.955,1.068-1.17,3.044-1.525,4.483-1.525a6.832,6.832,0,0,1,7.437,4.971l.54,3H598.1V282.162a3.992,3.992,0,0,0-.183-1.2" transform="translate(-448.881 -208.858)" fill="#ef6856"/><rect width="27.163" height="3.155" transform="translate(122.053 74.993)" fill="#f2a441"/><path d="M570.459,300.718h7.084a.135.135,0,0,0,.134-.134,8.757,8.757,0,0,1,.344-2.5,6.8,6.8,0,0,1,2.863-4.1,7.41,7.41,0,0,1,3.783-.993.136.136,0,0,0,.134-.134q0-2.888-.005-5.775,0-1.485,0-2.97a1.225,1.225,0,0,0-.025-.406,5.091,5.091,0,0,0-.268-.534l-3.139-6.26-1.287-2.566c-.079-.158-.154-.32-.242-.473a3.63,3.63,0,0,0-2.141-1.578,10.9,10.9,0,0,0-3.087-.2H570.94a.134.134,0,0,0,0,.267c1.78,0,3.56,0,5.341,0a3.733,3.733,0,0,1,3.455,1.9l1.083,2.16,3.22,6.421.42.837c.027.054.055.108.082.163-.033-.067-.008-.065-.014.019-.02.285,0,.579,0,.864q0,.788,0,1.576l.006,6.422c0,.043,0,.086,0,.129l.134-.134A6.951,6.951,0,0,0,579,295.377a8.748,8.748,0,0,0-1.531,4.222,7.187,7.187,0,0,0-.055.985l.134-.134h-7.084a.134.134,0,0,0,0,.267" transform="translate(-448.406 -213.913)" fill="#26244a"/><path d="M574.085,286.445q.141-3.759.282-7.518a1.444,1.444,0,0,1,.3-1,1.277,1.277,0,0,1,.919-.244h2.883a4.76,4.76,0,0,1,2.383.415,4.588,4.588,0,0,1,1.625,1.841c1.477,2.666,2.341,4.515,3.459,6.814a1.268,1.268,0,0,1-1.057,1.849c-2.936.034-6.56.265-9.045.093a2.05,2.05,0,0,1-1.278-.387,2.345,2.345,0,0,1-.467-1.858" transform="translate(-451.352 -218.317)" fill="#dadef1"/><g transform="translate(123.319 63)" opacity="0.5"><g clip-path="url(#c)"><path d="M586.954,297.726l-5.056,4.331c-1.422.025-4.449.243-5.044-.279L585.4,294.7Z" transform="translate(-576.854 -294.7)" fill="#fff"/></g></g><g transform="translate(122.725 60.449)" opacity="0.5"><g clip-path="url(#d)"><path d="M582.474,283.932l-8.4,7.11.06-2,7.529-6.275Z" transform="translate(-574.078 -282.763)" fill="#fff"/></g></g><path d="M625.69,315.613v-3.592l.921,1.9a.35.35,0,0,1,.035.152v1.192a.349.349,0,0,1-.348.348Z" transform="translate(-491.931 -245.318)" fill="#26244a"/><path d="M615.018,310.954c.339.35.634.753.945,1.127L617.4,313.8l.326.393c.11.132.3-.057.189-.189q-1.167-1.406-2.339-2.809c-.12-.143-.234-.3-.364-.431s-.309.065-.189.189" transform="translate(-483.511 -244.298)" fill="#26244a"/><path d="M609.309,306.328v2.944a.621.621,0,0,0,.58.654H610.9a.621.621,0,0,0,.58-.654v-2.9a.625.625,0,0,0-.556-.654l-1.006-.049a.617.617,0,0,0-.6.654" transform="translate(-479.052 -240.327)" fill="#ef6856"/><path d="M682.941,325.24s-.479,2.347.467,2.78a5.655,5.655,0,0,0,2.572.183,3.465,3.465,0,0,0-3.038-2.962" transform="translate(-536.848 -255.711)" fill="#f2a441"/><path d="M680.017,398.47H676.4l-1.744-7.745h5.357A1.278,1.278,0,0,1,681.295,392v5.19a1.278,1.278,0,0,1-1.278,1.278" transform="translate(-530.432 -307.197)" fill="#26244a"/><path d="M688.685,376.841h-1.591a.941.941,0,0,1,0-1.882h1.591Z" transform="translate(-539.469 -294.801)" fill="#dadef1"/><rect width="21.437" height="41.874" transform="translate(39.82 48.542)" fill="#b8c1ea"/><path d="M286.548,267.951V227.119h58.428a2.669,2.669,0,0,1,2.669,2.669v38.163H319.314v-.931a7.437,7.437,0,0,0-7.437-7.437H307.4c-2.981,0-4.723,2-5.08,4.956l-1.152,3.412Z" transform="translate(-225.29 -178.566)" fill="#dadef1"/><rect width="17.995" height="13.151" transform="translate(41.679 51.681)" fill="#545dbf"/><rect width="17.995" height="23.014" transform="translate(41.679 64.832)" fill="#545dbf"/><path d="M212.959,309.427l-18-6.157h18Z" transform="translate(-153.285 -238.437)" fill="#26244a"/><path d="M282.2,400.7a.383.383,0,1,1-.383-.383.383.383,0,0,1,.383.383" transform="translate(-221.267 -314.741)" fill="#f2a441"/><path d="M282.2,406a.383.383,0,1,1-.383-.383.383.383,0,0,1,.383.383" transform="translate(-221.267 -318.909)" fill="#f2a441"/><path d="M282.2,411.306a.383.383,0,1,1-.383-.383.383.383,0,0,1,.383.383" transform="translate(-221.267 -323.077)" fill="#f2a441"/><path d="M189.387,400.7a.383.383,0,1,1-.383-.383.383.383,0,0,1,.383.383" transform="translate(-148.299 -314.741)" fill="#f2a441"/><path d="M189.387,406a.383.383,0,1,1-.383-.383.383.383,0,0,1,.383.383" transform="translate(-148.299 -318.909)" fill="#f2a441"/><path d="M189.387,411.306a.383.383,0,1,1-.383-.383.383.383,0,0,1,.383.383" transform="translate(-148.299 -323.077)" fill="#f2a441"/><path d="M195.243,289.505H213a.134.134,0,0,0,0-.267H195.243a.134.134,0,0,0,0,.267" transform="translate(-153.403 -227.405)" fill="#26244a"/><path d="M195.243,275.264H213a.134.134,0,0,0,0-.267H195.243a.134.134,0,0,0,0,.267" transform="translate(-153.403 -216.209)" fill="#26244a"/><path d="M195.243,261.024H213a.134.134,0,0,0,0-.267H195.243a.134.134,0,0,0,0,.267" transform="translate(-153.403 -205.013)" fill="#26244a"/><path d="M194.867,247.743h17.753a.134.134,0,0,0,0-.267H194.867a.134.134,0,0,0,0,.267" transform="translate(-153.107 -194.571)" fill="#26244a"/><rect width="18.607" height="1.279" transform="translate(41.067 87.846)" fill="#dadef1"/><path d="M373.714,397.792a10.687,10.687,0,0,1-2.3,6.636c-.641.668-2.589.591-4.1.591-3.533,0-6.4-3.235-6.4-7.226s2.864-7.226,6.4-7.226c.269,0,2.536-.035,2.8,0,3.158.442,3.6,3.538,3.6,7.225" transform="translate(-283.763 -307.059)" fill="#26244a"/><path d="M386.795,397.854c0,3.991-2.864,7.226-6.4,7.226s-6.4-3.235-6.4-7.226,2.864-7.226,6.4-7.226,6.4,3.235,6.4,7.226" transform="translate(-294.048 -307.12)" fill="#545dbf"/><path d="M396.436,412.51a2.827,2.827,0,1,1-2.8-3.242,3.044,3.044,0,0,1,2.8,3.242" transform="translate(-307.289 -321.775)" fill="#b8c1ea"/><path d="M215.089,367.528H200.45a.467.467,0,0,1-.468-.467V356.512a.765.765,0,0,1,.765-.765h14.342a.467.467,0,0,1,.467.467v10.846a.467.467,0,0,1-.467.467" transform="translate(-157.23 -279.696)" fill="#f2a441"/><path d="M248.706,355.615v11.722a.134.134,0,0,0,.267,0V355.615a.134.134,0,0,0-.267,0" transform="translate(-195.538 -279.491)" fill="#26244a"/><rect width="2.168" height="2.168" transform="translate(46.873 76.051)" fill="#dadef1"/><rect width="2.168" height="2.168" transform="translate(55.067 85.663)" fill="#dadef1"/><path d="M231.965,295.632h-2.983a.349.349,0,1,1,0-.7h2.983a.349.349,0,1,1,0,.7" transform="translate(-179.756 -231.884)" fill="#26244a"/><path d="M286.945,241.9c3.195.056,5.876-2.086,7.986-4.272,2.367-2.454,4.169-5.388,6.563-7.821a12.559,12.559,0,0,1,4.487-3.117c.16-.059.091-.317-.071-.258-2.987,1.1-5.178,3.639-7.11,6.061-2.127,2.666-4.115,5.466-6.942,7.453a8.306,8.306,0,0,1-4.913,1.686.134.134,0,0,0,0,.267" transform="translate(-225.501 -178.02)" fill="#fff"/><path d="M328.986,228.059c-2.678,2.3-5.275,4.692-7.743,7.215a87.721,87.721,0,0,0-6.9,7.917q-1.608,2.1-3.061,4.3a20.441,20.441,0,0,0-2.418,4.57,7.882,7.882,0,0,0-.292,4.454,5.573,5.573,0,0,0,2.119,3.255,5.135,5.135,0,0,0,4.478.492,10.734,10.734,0,0,0,4.136-2.758c2.572-2.516,4.905-5.262,7.574-7.681a26.768,26.768,0,0,1,8.833-5.615,16.043,16.043,0,0,1,5.006-.97,4.9,4.9,0,0,1,3.883,1.291c1.151,1.346.568,3.246-.186,4.63a22.627,22.627,0,0,1-3.019,4.1,55.023,55.023,0,0,1-7.6,6.809q-1.017.786-2.042,1.561c-.135.1,0,.335.135.231a83.811,83.811,0,0,0,7.842-6.48,33.372,33.372,0,0,0,3.369-3.777,11.331,11.331,0,0,0,2.319-4.306A3.273,3.273,0,0,0,344,243.684a6.9,6.9,0,0,0-4.128-.665,19.871,19.871,0,0,0-9.336,3.561,49.74,49.74,0,0,0-7.969,7.149c-1.228,1.289-2.423,2.619-3.715,3.844a9.259,9.259,0,0,1-4.458,2.614,4.52,4.52,0,0,1-4.341-1.34,6.073,6.073,0,0,1-1.419-3.918,10.26,10.26,0,0,1,1.419-4.894,42.438,42.438,0,0,1,2.844-4.435,81.139,81.139,0,0,1,6.747-8.258c2.4-2.588,4.943-5.04,7.578-7.386q.97-.864,1.957-1.71c.131-.112-.059-.3-.189-.189" transform="translate(-242.448 -179.278)" fill="#fff"/><path d="M450.666,334.058a21.533,21.533,0,0,1,12.679-9.719c1.16-.336,2.336-.621,3.477-1.019a11.566,11.566,0,0,0,3.078-1.551,11.684,11.684,0,0,0,2.3-2.277,25.627,25.627,0,0,0,2.116-3.432c.7-1.275,1.381-2.558,2.1-3.822a.134.134,0,0,0-.231-.135c-.634,1.116-1.24,2.247-1.855,3.374a35.511,35.511,0,0,1-1.865,3.2,12.4,12.4,0,0,1-2.282,2.534,10.672,10.672,0,0,1-3.167,1.755c-2.15.786-4.412,1.183-6.518,2.1a21.765,21.765,0,0,0-5.342,3.342,22.882,22.882,0,0,0-4.717,5.511c-.09.147.141.281.231.135" transform="translate(-354.126 -245.33)" fill="#fff"/><path d="M438.692,228.237c-1.759,1.653-3.894,3.886-3.1,6.542a4.443,4.443,0,0,0,2.345,2.52,11.724,11.724,0,0,0,3.681,1.18,22.528,22.528,0,0,0,8.185-.53,73.117,73.117,0,0,1,8.751-1.809c1.395-.127,3.126-.094,4.244.879a6.68,6.68,0,0,1,1.583,3.321.134.134,0,0,0,.258-.071,9.032,9.032,0,0,0-1.2-2.947,4.055,4.055,0,0,0-2.8-1.43,13.133,13.133,0,0,0-4.01.25c-1.447.254-2.875.6-4.3.944a34.849,34.849,0,0,1-8.364,1.307,14.206,14.206,0,0,1-3.981-.555,7.605,7.605,0,0,1-3.361-1.826,3.755,3.755,0,0,1-.557-4.069,10.524,10.524,0,0,1,2.817-3.519c.125-.118-.064-.307-.189-.189" transform="translate(-342.338 -179.416)" fill="#fff"/><path d="M286.325,387.757a23.182,23.182,0,0,1,3.636-.788,9.645,9.645,0,0,1,3.362.064A5.312,5.312,0,0,1,296,388.457a13.2,13.2,0,0,1,1.615,2.173,18.427,18.427,0,0,1,1.353,2.509c.068.158.3.022.231-.135a18.11,18.11,0,0,0-1.251-2.346,14.977,14.977,0,0,0-1.634-2.257c-1.486-1.632-3.782-1.961-5.876-1.754a22.642,22.642,0,0,0-4.183.852.134.134,0,0,0,.071.257" transform="translate(-224.985 -303.947)" fill="#fff"/><path d="M490.086,395.922a19.173,19.173,0,0,1,9.851-5.021c1.23-.221,2.48-.3,3.718-.468a14.308,14.308,0,0,0,3.9-.959c.157-.069.021-.3-.135-.231-2.322,1.019-4.925.95-7.384,1.37a19.419,19.419,0,0,0-10.142,5.121c-.124.119.065.308.189.189" transform="translate(-385.136 -306.021)" fill="#fff"/><path d="M180.3,385.573c1.6-.051,3.216,0,4.82,0q4.767.023,9.533.058l10.2.072q3.473.025,6.947.046a15.269,15.269,0,0,0,3.123-.215,5.093,5.093,0,0,0,3.427-2.239,27.081,27.081,0,0,0,1.327-3.39,4.489,4.489,0,0,1,2.3-2.481,11.184,11.184,0,0,1,4.126-.518,8.675,8.675,0,0,1,4.07.623,4.968,4.968,0,0,1,1.419,1.058,5.431,5.431,0,0,1,.9,1.523c.006.013.08.183.026.055.018.042.035.084.052.127.036.091.072.182.106.273.083.222.157.447.234.67.106.308.21.615.336.915a6.7,6.7,0,0,0,1.29,2.034,3.484,3.484,0,0,0,2.526,1.14c.272,0,.545,0,.817-.005l7.748-.054,10.239-.072,6.5-.046.328,0a.975.975,0,0,0,0-1.948l-4.685.033-9.909.069-8.89.062c-.718.005-1.438.019-2.156.015h-.061l-.139,0c-.156,0,.139.034-.01,0-.1-.024-.2-.05-.3-.083.169.057-.143-.078-.2-.111s-.258-.187-.12-.075a3.351,3.351,0,0,1-.256-.234c-.071-.071-.137-.147-.2-.222-.029-.032-.055-.065-.082-.1.132.161-.036-.05-.05-.07a6.329,6.329,0,0,1-.54-.929c-.03-.062-.056-.126-.086-.188-.071-.144.085.241.031.073-.019-.061-.046-.122-.068-.182a15.864,15.864,0,0,0-1.3-3.131,6.7,6.7,0,0,0-3.232-2.592,11.609,11.609,0,0,0-4.487-.57,13.354,13.354,0,0,0-4.412.556,6.088,6.088,0,0,0-3.144,2.621,24.39,24.39,0,0,0-1.406,3.535,3.21,3.21,0,0,1-.9,1.3,3.788,3.788,0,0,1-1.561.659,9.218,9.218,0,0,1-2,.175c-1.84,0-3.681-.02-5.521-.033l-9.8-.069q-5.034-.035-10.069-.065c-2.1-.012-4.206-.031-6.309-.021-.176,0-.352,0-.528.006-1.25.039-1.256,1.987,0,1.948" transform="translate(-141.013 -294.801)" fill="#b8c1ea"/><path d="M635.547,280.007a.906.906,0,1,1-.906-.906.906.906,0,0,1,.906.906" transform="translate(-498.256 -219.435)" fill="#dadef1"/><path d="M505.92,161.983a.906.906,0,1,1-.906-.906.906.906,0,0,1,.906.906" transform="translate(-396.341 -126.642)" fill="#dadef1"/><path d="M606.443,106.371l-16.246-.032a1.719,1.719,0,0,1-1.716-1.722l.061-31.346a1.719,1.719,0,0,1,1.722-1.716l16.247.032a1.719,1.719,0,0,1,1.716,1.722l-.061,31.346a1.719,1.719,0,0,1-1.722,1.716" transform="translate(-462.677 -56.258)" fill="#26244a"/><rect width="26.238" height="17.926" transform="translate(126.653 44.681) rotate(-89.889)" fill="#fff"/><path d="M628.119,78.87l-4.5-.052a.179.179,0,0,1-.177-.181V78.6a.179.179,0,0,1,.181-.177l4.5.052a.179.179,0,0,1,.177.181v.039a.179.179,0,0,1-.181.177" transform="translate(-490.161 -61.655)" fill="#545dbf"/><path d="M630.781,214.612a1.694,1.694,0,1,1-1.675-1.714,1.695,1.695,0,0,1,1.675,1.714" transform="translate(-493.27 -167.385)" fill="#545dbf"/><path d="M617.961,137.033l-12.009-.023a.467.467,0,0,1-.466-.468l.017-8.559a.765.765,0,0,1,.766-.763l11.712.023a.467.467,0,0,1,.466.468l-.017,8.857a.468.468,0,0,1-.468.466" transform="translate(-476.046 -100.022)" fill="#f2a441"/><path d="M645.889,127.1q-.01,4.871-.019,9.743a.134.134,0,0,0,.267,0q.01-4.871.019-9.743a.134.134,0,0,0-.267,0" transform="translate(-507.797 -99.829)" fill="#26244a"/><rect width="1.802" height="1.802" transform="matrix(0.002, -1, 1, 0.002, 132.88, 29.004)" fill="#dadef1"/><rect width="1.802" height="1.802" transform="matrix(0.002, -1, 1, 0.002, 139.674, 37.007)" fill="#dadef1"/><path d="M625.906,151.277a4.513,4.513,0,1,1-5.419-3.372,4.513,4.513,0,0,1,5.419,3.372" transform="translate(-485.097 -116.193)" fill="#5bc55c"/><path d="M627.342,162.594l1.32,1.469a.539.539,0,0,0,.756,0l2.021-2.193.286-.31a.534.534,0,0,0-.756-.756L628.948,163l-.286.31h.756l-1.32-1.469a.535.535,0,1,0-.756.756" transform="translate(-493.11 -126.308)" fill="#fff"/><path d="M609.28,111.687h11.434a.134.134,0,0,0,0-.267H609.28a.134.134,0,0,0,0,.267" transform="translate(-478.928 -87.601)" fill="#26244a"/><path d="M627.639,105.546h3.584a.134.134,0,0,0,0-.267h-3.584a.134.134,0,0,0,0,.267" transform="translate(-493.362 -82.773)" fill="#26244a"/><path d="M247.165,112.581a2.325,2.325,0,0,0-.251,2.864,2.44,2.44,0,0,0,1.125.945,1.949,1.949,0,0,0,.333.1l2.151.463a.535.535,0,0,0,.648-.536l-.036-1.569c0-.148-.016-.432-.033-.687a2.374,2.374,0,0,0-.493-1.329l-.007-.009a2.3,2.3,0,0,0-3.438-.24m2.429,2.249a.985.985,0,0,1-1.658-.211.975.975,0,0,1,.09-1.032,1,1,0,0,1,1.569,1.243" transform="translate(-193.833 -87.994)" fill="#dadef1"/><path d="M665.232,265.507a3.009,3.009,0,0,0-2.585,2.676,3.159,3.159,0,0,0,.362,1.866,2.52,2.52,0,0,0,.256.368l1.786,2.218a.693.693,0,0,0,1.088-.011l1.242-1.607c.118-.152.336-.449.526-.717a3.07,3.07,0,0,0,.587-1.739s0-.01,0-.014a2.98,2.98,0,0,0-3.261-3.04m.611,4.239a1.3,1.3,0,1,1,.931-.965,1.274,1.274,0,0,1-.931.965" transform="translate(-520.972 -208.733)" fill="#dadef1"/><path d="M685.434,106.585a1.282,1.282,0,0,0-.519-1.809,1.817,1.817,0,0,0-1.981.377,1.192,1.192,0,0,0-.367-1.745,1.94,1.94,0,0,0-1.945.146,5.714,5.714,0,0,0-1.428,1.454.784.784,0,0,0-.745-.757,1.333,1.333,0,0,0-1.02.5,6.549,6.549,0,0,0-1.163,1.917Z" transform="translate(-531.694 -81.144)" fill="#b8c1ea"/><path d="M493.647,74.756a1.283,1.283,0,0,0-.519-1.809,1.816,1.816,0,0,0-1.981.377,1.192,1.192,0,0,0-.367-1.745,1.94,1.94,0,0,0-1.945.146,5.713,5.713,0,0,0-1.428,1.454.784.784,0,0,0-.745-.757,1.333,1.333,0,0,0-1.02.5,6.546,6.546,0,0,0-1.163,1.917Z" transform="translate(-380.907 -56.12)" fill="#dadef1"/><path d="M123.157,49.649a1.283,1.283,0,0,0-.519-1.809,1.817,1.817,0,0,0-1.981.377,1.192,1.192,0,0,0-.367-1.745,1.94,1.94,0,0,0-1.945.146,5.713,5.713,0,0,0-1.428,1.454.784.784,0,0,0-.745-.757,1.333,1.333,0,0,0-1.02.5,6.553,6.553,0,0,0-1.163,1.917Z" transform="translate(-89.62 -36.38)" fill="#f5f5f5"/><path d="M588.31,42.927a1.283,1.283,0,0,0-.519-1.809,1.817,1.817,0,0,0-1.981.377,1.192,1.192,0,0,0-.367-1.745,1.94,1.94,0,0,0-1.945.146,5.717,5.717,0,0,0-1.428,1.454.784.784,0,0,0-.745-.757,1.333,1.333,0,0,0-1.02.5,6.547,6.547,0,0,0-1.163,1.917Z" transform="translate(-455.333 -31.095)" fill="#f5f5f5"/><path d="M407.993,44.616a1.282,1.282,0,0,0-.519-1.809,1.816,1.816,0,0,0-1.981.377,1.192,1.192,0,0,0-.367-1.745,1.939,1.939,0,0,0-1.945.146,5.708,5.708,0,0,0-1.428,1.454.784.784,0,0,0-.745-.757,1.333,1.333,0,0,0-1.02.5,6.547,6.547,0,0,0-1.163,1.917Z" transform="translate(-313.564 -32.423)" fill="#f5f5f5"/><path d="M511.9,199.606a1.283,1.283,0,0,0-.519-1.809,1.816,1.816,0,0,0-1.981.377,1.192,1.192,0,0,0-.367-1.745,1.94,1.94,0,0,0-1.945.146,5.713,5.713,0,0,0-1.428,1.454.784.784,0,0,0-.745-.757,1.333,1.333,0,0,0-1.02.5,6.548,6.548,0,0,0-1.163,1.917Z" transform="translate(-395.255 -154.279)" fill="#f5f5f5"/><path d="M233.682,67.931a1.282,1.282,0,0,0-.519-1.809,1.817,1.817,0,0,0-1.981.377,1.192,1.192,0,0,0-.367-1.745,1.939,1.939,0,0,0-1.945.146,5.709,5.709,0,0,0-1.428,1.454.784.784,0,0,0-.745-.757,1.333,1.333,0,0,0-1.02.5,6.548,6.548,0,0,0-1.163,1.917Z" transform="translate(-176.517 -50.754)" fill="#b8c1ea"/><path d="M45.855,109.905a1.282,1.282,0,0,0-.519-1.809,1.816,1.816,0,0,0-1.981.377,1.192,1.192,0,0,0-.367-1.745,1.94,1.94,0,0,0-1.945.146,5.713,5.713,0,0,0-1.428,1.454.784.784,0,0,0-.745-.757,1.333,1.333,0,0,0-1.02.5,6.548,6.548,0,0,0-1.163,1.917Z" transform="translate(-28.843 -83.754)" fill="#b8c1ea"/><path d="M320.559,42.544a4.566,4.566,0,0,0-2.754,4.93,4.792,4.792,0,0,0,1.256,2.6,3.843,3.843,0,0,0,.518.441l3.481,2.561a1.051,1.051,0,0,0,1.591-.438l1.2-2.84c.113-.268.318-.788.493-1.257a4.659,4.659,0,0,0,.186-2.779l-.005-.021a4.523,4.523,0,0,0-5.965-3.2m2.541,5.982a1.967,1.967,0,1,1,.991-1.777,1.934,1.934,0,0,1-.991,1.777" transform="translate(-249.825 -33.215)" fill="#4092e2"/><path d="M489.6,361.755h-9.552a.467.467,0,0,1-.467-.467v-6.7a.765.765,0,0,1,.765-.765H489.6a.467.467,0,0,1,.467.467v7a.467.467,0,0,1-.467.467" transform="translate(-377.057 -278.183)" fill="#f2a441"/><path d="M512.184,353.578v7.893a.134.134,0,0,0,.267,0v-7.893a.134.134,0,0,0-.267,0" transform="translate(-402.69 -277.89)" fill="#26244a"/><rect width="1.46" height="1.46" transform="translate(105.299 75.639)" fill="#dadef1"/><rect width="1.46" height="1.46" transform="translate(110.816 82.112)" fill="#dadef1"/><path d="M479.09,361.548l-.009-7.5a.829.829,0,0,1,.828-.828l10.16.023,0,1-9.985-.022.009,7.331Z" transform="translate(-377.057 -278.099)" fill="#26244a"/><path d="M480.5,405.8H462.454a.467.467,0,0,1-.467-.467V392.2a.765.765,0,0,1,.765-.765H480.5a.467.467,0,0,1,.467.467v13.426a.467.467,0,0,1-.467.467" transform="translate(-363.224 -307.757)" fill="#f2a441"/><path d="M521.514,391.381V405.67a.134.134,0,0,0,.267,0V391.381a.134.134,0,0,0-.267,0" transform="translate(-410.026 -307.611)" fill="#26244a"/><rect width="2.643" height="2.643" transform="translate(103.787 83.681)" fill="#dadef1"/><rect width="2.643" height="2.643" transform="translate(113.774 95.398)" fill="#dadef1"/><path d="M461.5,405.424l-.016-13.584a1.1,1.1,0,0,1,1.093-1.094l18.392.041,0,1-18.391-.041a.093.093,0,0,0-.092.093l.016,13.583Z" transform="translate(-363.224 -307.606)" fill="#26244a"/><path d="M36.182,458.608H180.843a.134.134,0,0,0,0-.267H36.182a.134.134,0,0,0,0,.267" transform="translate(-28.346 -360.358)" fill="#26244a"/></g></g></g></g></svg>