<svg xmlns="http://www.w3.org/2000/svg" width="92" height="92" viewBox="0 0 92 92"><g transform="translate(1.484 1.484)"><g transform="translate(60.839)"><path d="M56.839,1V12.871H42V1Z" transform="translate(-42 -1)" fill="#f0d0b4"/></g><g transform="translate(13.355)"><path d="M24.839,1V12.871H10V1Z" transform="translate(-10 -1)" fill="#f0d0b4"/></g><g transform="translate(37.097)"><path d="M40.839,1V12.871H26V1Z" transform="translate(-26 -1)" fill="#f0d0b4"/></g><g transform="translate(5.935 20.774)"><path d="M82.161,71.387H5V20.935A5.936,5.936,0,0,1,10.935,15h65.29a5.936,5.936,0,0,1,5.935,5.935Z" transform="translate(-5 -15)" fill="#ccd1d9"/></g><g transform="translate(11.871 26.71)"><path d="M72.806,63.516H10.484A1.484,1.484,0,0,1,9,62.032V20.484A1.484,1.484,0,0,1,10.484,19H72.806a1.484,1.484,0,0,1,1.484,1.484V62.032A1.484,1.484,0,0,1,72.806,63.516Z" transform="translate(-9 -19)" fill="#69d6f4"/></g><g transform="translate(0 77.161)"><path d="M87.065,53H3.968a2.9,2.9,0,0,0-2.092.875A2.9,2.9,0,0,0,1,55.968a8.91,8.91,0,0,0,8.9,8.9H81.129a8.917,8.917,0,0,0,8.9-8.9A2.976,2.976,0,0,0,87.065,53Z" transform="translate(-1 -53)" fill="#969faa"/></g><g transform="translate(74.194 83.097)"><path d="M51,57h5.935v5.935H51Z" transform="translate(-51 -57)" fill="#ff826e"/></g><g transform="translate(62.323 83.097)"><path d="M43,57h5.935v5.935H43Z" transform="translate(-43 -57)" fill="#ff826e"/></g><g transform="translate(34.129 77.161)"><path d="M44.774,53v2.968a2.976,2.976,0,0,1-2.968,2.968H26.968A2.976,2.976,0,0,1,24,55.968V53Z" transform="translate(-24 -53)" fill="#ff826e"/></g><g transform="translate(20.774 43.032)"><path d="M62.484,49.29v8.9H52.913v-.045A14.839,14.839,0,1,0,23.9,53.742a14.7,14.7,0,0,0,.683,4.452H15v-8.9l3.769-1.2a21.559,21.559,0,0,1,1.84-4.481l-1.81-3.5L25.105,33.8l3.5,1.81a21.56,21.56,0,0,1,4.481-1.84L34.29,30h8.9l1.2,3.769a21.559,21.559,0,0,1,4.481,1.84l3.5-1.81,6.306,6.306-1.81,3.5a21.56,21.56,0,0,1,1.84,4.481Z" transform="translate(-15 -30)" fill="#ffc729"/></g><g transform="translate(29.677 51.935)"><path d="M50.677,50.839a14.874,14.874,0,0,1-.668,4.407v.045H39.756a5.86,5.86,0,0,0,2.018-4.452,5.935,5.935,0,0,0-11.871,0,5.86,5.86,0,0,0,2.018,4.452H21.683a14.839,14.839,0,1,1,28.995-4.452Z" transform="translate(-21 -36)" fill="#fcd770"/></g></g><path d="M87.548,70.387H86.065V21.419A7.428,7.428,0,0,0,78.645,14H74.194v2.968h4.452A4.457,4.457,0,0,1,83.1,21.419V70.387H8.9V21.419a4.457,4.457,0,0,1,4.452-4.452h4.452V14H13.355a7.428,7.428,0,0,0-7.419,7.419V70.387H4.452A4.457,4.457,0,0,0,0,74.839,10.4,10.4,0,0,0,10.387,85.226H81.613A10.4,10.4,0,0,0,92,74.839,4.457,4.457,0,0,0,87.548,70.387ZM37.1,73.355H54.9v1.484a1.484,1.484,0,0,1-1.484,1.484H38.581A1.484,1.484,0,0,1,37.1,74.839Zm31.161,8.9H65.29V79.29h2.968Zm11.871,0H77.161V79.29h2.968Zm2.968-.15V76.323h-8.9v5.935H71.226V76.323h-8.9v5.935H10.387a7.428,7.428,0,0,1-7.419-7.419,1.484,1.484,0,0,1,1.484-1.484H34.129v1.484a4.457,4.457,0,0,0,4.452,4.452H53.419a4.457,4.457,0,0,0,4.452-4.452V73.355H87.548a1.484,1.484,0,0,1,1.484,1.484A7.433,7.433,0,0,1,83.1,82.108Z" transform="translate(0 6.774)"/><path d="M28.774,20.968V18H10.968A2.971,2.971,0,0,0,8,20.968V62.516a2.971,2.971,0,0,0,2.968,2.968H73.29a2.971,2.971,0,0,0,2.968-2.968V20.968A2.971,2.971,0,0,0,73.29,18H55.484v2.968H73.29V62.516H67.355v-8.5l-4.057-1.3a22.348,22.348,0,0,0-1.364-3.308l1.947-3.782L56.055,37.8l-3.782,1.947a22.414,22.414,0,0,0-3.308-1.364l-1.3-4.06H36.594l-1.3,4.057a22.347,22.347,0,0,0-3.308,1.364L28.2,37.8l-7.826,7.826L22.325,49.4a22.414,22.414,0,0,0-1.364,3.308l-4.058,1.3v8.5H10.968V20.968Zm0,38.581a13.356,13.356,0,1,1,26.34,2.968H48.924a7.419,7.419,0,1,0-13.589,0H29.145A13.365,13.365,0,0,1,28.774,59.548Zm8.9,0a4.452,4.452,0,1,1,7.734,2.968H38.845a4.437,4.437,0,0,1-1.168-2.968Zm-17.806-3.37,3.5-1.119.217-.767a19.127,19.127,0,0,1,1.711-4.15l.389-.7-1.677-3.256,4.766-4.766L32.028,43.1l.7-.389A19.127,19.127,0,0,1,36.875,41l.767-.217,1.117-3.495H45.5l1.119,3.5.767.217a19.127,19.127,0,0,1,4.15,1.711l.7.389,3.256-1.677,4.766,4.766-1.677,3.256.389.7a19.127,19.127,0,0,1,1.711,4.15l.217.767,3.5,1.117v6.338H58.171a16.323,16.323,0,1,0-32.084,0H19.871Z" transform="translate(3.871 8.71)"/><path d="M13,4h5.935V6.968H13Z" transform="translate(6.29 1.935)"/><path d="M29,4h5.935V6.968H29Z" transform="translate(14.032 1.935)"/><path d="M45,4h5.935V6.968H45Z" transform="translate(21.774 1.935)"/><path d="M32.419,40.065h2.968V14.839h7.419V0H25V14.839h7.419Zm-4.452-37.1H39.839v8.9H27.968Z" transform="translate(12.097)"/><path d="M50.839,20.774H36v19.29h2.968V23.742H53.806v-8.9h7.419V0H43.419V14.839h7.419ZM46.387,2.968H58.258v8.9H46.387Z" transform="translate(17.419)"/><path d="M16.419,23.742H31.258V40.065h2.968V20.774H19.387V14.839h7.419V0H9V14.839h7.419ZM11.968,2.968H23.839v8.9H11.968Z" transform="translate(4.355)"/></svg>