<svg xmlns="http://www.w3.org/2000/svg" width="106" height="106" viewBox="0 0 106 106"><g transform="translate(-1 -1)"><path d="M22,2H90.387V104.581H22Z" transform="translate(14.903 0.71)" fill="#e2e7f6"/><path d="M22,2H83.548V97.742H22Z" transform="translate(14.903 0.71)" fill="#f2f2f2"/><path d="M32,46H42.258V66.516H32Z" transform="translate(22 31.935)" fill="#5e87ca"/><path d="M37.129,59.677V46H32V61.387h3.419A1.71,1.71,0,0,0,37.129,59.677Z" transform="translate(22 31.935)" fill="#78a0d4"/><path d="M52,34H62.258V75.032H52Z" transform="translate(36.194 23.419)" fill="#3b5892"/><path d="M57.129,68.194V34H52V69.9h3.419A1.71,1.71,0,0,0,57.129,68.194Z" transform="translate(36.194 23.419)" fill="#4c6cb5"/><path d="M42,42H52.258V69.355H42Z" transform="translate(29.097 29.097)" fill="#4c6cb5"/><path d="M47.129,62.516V42H42V64.226h3.419A1.71,1.71,0,0,0,47.129,62.516Z" transform="translate(29.097 29.097)" fill="#5e87ca"/><path d="M35.774,34.516l8.842-8.842A16.509,16.509,0,0,0,49.452,14H5A16.509,16.509,0,0,0,9.835,25.674l8.842,8.842Z" transform="translate(2.839 9.226)" fill="#f6b940"/><path d="M37.9,26h-17.1l-8.227,8.227A36.122,36.122,0,0,0,9.607,81.943a14.522,14.522,0,0,0,11.461,5.605H37.642a14.522,14.522,0,0,0,11.455-5.6,36.113,36.113,0,0,0-2.966-47.716Z" transform="translate(0.71 17.742)" fill="#f4a93c"/><circle cx="19" cy="19" r="19" transform="translate(11 59)" fill="#f9d266"/><path d="M41.2,52.094a18.775,18.775,0,0,0-8.732-15.861A18.788,18.788,0,0,0,15.735,69.667,18.767,18.767,0,0,0,41.2,52.094Z" transform="translate(4.256 24.131)" fill="#fce797"/><path d="M27.677,48.258v-1.71a5.129,5.129,0,0,0-5.129-5.129V38H19.129v3.419A5.129,5.129,0,0,0,14,46.548v1.71a5.129,5.129,0,0,0,5.129,5.129v5.129a1.71,1.71,0,0,1-1.71-1.71V55.1H14v1.71a5.129,5.129,0,0,0,5.129,5.129v3.419h3.419V61.935a5.129,5.129,0,0,0,5.129-5.129V55.1a5.129,5.129,0,0,0-5.129-5.129V44.839a1.71,1.71,0,0,1,1.71,1.71v1.71ZM24.258,55.1v1.71a1.71,1.71,0,0,1-1.71,1.71V53.387A1.71,1.71,0,0,1,24.258,55.1Zm-5.129-5.129a1.71,1.71,0,0,1-1.71-1.71v-1.71a1.71,1.71,0,0,1,1.71-1.71Z" transform="translate(9.226 26.258)" fill="#f4a93c"/><path d="M32,38.935l17.1-17.1,6.839,6.839L66.194,18.419,62.774,15H76.452V28.677l-3.419-3.419L57.645,40.645l-6.839-6.839L38.839,45.774Z" transform="translate(22 9.935)" fill="#6bc13b"/><g transform="translate(42.032 7.839)"><path d="M25,5H45.516V8.419H25Z" transform="translate(-25 -5)" fill="#c8cded"/><path d="M39,5h3.419V8.419H39Z" transform="translate(-15.065 -5)" fill="#c8cded"/><path d="M25,9H45.516v3.419H25Z" transform="translate(-25 -2.161)" fill="#c8cded"/><path d="M39,9h3.419v3.419H39Z" transform="translate(-15.065 -2.161)" fill="#c8cded"/></g><path d="M19.3,30.19A27.367,27.367,0,0,1,16.419,18H13a30.837,30.837,0,0,0,3.219,13.677H20.04Z" transform="translate(8.516 12.064)" fill="#f9d266"/><path d="M18.882,31.677H22.7A30.837,30.837,0,0,0,25.922,18H22.5a27.367,27.367,0,0,1-2.879,12.19Z" transform="translate(12.69 12.064)" fill="#f9d266"/><path d="M47.032,54.516A20.516,20.516,0,1,0,26.516,75.032,20.516,20.516,0,0,0,47.032,54.516Zm-20.516,17.1a17.1,17.1,0,1,1,17.1-17.1A17.1,17.1,0,0,1,26.516,71.613Z" transform="translate(3.548 23.419)"/><path d="M22.548,41.419V38H19.129v3.419A5.129,5.129,0,0,0,14,46.548v1.71a5.129,5.129,0,0,0,5.129,5.129v5.129a1.71,1.71,0,0,1-1.71-1.71V55.1H14v1.71a5.129,5.129,0,0,0,5.129,5.129v3.419h3.419V61.935a5.129,5.129,0,0,0,5.129-5.129V55.1a5.129,5.129,0,0,0-5.129-5.129V44.839a1.71,1.71,0,0,1,1.71,1.71v1.71h3.419v-1.71A5.129,5.129,0,0,0,22.548,41.419ZM24.258,55.1v1.71a1.71,1.71,0,0,1-1.71,1.71V53.387A1.71,1.71,0,0,1,24.258,55.1Zm-5.129-5.129a1.71,1.71,0,0,1-1.71-1.71v-1.71a1.71,1.71,0,0,1,1.71-1.71Z" transform="translate(9.226 26.258)"/><path d="M105.29,1H36.9a1.71,1.71,0,0,0-1.71,1.71V21.516H7.839a1.71,1.71,0,0,0-1.71,1.71A18.094,18.094,0,0,0,11.467,36.11L19.1,43.742,12.08,50.76A37.584,37.584,0,0,0,1,77.51a38.006,38.006,0,0,0,7.969,23.224A16.117,16.117,0,0,0,21.778,107H105.29a1.71,1.71,0,0,0,1.71-1.71V2.71A1.71,1.71,0,0,0,105.29,1ZM13.884,33.692a14.691,14.691,0,0,1-4.238-8.757H50.483a14.691,14.691,0,0,1-4.238,8.757l-8.34,8.34H36.177a30.855,30.855,0,0,0,2.436-11.968H35.194a27.4,27.4,0,0,1-2.782,11.968H27.719a27.37,27.37,0,0,1-2.783-11.968H21.516a30.855,30.855,0,0,0,2.436,11.968H22.224ZM36.9,103.581H21.778a12.723,12.723,0,0,1-10.109-4.944A34.577,34.577,0,0,1,4.419,77.51,34.194,34.194,0,0,1,14.507,53.178l7.717-7.726H37.905l7.726,7.726A34.194,34.194,0,0,1,55.71,77.51a34.576,34.576,0,0,1-7.249,21.126,12.723,12.723,0,0,1-10.109,4.944ZM59.04,79.645h3.508v17.1H55.71v-3.58a38.042,38.042,0,0,0,3.33-13.517Zm44.54,23.935H48.3a16.307,16.307,0,0,0,2.857-2.847C51.6,100.171,52,99.582,52.4,99a1.694,1.694,0,0,0,1.6,1.166H64.258a1.71,1.71,0,0,0,1.71-1.71V77.935a1.71,1.71,0,0,0-1.71-1.71H59.066A37.533,37.533,0,0,0,48.049,50.76L41.03,43.742l7.632-7.632A18.094,18.094,0,0,0,54,23.226a1.71,1.71,0,0,0-1.71-1.71H38.613V4.419h64.968Z" transform="translate(0)"/><path d="M62.968,33H52.71A1.71,1.71,0,0,0,51,34.71V75.742a1.71,1.71,0,0,0,1.71,1.71H62.968a1.71,1.71,0,0,0,1.71-1.71V34.71A1.71,1.71,0,0,0,62.968,33Zm-1.71,41.032H54.419V36.419h6.839Z" transform="translate(35.484 22.71)"/><path d="M52.968,41H42.71A1.71,1.71,0,0,0,41,42.71V70.064a1.71,1.71,0,0,0,1.71,1.71H52.968a1.71,1.71,0,0,0,1.71-1.71V42.71A1.71,1.71,0,0,0,52.968,41Zm-1.71,27.355H44.419V44.419h6.839Z" transform="translate(28.387 28.387)"/><path d="M31.5,40.854l6.839,6.839a1.71,1.71,0,0,0,2.417,0L51.516,36.934l5.63,5.63a1.71,1.71,0,0,0,2.417,0L73.742,28.385,75.952,30.6a1.71,1.71,0,0,0,2.918-1.209V15.71A1.71,1.71,0,0,0,77.161,14H63.484a1.71,1.71,0,0,0-1.209,2.918l2.211,2.211L56.645,26.97l-5.63-5.63a1.71,1.71,0,0,0-2.417,0l-17.1,17.1a1.71,1.71,0,0,0,0,2.417ZM49.806,24.966l5.63,5.63a1.71,1.71,0,0,0,2.417,0L68.112,20.338a1.71,1.71,0,0,0,0-2.417l-.5-.5h7.841V25.26l-.5-.5a1.71,1.71,0,0,0-2.417,0L58.355,38.937l-5.63-5.63a1.71,1.71,0,0,0-2.417,0L39.548,44.066l-4.421-4.421Z" transform="translate(21.29 9.226)"/><path d="M25,5H45.516V8.419H25Z" transform="translate(17.032 2.839)"/><path d="M39,5h3.419V8.419H39Z" transform="translate(26.968 2.839)"/><path d="M25,9H45.516v3.419H25Z" transform="translate(17.032 5.677)"/><path d="M39,9h3.419v3.419H39Z" transform="translate(26.968 5.677)"/></g></svg>