<svg xmlns="http://www.w3.org/2000/svg" width="81.319" height="85" viewBox="0 0 81.319 85"><g transform="translate(-11.086)"><g transform="translate(37.988 1.245)"><path d="M200.645,10.965v41.56H173.13V10.965A3.465,3.465,0,0,1,176.595,7.5h20.586A3.465,3.465,0,0,1,200.645,10.965Z" transform="translate(-173.13 -7.5)" fill="#a79ba7"/><path d="M200.645,10.965v9.409H173.13V10.965A3.465,3.465,0,0,1,176.595,7.5h20.586a3.465,3.465,0,0,1,3.465,3.465Z" transform="translate(-173.13 -7.5)" fill="#918291"/><path d="M284.641,7.5H278a3.465,3.465,0,0,1,3.465,3.465v41.56h6.641V10.965A3.465,3.465,0,0,0,284.641,7.5Z" transform="translate(-260.59 -7.5)" fill="#918291"/><path d="M0,0H6.81V7.081H0Z" transform="translate(11.564 33.731) rotate(90)" fill="#d8ecfe"/><path d="M219.035,210.679h3.944v6.81h-3.944Z" transform="translate(-211.414 -176.948)" fill="#c4e2ff"/><path d="M0,0H6.81V7.081H0Z" transform="translate(23.032 33.731) rotate(90)" fill="#d8ecfe"/><path d="M288.112,210.679h3.944v6.81h-3.944Z" transform="translate(-269.023 -176.948)" fill="#c4e2ff"/><g transform="translate(4.483 17.198)"><path d="M0,0H12.1V18.549H0Z" transform="translate(18.549 0) rotate(90)" fill="#bbec6c"/><path d="M0,0H12.1V18.549H0Z" transform="translate(18.549 0) rotate(90)" fill="#bbec6c"/><path d="M298.87,111.09h2.158v12.1H298.87Z" transform="translate(-282.478 -111.09)" fill="#bbec6c"/></g><path d="M298.87,111.09h2.158v12.1H298.87Z" transform="translate(-277.995 -93.892)" fill="#a2e62e"/><path d="M173.134,278.7l4.553,6.5a9.078,9.078,0,0,1,1.643,5.208v22.3a3.476,3.476,0,0,0,3.476,3.476h8.171a3.476,3.476,0,0,0,3.476-3.476v-22.3A9.078,9.078,0,0,1,196.1,285.2l4.553-6.5H173.134Z" transform="translate(-173.133 -233.677)" fill="#918291"/><path d="M250.279,278.7l-4.553,6.5a9.078,9.078,0,0,0-1.643,5.208v22.3a3.476,3.476,0,0,1-3.476,3.476h6.641a3.476,3.476,0,0,0,3.476-3.476v-22.3a9.077,9.077,0,0,1,1.643-5.208l4.553-6.5Z" transform="translate(-229.405 -233.678)" fill="#7a6d79"/><path d="M284.641,7.5H278a3.465,3.465,0,0,1,3.465,3.465v9.409h6.641V10.965A3.465,3.465,0,0,0,284.641,7.5Z" transform="translate(-260.59 -7.5)" fill="#7a6d79"/></g><g transform="translate(11.086 0)"><path d="M193.88,212.48h7.081a1.245,1.245,0,0,0,1.245-1.245v-6.81a1.245,1.245,0,0,0-1.245-1.245H193.88a1.245,1.245,0,0,0-1.245,1.245v6.81A1.245,1.245,0,0,0,193.88,212.48Zm1.245-6.81h4.591v4.32h-4.591Z" transform="translate(-162.495 -169.448)"/><path d="M270.038,203.179h-7.081a1.245,1.245,0,0,0-1.245,1.245v6.81a1.245,1.245,0,0,0,1.245,1.245h7.081a1.245,1.245,0,0,0,1.245-1.245v-6.81A1.245,1.245,0,0,0,270.038,203.179Zm-1.245,6.81H264.2v-4.32h4.591Z" transform="translate(-220.104 -169.448)"/><path d="M193.88,118.181h18.549a1.245,1.245,0,0,0,1.245-1.245v-12.1a1.245,1.245,0,0,0-1.245-1.245h-9.667a1.245,1.245,0,0,0,0,2.49h8.422v9.611H195.125V106.08h1.8a1.245,1.245,0,0,0,0-2.49H193.88a1.245,1.245,0,0,0-1.245,1.245v12.1A1.245,1.245,0,0,0,193.88,118.181Z" transform="translate(-162.495 -86.392)"/><path d="M236.8,456.494a1.245,1.245,0,0,0,0,2.49h4.3a1.245,1.245,0,1,0,0-2.49Z" transform="translate(-198.286 -380.709)"/><path d="M91.16,6.437H66.748V4.71A4.715,4.715,0,0,0,62.039,0H41.453a4.715,4.715,0,0,0-4.71,4.71V6.437H12.331a1.245,1.245,0,0,0,0,2.49H36.743V46.27a1.262,1.262,0,0,0,.23.72l4.549,6.494a7.8,7.8,0,0,1,1.417,4.494v22.3A4.726,4.726,0,0,0,47.66,85h8.171a4.726,4.726,0,0,0,4.721-4.721V77.03a1.245,1.245,0,0,0-2.49,0v3.249a2.233,2.233,0,0,1-2.231,2.231H47.66a2.233,2.233,0,0,1-2.231-2.231v-22.3a10.274,10.274,0,0,0-1.868-5.923l-3.18-4.539H63.11l-3.18,4.54a10.274,10.274,0,0,0-1.868,5.923V71.2a1.245,1.245,0,0,0,2.49,0V57.977a7.8,7.8,0,0,1,1.417-4.494l4.549-6.494a1.262,1.262,0,0,0,.23-.72V8.927H91.16a1.245,1.245,0,0,0,0-2.49Zm-26.9,38.587H39.233V15.364H64.258Zm0-32.15H39.233V8.927h.631a4.2,4.2,0,0,1,3.3,1.622,1.245,1.245,0,1,0,1.971-1.522,6.706,6.706,0,0,0-5.273-2.59h-.631V4.71a2.218,2.218,0,0,1,2.22-2.22H62.039a2.218,2.218,0,0,1,2.22,2.22V6.437h-.631a6.706,6.706,0,0,0-5.273,2.59,1.245,1.245,0,1,0,1.971,1.522,4.2,4.2,0,0,1,3.3-1.622h.631Z" transform="translate(-11.086 0)"/></g></g></svg>