<svg xmlns="http://www.w3.org/2000/svg" width="92.303" height="92.303" viewBox="0 0 92.303 92.303"><g transform="translate(-0.529 -0.529)"><path d="M85.4,5.821a4.605,4.605,0,0,1,4.615,4.615V61.2A4.605,4.605,0,0,1,85.4,65.818H6.176c-2.719,0-5.347-2.38-5.347-5-.005-20.092-.035-35-.035-55" transform="translate(1.276 25.476)" fill="#e4eff8"/><path d="M89.724,61.044a4.605,4.605,0,0,1-4.615,4.615H5.882A5.624,5.624,0,0,1,.855,62.18a5.124,5.124,0,0,0,1.95.4H82.032a4.605,4.605,0,0,0,4.615-4.615V7.179a4.577,4.577,0,0,0-.213-1.325,4.59,4.59,0,0,1,3.29,4.4Z" transform="translate(1.57 25.635)" fill="#c4dcf0"/><path d="M.794,10.122a6.154,6.154,0,0,1,12.307,0V59.351a4.605,4.605,0,0,1-4.615,4.615H6.178A5.373,5.373,0,0,0,.794,69.35Z" transform="translate(1.274 16.56)" fill="#549ad4"/><path d="M13.1,58.906a4.605,4.605,0,0,1-4.615,4.615H6.178A5.373,5.373,0,0,0,.794,68.905V60.976A5.358,5.358,0,0,1,3.1,60.444H5.409a4.605,4.605,0,0,0,4.615-4.615V6.588a6.138,6.138,0,0,0-.55-2.527,6.131,6.131,0,0,1,3.627,5.6Z" transform="translate(1.274 17.005)" fill="#3588cb"/><path d="M15.943,13.66a3.077,3.077,0,1,1-3.077-3.077A3.077,3.077,0,0,1,15.943,13.66Z" transform="translate(44.583 48.405)" fill="#ff5151"/><path d="M40.89,19.254A18.461,18.461,0,1,1,22.429.794,18.461,18.461,0,0,1,40.89,19.254Z" transform="translate(16.56 1.274)" fill="#ffca28"/><path d="M19.108.794a18.461,18.461,0,0,0-14.449,7,18.444,18.444,0,0,1,25.822,25.99A18.455,18.455,0,0,0,19.108.794Z" transform="translate(19.881 1.274)" fill="#ecb200"/><path d="M12.768,11.543A3.077,3.077,0,1,1,9.691,8.467,3.077,3.077,0,0,1,12.768,11.543Z" transform="translate(29.298 38.214)" fill="#ff5151"/><path d="M14.238,7.408h6.154A1.535,1.535,0,0,1,21.93,8.947v4.615A1.535,1.535,0,0,1,20.392,15.1H14.238A1.535,1.535,0,0,1,12.7,13.562V8.947A1.535,1.535,0,0,1,14.238,7.408Z" transform="translate(58.595 33.119)" fill="#549ad4"/><path d="M14.238,7.408A1.535,1.535,0,0,0,12.7,8.947v4.615A1.535,1.535,0,0,0,14.238,15.1h6.154a1.535,1.535,0,0,0,1.538-1.538V12.024H17.315a1.535,1.535,0,0,1-1.538-1.538V7.408Z" transform="translate(58.595 33.119)" fill="#3588cb"/><path d="M13.494,2.618,28.878,10.31,13.494,16.463" transform="translate(62.417 10.056)" fill="#ff5151"/><g transform="translate(35.912 12.674)"><path d="M13.494,2.618V16.463l3.077-1.232V4.156Z" transform="translate(26.505 -2.618)" fill="#ff2929"/><path d="M11.869,10.614A3.07,3.07,0,1,0,15.883,14.1a3.057,3.057,0,0,1-4.014-3.485Z" transform="translate(8.671 35.88)" fill="#ff2929"/><path d="M8.694,8.5a3.07,3.07,0,1,0,4.014,3.485A3.057,3.057,0,0,1,8.694,8.5Z" transform="translate(-6.615 25.689)" fill="#ff2929"/></g><path d="M18.99,20.528a19.849,19.849,0,0,0,2.263,9.233H15.919V26.685a7.695,7.695,0,0,0-15.39,0V85.907a6.911,6.911,0,0,0,6.929,6.926H86.679a6.151,6.151,0,0,0,6.154-6.154V35.915a6.139,6.139,0,0,0-6.154-6.154H77.446v-2.2L91.868,21.79A1.538,1.538,0,0,0,91.982,19L77.445,11.722v-.427a1.538,1.538,0,1,0-3.077,0V29.762H56.716A19.994,19.994,0,1,0,18.99,20.528Zm56.9-20a1.538,1.538,0,0,0-1.52,1.556V3.63a1.539,1.539,0,0,0,3.077,0V2.086A1.538,1.538,0,0,0,75.889.529ZM38.995,3.609A16.919,16.919,0,1,1,22.067,20.528,16.925,16.925,0,0,1,38.995,3.609ZM67.578,6.752l1.088,1.091a1.541,1.541,0,0,0,2.181-2.178L69.757,4.574a1.465,1.465,0,0,0-1.074-.449A1.536,1.536,0,0,0,67.578,6.752Zm14.5-2.178L80.988,5.664A1.541,1.541,0,0,0,83.17,7.843L84.26,6.752a1.541,1.541,0,0,0-1.142-2.626,1.477,1.477,0,0,0-1.04.448ZM37.448,9.763V20.528a1.539,1.539,0,0,0,.456,1.091l4.609,4.609a1.538,1.538,0,0,0,2.181-2.169l-4.167-4.167V9.763a1.54,1.54,0,0,0-3.08,0Zm40,5.405,10.1,5.042-10.1,4.038ZM8.218,22.061a4.618,4.618,0,0,1,4.621,4.624V75.913A3.079,3.079,0,0,1,9.763,78.99h-2.3a6.914,6.914,0,0,0-3.849,1.151V26.685a4.608,4.608,0,0,1,4.609-4.624Zm7.7,10.778h7.307a20,20,0,0,0,31.528,0H74.369V39H72.837a3.068,3.068,0,0,0-3.08,3.077v4.609a1.542,1.542,0,1,0,0,3.08H72.75L60.593,58.688a4.6,4.6,0,0,0-6.214-.069L43.487,50.761a4.513,4.513,0,0,0,.117-1,4.617,4.617,0,1,0-9.233,0,4.473,4.473,0,0,0,.165,1.142L19.585,62.386a1.539,1.539,0,1,0,1.887,2.431L36.243,53.466a4.627,4.627,0,0,0,5.607-.084l11.042,7.959a5.039,5.039,0,0,0-.052.73,4.617,4.617,0,0,0,9.233,0,4.316,4.316,0,0,0-.047-.616L77.948,49.761h4.119a1.54,1.54,0,0,0,0-3.08V42.072A3.081,3.081,0,0,0,78.991,39H77.446V32.838H86.68a3.059,3.059,0,0,1,3.077,3.077V86.679a3.067,3.067,0,0,1-3.077,3.077H7.459a3.844,3.844,0,1,1,0-7.689h2.3a6.155,6.155,0,0,0,6.157-6.154ZM54.37,42.06a1.546,1.546,0,0,0-1.091,2.635L54.5,45.912l-1.223,1.223A1.538,1.538,0,0,0,55.461,49.3l1.217-1.217L57.9,49.3a1.534,1.534,0,1,0,2.169-2.169l-1.217-1.223,1.217-1.217a1.538,1.538,0,0,0-1.1-2.635,1.554,1.554,0,0,0-1.07.454l-1.223,1.223-1.217-1.223a1.5,1.5,0,0,0-1.091-.454Zm18.467.012H78.99v4.609H72.837ZM39,48.214a1.545,1.545,0,0,1,1.532,1.547A1.528,1.528,0,0,1,39,51.293a1.54,1.54,0,1,1,0-3.08Zm38.463,9.233a1.536,1.536,0,0,0-1.1,2.623l1.223,1.223-1.223,1.22a1.542,1.542,0,1,0,2.181,2.181l1.217-1.223,1.223,1.223a1.538,1.538,0,0,0,2.169-2.181l-1.208-1.22,1.22-1.223a1.537,1.537,0,0,0-1.136-2.623,1.5,1.5,0,0,0-1.046.454l-1.223,1.22L78.537,57.9a1.473,1.473,0,0,0-1.079-.454ZM57.447,60.524a1.54,1.54,0,1,1-1.532,1.547A1.543,1.543,0,0,1,57.447,60.524ZM28.205,66.668a1.538,1.538,0,0,0-.841.261l-4.609,3.077a1.541,1.541,0,1,0,1.7,2.569l3.759-2.512,3.771,2.512a1.538,1.538,0,0,0,1.7,0l3.759-2.512,3.762,2.512a1.539,1.539,0,0,0,1.713,0l3.759-2.512,3.759,2.512a1.541,1.541,0,1,0,1.7-2.569L47.534,66.93a1.539,1.539,0,0,0-1.7,0l-3.759,2.509L38.3,66.93a1.539,1.539,0,0,0-1.7,0l-3.759,2.509L29.068,66.93a1.538,1.538,0,0,0-.862-.261ZM66.68,72.834a1.538,1.538,0,1,0,0,3.077h1.538a1.538,1.538,0,1,0,0-3.077Zm7.692,0a1.538,1.538,0,1,0,0,3.077h1.538a1.538,1.538,0,1,0,0-3.077Zm7.692,0a1.538,1.538,0,1,0,0,3.077H83.6a1.538,1.538,0,1,0,0-3.077ZM28.205,74.369a1.538,1.538,0,0,0-.841.261L22.755,77.7a1.54,1.54,0,1,0,1.7,2.566l3.759-2.509,3.771,2.509a1.538,1.538,0,0,0,1.7,0l3.759-2.509,3.762,2.509a1.539,1.539,0,0,0,1.713,0l3.759-2.509,3.759,2.509a1.54,1.54,0,1,0,1.7-2.566l-4.609-3.065a1.538,1.538,0,0,0-1.7,0l-3.759,2.5-3.771-2.5a1.539,1.539,0,0,0-1.7,0l-3.759,2.5-3.771-2.5a1.538,1.538,0,0,0-.862-.261Z" transform="translate(0)"/></g></svg>