<svg xmlns="http://www.w3.org/2000/svg" width="73.977" height="73.976" viewBox="0 0 73.977 73.976"><g transform="translate(-1 -1)"><path d="M10.028,15.5H64.939a1,1,0,0,1,.51.139,5.535,5.535,0,0,1,5.018,5.5V63.4a1,1,0,0,1-1,1H5.5a1,1,0,0,1-1-1V21.028A5.534,5.534,0,0,1,10.028,15.5Zm54.443,2H10.028A3.532,3.532,0,0,0,6.5,21.028V62.4H68.466V21.144a3.532,3.532,0,0,0-3.528-3.528A1,1,0,0,1,64.471,17.5Z" transform="translate(0.563 2.333)" fill="#101f2d"/><path d="M73.977,56.8H2v3.6a4.859,4.859,0,0,0,4.76,4.76H69.1a4.781,4.781,0,0,0,4.76-4.76V56.8Z" transform="translate(0 8.818)" fill="#64c4f6"/><path d="M2,55.8H73.977a1,1,0,0,1,.884,1.468V60.4a5.781,5.781,0,0,1-5.76,5.76H6.76A5.858,5.858,0,0,1,1,60.4V56.8A1,1,0,0,1,2,55.8Zm70.86,2H3v2.6a3.858,3.858,0,0,0,3.76,3.76H69.1a3.781,3.781,0,0,0,3.76-3.76Z" transform="translate(0 8.818)" fill="#101f2d"/><path d="M37.891,61.4H29.3a1,1,0,1,1,0-2h8.591a1,1,0,0,1,0,2Z" transform="translate(4.393 9.397)" fill="#101f2d"/><path d="M43.707,53.211H24.9A4.41,4.41,0,0,1,29.311,48.8h10.1A4.386,4.386,0,0,1,43.707,53.211Z" transform="translate(3.685 7.531)" fill="#ef6561"/><path d="M43.707,54.211H24.9a1,1,0,0,1-1-1A5.418,5.418,0,0,1,29.311,47.8h10.1a5.2,5.2,0,0,1,3.732,1.591,5.423,5.423,0,0,1,1.563,3.821A1,1,0,0,1,43.707,54.211Zm-17.657-2H42.556A3.366,3.366,0,0,0,39.411,49.8h-10.1A3.417,3.417,0,0,0,26.05,52.211Z" transform="translate(3.685 7.531)" fill="#101f2d"/><g transform="translate(16.831 24.057)"><path d="M35.511,51.586H31.1a1,1,0,0,1-1-1V37.7a1,1,0,0,1,2,0V49.586h2.411V37.7a1,1,0,0,1,2,0V50.586A1,1,0,0,1,35.511,51.586Z" transform="translate(-12.148 -18.313)" fill="#101f2d"/><path d="M20.957,51.952a1,1,0,0,1-.707-.293,21.932,21.932,0,0,1-4.856-7.331,22.363,22.363,0,0,1,0-16.7,21.933,21.933,0,0,1,4.856-7.331,1,1,0,1,1,1.414,1.414,19.943,19.943,0,0,0-4.416,6.666,20.363,20.363,0,0,0,0,15.206,19.943,19.943,0,0,0,4.416,6.666,1,1,0,0,1-.707,1.707Z" transform="translate(-14.775 -21)" fill="#101f2d"/><path d="M45.9,51.952a1,1,0,0,1-.707-1.707,19.943,19.943,0,0,0,4.416-6.666,20.363,20.363,0,0,0,0-15.206,19.943,19.943,0,0,0-4.416-6.666,1,1,0,1,1,1.414-1.414,21.932,21.932,0,0,1,4.856,7.331,22.363,22.363,0,0,1,0,16.7,21.932,21.932,0,0,1-4.856,7.331A1,1,0,0,1,45.9,51.952Z" transform="translate(-9.767 -21)" fill="#101f2d"/><path d="M23.94,47.606a1,1,0,0,1-.707-.293,16.608,16.608,0,0,1-3.681-5.565,17.031,17.031,0,0,1,0-12.691,16.608,16.608,0,0,1,3.681-5.565,1,1,0,1,1,1.414,1.414,14.906,14.906,0,0,0,0,20.991,1,1,0,0,1-.707,1.707Z" transform="translate(-14.043 -20.485)" fill="#101f2d"/><path d="M42.7,47.606a1,1,0,0,1-.707-1.707,14.906,14.906,0,0,0,0-20.991,1,1,0,1,1,1.414-1.414,16.608,16.608,0,0,1,3.681,5.565,17.031,17.031,0,0,1,0,12.691,16.608,16.608,0,0,1-3.681,5.565A1,1,0,0,1,42.7,47.606Z" transform="translate(-10.282 -20.485)" fill="#101f2d"/><path d="M27.022,43.36a1,1,0,0,1-.707-.293,11.581,11.581,0,0,1,0-16.274,1,1,0,1,1,1.414,1.414,9.581,9.581,0,0,0,0,13.445,1,1,0,0,1-.707,1.707Z" transform="translate(-13.295 -19.954)" fill="#101f2d"/><path d="M39.4,43.36a1,1,0,0,1-.707-1.707,9.581,9.581,0,0,0,0-13.445,1,1,0,0,1,1.414-1.414,11.581,11.581,0,0,1,0,16.274A1,1,0,0,1,39.4,43.36Z" transform="translate(-10.813 -19.954)" fill="#101f2d"/></g><path d="M38.155,34.528A4.528,4.528,0,1,1,33.628,30,4.461,4.461,0,0,1,38.155,34.528Z" transform="translate(4.361 4.506)" fill="#ef6561"/><path d="M33.628,29a5.469,5.469,0,0,1,5.528,5.528A5.528,5.528,0,1,1,33.628,29Zm0,9.055a3.532,3.532,0,0,0,3.528-3.528A3.45,3.45,0,0,0,33.628,31a3.528,3.528,0,1,0,0,7.055Z" transform="translate(4.361 4.506)" fill="#101f2d"/><g transform="translate(2.58 2)"><path d="M12.072,17.849a1,1,0,0,1-1-1,1.833,1.833,0,0,0-1.786-1.786A3.837,3.837,0,0,1,5.5,11.277V10a1,1,0,1,1,2,0v1.277a1.833,1.833,0,0,0,1.786,1.786,3.837,3.837,0,0,1,3.786,3.786A1,1,0,0,1,12.072,17.849Z" transform="translate(-1.856 -0.713)" fill="#101f2d"/><path d="M7.144,1A5.644,5.644,0,1,1,1.5,6.644,5.65,5.65,0,0,1,7.144,1Zm0,9.287A3.644,3.644,0,1,0,3.5,6.644,3.648,3.648,0,0,0,7.144,10.287Z" transform="translate(-2.5 -2)" fill="#101f2d"/><path d="M26.572,17.849a1,1,0,0,1-1-1,1.833,1.833,0,0,0-1.786-1.786A3.837,3.837,0,0,1,20,11.277V10a1,1,0,1,1,2,0v1.277a1.833,1.833,0,0,0,1.786,1.786,3.837,3.837,0,0,1,3.786,3.786A1,1,0,0,1,26.572,17.849Z" transform="translate(0.477 -0.713)" fill="#101f2d"/><path d="M26.287,6.644A4.644,4.644,0,1,1,21.644,2,4.657,4.657,0,0,1,26.287,6.644Z" transform="translate(-0.167 -2)" fill="#ef6561"/><path d="M21.644,1A5.644,5.644,0,1,1,16,6.644,5.65,5.65,0,0,1,21.644,1Zm0,9.287A3.644,3.644,0,1,0,18,6.644,3.648,3.648,0,0,0,21.644,10.287Z" transform="translate(-0.167 -2)" fill="#101f2d"/><path d="M54.7,17.849a1,1,0,0,1-1-1,3.837,3.837,0,0,1,3.786-3.786,1.833,1.833,0,0,0,1.786-1.786V10a1,1,0,1,1,2,0v1.277a3.837,3.837,0,0,1-3.786,3.786A1.833,1.833,0,0,0,55.7,16.849,1,1,0,0,1,54.7,17.849Z" transform="translate(5.9 -0.713)" fill="#101f2d"/><path d="M55.5,6.644A4.644,4.644,0,1,0,60.144,2,4.657,4.657,0,0,0,55.5,6.644Z" transform="translate(6.028 -2)" fill="#64c4f6"/><path d="M60.144,1A5.644,5.644,0,1,1,54.5,6.644,5.65,5.65,0,0,1,60.144,1Zm0,9.287A3.644,3.644,0,1,0,56.5,6.644,3.648,3.648,0,0,0,60.144,10.287Z" transform="translate(6.028 -2)" fill="#101f2d"/><path d="M40.2,17.849a1,1,0,0,1-1-1,3.837,3.837,0,0,1,3.786-3.786,1.833,1.833,0,0,0,1.786-1.786V10a1,1,0,1,1,2,0v1.277a3.837,3.837,0,0,1-3.786,3.786A1.833,1.833,0,0,0,41.2,16.849,1,1,0,0,1,40.2,17.849Z" transform="translate(3.566 -0.713)" fill="#101f2d"/><path d="M45.644,1A5.644,5.644,0,1,1,40,6.644,5.65,5.65,0,0,1,45.644,1Zm0,9.287A3.644,3.644,0,1,0,42,6.644,3.648,3.648,0,0,0,45.644,10.287Z" transform="translate(3.695 -2)" fill="#101f2d"/></g></g></svg>