<svg xmlns="http://www.w3.org/2000/svg" width="95.026" height="95.03" viewBox="0 0 95.026 95.03"><g transform="translate(1.535 9.124)"><g transform="translate(0 46.055)"><path d="M38.332,299.211a16.164,16.164,0,0,1,5.9,2.445l3.145-1.4,2.708,2.708-1.4,3.144a16.161,16.161,0,0,1,2.445,5.9l3.209,1.235v3.829l-3.21,1.236a16.166,16.166,0,0,1-2.445,5.9l1.4,3.145-2.708,2.708-3.144-1.4a16.162,16.162,0,0,1-5.9,2.445L37.1,334.32H33.268l-1.236-3.21a16.165,16.165,0,0,1-5.9-2.445l-3.145,1.4-2.708-2.708,1.4-3.144a16.166,16.166,0,0,1-2.445-5.9l-3.209-1.235v-3.829l3.21-1.235a16.162,16.162,0,0,1,2.445-5.9l-1.4-3.145,2.708-2.708,3.145,1.4a16.164,16.164,0,0,1,5.9-2.445L33.268,296H37.1Z" transform="translate(-16.023 -296.001)" fill="#ffe177" fill-rule="evenodd"/><path d="M73.863,300.707l1.01-.449,2.708,2.708-1.4,3.144a16.162,16.162,0,0,1,2.445,5.9l3.209,1.235v3.829l-3.21,1.236a16.166,16.166,0,0,1-2.445,5.9l1.4,3.145-2.708,2.708-1.01-.449,2.259-2.259-1.4-3.145a16.159,16.159,0,0,0,2.445-5.9l3.21-1.236v-3.829l-3.209-1.235a16.162,16.162,0,0,0-2.445-5.9l1.4-3.144Zm-23.826,0,.449-.449,3.145,1.4q-.3.185-.6.382Zm3.594,27.958-3.145,1.4-.449-.448,3-1.331Q53.328,328.48,53.631,328.665Zm12.2-29.454a16.161,16.161,0,0,1,5.9,2.445l-.861.382a19.838,19.838,0,0,0-6.5-2.828L63.136,296h1.458Zm5.82,29.508a16.16,16.16,0,0,1-5.82,2.392l-1.235,3.209H63.136l1.235-3.209a19.833,19.833,0,0,0,6.5-2.828l.861.382C71.7,328.682,71.676,328.7,71.65,328.718Z" transform="translate(-43.52 -296.001)" fill="#ffd064" fill-rule="evenodd"/><ellipse cx="9.58" cy="9.58" rx="9.58" ry="9.58" transform="translate(5.803 16.97) rotate(-35.804)" fill="#eceff1"/><path d="M75.6,346q.342,0,.678.024a9.58,9.58,0,0,0,0,19.111q-.336.024-.678.024A9.58,9.58,0,1,1,75.6,346Z" transform="translate(-56.443 -336.421)" fill="#d1d1d6" fill-rule="evenodd"/></g><g transform="translate(58.74)"><path d="M343.748,86.6c.637-10.835,5.332-10.4,5.332-17.746a13.235,13.235,0,1,0-26.471,0c0,7.351,4.7,6.911,5.332,17.746v2.151a2.157,2.157,0,0,0,2.151,2.151h11.5a2.157,2.157,0,0,0,2.15-2.151Z" transform="translate(-322.61 -55.623)" fill="#ffe177" fill-rule="evenodd"/><path d="M395.925,86.6c.637-10.835,5.332-10.4,5.332-17.746a13.235,13.235,0,0,0-13.235-13.235c-.292,0-.582.011-.869.029a13.235,13.235,0,0,1,12.366,13.206c0,7.351-4.7,6.911-5.332,17.746v2.151a2.157,2.157,0,0,1-2.151,2.151h1.738a2.157,2.157,0,0,0,2.15-2.151Z" transform="translate(-374.787 -55.623)" fill="#ffd064" fill-rule="evenodd"/><path d="M380.649,257.7h-7.093v3.019a2.157,2.157,0,0,0,2.151,2.151H378.5a2.157,2.157,0,0,0,2.151-2.151Z" transform="translate(-363.795 -218.982)" fill="#a0a0a3" fill-rule="evenodd"/><path d="M371.4,240.589a2.157,2.157,0,0,0,2.151-2.151V235.46h-11.5v2.979a2.157,2.157,0,0,0,2.151,2.151Z" transform="translate(-354.489 -201.004)" fill="#b1b1b5" fill-rule="evenodd"/><path d="M405.376,240.589a2.157,2.157,0,0,0,2.151-2.151V235.46h-1.3v2.979a2.157,2.157,0,0,1-2.15,2.151Z" transform="translate(-388.468 -201.004)" fill="#a0a0a3" fill-rule="evenodd"/><path d="M366.249,217.328H350.443v2.151a2.157,2.157,0,0,0,2.151,2.151h11.5a2.157,2.157,0,0,0,2.15-2.151Z" transform="translate(-345.11 -186.346)" fill="#d1d1d6" fill-rule="evenodd"/><path d="M416.528,217.328H414.79v2.151a2.157,2.157,0,0,1-2.151,2.151h1.738a2.157,2.157,0,0,0,2.15-2.151Z" transform="translate(-395.39 -186.346)" fill="#b1b1b5" fill-rule="evenodd"/></g><g transform="translate(32.464 19.409)"><path d="M187.051,242.723h23.862a1.585,1.585,0,0,0,1.535-1.98,13.908,13.908,0,0,0-26.931,0,1.585,1.585,0,0,0,1.535,1.98Z" transform="translate(-185.463 -216.254)" fill="#60b7ff" fill-rule="evenodd"/><path d="M261.268,242.722a1.585,1.585,0,0,0,1.535-1.98,13.914,13.914,0,0,0-15.05-10.338,13.916,13.916,0,0,1,11.881,10.338,1.585,1.585,0,0,1-1.535,1.98Z" transform="translate(-235.819 -216.254)" fill="#41a8fc" fill-rule="evenodd"/><path d="M226.36,170.987a7.03,7.03,0,1,0-7.03-7.03A7.044,7.044,0,0,0,226.36,170.987Z" transform="translate(-212.841 -156.927)" fill="#f6dccd" fill-rule="evenodd"/><path d="M251.866,156.927a7.03,7.03,0,1,1-.985,13.991,7.03,7.03,0,0,0,0-13.922A7.107,7.107,0,0,1,251.866,156.927Z" transform="translate(-238.347 -156.927)" fill="#f1cbbc" fill-rule="evenodd"/></g></g><path d="M27.172,57.061V25.246A1.532,1.532,0,0,1,28.7,23.713H51.4L47.728,20.65A1.533,1.533,0,1,1,49.692,18.3l6.926,5.773a1.531,1.531,0,0,1,0,2.354L49.692,32.2a1.533,1.533,0,0,1-1.964-2.355L51.4,26.778H30.237V57.06a1.533,1.533,0,1,1-3.065,0ZM83.206,67.4V82.339a1.532,1.532,0,0,1-1.532,1.533h-22.7l3.675,3.063a1.533,1.533,0,0,1-1.962,2.355l-6.928-5.774a1.535,1.535,0,0,1,0-2.355l6.928-5.774a1.533,1.533,0,1,1,1.962,2.355l-3.675,3.064H80.141V67.4a1.533,1.533,0,1,1,3.065,0ZM55.527,52.127a12.341,12.341,0,0,0-12,9.343h24A12.344,12.344,0,0,0,55.527,52.127Zm-5.5-8.563a5.5,5.5,0,1,0,5.5-5.5,5.5,5.5,0,0,0-5.5,5.5Zm-9.85,19.275a1.532,1.532,0,0,0,1.523,1.7H69.35a1.531,1.531,0,0,0,1.523-1.7,15.385,15.385,0,0,0-9.8-12.756,8.563,8.563,0,1,0-11.088,0A15.387,15.387,0,0,0,40.178,62.839ZM28.7,90.387a8.047,8.047,0,1,1,8.047-8.048A8.057,8.057,0,0,1,28.7,90.387Zm0-19.16A11.113,11.113,0,1,0,39.817,82.339,11.124,11.124,0,0,0,28.7,71.227ZM46.33,83.2V81.477L44.1,80.62a1.533,1.533,0,0,1-.953-1.135,14.586,14.586,0,0,0-2.215-5.34,1.536,1.536,0,0,1-.128-1.476l.969-2.182-1.218-1.22-2.184.97a1.534,1.534,0,0,1-1.477-.129,14.576,14.576,0,0,0-5.338-2.213,1.537,1.537,0,0,1-1.136-.953l-.857-2.228H27.842l-.859,2.228a1.535,1.535,0,0,1-1.133.953,14.558,14.558,0,0,0-5.34,2.213,1.537,1.537,0,0,1-1.477.129l-2.184-.97-1.218,1.22.969,2.183a1.534,1.534,0,0,1-.129,1.476,14.572,14.572,0,0,0-2.213,5.34,1.529,1.529,0,0,1-.954,1.134l-2.227.858V83.2l2.227.858a1.525,1.525,0,0,1,.952,1.135,14.6,14.6,0,0,0,2.215,5.34,1.534,1.534,0,0,1,.129,1.476l-.969,2.182,1.218,1.219,2.184-.969a1.536,1.536,0,0,1,1.477.128,14.541,14.541,0,0,0,5.34,2.214,1.533,1.533,0,0,1,1.133.953l.859,2.228h1.724l.857-2.227a1.533,1.533,0,0,1,1.134-.953A14.581,14.581,0,0,0,36.9,94.572a1.535,1.535,0,0,1,1.477-.129l2.182.969,1.218-1.219-.969-2.183a1.534,1.534,0,0,1,.128-1.477,14.554,14.554,0,0,0,2.213-5.339,1.532,1.532,0,0,1,.955-1.135Zm2.083-4.207a1.532,1.532,0,0,1,.982,1.43v3.829a1.534,1.534,0,0,1-.982,1.431l-2.443.94a17.559,17.559,0,0,1-2.027,4.892l1.063,2.394a1.536,1.536,0,0,1-.317,1.706l-2.707,2.707a1.534,1.534,0,0,1-1.707.317l-2.393-1.063a17.551,17.551,0,0,1-4.893,2.029l-.939,2.441a1.533,1.533,0,0,1-1.431.982h-3.83a1.53,1.53,0,0,1-1.429-.982l-.941-2.442a17.559,17.559,0,0,1-4.893-2.028l-2.393,1.063a1.534,1.534,0,0,1-1.707-.317l-2.707-2.707a1.532,1.532,0,0,1-.317-1.706l1.062-2.392a17.584,17.584,0,0,1-2.027-4.894l-2.443-.94a1.531,1.531,0,0,1-.981-1.43v-3.83a1.53,1.53,0,0,1,.981-1.43l2.443-.94a17.532,17.532,0,0,1,2.029-4.893L12.4,70.767a1.531,1.531,0,0,1,.317-1.705l2.707-2.708a1.536,1.536,0,0,1,1.707-.317L19.525,67.1a17.594,17.594,0,0,1,4.893-2.029l.941-2.442a1.531,1.531,0,0,1,1.429-.982h3.83a1.534,1.534,0,0,1,1.431.982l.939,2.442A17.578,17.578,0,0,1,37.881,67.1l2.393-1.063a1.536,1.536,0,0,1,1.707.317l2.707,2.708a1.534,1.534,0,0,1,.317,1.705L43.943,73.16a17.617,17.617,0,0,1,2.029,4.894ZM102.273,22.4l-2.7,1.558a1.533,1.533,0,0,1-1.533-2.654l2.7-1.559a1.533,1.533,0,0,1,1.533,2.655Zm-12.1-7.843,1.557-2.7a1.535,1.535,0,0,1,2.66,1.533l-1.56,2.7a1.543,1.543,0,0,1-1.335.767,1.533,1.533,0,0,1-1.322-2.3ZM60.2,20.308a1.533,1.533,0,0,1,2.094-.561L65,21.306a1.533,1.533,0,1,1-1.533,2.654l-2.7-1.558A1.532,1.532,0,0,1,60.2,20.308Zm8.449-6.916a1.532,1.532,0,0,1,2.654-1.532l1.559,2.7a1.533,1.533,0,0,1-2.656,1.532Zm11.335-.741V9.534a1.533,1.533,0,1,1,3.065,0v3.117a1.533,1.533,0,1,1-3.065,0ZM85.337,32V30.458A1.543,1.543,0,1,1,86.88,32Zm5.929,4.7a21.417,21.417,0,0,0-3.26,9.872H85.338V35.066H86.88a4.608,4.608,0,1,0-4.607-4.608V32H80.766V30.458a4.608,4.608,0,1,0-4.608,4.608H77.7V46.573H75.033A21.424,21.424,0,0,0,71.771,36.7a10.845,10.845,0,0,1-1.954-6.342,11.7,11.7,0,1,1,23.4,0A10.809,10.809,0,0,1,91.267,36.7Zm-8.28,22.777H80.194a.627.627,0,0,1-.617-.618v-.619h4.028v.619A.627.627,0,0,1,82.986,59.478Zm2.207-4.3h-7.2a.625.625,0,0,1-.617-.618v-.618h8.438v.618A.627.627,0,0,1,85.193,55.177Zm2.7-5.538v.619a.627.627,0,0,1-.618.618h-11.5a.625.625,0,0,1-.617-.618v-.619Zm-5.617-3.065V35.066H80.766V46.573ZM77.7,32V30.458A1.542,1.542,0,1,0,76.158,32Zm3.819-16.408A14.782,14.782,0,0,1,96.285,30.36a13.856,13.856,0,0,1-2.372,7.89,18.885,18.885,0,0,0-2.959,9.906v2.1a3.684,3.684,0,0,1-2.079,3.311v.991a3.685,3.685,0,0,1-2.2,3.371v.931a3.689,3.689,0,0,1-3.685,3.683H80.194a3.686,3.686,0,0,1-3.682-3.683V57.93a3.685,3.685,0,0,1-2.2-3.371v-.922a3.688,3.688,0,0,1-2.223-3.38v-2.1a18.907,18.907,0,0,0-2.96-9.909,13.828,13.828,0,0,1-2.374-7.89A14.784,14.784,0,0,1,81.519,15.592Z" transform="translate(-8.012 -8.001)" fill-rule="evenodd"/></svg>