<svg xmlns="http://www.w3.org/2000/svg" width="97.513" height="98.303" viewBox="0 0 97.513 98.303"><g transform="translate(0 0)"><g transform="translate(2.563)"><path d="M16.9,87.229H37.856a.9.9,0,0,0,.881-1.079,11.6,11.6,0,0,0-22.718,0A.9.9,0,0,0,16.9,87.229Z" transform="translate(-16.001 -62.949)" fill="#8ac9fe" fill-rule="evenodd"/><path d="M78.665,87.23h2.049a.9.9,0,0,0,.882-1.079,11.6,11.6,0,0,0-11.359-9.266q-.518,0-1.024.045a11.6,11.6,0,0,1,10.334,9.221A.9.9,0,0,1,78.665,87.23Z" transform="translate(-58.859 -62.95)" fill="#60b7ff" fill-rule="evenodd"/><ellipse cx="5.861" cy="5.861" rx="5.861" ry="5.861" transform="translate(3.314 9.976) rotate(-58.28)" fill="#f6dccd"/><path d="M71.1,16.636A5.861,5.861,0,1,1,70.28,28.3a5.862,5.862,0,0,0,0-11.609A5.92,5.92,0,0,1,71.1,16.636Z" transform="translate(-59.719 -14.424)" fill="#f1cbbc" fill-rule="evenodd"/></g><g transform="translate(67.795 2.353)"><path d="M368.146,19.7a12.016,12.016,0,0,1,3.519,1.459l2.287-1.016,2.7,2.695-1.015,2.286a12.018,12.018,0,0,1,1.459,3.52l2.333.9v3.811l-2.333.9a12.016,12.016,0,0,1-1.459,3.519l1.015,2.287-2.695,2.695-2.286-1.015a12.019,12.019,0,0,1-3.52,1.459l-.9,2.333h-3.811l-.9-2.333a12.013,12.013,0,0,1-3.519-1.459l-2.287,1.016-2.695-2.695,1.015-2.286a12.018,12.018,0,0,1-1.459-3.52l-2.333-.9V29.537l2.333-.9a12.02,12.02,0,0,1,1.459-3.519l-1.015-2.286,2.695-2.695,2.287,1.016a12.019,12.019,0,0,1,3.519-1.459l.9-2.333h3.811Z" transform="translate(-351.261 -17.362)" fill="#ffe177" fill-rule="evenodd"/><path d="M380.213,41.733l-2.287,1.016-.352-.352,2.144-.952Q379.962,41.594,380.213,41.733ZM389.339,19.7a12.016,12.016,0,0,1,3.519,1.459l-.65.289a15.844,15.844,0,0,0-4.014-1.747l-.9-2.333h1.145Zm3.52,22.037a12.018,12.018,0,0,1-3.52,1.459l-.9,2.333H387.3l.9-2.333a15.841,15.841,0,0,0,4.015-1.748ZM377.574,20.492l.352-.352,2.287,1.016q-.251.138-.495.289Zm16.778,0,.793-.352,2.7,2.695-1.015,2.286a12.018,12.018,0,0,1,1.459,3.52l2.333.9v3.811l-2.333.9a12.014,12.014,0,0,1-1.459,3.519l1.015,2.287-2.7,2.695-.793-.352,2.343-2.343-1.015-2.287a12.022,12.022,0,0,0,1.459-3.519l2.333-.9V29.538l-2.333-.9a12.013,12.013,0,0,0-1.459-3.52l1.015-2.286Z" transform="translate(-372.454 -17.363)" fill="#ffd064" fill-rule="evenodd"/><path d="M391.909,50.347a7.663,7.663,0,1,0,7.663,7.663,7.663,7.663,0,0,0-7.663-7.663Z" transform="translate(-377.828 -43.929)" fill="#eceff1" fill-rule="evenodd"/><path d="M391.91,50.347a7.663,7.663,0,0,0,0,15.326q.308,0,.61-.024a7.663,7.663,0,0,1,0-15.278C392.318,50.355,392.115,50.347,391.91,50.347Z" transform="translate(-377.829 -43.929)" fill="#d1d1d6" fill-rule="evenodd"/></g><g transform="translate(30.297 24.474)"><path d="M159.532,131.05h30.379a.956.956,0,0,1,.7.29l5.564,5.564a.957.957,0,0,1,.29.7v41.608a.993.993,0,0,1-.991.991H159.532a.993.993,0,0,1-.991-.991V132.041A.993.993,0,0,1,159.532,131.05Z" transform="translate(-158.541 -131.05)" fill="#eceff1" fill-rule="evenodd"/><path d="M159.532,131.05h1.813V180.2h-1.813a.993.993,0,0,1-.991-.991V132.041A.993.993,0,0,1,159.532,131.05Z" transform="translate(-158.541 -131.05)" fill="#d1d1d6" fill-rule="evenodd"/><path d="M321.878,131.491a.993.993,0,0,1,.29.2l5.564,5.564a.993.993,0,0,1,.2.29h-5.563a.5.5,0,0,1-.5-.5v-5.563Z" transform="translate(-290.098 -131.405)" fill="#a79ba7" fill-rule="evenodd"/><path d="M179.923,179.685h5.6a.975.975,0,0,1,.973.973v5.6a.975.975,0,0,1-.973.973h-5.6a.975.975,0,0,1-.973-.973v-5.6A.975.975,0,0,1,179.923,179.685Z" transform="translate(-174.979 -170.222)" fill="#8ac9fe" fill-rule="evenodd"/><path d="M202.708,179.685h1.946a.975.975,0,0,1,.973.973v5.6a.975.975,0,0,1-.973.973h-1.946a.975.975,0,0,0,.973-.973v-5.6A.975.975,0,0,0,202.708,179.685Z" transform="translate(-194.114 -170.222)" fill="#60b7ff" fill-rule="evenodd"/><path d="M179.923,242.846h5.6a.975.975,0,0,1,.973.973v5.6a.975.975,0,0,1-.973.973h-5.6a.975.975,0,0,1-.973-.973v-5.6A.975.975,0,0,1,179.923,242.846Z" transform="translate(-174.979 -221.094)" fill="#6cf5c2" fill-rule="evenodd"/><path d="M202.708,242.846h1.946a.975.975,0,0,1,.973.973v5.6a.975.975,0,0,1-.973.973h-1.946a.975.975,0,0,0,.973-.973v-5.6A.975.975,0,0,0,202.708,242.846Z" transform="translate(-194.114 -221.094)" fill="#00e499" fill-rule="evenodd"/><path d="M179.923,306.006h5.6a.975.975,0,0,1,.973.973v5.6a.975.975,0,0,1-.973.973h-5.6a.975.975,0,0,1-.973-.973v-5.6A.975.975,0,0,1,179.923,306.006Z" transform="translate(-174.979 -271.965)" fill="#ffe177" fill-rule="evenodd"/><path d="M202.708,306.006h1.946a.975.975,0,0,1,.973.973v5.6a.975.975,0,0,1-.973.973h-1.946a.975.975,0,0,0,.973-.973v-5.6A.975.975,0,0,0,202.708,306.006Z" transform="translate(-194.114 -271.965)" fill="#ffd064" fill-rule="evenodd"/></g><g transform="translate(0 67.724)"><ellipse cx="12.709" cy="12.709" rx="12.709" ry="12.709" transform="translate(0 5.846) rotate(-13.3)" fill="#ffc338"/><path d="M76.816,366.724a12.709,12.709,0,0,1,0,25.419c-.367,0-.729-.016-1.088-.047a12.709,12.709,0,0,0,0-25.325C76.087,366.741,76.449,366.724,76.816,366.724Z" transform="translate(-61.544 -364.119)" fill="#f5b829" fill-rule="evenodd"/></g><g transform="translate(70.537 70.328)"><ellipse cx="12.709" cy="12.709" rx="12.709" ry="12.709" fill="#8ac9fe"/><path d="M426.652,366.723a12.709,12.709,0,1,1,0,25.419q-.491,0-.973-.037a12.71,12.71,0,0,0,0-25.345Q426.161,366.723,426.652,366.723Z" transform="translate(-413.942 -366.723)" fill="#60b7ff" fill-rule="evenodd"/></g></g><path d="M27.868,93.028a3.966,3.966,0,0,1-.934,3.158,5.615,5.615,0,0,1-3.109,1.7v.4a1.557,1.557,0,0,1-3.113,0v-.422a5.283,5.283,0,0,1-4.032-3.825,1.557,1.557,0,0,1,3.022-.754A2.528,2.528,0,0,0,22.4,94.929a3.173,3.173,0,0,0,2.183-.778.873.873,0,0,0,.2-.749c-.045-.372-.152-1.245-2.752-1.671-4.169-.685-4.9-3.053-4.968-4.405a4.627,4.627,0,0,1,3.653-4.675V82.2a1.557,1.557,0,0,1,3.113,0v.438a5.28,5.28,0,0,1,3.621,3.142,1.557,1.557,0,0,1-2.872,1.2,2.484,2.484,0,0,0-2.925-1.358c-.362.082-1.533.436-1.481,1.553.016.3.054,1.1,2.364,1.482,3.252.534,5.049,2,5.335,4.369Zm69.342-2.749a1.562,1.562,0,0,1-1.557,1.547h-.009L90.233,91.8a1.556,1.556,0,0,1-1.547-1.557v-6.1a1.557,1.557,0,1,1,3.113,0v4.551l3.862.021a1.561,1.561,0,0,1,1.548,1.567ZM88.871,29.743a6.107,6.107,0,1,1,6.1-6.106A6.114,6.114,0,0,1,88.871,29.743Zm0-15.326a9.219,9.219,0,1,0,9.217,9.22,9.229,9.229,0,0,0-9.217-9.22Zm12.523,10.057V22.8l-1.337-.515a1.556,1.556,0,0,1-.952-1.092,10.419,10.419,0,0,0-1.273-3.064,1.559,1.559,0,0,1-.092-1.448l.577-1.309-1.181-1.183-1.309.581a1.555,1.555,0,0,1-1.447-.1,10.5,10.5,0,0,0-3.066-1.27,1.55,1.55,0,0,1-1.092-.956l-.515-1.334H88.034l-.514,1.334a1.556,1.556,0,0,1-1.093.956,10.452,10.452,0,0,0-3.063,1.27,1.558,1.558,0,0,1-1.448.1l-1.309-.581-1.182,1.183L80,16.681a1.557,1.557,0,0,1-.1,1.45,10.449,10.449,0,0,0-1.268,3.062,1.563,1.563,0,0,1-.955,1.092l-1.337.515v1.674l1.337.514a1.56,1.56,0,0,1,.955,1.092,10.449,10.449,0,0,0,1.268,3.065,1.552,1.552,0,0,1,.1,1.448l-.58,1.309,1.182,1.182,1.309-.581a1.56,1.56,0,0,1,1.448.1,10.432,10.432,0,0,0,3.063,1.271,1.556,1.556,0,0,1,1.093.955l.514,1.335h1.673l.515-1.335a1.55,1.55,0,0,1,1.092-.955A10.449,10.449,0,0,0,94.38,32.6a1.557,1.557,0,0,1,1.447-.1l1.309.581L98.317,31.9l-.577-1.309a1.559,1.559,0,0,1,.092-1.448A10.407,10.407,0,0,0,99.1,26.079a1.562,1.562,0,0,1,.952-1.092ZM96.2,77.286a45.22,45.22,0,0,0,.568-40.958l-1.483-.66a13.55,13.55,0,0,1-2.445,1.012l-.613,1.6a1.554,1.554,0,0,1-1.451,1H86.966a1.556,1.556,0,0,1-1.453-1l-.615-1.6a13.52,13.52,0,0,1-2.438-1.012l-1.566.7a1.559,1.559,0,0,1-1.732-.323l-2.695-2.695a1.558,1.558,0,0,1-.322-1.731l.695-1.566a13.621,13.621,0,0,1-1.01-2.439L74.232,27a1.558,1.558,0,0,1-1-1.453V21.731a1.555,1.555,0,0,1,1-1.451l1.6-.615a13.494,13.494,0,0,1,1.012-2.439l-.66-1.483a45.167,45.167,0,0,0-48.6,5.649,12.957,12.957,0,0,1,6.281,9.785A1.558,1.558,0,0,1,32.314,32.9H17.62A45.2,45.2,0,0,0,16.3,77.286,14.257,14.257,0,0,1,35.223,96.2a45.22,45.22,0,0,0,42.066,0A14.255,14.255,0,0,1,96.2,77.286Zm5.192,12.954a11.152,11.152,0,1,0-11.151,11.153A11.163,11.163,0,0,0,101.394,90.24ZM22.268,101.393A11.153,11.153,0,1,0,11.115,90.24,11.164,11.164,0,0,0,22.268,101.393ZM20.935,22.684h0a9.865,9.865,0,0,1,9.487,7.1H11.446A9.867,9.867,0,0,1,20.935,22.684Zm-4.228-7.341a4.23,4.23,0,1,1,4.231,4.228h0a4.233,4.233,0,0,1-4.228-4.228ZM103.509,27a1.554,1.554,0,0,0,1-1.453V21.731a1.551,1.551,0,0,0-1-1.451l-1.593-.615a13.2,13.2,0,0,0-1.016-2.439l.7-1.565a1.546,1.546,0,0,0-.32-1.733l-2.692-2.695a1.553,1.553,0,0,0-1.731-.32l-1.566.694a13.678,13.678,0,0,0-2.445-1.012L92.229,9a1.556,1.556,0,0,0-1.451-1H86.966a1.559,1.559,0,0,0-1.453,1l-.615,1.6a13.648,13.648,0,0,0-2.438,1.012l-1.566-.694a1.554,1.554,0,0,0-1.732.32L77.48,12.913a48.292,48.292,0,0,0-49.412,4.169,7.209,7.209,0,0,0,.212-1.739A7.343,7.343,0,1,0,15.829,20.61,12.957,12.957,0,0,0,8.012,31.175,1.556,1.556,0,0,0,9.559,32.9h4.466a48.3,48.3,0,0,0-.389,46,14.259,14.259,0,1,0,19.98,19.98,48.31,48.31,0,0,0,45.28,0,14.259,14.259,0,1,0,19.981-19.98A48.342,48.342,0,0,0,99.6,35.025l1.676-1.679a1.543,1.543,0,0,0,.32-1.731l-.7-1.566a13.191,13.191,0,0,0,1.016-2.439ZM70.525,46.956a1.556,1.556,0,0,1-1.557,1.557H52.837a1.556,1.556,0,0,1,0-3.113H68.968A1.557,1.557,0,0,1,70.525,46.956Zm0-4.1a1.557,1.557,0,0,1-1.557,1.557H52.837a1.557,1.557,0,0,1,0-3.113H68.968A1.557,1.557,0,0,1,70.525,42.861Zm0,16.387A1.557,1.557,0,0,1,68.968,60.8H52.837a1.556,1.556,0,0,1,0-3.112H68.968A1.556,1.556,0,0,1,70.525,59.248Zm0-4.1a1.556,1.556,0,0,1-1.557,1.556H52.837a1.556,1.556,0,0,1,0-3.113H68.968A1.556,1.556,0,0,1,70.525,55.15Zm0,16.386a1.558,1.558,0,0,1-1.557,1.557H52.837a1.557,1.557,0,0,1,0-3.113H68.968A1.556,1.556,0,0,1,70.525,71.536Zm0-4.1A1.556,1.556,0,0,1,68.968,69H52.837a1.557,1.557,0,0,1,0-3.113H68.968A1.556,1.556,0,0,1,70.525,67.439ZM47.249,71.7H42.821V67.273h4.428ZM48.8,64.16a1.555,1.555,0,0,1,1.557,1.556v7.542A1.555,1.555,0,0,1,48.8,74.814H41.264a1.555,1.555,0,0,1-1.557-1.557V65.716a1.555,1.555,0,0,1,1.557-1.556Zm-1.556-4.748H42.821V54.985h4.428ZM48.8,51.871a1.556,1.556,0,0,1,1.557,1.557v7.541A1.557,1.557,0,0,1,48.8,62.526H41.264a1.557,1.557,0,0,1-1.557-1.557V53.428a1.556,1.556,0,0,1,1.557-1.557Zm-1.556-4.748H42.821V42.7h4.428ZM48.8,39.582a1.556,1.556,0,0,1,1.557,1.557V48.68A1.556,1.556,0,0,1,48.8,50.237H41.264a1.556,1.556,0,0,1-1.557-1.557V41.139a1.556,1.556,0,0,1,1.557-1.557ZM38.849,79.275V33.232H67.517v4.094a2.054,2.054,0,0,0,2.053,2.05h4.092v39.9H38.849ZM70.63,35.434l.83.829h-.83Zm5.9,1.707.037.078a2.548,2.548,0,0,1,.206,1.012V79.839a2.55,2.55,0,0,1-2.547,2.548H38.283a2.55,2.55,0,0,1-2.547-2.548V32.667a2.55,2.55,0,0,1,2.547-2.549H68.663a2.557,2.557,0,0,1,1.01.206c.037.016.071.034.106.051a2.546,2.546,0,0,1,.685.49l5.565,5.563a2.627,2.627,0,0,1,.5.712Z" transform="translate(-6.995 -7.468)" fill="#242222" fill-rule="evenodd"/></svg>