<svg xmlns="http://www.w3.org/2000/svg" width="68" height="68" viewBox="0 0 68 68"><g transform="translate(-1 -1)"><g transform="translate(2.097 2.097)"><g transform="translate(0 7.677)"><path d="M2,9V50.677H45.871a5.484,5.484,0,0,1,10.968,0h4.387V9Z" transform="translate(-2 -9)" fill="#e6e9ed"/></g><g transform="translate(4.387 36.194)"><path d="M6,35h4.387v8.774H6Z" transform="translate(-6 -35)" fill="#fcd770"/></g><g transform="translate(13.161 38.387)"><path d="M14,37h4.387v6.581H14Z" transform="translate(-14 -37)" fill="#fcd770"/></g><g transform="translate(21.935 29.613)"><path d="M22,29h4.387V44.355H22Z" transform="translate(-22 -29)" fill="#fcd770"/></g><g transform="translate(30.71 34)"><path d="M34.387,33v7.151a16.53,16.53,0,0,0-1.6,3.817H30V33Z" transform="translate(-30 -33)" fill="#fcd770"/></g><g transform="translate(39.484 39.484)"><path d="M47.871,38A9.872,9.872,0,0,0,38,47.871a9.871,9.871,0,0,0,19.742,0A9.872,9.872,0,0,0,47.871,38Zm0,15.355a5.484,5.484,0,1,1,5.484-5.484A5.486,5.486,0,0,1,47.871,53.355Z" transform="translate(-38 -38)" fill="#ccd1d9"/></g><g transform="translate(35.108 54.29)"><path d="M56.8,51.5l5.7,3.29a16.451,16.451,0,0,1-28.494,0l5.7-3.29a9.863,9.863,0,0,0,17.088,0Z" transform="translate(-34.01 -51.5)" fill="#fcd770"/></g><g transform="translate(49.355 32.903)"><path d="M63.452,48.452a16.325,16.325,0,0,1-2.2,8.226l-5.7-3.29a9.77,9.77,0,0,0,1.327-4.935A9.872,9.872,0,0,0,47,38.581V32A16.452,16.452,0,0,1,63.452,48.452Z" transform="translate(-47 -32)" fill="#ff826e"/></g><g transform="translate(32.903 32.903)"><path d="M48.452,32v6.581a9.872,9.872,0,0,0-9.871,9.871,9.77,9.77,0,0,0,1.327,4.935l-5.7,3.29A16.325,16.325,0,0,1,32,48.452,16.457,16.457,0,0,1,48.452,32Z" transform="translate(-32 -32)" fill="#b4dd7f"/></g><g transform="translate(26.323 21.935)"><path d="M29.74,22.647a2.145,2.145,0,0,1,.647,1.546A2.194,2.194,0,1,1,28.194,22,2.145,2.145,0,0,1,29.74,22.647Z" transform="translate(-26 -22)" fill="#ff826e"/></g><g transform="translate(36.194 12.065)"><path d="M38.74,16.74A2.194,2.194,0,0,1,35,15.194a2.194,2.194,0,0,1,4.387,0A2.145,2.145,0,0,1,38.74,16.74Z" transform="translate(-35 -13)" fill="#ff826e"/></g><g transform="translate(42.774 18.645)"><path d="M44.74,19.647a2.145,2.145,0,0,1,.647,1.546,2.194,2.194,0,1,1-4.387,0,2.187,2.187,0,0,1,3.74-1.546Z" transform="translate(-41 -19)" fill="#ff826e"/></g><g transform="translate(52.645)"><path d="M56.581,2a6.581,6.581,0,0,1,0,13.161A6.579,6.579,0,0,1,50.1,9.677a6,6,0,0,1-.1-1.1A6.586,6.586,0,0,1,56.581,2Z" transform="translate(-50 -2)" fill="#ff826e"/></g></g><g transform="translate(1 1)"><path d="M62.419,37.775V16.267a7.673,7.673,0,1,0-8.774-7.59H1V52.548H33.959a17.537,17.537,0,1,0,28.46-14.774Zm-1.1-34.581a5.484,5.484,0,1,1-5.484,5.484A5.49,5.49,0,0,1,61.323,3.194ZM3.194,10.871H53.969a7.672,7.672,0,0,0,1.214,2.4l-6.708,6.708a3.176,3.176,0,0,0-2.82,0l-2.21-2.21a3.26,3.26,0,0,0,.329-1.41,3.29,3.29,0,1,0-6.581,0,3.236,3.236,0,0,0,.33,1.409l-5.5,5.5a3.26,3.26,0,0,0-1.41-.329,3.29,3.29,0,1,0,3.29,3.29,3.236,3.236,0,0,0-.33-1.409l5.5-5.5a3.18,3.18,0,0,0,2.82,0l2.21,2.21a3.26,3.26,0,0,0-.329,1.41,3.29,3.29,0,0,0,6.581,0,3.236,3.236,0,0,0-.33-1.409l6.709-6.708a7.631,7.631,0,0,0,3.492,1.45V36.279A17.442,17.442,0,0,0,38.29,39.884V35H31.71V48.161h2.514a17.594,17.594,0,0,0-.264,2.194H3.194ZM47.065,21.839a1.1,1.1,0,1,1-1.1,1.1A1.1,1.1,0,0,1,47.065,21.839Zm-7.677-5.484a1.1,1.1,0,1,1,1.1,1.1A1.1,1.1,0,0,1,39.387,16.355ZM31.71,26.226a1.1,1.1,0,1,1-1.1-1.1A1.1,1.1,0,0,1,31.71,26.226Zm19.742,34a8.774,8.774,0,1,1,8.774-8.774A8.784,8.784,0,0,1,51.452,60.226ZM36.1,42.975a17.416,17.416,0,0,0-1.3,2.993H33.9V37.194H36.1Zm14.258-6.822V40.54a10.945,10.945,0,0,0-8.894,15.413l-3.8,2.2a15.3,15.3,0,0,1,12.7-22Zm1.1,30.654a15.347,15.347,0,0,1-12.709-6.751l3.82-2.206a10.932,10.932,0,0,0,17.779,0l3.82,2.206A15.347,15.347,0,0,1,51.452,66.806Zm13.8-8.657-3.8-2.2A10.945,10.945,0,0,0,52.548,40.54V36.153a15.3,15.3,0,0,1,12.7,22Z" transform="translate(-1 -1)"/><path d="M47.581,41a6.581,6.581,0,1,0,6.581,6.581A6.587,6.587,0,0,0,47.581,41Zm0,10.968a4.387,4.387,0,1,1,4.387-4.387A4.392,4.392,0,0,1,47.581,51.968Z" transform="translate(2.871 2.871)"/><path d="M5,12H7.194v2.194H5Z" transform="translate(-0.613 0.065)"/><path d="M9,12H24.355v2.194H9Z" transform="translate(-0.226 0.065)"/><path d="M5,16H7.194v2.194H5Z" transform="translate(-0.613 0.452)"/><path d="M9,16H24.355v2.194H9Z" transform="translate(-0.226 0.452)"/><path d="M5,20H7.194v2.194H5Z" transform="translate(-0.613 0.839)"/><path d="M9,20H24.355v2.194H9Z" transform="translate(-0.226 0.839)"/><path d="M5,24H7.194v2.194H5Z" transform="translate(-0.613 1.226)"/><path d="M9,24H24.355v2.194H9Z" transform="translate(-0.226 1.226)"/><path d="M5,44.968h6.581V34H5Zm2.194-8.774H9.387v6.581H7.194Z" transform="translate(-0.613 2.194)"/><path d="M13,44.774h6.581V36H13Zm2.194-6.581h2.194v4.387H15.194Z" transform="translate(0.161 2.387)"/><path d="M21,45.548h6.581V28H21Zm2.194-15.355h2.194V43.355H23.194Z" transform="translate(0.935 1.613)"/></g></g></svg>