<svg xmlns="http://www.w3.org/2000/svg" width="91.666" height="91.667" viewBox="0 0 91.666 91.667"><path d="M54.458,51l8.107,8.107A11.458,11.458,0,0,1,43,51Z" transform="translate(18.588 22.047)" fill="#19cffc"/><path d="M54.458,43V54.458H43A11.458,11.458,0,0,1,54.458,43Z" transform="translate(18.588 18.588)" fill="#ffc170"/><path d="M51,43a11.458,11.458,0,0,1,8.107,19.565L51,54.458Z" transform="translate(22.047 18.588)" fill="#a37862"/><path d="M22,55H44.917v5.729H22Z" transform="translate(9.51 23.776)" fill="#a37862"/><path d="M34.891,51.3l4.3-4.3,5.729,5.729v5.729H22V55.594L30.594,47Z" transform="translate(9.51 20.318)" fill="#00c8c8"/><path d="M44.917,43V54.458l-5.729-5.729-4.3,4.3-4.3-4.3L22,57.323V43Z" transform="translate(9.51 18.588)" fill="#80dbff"/><path d="M24,28h5.729V43.755H24Z" transform="translate(10.375 12.104)" fill="#19cffc"/><path d="M44.594,21V31.026H41.729V46.781H36V21Z" transform="translate(15.562 9.078)" fill="#19cffc"/><path d="M56.594,26V36.026H53.729V44.62H48V26Z" transform="translate(20.75 11.24)" fill="#19cffc"/><path d="M57.729,33v8.594H52V33h5.729Z" transform="translate(22.479 14.266)" fill="#ff7d81"/><path d="M45.729,28V43.755H40V28h5.729Z" transform="translate(17.292 12.104)" fill="#ff7d81"/><path d="M33.729,24V45.484H28V24Z" transform="translate(12.104 10.375)" fill="#ff7d81"/><path d="M5,17H22.187V45.646H5Z" transform="translate(2.161 7.349)" fill="#ffeccf"/><path d="M14,17h4.3V45.646H14Z" transform="translate(6.052 7.349)" fill="#ffc170"/><path d="M66.885,1V12.458H35.375L23.917,23.917H6.729V52.562H23.917V78.344H1V1Z" transform="translate(0.432 0.432)" fill="#ffc170"/><path d="M2,17H6.3V45.646H2Z" transform="translate(0.865 7.349)" fill="#ffac5a"/><path d="M14,37h4.3V62.781H14Z" transform="translate(6.052 15.995)" fill="#ffac5a"/><path d="M44,1h4.3V12.458H44Z" transform="translate(19.021 0.432)" fill="#ffac5a"/><path d="M14,20.458h4.3L29.755,9h-4.3Z" transform="translate(6.052 3.891)" fill="#ffac5a"/><path d="M28.458,9V20.458H17Z" transform="translate(7.349 3.891)" fill="#9c9c9c"/><path d="M24.161,74.885v5.729H47.078V57.7H24.161ZM73.8,77.263A11.458,11.458,0,1,0,65.7,80.614,11.458,11.458,0,0,0,73.8,77.263ZM82.885,9V86.344H17V20.458H28.458V9ZM72.859,51.969V43.375H69.995V33.349H61.4v18.62Zm-17.187,0V36.213H52.807V26.187H44.213V51.969Zm-17.187,0V30.484H32.755v5.729H27.026V51.969Z" transform="translate(7.349 3.891)" fill="#f0f0f0"/><g transform="translate(24.349 12.891)"><path d="M32,24h4.3V45.484H32Z" transform="translate(-10.516 -2.516)" fill="#e4e4e4"/><path d="M42.3,60.187V43H38V65.917h4.3Z" transform="translate(-7.922 5.698)" fill="#e4e4e4"/><path d="M54,26V36.026h2.865V44.62h4.3V36.026H58.3V26Z" transform="translate(-1.005 -1.651)" fill="#e4e4e4"/><path d="M21.3,45.646V17H17V82.885h4.3V45.646Z" transform="translate(-17 -5.542)" fill="#e4e4e4"/><path d="M46.3,21H42V31.026h2.865V46.781h4.3V31.026H46.3Z" transform="translate(-6.193 -3.813)" fill="#e4e4e4"/><path d="M25,9h4.3V20.458H25Z" transform="translate(-13.542 -9)" fill="#e4e4e4"/><path d="M54.648,43a11.538,11.538,0,0,0-2.148.208,11.448,11.448,0,0,1,0,22.5A11.458,11.458,0,1,0,54.648,43Z" transform="translate(-1.654 5.698)" fill="#e4e4e4"/></g><path d="M48,12h2.865v2.865H48Z" transform="translate(20.75 5.187)" fill="#848484"/><path d="M52,12H63.458v2.865H52Z" transform="translate(22.479 5.187)" fill="#848484"/><path d="M43,16H67.349v2.865H43Z" transform="translate(18.588 6.917)" fill="#848484"/><path d="M20,38H77.292v2.865H20Z" transform="translate(8.646 16.427)" fill="#848484"/><path d="M4,4H6.865V6.865H4Z" transform="translate(1.729 1.729)" fill="#ff873c"/><path d="M8,4H23.755V6.865H8Z" transform="translate(3.458 1.729)" fill="#ff873c"/><path d="M4,8H21.187v2.865H4Z" transform="translate(1.729 3.458)" fill="#ff873c"/><path d="M4,40H6.865v2.865H4Z" transform="translate(1.729 17.292)" fill="#ff873c"/><path d="M8,40H18.026v2.865H8Z" transform="translate(3.458 17.292)" fill="#ff873c"/><path d="M4,44H19.755v2.865H4Z" transform="translate(1.729 19.021)" fill="#ff873c"/><path d="M4,48H19.755v2.865H4Z" transform="translate(1.729 20.75)" fill="#ff873c"/><path d="M90.234,11.458H68.75V1.432A1.432,1.432,0,0,0,67.318,0H1.432A1.432,1.432,0,0,0,0,1.432V78.776a1.432,1.432,0,0,0,1.432,1.432H22.917V90.234a1.432,1.432,0,0,0,1.432,1.432H90.234a1.432,1.432,0,0,0,1.432-1.432V12.891A1.432,1.432,0,0,0,90.234,11.458ZM2.865,77.344V2.865H65.885v8.594H35.807a1.432,1.432,0,0,0-1.012.419L23.336,23.336a1.432,1.432,0,0,0-.42,1.013V77.344Zm31.51-61v6.568H27.806ZM88.8,88.8H25.781V25.781H35.807a1.432,1.432,0,0,0,1.432-1.432V14.323H88.8Z"/><path d="M48,12h2.865v2.865H48Z" transform="translate(20.75 5.187)"/><path d="M52,12H63.458v2.865H52Z" transform="translate(22.479 5.187)"/><path d="M43,16H67.349v2.865H43Z" transform="translate(18.588 6.917)"/><path d="M30.026,30.026h-4.3A1.432,1.432,0,0,0,24.3,31.458V45.781H20v2.865H77.292V45.781h-4.3V38.62a1.432,1.432,0,0,0-1.432-1.432H70.13V28.594A1.432,1.432,0,0,0,68.7,27.161H60.1a1.432,1.432,0,0,0-1.432,1.432V45.781H55.807V31.458a1.432,1.432,0,0,0-1.432-1.432H52.943V21.432A1.432,1.432,0,0,0,51.51,20H42.917a1.432,1.432,0,0,0-1.432,1.432V45.781H38.62V25.729A1.432,1.432,0,0,0,37.187,24.3H31.458a1.432,1.432,0,0,0-1.432,1.432Zm-2.865,2.865h2.865V45.781H27.161Zm40.1,12.891V40.052H70.13v5.729ZM61.536,30.026h5.729v7.161H65.833A1.432,1.432,0,0,0,64.4,38.62v7.161H61.536ZM50.078,45.781V32.891h2.865V45.781ZM44.349,22.865h5.729v7.161H48.646a1.432,1.432,0,0,0-1.432,1.432V45.781H44.349Zm-8.594,4.3v18.62H32.891V27.161Z" transform="translate(8.646 8.646)"/><path d="M45.349,42H22.432A1.432,1.432,0,0,0,21,43.432V66.349a1.432,1.432,0,0,0,1.432,1.432H45.349a1.432,1.432,0,0,0,1.432-1.432V43.432A1.432,1.432,0,0,0,45.349,42ZM23.865,58.348l7.161-7.161,6.149,6.149L39.2,55.31l-1.852-1.852,2.272-2.272,4.3,4.3v3.7H23.865ZM43.917,44.865v6.568l-3.284-3.284a1.432,1.432,0,0,0-2.025,0l-3.284,3.284-3.284-3.284a1.432,1.432,0,0,0-2.025,0L23.865,54.3V44.865ZM23.865,64.917V62.052H43.917v2.865Z" transform="translate(9.078 18.156)"/><path d="M54.891,42A12.891,12.891,0,1,0,67.781,54.891,12.891,12.891,0,0,0,54.891,42Zm-1.432,2.979v8.479H44.979a10.026,10.026,0,0,1,8.479-8.479ZM44.979,56.323H54.3l6.589,6.589a9.995,9.995,0,0,1-15.907-6.589Zm17.932,4.56-6.589-6.589V44.979a9.995,9.995,0,0,1,6.589,15.9Z" transform="translate(18.156 18.156)"/><path d="M4,4H6.865V6.865H4Z" transform="translate(1.729 1.729)"/><path d="M8,4H23.755V6.865H8Z" transform="translate(3.458 1.729)"/><path d="M4,8H21.187v2.865H4Z" transform="translate(1.729 3.458)"/><path d="M4,17.432V46.078A1.432,1.432,0,0,0,5.432,47.51H19.755V44.646H6.865V18.865H19.755V16H5.432A1.432,1.432,0,0,0,4,17.432Z" transform="translate(1.729 6.917)"/><path d="M4,40H6.865v2.865H4Z" transform="translate(1.729 17.292)"/><path d="M8,40H18.026v2.865H8Z" transform="translate(3.458 17.292)"/><path d="M4,44H19.755v2.865H4Z" transform="translate(1.729 19.021)"/><path d="M4,48H19.755v2.865H4Z" transform="translate(1.729 20.75)"/></svg>