<svg xmlns="http://www.w3.org/2000/svg" width="98.414" height="98.415" viewBox="0 0 98.414 98.415"><path d="M103.24,55.62A47.62,47.62,0,1,1,55.62,8,47.62,47.62,0,0,1,103.24,55.62Zm0,0" transform="translate(-6.413 -6.413)" fill="#85d3c1"/><path d="M175.747,199.873A15.873,15.873,0,1,1,159.873,184,15.873,15.873,0,0,1,175.747,199.873Zm0,0" transform="translate(-115.428 -147.491)" fill="#f5f7fa"/><path d="M134.223,190.1a15.873,15.873,0,1,0-15.873-15.873A15.879,15.879,0,0,0,134.223,190.1Zm-17.9-2.731a22.133,22.133,0,1,1,6.666,6.032A22.094,22.094,0,0,1,116.318,187.365Zm0,0" transform="translate(-89.777 -121.841)" fill="#f9d48a"/><path d="M355.1,332.651l1.873,1.873-1.73,2.6a13.056,13.056,0,0,1,1.444,3.492l3.064.6v5.3l-3.064.6a13.056,13.056,0,0,1-1.444,3.492l1.73,2.6-3.746,3.746-2.6-1.73a13.057,13.057,0,0,1-3.492,1.444l-.6,3.064h-5.3l-.6-3.064a13.057,13.057,0,0,1-3.492-1.444l-2.6,1.73-1.873-1.873-1.873-1.873,1.73-2.6a13.056,13.056,0,0,1-1.444-3.492l-3.064-.6v-5.3l3.064-.6a13.056,13.056,0,0,1,1.444-3.492l-1.73-2.6,3.746-3.746,2.6,1.73a13.055,13.055,0,0,1,3.492-1.444l.6-3.064h5.3l.6,3.064a13.054,13.054,0,0,1,3.492,1.444l2.6-1.73Zm-4.873,11.222a6.349,6.349,0,1,0-6.349,6.349A6.348,6.348,0,0,0,350.223,343.873Zm0,0" transform="translate(-262.92 -262.919)" fill="#f9d48a"/><path d="M462.349,64V92.572H456V64Zm0,0" transform="translate(-365.522 -51.301)" fill="#ff958a"/><path d="M388.7,382.349A6.349,6.349,0,1,1,382.349,376,6.35,6.35,0,0,1,388.7,382.349Zm0,0" transform="translate(-301.396 -301.396)" fill="#f5f7fa"/><path d="M398.349,128v15.873H392V128Zm0,0" transform="translate(-314.221 -102.603)" fill="#ff958a"/><path d="M177.144,20.128V31.81h-3.175V47.684H167.62V38.16h-6.349v9.524h-1.4A22.214,22.214,0,0,0,120,50.557V8h57.144Zm-34.921,6.921V14.35H126.349v12.7Zm0,0" transform="translate(-96.19 -6.413)" fill="#f5f7fa"/><path d="M328,160h6.349v9.524H328Zm0,0" transform="translate(-262.92 -128.253)" fill="#ff958a"/><path d="M152,40h15.873V52.7H152Zm0,0" transform="translate(-121.841 -32.063)" fill="#ff958a"/><path d="M119.777,336.271l-5.429,5.429L108,335.35l5.112-5.112A22.242,22.242,0,0,0,119.777,336.271Zm0,0" transform="translate(-86.571 -264.714)" fill="#f5f7fa"/><path d="M151.16,417.349l1.73-2.6a13.056,13.056,0,0,1-1.444-3.492l-3.064-.6V408h-9.524l-6.349,6.349H103.937l-.015.015a47.479,47.479,0,0,0,9.539,5.54,45.959,45.959,0,0,0,9.4,2.984,47.8,47.8,0,0,0,19.3,0,46.171,46.171,0,0,0,10.873-3.667Zm0,0" transform="translate(-83.302 -327.046)" fill="#ff958a"/><path d="M34.191,362.349,15.667,380.873a4.49,4.49,0,1,1-6.349-6.349L27.842,356Zm0,0" transform="translate(-6.413 -285.364)" fill="#f9d48a"/><path d="M375.937,368a7.937,7.937,0,1,0,7.937,7.937A7.946,7.946,0,0,0,375.937,368Zm0,12.7a4.762,4.762,0,1,1,4.762-4.762A4.768,4.768,0,0,1,375.937,380.7Zm0,0" transform="translate(-294.983 -294.983)" fill="#232323"/><path d="M216,256h3.175v3.175H216Zm0,0" transform="translate(-173.142 -205.205)" fill="#232323"/><path d="M248,256h3.175v3.175H248Zm0,0" transform="translate(-198.793 -205.205)" fill="#232323"/><path d="M184,256h3.175v3.175H184Zm0,0" transform="translate(-147.491 -205.205)" fill="#232323"/><path d="M163.048,32H144V47.873h19.048Zm-3.175,12.7h-12.7V35.175h12.7Zm0,0" transform="translate(-115.428 -25.651)" fill="#232323"/><path d="M256,32h25.4v3.175H256Zm0,0" transform="translate(-205.205 -25.651)" fill="#232323"/><path d="M256,64h25.4v3.175H256Zm0,0" transform="translate(-205.205 -51.301)" fill="#232323"/><path d="M369.266,96h2.924v3.175h-2.924Zm0,0" transform="translate(-295.998 -76.952)" fill="#232323"/><path d="M256,96h19.081v3.175H256Zm0,0" transform="translate(-205.205 -76.952)" fill="#232323"/><path d="M98.414,11.111H88.89v9.054a49.314,49.314,0,0,0-6.349-7.123V0H22.223V8.076A49.169,49.169,0,0,0,10.389,79.432L1.78,88.041a6.076,6.076,0,1,0,8.594,8.592l8.609-8.608A49.3,49.3,0,0,0,49.207,98.414a48.7,48.7,0,0,0,20.178-4.336L71.4,96.091l2.884-1.922a14.742,14.742,0,0,0,2.043.846l.681,3.4h7.9l.68-3.4a14.936,14.936,0,0,0,2.043-.846l2.884,1.922,5.584-5.581L94.17,87.626a14.839,14.839,0,0,0,.846-2.045l3.4-.681V77.006l-3.4-.681a15.033,15.033,0,0,0-.846-2.045L96.092,71.4l-2.013-2.011a48.738,48.738,0,0,0,4.335-20.178,49.71,49.71,0,0,0-.45-6.349h.45Zm-6.349,3.175H95.24v25.4H92.065ZM88.89,25.893V39.683H85.716V23.81H82.541V17.461A46.073,46.073,0,0,1,88.89,25.893Zm-11.884,37.6-.68,3.4a14.935,14.935,0,0,0-2.043.846L71.4,65.817,65.815,71.4l1.924,2.884a14.839,14.839,0,0,0-.846,2.045l-3.4.681v2.359H54.9L48.55,85.716H21.293l6.486-6.486,2.846,2.846,2.245-2.245-2.846-2.846L33.5,73.506A23.781,23.781,0,0,0,66.253,42.858H79.366V63.493Zm-45.26,25.4H38.1v4.96a46.074,46.074,0,0,1-6.349-2.1Zm-3.175,1.418c-.894-.448-1.778-.911-2.641-1.418h2.641Zm12.7-1.418H47.62v6.281a46.019,46.019,0,0,1-6.349-.625Zm9.524-.93,5.419-5.419h.93V94.559a46.247,46.247,0,0,1-6.349.639ZM44.445,31.747A20.635,20.635,0,1,1,23.81,52.382,20.659,20.659,0,0,1,44.445,31.747Zm25.4,7.937H66.668V33.334h3.175ZM30.717,71.8l-2.938,2.938-4.1-4.1,2.744-2.744a24.039,24.039,0,0,0,4.3,3.911ZM82.541,26.985v12.7H79.367v-12.7ZM79.367,3.175V23.81H76.192V39.683H73.017V30.159H63.493v8a23.72,23.72,0,0,0-38.1,0V3.175ZM3.175,49.207a45.808,45.808,0,0,1,19.048-37.3v32A23.577,23.577,0,0,0,24.491,65.33l-3.062,3.062-2.846-2.846L16.338,67.79l2.846,2.846-6.511,6.511a46.1,46.1,0,0,1-9.5-27.94ZM8.129,94.39a2.9,2.9,0,0,1-4.954-2.054,2.885,2.885,0,0,1,.849-2.052l17.4-17.4,4.1,4.1Zm52.19-.511V82.541h3.175V84.9l3.4.681a15.036,15.036,0,0,0,.846,2.045L65.815,90.51l1.169,1.168a45.225,45.225,0,0,1-6.666,2.2ZM95.24,79.609V82.3l-2.772.555-.244.97a11.555,11.555,0,0,1-1.273,3.07l-.514.86,1.57,2.352-1.9,1.9-2.352-1.568-.86.512a11.606,11.606,0,0,1-3.072,1.272l-.97.246L82.3,95.24H79.611l-.553-2.772-.97-.246a11.565,11.565,0,0,1-3.072-1.272l-.86-.512L71.8,92.006l-1.9-1.9,1.57-2.352-.514-.86a11.654,11.654,0,0,1-1.273-3.07l-.244-.97L66.668,82.3V79.611l2.772-.555.244-.97a11.555,11.555,0,0,1,1.273-3.07l.514-.86L69.9,71.8l1.9-1.9,2.352,1.568.86-.512a11.606,11.606,0,0,1,3.072-1.272l.97-.246.553-2.772H82.3l.553,2.772.97.246a11.565,11.565,0,0,1,3.072,1.272l.86.512L90.1,69.9,92,71.8l-1.57,2.352.514.86a11.654,11.654,0,0,1,1.273,3.07l.244.97Zm0-30.4a45.614,45.614,0,0,1-3.564,17.778l-1.168-1.169-2.884,1.922a14.741,14.741,0,0,0-2.043-.846l-.68-3.4h-2.36V42.858H94.769a46.611,46.611,0,0,1,.471,6.349Zm0,0" fill="#232323"/><path d="M153.461,210.921A17.461,17.461,0,1,0,136,193.461,17.481,17.481,0,0,0,153.461,210.921Zm0-31.747a14.286,14.286,0,1,1-14.286,14.286A14.3,14.3,0,0,1,153.461,179.175Zm0,0" transform="translate(-109.015 -141.079)" fill="#232323"/></svg>