<svg xmlns="http://www.w3.org/2000/svg" width="101.589" height="87.438" viewBox="0 0 101.589 87.438"><g transform="translate(1.488 3.905)"><path d="M29.6,62.8A11.395,11.395,0,1,0,18.1,78.058c.264.017.534.028.8.028A11.379,11.379,0,0,0,29.6,62.8Z" transform="translate(-7.5 -55.344)" fill="#9be69d" fill-rule="evenodd"/><path d="M389.583,66.714a11.386,11.386,0,0,0,11.4,11.371c.27,0,.534-.011.8-.028A11.372,11.372,0,1,0,390.275,62.81,11.231,11.231,0,0,0,389.583,66.714Z" transform="translate(-313.772 -55.343)" fill="#99e6fc" fill-rule="evenodd"/><path d="M412.385,353.406a11.388,11.388,0,0,0-10.6-11.343c-.264-.017-.529-.028-.8-.028a11.371,11.371,0,1,0,11.4,11.371Z" transform="translate(-313.772 -285.151)" fill="#ffd15b" fill-rule="evenodd"/><path d="M29.61,357.311A11.383,11.383,0,0,0,18.9,342.035c-.27,0-.54.011-.8.028A11.373,11.373,0,1,0,29.61,357.311Z" transform="translate(-7.5 -285.151)" fill="#fd4755" fill-rule="evenodd"/><path d="M159.061,128.074a23.014,23.014,0,0,0-6.029-2.5v-2.451a2.14,2.14,0,0,0-2.132-2.132h-7.137a2.141,2.141,0,0,0-2.137,2.132v2.451a23.093,23.093,0,0,0-6.029,2.5l-1.743-1.739a2.143,2.143,0,0,0-3.02,0l-5.045,5.032a2.139,2.139,0,0,0,0,3.013l1.743,1.739a22.694,22.694,0,0,0-2.5,6.014h-2.464a2.141,2.141,0,0,0-2.137,2.132v7.113a2.141,2.141,0,0,0,2.137,2.132h2.464a22.77,22.77,0,0,0,2.5,6.014l-1.743,1.739a2.139,2.139,0,0,0,0,3.013l5.045,5.032a2.153,2.153,0,0,0,3.02,0l1.743-1.739a22.885,22.885,0,0,0,6.029,2.491v2.457a2.141,2.141,0,0,0,2.137,2.132H150.9a2.14,2.14,0,0,0,2.132-2.132v-2.457a22.818,22.818,0,0,0,6.029-2.491l1.743,1.739a2.153,2.153,0,0,0,3.02,0l5.045-5.032a2.129,2.129,0,0,0,0-3.013l-1.743-1.739a22.97,22.97,0,0,0,2.5-6.014h2.458a2.141,2.141,0,0,0,2.137-2.132v-7.113a2.141,2.141,0,0,0-2.137-2.132h-2.458a22.892,22.892,0,0,0-2.5-6.014l1.743-1.739a2.129,2.129,0,0,0,0-3.013l-5.045-5.032a2.143,2.143,0,0,0-3.02,0Z" transform="translate(-98.024 -107.968)" fill="#3c87d0" fill-rule="evenodd"/><path d="M292.95,145.119c6.9,5.161,9.089,13.38,9.089,21.761s-4.078,16.016-9.089,21.761a22.631,22.631,0,0,0,4.4-2.014l1.743,1.739a2.153,2.153,0,0,0,3.02,0l5.045-5.032a2.129,2.129,0,0,0,0-3.013l-1.743-1.739a22.97,22.97,0,0,0,2.5-6.014h2.458a2.141,2.141,0,0,0,2.137-2.132v-7.113a2.141,2.141,0,0,0-2.137-2.132h-2.458a22.891,22.891,0,0,0-2.5-6.014l1.743-1.739a2.129,2.129,0,0,0,0-3.013l-5.045-5.032a2.143,2.143,0,0,0-3.02,0l-1.743,1.739A22.641,22.641,0,0,0,292.95,145.119Z" transform="translate(-236.312 -127.027)" fill="#4f66d0" fill-rule="evenodd"/><path d="M193.733,192.777a13.241,13.241,0,1,1-1.322,18.658A13.289,13.289,0,0,1,193.733,192.777Z" transform="translate(-153.119 -162.916)" fill="#f2fbff" fill-rule="evenodd"/><path d="M221.57,221.131a7.319,7.319,0,1,1-.731,10.316A7.349,7.349,0,0,1,221.57,221.131Z" transform="translate(-177.069 -186.804)" fill="#99e6fc" fill-rule="evenodd"/><path d="M247.775,225.455a7.29,7.29,0,0,1-2.5,6.109l-.112.1a7.294,7.294,0,0,1-4.111,1.672,7.323,7.323,0,0,0,7.767-1.167,5.76,5.76,0,0,0,.534-.511,7.314,7.314,0,0,0-5.917-12.3,7.375,7.375,0,0,1,2.57,1.9A7.3,7.3,0,0,1,247.775,225.455Z" transform="translate(-194.708 -186.792)" fill="#62dbfb" fill-rule="evenodd"/><path d="M250.771,193.839a13.2,13.2,0,0,1-.208,17.565,13.707,13.707,0,0,1-1.119,1.094,13.227,13.227,0,0,1-7.717,3.2,13.227,13.227,0,0,0,11.491-2.906.1.1,0,0,1,.028-.022,13.225,13.225,0,0,0-9.663-23.18A13.212,13.212,0,0,1,250.771,193.839Z" transform="translate(-195.253 -162.923)" fill="#dff6fd" fill-rule="evenodd"/><path d="M298.6,330.025a3.947,3.947,0,0,0-1.17,5.453l3.442,5.313a3.949,3.949,0,0,0,6.637-4.28l-3.442-5.313A3.971,3.971,0,0,0,298.6,330.025Z" transform="translate(-239.395 -275.02)" fill="#d77f4a" fill-rule="evenodd"/><path d="M305.031,332.661l3.442,5.313a3.942,3.942,0,0,1-.152,4.5,4.14,4.14,0,0,0,1.181-.511,3.952,3.952,0,0,0,1.17-5.453L307.23,331.2a3.95,3.95,0,0,0-6.485-.219A3.97,3.97,0,0,1,305.031,332.661Z" transform="translate(-242.56 -275.019)" fill="#c86d36" fill-rule="evenodd"/></g><g transform="translate(0 0)"><path d="M214.583,214.014h0a8.817,8.817,0,1,0,12.44.884A8.85,8.85,0,0,0,214.583,214.014Zm11.6,7.064a5.772,5.772,0,0,1-2,3.984,5.85,5.85,0,0,1-8.24-.582,5.81,5.81,0,0,1,.582-8.215,5.868,5.868,0,0,1,8.247.586A5.769,5.769,0,0,1,226.187,221.078Z" transform="translate(-169.568 -176.908)"/><path d="M166.074,148.991a3.627,3.627,0,0,0,3.625-3.621v-7.113a3.626,3.626,0,0,0-3.625-3.619h-1.333a24.436,24.436,0,0,0-1.776-4.271l.942-.94a3.617,3.617,0,0,0,0-5.121l-5.045-5.033a3.638,3.638,0,0,0-5.123,0l-.945.944a24.549,24.549,0,0,0-4.287-1.775V117.12a3.623,3.623,0,0,0-3.619-3.619h-7.139a3.626,3.626,0,0,0-3.625,3.619v1.325a24.584,24.584,0,0,0-4.287,1.775l-.943-.942a3.631,3.631,0,0,0-5.124,0l-5.05,5.036a3.634,3.634,0,0,0,0,5.118l.943.94a24.145,24.145,0,0,0-1.774,4.27h-1.337a3.626,3.626,0,0,0-3.625,3.619v7.113a3.627,3.627,0,0,0,3.625,3.621h1.337a24.2,24.2,0,0,0,1.773,4.27l-.943.94a3.623,3.623,0,0,0,0,5.119l5.048,5.034a3.636,3.636,0,0,0,5.119,0l.946-.944a24.371,24.371,0,0,0,4.287,1.771v1.329a3.626,3.626,0,0,0,3.625,3.619h7.139a3.623,3.623,0,0,0,3.619-3.619v-1.329q.643-.2,1.275-.429l2.455,3.79a5.435,5.435,0,0,0,9.884-1.817,5.379,5.379,0,0,0-.749-4.081l-.312-.482,2.846-2.838a3.615,3.615,0,0,0,0-5.12l-.942-.94a24.489,24.489,0,0,0,1.776-4.271h1.334ZM149.03,150.68a11.805,11.805,0,0,1-16.6-1.176,11.713,11.713,0,0,1,1.173-16.556h0a11.814,11.814,0,0,1,16.611,1.175,11.72,11.72,0,0,1-1.178,16.556ZM159.21,166.1a2.437,2.437,0,0,1-1.06,1.549,2.48,2.48,0,0,1-3.415-.729l-3.443-5.314a2.459,2.459,0,0,1,.728-3.391h0a2.469,2.469,0,0,1,3.41.732l3.443,5.314a2.423,2.423,0,0,1,.335,1.84Zm2.965-18.971a21.513,21.513,0,0,1-2.34,5.625,1.488,1.488,0,0,0,.228,1.814l1.746,1.742a.627.627,0,0,1,.184.446.638.638,0,0,1-.188.455l-2.4,2.393-1.475-2.277a5.455,5.455,0,0,0-6.256-2.217l-1.165-1.8c.158-.126.315-.254.47-.388a14.7,14.7,0,0,0,1.476-20.76,14.8,14.8,0,0,0-20.8-1.473h0a14.729,14.729,0,0,0,16.354,24.228l1.2,1.846a5.457,5.457,0,0,0-.952,5.364c-.527.179-1.061.337-1.6.472a1.488,1.488,0,0,0-1.124,1.443v2.458a.651.651,0,0,1-.643.643h-7.139a.654.654,0,0,1-.649-.643v-2.458a1.488,1.488,0,0,0-1.122-1.442,21.408,21.408,0,0,1-5.638-2.328,1.488,1.488,0,0,0-1.809.227l-1.742,1.738a.661.661,0,0,1-.918,0l-5.043-5.029a.65.65,0,0,1,0-.907l1.744-1.738a1.488,1.488,0,0,0,.228-1.816,21.236,21.236,0,0,1-2.335-5.62,1.488,1.488,0,0,0-1.442-1.12h-2.465a.656.656,0,0,1-.649-.645v-7.113a.655.655,0,0,1,.649-.643h2.464a1.488,1.488,0,0,0,1.442-1.121,21.176,21.176,0,0,1,2.334-5.619,1.488,1.488,0,0,0-.228-1.816l-1.74-1.734a.648.648,0,0,1,0-.911l5.046-5.032a.65.65,0,0,1,.46-.188.641.641,0,0,1,.457.187l1.742,1.74a1.488,1.488,0,0,0,1.811.227,21.615,21.615,0,0,1,5.642-2.337,1.488,1.488,0,0,0,1.117-1.441v-2.45a.654.654,0,0,1,.649-.643h7.139a.651.651,0,0,1,.643.643v2.45a1.488,1.488,0,0,0,1.118,1.441,21.574,21.574,0,0,1,5.641,2.337,1.488,1.488,0,0,0,1.811-.227l1.74-1.738a.655.655,0,0,1,.921,0l5.044,5.032a.641.641,0,0,1,0,.907l-1.742,1.738a1.488,1.488,0,0,0-.228,1.815,21.463,21.463,0,0,1,2.34,5.624,1.488,1.488,0,0,0,1.441,1.117h2.458a.655.655,0,0,1,.649.643v7.113a.656.656,0,0,1-.649.645h-2.458A1.489,1.489,0,0,0,162.174,147.131Z" transform="translate(-90.523 -98.056)"/><path d="M394.972,334.535a12.859,12.859,0,1,0,0,25.719,1.488,1.488,0,0,0,0-2.976,9.9,9.9,0,1,1,5.878-1.926,1.488,1.488,0,1,0,1.764,2.4,12.853,12.853,0,0,0-7.643-23.213Z" transform="translate(-306.272 -275.233)"/><path d="M12.889,334.535a12.859,12.859,0,1,0,12.883,12.859A12.889,12.889,0,0,0,12.889,334.535Zm0,22.742a9.883,9.883,0,1,1,9.907-9.883A9.909,9.909,0,0,1,12.889,357.277Z" transform="translate(0 -275.233)"/><path d="M394.972,73.562A12.859,12.859,0,1,0,382.083,60.7,12.889,12.889,0,0,0,394.972,73.562Zm0-22.742a9.883,9.883,0,1,1-9.913,9.883A9.909,9.909,0,0,1,394.972,50.819Z" transform="translate(-306.272 -45.426)"/><path d="M12.889,73.562a12.859,12.859,0,1,0,0-25.719,1.488,1.488,0,0,0,0,2.976,9.9,9.9,0,1,1-5.846,1.9,1.488,1.488,0,0,0-1.75-2.408,12.853,12.853,0,0,0,7.6,23.246Z" transform="translate(0 -45.426)"/><path d="M45.287,92.071a4.529,4.529,0,0,0,4.619-3.521c.273-1.539-.419-3.544-3.18-4.557-1.271-.471-2.458-.977-2.857-1.15a.565.565,0,0,1-.181-.522.9.9,0,0,1,.721-.708,3.379,3.379,0,0,1,2.77.642,1.488,1.488,0,0,0,1.9-2.289,6.362,6.362,0,0,0-5.529-1.2A3.881,3.881,0,0,0,40.743,81.9a3.528,3.528,0,0,0,1.57,3.493,1.5,1.5,0,0,0,.213.116c.062.027,1.522.67,3.17,1.281.33.121,1.4.569,1.279,1.244A1.645,1.645,0,0,1,45.287,89.1,3.521,3.521,0,0,1,42.7,88.018a1.488,1.488,0,1,0-2.2,2A6.539,6.539,0,0,0,45.287,92.071Z" transform="translate(-32.151 -70.027)"/><path d="M418.014,96.636a1.488,1.488,0,0,0,1.4,1h.009a1.488,1.488,0,0,0,1.4-.987l1.054-2.947,1,2.928a1.488,1.488,0,0,0,1.4,1.006h.006a1.488,1.488,0,0,0,1.4-.995l2.424-6.9a1.488,1.488,0,0,0-2.808-.987l-1,2.852-.99-2.891a1.488,1.488,0,0,0-2.809-.019l-1.058,2.958-.993-2.885a1.488,1.488,0,1,0-2.814.969Z" transform="translate(-333.106 -77.385)"/><path d="M38.769,366.766a6.467,6.467,0,1,0,6.477,6.464A6.481,6.481,0,0,0,38.769,366.766Zm0,9.958a3.491,3.491,0,1,1,3.5-3.493A3.5,3.5,0,0,1,38.769,376.724Z" transform="translate(-25.88 -301.069)"/><path d="M433.255,370.046H428.1a1.488,1.488,0,1,0,0,2.976h1.077v7.819a1.488,1.488,0,1,0,2.976,0v-7.819h1.1a1.488,1.488,0,0,0,0-2.976Z" transform="translate(-341.968 -303.698)"/><path d="M183.532,431.667a40.881,40.881,0,0,1-41.706,0,1.488,1.488,0,0,0-1.519,2.559,43.856,43.856,0,0,0,44.741.007,1.488,1.488,0,0,0-1.516-2.562Z" transform="translate(-111.883 -352.922)"/><path d="M456.027,219.063A1.486,1.486,0,0,0,457.843,218a43.782,43.782,0,0,0-.011-22.052,1.488,1.488,0,1,0-2.88.751,40.8,40.8,0,0,1,.011,20.549A1.488,1.488,0,0,0,456.027,219.063Z" transform="translate(-364.643 -163.251)"/><path d="M38.419,194.855a1.488,1.488,0,0,0-1.816,1.064,43.784,43.784,0,0,0,.011,22.052,1.488,1.488,0,0,0,2.88-.751,40.8,40.8,0,0,1-.011-20.55A1.488,1.488,0,0,0,38.419,194.855Z" transform="translate(-28.214 -163.229)"/><path d="M141.794,44.353a40.894,40.894,0,0,1,41.712,0,1.488,1.488,0,0,0,1.519-2.559,43.869,43.869,0,0,0-44.747-.007,1.488,1.488,0,0,0,1.516,2.562Z" transform="translate(-111.859 -35.66)"/></g></svg>