<svg xmlns="http://www.w3.org/2000/svg" width="101.589" height="97.427" viewBox="0 0 101.589 97.427"><g transform="translate(1.488 1.488)"><g transform="translate(0 9.62)"><path d="M7.5,66.474V149.32A1.984,1.984,0,0,0,9.484,151.3h92.083a1.984,1.984,0,0,0,1.984-1.984V66.474Z" transform="translate(-7.5 -66.474)" fill="#f9f3f1"/></g><g transform="translate(85.815 9.62)"><path d="M441.984,66.474V149.32A1.984,1.984,0,0,1,440,151.3h8.252a1.984,1.984,0,0,0,1.984-1.984V66.474Z" transform="translate(-440 -66.474)" fill="#f3eae6"/></g><path d="M101.567,17.989H9.484A1.984,1.984,0,0,0,7.5,19.973v7.834h96.051V19.973A1.984,1.984,0,0,0,101.567,17.989Z" transform="translate(-7.5 -17.989)" fill="#26a6fe"/><g transform="translate(85.815)"><path d="M448.252,17.989H440a1.984,1.984,0,0,1,1.984,1.984v7.834h8.252V19.973A1.984,1.984,0,0,0,448.252,17.989Z" transform="translate(-440 -17.989)" fill="#0593fc"/></g><path d="M9.484,17.989A1.984,1.984,0,0,0,7.5,19.973v7.834H21.054V17.989Z" transform="translate(-7.5 -17.989)" fill="#60b7ff"/><g transform="translate(28.443 16.383)"><g transform="translate(39.112 39.112)"><path d="M355.676,310.019l4.634-4.634a.794.794,0,0,1,.173-.127l-7.581-7.581a24.562,24.562,0,0,1-4.934,4.934l7.581,7.581A.8.8,0,0,1,355.676,310.019Z" transform="translate(-347.968 -297.676)" fill="#acacac"/></g><g transform="translate(42.304 39.261)"><path d="M373.067,305.848a.99.99,0,0,1,.167-.133l-7.286-7.286a24.713,24.713,0,0,1-1.891,2.232l7.1,7.1Z" transform="translate(-364.057 -298.429)" fill="#9c9c9c"/></g><g transform="translate(46.389 46.39)"><path d="M407.177,356.886a4.269,4.269,0,0,1-6.037,0l-16.2-16.2a.992.992,0,0,1,0-1.4l4.634-4.634a.992.992,0,0,1,1.4,0l16.2,16.2A4.269,4.269,0,0,1,407.177,356.886Z" transform="translate(-384.646 -334.355)" fill="#838383"/></g><g transform="translate(49.591 46.39)"><path d="M420.112,350.849l-16.2-16.2a.992.992,0,0,0-1.4,0l-1.723,1.723,14.438,14.438a4.256,4.256,0,0,1-.6,6.534,4.267,4.267,0,0,0,5.492-6.493Z" transform="translate(-400.783 -334.355)" fill="#5a5a5a"/></g><g transform="translate(0 0)"><ellipse cx="24.546" cy="24.546" rx="24.546" ry="24.546" fill="#26a6fe"/></g><g transform="translate(20.395 0)"><path d="M257.788,100.556a24.7,24.7,0,0,0-4.152.351,24.565,24.565,0,0,1,16.81,11.419,17.983,17.983,0,0,1,0,25.552,24.565,24.565,0,0,1-16.81,11.419,24.548,24.548,0,1,0,4.152-48.742Z" transform="translate(-253.636 -100.556)" fill="#0593fc"/></g><g transform="translate(6.561 6.561)"><ellipse cx="17.986" cy="17.986" rx="17.986" ry="17.986" fill="#ffd15b"/><g transform="translate(17.986 17.986)"><path d="M274.56,224.268l12.718,12.718a17.93,17.93,0,0,0,5.268-12.718Z" transform="translate(-274.56 -224.268)" fill="#05e39c"/></g><g transform="translate(17.986)"><path d="M274.56,133.621v17.986h17.986A17.986,17.986,0,0,0,274.56,133.621Z" transform="translate(-274.56 -133.621)" fill="#fd8087"/></g></g></g><g transform="translate(10.301 59.732)"><g transform="translate(0 11.986)"><path d="M65.411,380.116v14.161H59.417V380.116a.673.673,0,0,1,.673-.673h4.647A.673.673,0,0,1,65.411,380.116Z" transform="translate(-59.417 -379.443)" fill="#ffd15b"/></g><g transform="translate(11.987)"><path d="M125.826,319.708v26.147h-5.994V319.708a.673.673,0,0,1,.673-.673h4.647A.673.673,0,0,1,125.826,319.708Z" transform="translate(-119.832 -319.035)" fill="#05e39c"/></g><g transform="translate(23.974 9.178)"><path d="M186.24,365.966v16.969h-5.994V365.966a.673.673,0,0,1,.673-.673h4.647A.673.673,0,0,1,186.24,365.966Z" transform="translate(-180.246 -365.293)" fill="#ffd15b"/></g><g transform="translate(35.962 15.094)"><path d="M246.655,395.78v11.053h-5.994V395.78a.673.673,0,0,1,.673-.673h4.647A.673.673,0,0,1,246.655,395.78Z" transform="translate(-240.661 -395.107)" fill="#fe646f"/></g></g><g transform="translate(7.044 19.21)"><ellipse cx="6.51" cy="6.51" rx="6.51" ry="6.51" fill="#05e39c"/></g><g transform="translate(11.471 19.21)"><path d="M67.394,114.807a6.5,6.5,0,0,0-2.083.343,6.51,6.51,0,0,1,0,12.335,6.51,6.51,0,1,0,2.083-12.678Z" transform="translate(-65.311 -114.807)" fill="#0ed290"/></g></g><g transform="translate(0 0)"><path d="M99.9,90.19l-.875-.875V13.961a3.476,3.476,0,0,0-3.472-3.472H83.419a1.488,1.488,0,1,0,0,2.976H95.555a.5.5,0,0,1,.5.5v6.346H16.53V13.465H76.475a1.488,1.488,0,0,0,0-2.976h-73A3.476,3.476,0,0,0,0,13.961v90.482a3.476,3.476,0,0,0,3.472,3.472H95.555a3.476,3.476,0,0,0,3.472-3.472V99.052a5.821,5.821,0,0,0,.875-.72,5.757,5.757,0,0,0,0-8.142ZM2.976,13.961a.5.5,0,0,1,.5-.5H13.554v6.842H2.976Zm93.075,90.482a.5.5,0,0,1-.5.5H3.472a.5.5,0,0,1-.5-.5V23.284H96.051V86.339L83.7,73.988a2.471,2.471,0,0,0-1.825-.722L76.06,67.451a25.987,25.987,0,0,0-3.066-32.826l3.764-3.764H90.282a1.488,1.488,0,1,0,0-2.976H76.142a1.487,1.487,0,0,0-1.052.436l-4.306,4.306a26,26,0,0,0-38.571,6.8l-2.778-2.778a1.488,1.488,0,0,0-1.052-.436H22.9a8,8,0,1,0,0,2.976h4.867l2.991,2.991A26.026,26.026,0,0,0,69.022,74.489L74.837,80.3a2.471,2.471,0,0,0,.722,1.825l16.2,16.2a5.72,5.72,0,0,0,4.071,1.686c.073,0,.146,0,.219-.005ZM55.965,51.418V36.479a16.4,16.4,0,0,1,8.014,2.952l-3.4,3.4a1.488,1.488,0,1,0,2.1,2.1l3.571-3.571A16.446,16.446,0,0,1,70.9,51.418ZM70.9,54.394a16.421,16.421,0,0,1-3.764,9.071l-9.071-9.071ZM66.112,37.3a19.457,19.457,0,0,0-29.074,6.949L34.388,41.6a23.034,23.034,0,0,1,34.279-6.855Zm-30.272,9.96A19.412,19.412,0,0,0,35,52.906a19.671,19.671,0,0,0,.258,3.17,1.488,1.488,0,0,0,2.937-.481,16.688,16.688,0,0,1-.219-2.689,16.5,16.5,0,0,1,.312-3.2l1.045,1.045a1.488,1.488,0,0,0,2.1-2.1l-2.159-2.159A16.534,16.534,0,0,1,52.989,36.479V52.906a1.484,1.484,0,0,0,.436,1.053L65.037,65.57A16.484,16.484,0,0,1,40.429,61.56,1.488,1.488,0,0,0,37.9,63.123,19.471,19.471,0,1,0,68.358,39.262l2.533-2.533a23.05,23.05,0,1,1-37.865,7.717Zm38.4,22.579L79.29,74.89l-2.83,2.83-5.053-5.053A26.241,26.241,0,0,0,74.238,69.837ZM20.064,37.7a5.022,5.022,0,1,1-5.022-5.022A5.028,5.028,0,0,1,20.064,37.7ZM97.8,96.228a2.781,2.781,0,0,1-3.933,0L78.014,80.376l3.933-3.933L97.8,92.295a2.781,2.781,0,0,1,0,3.933Z" transform="translate(0 -10.489)"/><path d="M418.178,131.45h-7.63a1.488,1.488,0,1,0,0,2.976h7.63a1.488,1.488,0,1,0,0-2.976Z" transform="translate(-327.896 -107.449)"/><path d="M418.178,164.738h-7.63a1.488,1.488,0,1,0,0,2.976h7.63a1.488,1.488,0,1,0,0-2.976Z" transform="translate(-327.896 -134.133)"/><path d="M85.458,338.356H83.689V328.79a2.164,2.164,0,0,0-2.161-2.161H76.88a2.164,2.164,0,0,0-2.161,2.161v9.565H71.7V322.875a2.164,2.164,0,0,0-2.161-2.161H64.893a2.164,2.164,0,0,0-2.161,2.161v15.481H59.715V313.7a2.164,2.164,0,0,0-2.161-2.161H52.906a2.164,2.164,0,0,0-2.161,2.161v8.447a1.488,1.488,0,0,0,2.976,0v-7.632h3.018v23.844H53.721v-9.268a1.488,1.488,0,1,0-2.976,0v9.268H47.727V325.682a2.164,2.164,0,0,0-2.161-2.161H40.919a2.164,2.164,0,0,0-2.161,2.161v12.673H36.988a1.488,1.488,0,1,0,0,2.976h48.47a1.488,1.488,0,1,0,0-2.976Zm-40.707,0H41.734V326.5h3.018Zm23.974,0H65.708V323.689h3.018Zm11.987,0H77.7v-8.751h3.018Z" transform="translate(-28.456 -251.803)"/><path d="M36.988,211.4H48.514a1.488,1.488,0,1,0,0-2.976H36.988a1.488,1.488,0,1,0,0,2.976Z" transform="translate(-28.456 -169.154)"/><path d="M36.988,242.6H48.514a1.488,1.488,0,0,0,0-2.976H36.988a1.488,1.488,0,0,0,0,2.976Z" transform="translate(-28.456 -194.161)"/><path d="M36.988,273.8h7.98a1.488,1.488,0,0,0,0-2.976h-7.98a1.488,1.488,0,0,0,0,2.976Z" transform="translate(-28.456 -219.168)"/><path d="M325.18,415.511H311.306a1.488,1.488,0,1,0,0,2.976H325.18a1.488,1.488,0,0,0,0-2.976Z" transform="translate(-248.345 -335.148)"/><path d="M320.911,446.708h-9.605a1.488,1.488,0,1,0,0,2.976h9.605a1.488,1.488,0,1,0,0-2.976Z" transform="translate(-248.345 -360.155)"/></g></svg>